G04 EAGLE Gerber RS-274X export*
G75*
%MOMM*%
%FSLAX34Y34*%
%LPD*%
%INSolderpaste Top*%
%IPPOS*%
%AMOC8*
5,1,8,0,0,1.08239X$1,22.5*%
G01*
%ADD10R,2.184400X0.558800*%
%ADD11R,1.270000X0.558800*%
%ADD12R,0.558800X1.270000*%
%ADD13R,1.100000X1.000000*%
%ADD14R,1.100000X1.900000*%
%ADD15R,1.150000X2.200000*%


D10*
X480822Y38100D03*
X480822Y50800D03*
X480822Y63500D03*
X480822Y76200D03*
X480822Y88900D03*
X480822Y101600D03*
X480822Y114300D03*
X480822Y127000D03*
X433578Y127000D03*
X433578Y114300D03*
X433578Y101600D03*
X433578Y88900D03*
X433578Y76200D03*
X433578Y63500D03*
X433578Y50800D03*
X433578Y38100D03*
D11*
G36*
X348487Y265850D02*
X357466Y274829D01*
X361417Y270878D01*
X352438Y261899D01*
X348487Y265850D01*
G37*
G36*
X342830Y271507D02*
X351809Y280486D01*
X355760Y276535D01*
X346781Y267556D01*
X342830Y271507D01*
G37*
G36*
X337174Y277164D02*
X346153Y286143D01*
X350104Y282192D01*
X341125Y273213D01*
X337174Y277164D01*
G37*
G36*
X331517Y282821D02*
X340496Y291800D01*
X344447Y287849D01*
X335468Y278870D01*
X331517Y282821D01*
G37*
G36*
X325860Y288478D02*
X334839Y297457D01*
X338790Y293506D01*
X329811Y284527D01*
X325860Y288478D01*
G37*
G36*
X320203Y294135D02*
X329182Y303114D01*
X333133Y299163D01*
X324154Y290184D01*
X320203Y294135D01*
G37*
G36*
X314546Y299791D02*
X323525Y308770D01*
X327476Y304819D01*
X318497Y295840D01*
X314546Y299791D01*
G37*
G36*
X308889Y305448D02*
X317868Y314427D01*
X321819Y310476D01*
X312840Y301497D01*
X308889Y305448D01*
G37*
D12*
G36*
X287781Y310476D02*
X291732Y314427D01*
X300711Y305448D01*
X296760Y301497D01*
X287781Y310476D01*
G37*
G36*
X282124Y304819D02*
X286075Y308770D01*
X295054Y299791D01*
X291103Y295840D01*
X282124Y304819D01*
G37*
G36*
X276467Y299163D02*
X280418Y303114D01*
X289397Y294135D01*
X285446Y290184D01*
X276467Y299163D01*
G37*
G36*
X270810Y293506D02*
X274761Y297457D01*
X283740Y288478D01*
X279789Y284527D01*
X270810Y293506D01*
G37*
G36*
X265153Y287849D02*
X269104Y291800D01*
X278083Y282821D01*
X274132Y278870D01*
X265153Y287849D01*
G37*
G36*
X259496Y282192D02*
X263447Y286143D01*
X272426Y277164D01*
X268475Y273213D01*
X259496Y282192D01*
G37*
G36*
X253840Y276535D02*
X257791Y280486D01*
X266770Y271507D01*
X262819Y267556D01*
X253840Y276535D01*
G37*
G36*
X248183Y270878D02*
X252134Y274829D01*
X261113Y265850D01*
X257162Y261899D01*
X248183Y270878D01*
G37*
D11*
G36*
X248183Y244742D02*
X257162Y253721D01*
X261113Y249770D01*
X252134Y240791D01*
X248183Y244742D01*
G37*
G36*
X253840Y239085D02*
X262819Y248064D01*
X266770Y244113D01*
X257791Y235134D01*
X253840Y239085D01*
G37*
G36*
X259496Y233428D02*
X268475Y242407D01*
X272426Y238456D01*
X263447Y229477D01*
X259496Y233428D01*
G37*
G36*
X265153Y227771D02*
X274132Y236750D01*
X278083Y232799D01*
X269104Y223820D01*
X265153Y227771D01*
G37*
G36*
X270810Y222114D02*
X279789Y231093D01*
X283740Y227142D01*
X274761Y218163D01*
X270810Y222114D01*
G37*
G36*
X276467Y216457D02*
X285446Y225436D01*
X289397Y221485D01*
X280418Y212506D01*
X276467Y216457D01*
G37*
G36*
X282124Y210801D02*
X291103Y219780D01*
X295054Y215829D01*
X286075Y206850D01*
X282124Y210801D01*
G37*
G36*
X287781Y205144D02*
X296760Y214123D01*
X300711Y210172D01*
X291732Y201193D01*
X287781Y205144D01*
G37*
D12*
G36*
X308889Y210172D02*
X312840Y214123D01*
X321819Y205144D01*
X317868Y201193D01*
X308889Y210172D01*
G37*
G36*
X314546Y215829D02*
X318497Y219780D01*
X327476Y210801D01*
X323525Y206850D01*
X314546Y215829D01*
G37*
G36*
X320203Y221485D02*
X324154Y225436D01*
X333133Y216457D01*
X329182Y212506D01*
X320203Y221485D01*
G37*
G36*
X325860Y227142D02*
X329811Y231093D01*
X338790Y222114D01*
X334839Y218163D01*
X325860Y227142D01*
G37*
G36*
X331517Y232799D02*
X335468Y236750D01*
X344447Y227771D01*
X340496Y223820D01*
X331517Y232799D01*
G37*
G36*
X337174Y238456D02*
X341125Y242407D01*
X350104Y233428D01*
X346153Y229477D01*
X337174Y238456D01*
G37*
G36*
X342830Y244113D02*
X346781Y248064D01*
X355760Y239085D01*
X351809Y235134D01*
X342830Y244113D01*
G37*
G36*
X348487Y249770D02*
X352438Y253721D01*
X361417Y244742D01*
X357466Y240791D01*
X348487Y249770D01*
G37*
D10*
X109728Y288290D03*
X109728Y275590D03*
X109728Y262890D03*
X109728Y250190D03*
X109728Y237490D03*
X109728Y224790D03*
X109728Y212090D03*
X109728Y199390D03*
X156972Y199390D03*
X156972Y212090D03*
X156972Y224790D03*
X156972Y237490D03*
X156972Y250190D03*
X156972Y262890D03*
X156972Y275590D03*
X156972Y288290D03*
D13*
X419980Y284480D03*
X402980Y284480D03*
X419980Y307340D03*
X402980Y307340D03*
X141850Y307340D03*
X124850Y307340D03*
X448700Y19050D03*
X465700Y19050D03*
X381390Y247650D03*
X398390Y247650D03*
X359800Y209550D03*
X376800Y209550D03*
X374260Y307340D03*
X357260Y307340D03*
X442350Y218440D03*
X459350Y218440D03*
X442350Y240030D03*
X459350Y240030D03*
X224400Y290830D03*
X207400Y290830D03*
X35950Y308610D03*
X52950Y308610D03*
X35950Y289560D03*
X52950Y289560D03*
D14*
X463366Y265980D03*
X440366Y302980D03*
X440366Y265980D03*
X463366Y302980D03*
D15*
X497840Y303480D03*
X497840Y265480D03*
M02*
