M48
;GenerationSoftware,Autodesk,EAGLE,9.6.2*%
;CreationDate,2021-06-29T00:45:01Z*%
FMAT,2
ICI,OFF
METRIC,TZ,000.000
T4C0.350
T3C0.600
T2C0.900
T1C1.016
%
G90
M71
T1
X5842Y10668
X8382Y10668
X5842Y8128
X8382Y8128
X5842Y5588
X8382Y5588
X43307Y15494
X43307Y18034
T2
X1286Y23256
X1286Y31256
X1286Y1256
X1286Y3256
X1286Y5256
X1286Y7256
X1286Y9256
X1286Y11256
X1286Y13256
X1286Y15256
X1286Y17256
X1286Y19256
X1286Y21256
X54626Y29256
X1286Y25256
X1286Y27256
X1286Y29256
X54626Y31256
X54626Y1256
X54626Y3256
X54626Y5256
X54626Y7256
X54626Y9256
X54626Y11256
X54626Y13256
X54626Y15256
X54626Y17256
X54626Y19256
X54626Y21256
X54626Y23256
X54626Y25256
X54626Y27256
T3
X39370Y15875
X39370Y3175
T4
X42545Y2540
X52070Y16256
X52070Y18288
X15748Y30289
X10160Y29908
X34544Y29718
X37846Y26416
X51054Y21844
X5842Y22479
X5842Y27368
X36513Y25781
X6985Y13081
X6985Y30797
X32004Y24130
X6858Y28956
X29464Y23114
X30734Y23622
X10414Y15494
X7023Y22504
X11900Y18600
X37200Y18600
X30480Y28194
X21844Y21527
X40640Y20765
X23241Y20765
X46355Y10160
X28956Y25146
X10414Y12382
X5842Y21209
X23177Y27241
X5842Y17780
X19050Y24638
X20447Y25463
X5842Y19939
X21781Y26352
X45085Y5080
X29972Y27178
X20511Y22288
X19114Y23050
X17780Y23812
X41735Y7620
X33274Y31051
X45085Y8890
X30988Y29210
X45085Y6350
X29464Y26162
X36576Y28956
X25400Y29400
X52578Y24384
X51562Y30988
X48006Y29718
X10414Y16764
X38862Y30734
X13335Y29146
X7874Y28956
X49276Y20066
X38227Y28194
X11112Y30797
X50482Y13970
X38862Y1778
X49530Y1905
X39370Y20955
X8763Y14859
M30