G04 EAGLE Gerber RS-274X export*
G75*
%MOMM*%
%FSLAX34Y34*%
%LPD*%
%INBottom Copper*%
%IPPOS*%
%AMOC8*
5,1,8,0,0,1.08239X$1,22.5*%
G01*
%ADD10C,1.408000*%
%ADD11C,1.879600*%
%ADD12C,1.108000*%
%ADD13R,1.270000X0.660400*%
%ADD14C,0.756400*%
%ADD15C,0.304800*%
%ADD16C,0.406400*%

G36*
X536954Y10164D02*
X536954Y10164D01*
X536973Y10162D01*
X537075Y10184D01*
X537177Y10200D01*
X537194Y10210D01*
X537214Y10214D01*
X537303Y10267D01*
X537394Y10316D01*
X537408Y10330D01*
X537425Y10340D01*
X537492Y10419D01*
X537564Y10494D01*
X537572Y10512D01*
X537585Y10527D01*
X537624Y10623D01*
X537667Y10717D01*
X537669Y10737D01*
X537677Y10755D01*
X537695Y10922D01*
X537695Y14264D01*
X538999Y17412D01*
X541408Y19821D01*
X544556Y21125D01*
X547078Y21125D01*
X547098Y21128D01*
X547117Y21126D01*
X547219Y21148D01*
X547321Y21164D01*
X547338Y21174D01*
X547358Y21178D01*
X547447Y21231D01*
X547538Y21280D01*
X547552Y21294D01*
X547569Y21304D01*
X547636Y21383D01*
X547707Y21458D01*
X547716Y21476D01*
X547729Y21491D01*
X547768Y21587D01*
X547811Y21681D01*
X547813Y21701D01*
X547821Y21719D01*
X547839Y21886D01*
X547839Y23234D01*
X547836Y23254D01*
X547838Y23273D01*
X547816Y23375D01*
X547799Y23477D01*
X547790Y23494D01*
X547786Y23514D01*
X547733Y23603D01*
X547684Y23694D01*
X547670Y23708D01*
X547660Y23725D01*
X547581Y23792D01*
X547506Y23864D01*
X547488Y23872D01*
X547473Y23885D01*
X547377Y23924D01*
X547283Y23967D01*
X547263Y23969D01*
X547245Y23977D01*
X547078Y23995D01*
X544556Y23995D01*
X541408Y25299D01*
X538999Y27708D01*
X537695Y30856D01*
X537695Y34264D01*
X538999Y37412D01*
X541408Y39821D01*
X544556Y41125D01*
X547078Y41125D01*
X547098Y41128D01*
X547117Y41126D01*
X547219Y41148D01*
X547321Y41164D01*
X547338Y41174D01*
X547358Y41178D01*
X547447Y41231D01*
X547538Y41280D01*
X547552Y41294D01*
X547569Y41304D01*
X547636Y41383D01*
X547707Y41458D01*
X547716Y41476D01*
X547729Y41491D01*
X547768Y41587D01*
X547811Y41681D01*
X547813Y41701D01*
X547821Y41719D01*
X547839Y41886D01*
X547839Y43234D01*
X547836Y43254D01*
X547838Y43273D01*
X547816Y43375D01*
X547799Y43477D01*
X547790Y43494D01*
X547786Y43514D01*
X547733Y43603D01*
X547684Y43694D01*
X547670Y43708D01*
X547660Y43725D01*
X547581Y43792D01*
X547506Y43864D01*
X547488Y43872D01*
X547473Y43885D01*
X547377Y43924D01*
X547283Y43967D01*
X547263Y43969D01*
X547245Y43977D01*
X547078Y43995D01*
X544556Y43995D01*
X541408Y45299D01*
X538999Y47708D01*
X537695Y50856D01*
X537695Y54264D01*
X538999Y57412D01*
X541408Y59821D01*
X544556Y61125D01*
X547078Y61125D01*
X547098Y61128D01*
X547117Y61126D01*
X547219Y61148D01*
X547321Y61164D01*
X547338Y61174D01*
X547358Y61178D01*
X547447Y61231D01*
X547538Y61280D01*
X547552Y61294D01*
X547569Y61304D01*
X547636Y61383D01*
X547707Y61458D01*
X547716Y61476D01*
X547729Y61491D01*
X547768Y61587D01*
X547811Y61681D01*
X547813Y61701D01*
X547821Y61719D01*
X547839Y61886D01*
X547839Y63234D01*
X547836Y63254D01*
X547838Y63273D01*
X547816Y63375D01*
X547799Y63477D01*
X547790Y63494D01*
X547786Y63514D01*
X547733Y63603D01*
X547684Y63694D01*
X547670Y63708D01*
X547660Y63725D01*
X547581Y63792D01*
X547506Y63864D01*
X547488Y63872D01*
X547473Y63885D01*
X547377Y63924D01*
X547283Y63967D01*
X547263Y63969D01*
X547245Y63977D01*
X547078Y63995D01*
X544556Y63995D01*
X541408Y65299D01*
X538999Y67708D01*
X537695Y70856D01*
X537695Y74264D01*
X538999Y77412D01*
X541408Y79821D01*
X544556Y81125D01*
X547078Y81125D01*
X547098Y81128D01*
X547117Y81126D01*
X547219Y81148D01*
X547321Y81164D01*
X547338Y81174D01*
X547358Y81178D01*
X547447Y81231D01*
X547538Y81280D01*
X547552Y81294D01*
X547569Y81304D01*
X547636Y81383D01*
X547707Y81458D01*
X547716Y81476D01*
X547729Y81491D01*
X547768Y81587D01*
X547811Y81681D01*
X547813Y81701D01*
X547821Y81719D01*
X547839Y81886D01*
X547839Y83234D01*
X547836Y83254D01*
X547838Y83273D01*
X547816Y83375D01*
X547799Y83477D01*
X547790Y83494D01*
X547786Y83514D01*
X547733Y83603D01*
X547684Y83694D01*
X547670Y83708D01*
X547660Y83725D01*
X547581Y83792D01*
X547506Y83864D01*
X547488Y83872D01*
X547473Y83885D01*
X547377Y83924D01*
X547283Y83967D01*
X547263Y83969D01*
X547245Y83977D01*
X547078Y83995D01*
X544556Y83995D01*
X541408Y85299D01*
X538999Y87708D01*
X537695Y90856D01*
X537695Y94264D01*
X538999Y97412D01*
X541408Y99821D01*
X544556Y101125D01*
X547078Y101125D01*
X547098Y101128D01*
X547117Y101126D01*
X547219Y101148D01*
X547321Y101164D01*
X547338Y101174D01*
X547358Y101178D01*
X547447Y101231D01*
X547538Y101280D01*
X547552Y101294D01*
X547569Y101304D01*
X547636Y101383D01*
X547707Y101458D01*
X547716Y101476D01*
X547729Y101491D01*
X547768Y101587D01*
X547811Y101681D01*
X547813Y101701D01*
X547821Y101719D01*
X547839Y101886D01*
X547839Y103234D01*
X547836Y103254D01*
X547838Y103273D01*
X547816Y103375D01*
X547799Y103477D01*
X547790Y103494D01*
X547786Y103514D01*
X547733Y103603D01*
X547684Y103694D01*
X547670Y103708D01*
X547660Y103725D01*
X547581Y103792D01*
X547506Y103864D01*
X547488Y103872D01*
X547473Y103885D01*
X547377Y103924D01*
X547283Y103967D01*
X547263Y103969D01*
X547245Y103977D01*
X547078Y103995D01*
X544556Y103995D01*
X541408Y105299D01*
X538999Y107708D01*
X537695Y110856D01*
X537695Y114264D01*
X538999Y117412D01*
X541408Y119821D01*
X544556Y121125D01*
X547078Y121125D01*
X547098Y121128D01*
X547117Y121126D01*
X547219Y121148D01*
X547321Y121164D01*
X547338Y121174D01*
X547358Y121178D01*
X547447Y121231D01*
X547538Y121280D01*
X547552Y121294D01*
X547569Y121304D01*
X547636Y121383D01*
X547707Y121458D01*
X547716Y121476D01*
X547729Y121491D01*
X547768Y121587D01*
X547811Y121681D01*
X547813Y121701D01*
X547821Y121719D01*
X547839Y121886D01*
X547839Y123234D01*
X547836Y123254D01*
X547838Y123273D01*
X547816Y123375D01*
X547799Y123477D01*
X547790Y123494D01*
X547786Y123514D01*
X547733Y123603D01*
X547684Y123694D01*
X547670Y123708D01*
X547660Y123725D01*
X547581Y123792D01*
X547506Y123864D01*
X547488Y123872D01*
X547473Y123885D01*
X547377Y123924D01*
X547283Y123967D01*
X547263Y123969D01*
X547245Y123977D01*
X547078Y123995D01*
X544556Y123995D01*
X541408Y125299D01*
X538999Y127708D01*
X537695Y130856D01*
X537695Y134264D01*
X538999Y137412D01*
X541408Y139821D01*
X544556Y141125D01*
X547078Y141125D01*
X547098Y141128D01*
X547117Y141126D01*
X547219Y141148D01*
X547321Y141164D01*
X547338Y141174D01*
X547358Y141178D01*
X547447Y141231D01*
X547538Y141280D01*
X547552Y141294D01*
X547569Y141304D01*
X547636Y141383D01*
X547707Y141458D01*
X547716Y141476D01*
X547729Y141491D01*
X547768Y141587D01*
X547811Y141681D01*
X547813Y141701D01*
X547821Y141719D01*
X547839Y141886D01*
X547839Y143234D01*
X547836Y143254D01*
X547838Y143273D01*
X547816Y143375D01*
X547799Y143477D01*
X547790Y143494D01*
X547786Y143514D01*
X547733Y143603D01*
X547684Y143694D01*
X547670Y143708D01*
X547660Y143725D01*
X547581Y143792D01*
X547506Y143864D01*
X547488Y143872D01*
X547473Y143885D01*
X547377Y143924D01*
X547283Y143967D01*
X547263Y143969D01*
X547245Y143977D01*
X547078Y143995D01*
X544556Y143995D01*
X541408Y145299D01*
X538999Y147708D01*
X537695Y150856D01*
X537695Y154264D01*
X538999Y157412D01*
X541408Y159821D01*
X544556Y161125D01*
X547078Y161125D01*
X547098Y161128D01*
X547117Y161126D01*
X547219Y161148D01*
X547321Y161164D01*
X547338Y161174D01*
X547358Y161178D01*
X547447Y161231D01*
X547538Y161280D01*
X547552Y161294D01*
X547569Y161304D01*
X547636Y161383D01*
X547707Y161458D01*
X547716Y161476D01*
X547729Y161491D01*
X547768Y161587D01*
X547811Y161681D01*
X547813Y161701D01*
X547821Y161719D01*
X547839Y161886D01*
X547839Y163234D01*
X547836Y163254D01*
X547838Y163273D01*
X547816Y163375D01*
X547799Y163477D01*
X547790Y163494D01*
X547786Y163514D01*
X547733Y163603D01*
X547684Y163694D01*
X547670Y163708D01*
X547660Y163725D01*
X547581Y163792D01*
X547506Y163864D01*
X547488Y163872D01*
X547473Y163885D01*
X547377Y163924D01*
X547283Y163967D01*
X547263Y163969D01*
X547245Y163977D01*
X547078Y163995D01*
X544556Y163995D01*
X541408Y165299D01*
X538999Y167708D01*
X537695Y170856D01*
X537695Y174264D01*
X538999Y177412D01*
X541408Y179821D01*
X544556Y181125D01*
X547078Y181125D01*
X547098Y181128D01*
X547117Y181126D01*
X547219Y181148D01*
X547321Y181164D01*
X547338Y181174D01*
X547358Y181178D01*
X547447Y181231D01*
X547538Y181280D01*
X547552Y181294D01*
X547569Y181304D01*
X547636Y181383D01*
X547707Y181458D01*
X547716Y181476D01*
X547729Y181491D01*
X547768Y181587D01*
X547811Y181681D01*
X547813Y181701D01*
X547821Y181719D01*
X547839Y181886D01*
X547839Y183234D01*
X547836Y183254D01*
X547838Y183273D01*
X547816Y183375D01*
X547799Y183477D01*
X547790Y183494D01*
X547786Y183514D01*
X547733Y183603D01*
X547684Y183694D01*
X547670Y183708D01*
X547660Y183725D01*
X547581Y183792D01*
X547506Y183864D01*
X547488Y183872D01*
X547473Y183885D01*
X547377Y183924D01*
X547283Y183967D01*
X547263Y183969D01*
X547245Y183977D01*
X547078Y183995D01*
X544556Y183995D01*
X541408Y185299D01*
X538999Y187708D01*
X537695Y190856D01*
X537695Y194264D01*
X538999Y197412D01*
X541408Y199821D01*
X544556Y201125D01*
X547078Y201125D01*
X547098Y201128D01*
X547117Y201126D01*
X547219Y201148D01*
X547321Y201164D01*
X547338Y201174D01*
X547358Y201178D01*
X547447Y201231D01*
X547538Y201280D01*
X547552Y201294D01*
X547569Y201304D01*
X547636Y201383D01*
X547707Y201458D01*
X547716Y201476D01*
X547729Y201491D01*
X547768Y201587D01*
X547811Y201681D01*
X547813Y201701D01*
X547821Y201719D01*
X547839Y201886D01*
X547839Y203234D01*
X547836Y203254D01*
X547838Y203273D01*
X547816Y203375D01*
X547799Y203477D01*
X547790Y203494D01*
X547786Y203514D01*
X547733Y203603D01*
X547684Y203694D01*
X547670Y203708D01*
X547660Y203725D01*
X547581Y203792D01*
X547506Y203864D01*
X547488Y203872D01*
X547473Y203885D01*
X547377Y203924D01*
X547283Y203967D01*
X547263Y203969D01*
X547245Y203977D01*
X547078Y203995D01*
X544556Y203995D01*
X541408Y205299D01*
X538999Y207708D01*
X537695Y210856D01*
X537695Y214264D01*
X538999Y217412D01*
X541408Y219821D01*
X544556Y221125D01*
X547078Y221125D01*
X547098Y221128D01*
X547117Y221126D01*
X547219Y221148D01*
X547321Y221164D01*
X547338Y221174D01*
X547358Y221178D01*
X547447Y221231D01*
X547538Y221280D01*
X547552Y221294D01*
X547569Y221304D01*
X547636Y221383D01*
X547707Y221458D01*
X547716Y221476D01*
X547729Y221491D01*
X547768Y221587D01*
X547811Y221681D01*
X547813Y221701D01*
X547821Y221719D01*
X547839Y221886D01*
X547839Y223234D01*
X547836Y223254D01*
X547838Y223273D01*
X547816Y223375D01*
X547799Y223477D01*
X547790Y223494D01*
X547786Y223514D01*
X547733Y223603D01*
X547684Y223694D01*
X547670Y223708D01*
X547660Y223725D01*
X547581Y223792D01*
X547506Y223864D01*
X547488Y223872D01*
X547473Y223885D01*
X547377Y223924D01*
X547283Y223967D01*
X547263Y223969D01*
X547245Y223977D01*
X547078Y223995D01*
X544556Y223995D01*
X541408Y225299D01*
X538999Y227708D01*
X537695Y230856D01*
X537695Y234264D01*
X538999Y237412D01*
X541408Y239821D01*
X544556Y241125D01*
X547078Y241125D01*
X547098Y241128D01*
X547117Y241126D01*
X547219Y241148D01*
X547321Y241164D01*
X547338Y241174D01*
X547358Y241178D01*
X547447Y241231D01*
X547538Y241280D01*
X547552Y241294D01*
X547569Y241304D01*
X547636Y241383D01*
X547707Y241458D01*
X547716Y241476D01*
X547729Y241491D01*
X547768Y241587D01*
X547811Y241681D01*
X547813Y241701D01*
X547821Y241719D01*
X547839Y241886D01*
X547839Y242219D01*
X547834Y242253D01*
X547834Y242257D01*
X547829Y242283D01*
X547826Y242300D01*
X547822Y242382D01*
X547806Y242420D01*
X547799Y242461D01*
X547783Y242492D01*
X547783Y251798D01*
X547780Y251818D01*
X547782Y251837D01*
X547760Y251939D01*
X547743Y252041D01*
X547734Y252058D01*
X547730Y252078D01*
X547677Y252167D01*
X547628Y252258D01*
X547614Y252272D01*
X547604Y252289D01*
X547525Y252356D01*
X547450Y252427D01*
X547432Y252436D01*
X547417Y252449D01*
X547321Y252487D01*
X547227Y252531D01*
X547207Y252533D01*
X547189Y252541D01*
X547022Y252559D01*
X546259Y252559D01*
X546259Y252561D01*
X547022Y252561D01*
X547042Y252564D01*
X547061Y252562D01*
X547163Y252584D01*
X547265Y252601D01*
X547282Y252610D01*
X547302Y252614D01*
X547391Y252667D01*
X547482Y252716D01*
X547496Y252730D01*
X547513Y252740D01*
X547580Y252819D01*
X547651Y252894D01*
X547660Y252912D01*
X547673Y252927D01*
X547712Y253023D01*
X547755Y253117D01*
X547757Y253137D01*
X547765Y253155D01*
X547783Y253322D01*
X547783Y262634D01*
X547790Y262658D01*
X547795Y262672D01*
X547807Y262697D01*
X547808Y262702D01*
X547821Y262735D01*
X547827Y262789D01*
X547834Y262816D01*
X547833Y262845D01*
X547839Y262901D01*
X547839Y263234D01*
X547836Y263254D01*
X547838Y263273D01*
X547816Y263375D01*
X547799Y263477D01*
X547790Y263494D01*
X547786Y263514D01*
X547733Y263603D01*
X547684Y263694D01*
X547670Y263708D01*
X547660Y263725D01*
X547581Y263792D01*
X547506Y263864D01*
X547488Y263872D01*
X547473Y263885D01*
X547377Y263924D01*
X547283Y263967D01*
X547263Y263969D01*
X547245Y263977D01*
X547078Y263995D01*
X544556Y263995D01*
X541408Y265299D01*
X538999Y267708D01*
X537695Y270856D01*
X537695Y274264D01*
X538999Y277412D01*
X541408Y279821D01*
X544556Y281125D01*
X547078Y281125D01*
X547098Y281128D01*
X547117Y281126D01*
X547219Y281148D01*
X547321Y281164D01*
X547338Y281174D01*
X547358Y281178D01*
X547447Y281231D01*
X547538Y281280D01*
X547552Y281294D01*
X547569Y281304D01*
X547636Y281383D01*
X547707Y281458D01*
X547716Y281476D01*
X547729Y281491D01*
X547768Y281587D01*
X547811Y281681D01*
X547813Y281701D01*
X547821Y281719D01*
X547839Y281886D01*
X547839Y283234D01*
X547836Y283254D01*
X547838Y283273D01*
X547816Y283375D01*
X547799Y283477D01*
X547790Y283494D01*
X547786Y283514D01*
X547733Y283603D01*
X547684Y283694D01*
X547670Y283708D01*
X547660Y283725D01*
X547581Y283792D01*
X547506Y283864D01*
X547488Y283872D01*
X547473Y283885D01*
X547377Y283924D01*
X547283Y283967D01*
X547263Y283969D01*
X547245Y283977D01*
X547078Y283995D01*
X544556Y283995D01*
X541408Y285299D01*
X538999Y287708D01*
X537695Y290856D01*
X537695Y294264D01*
X538999Y297412D01*
X541408Y299821D01*
X544556Y301125D01*
X547078Y301125D01*
X547098Y301128D01*
X547117Y301126D01*
X547219Y301148D01*
X547321Y301164D01*
X547338Y301174D01*
X547358Y301178D01*
X547447Y301231D01*
X547538Y301280D01*
X547552Y301294D01*
X547569Y301304D01*
X547636Y301383D01*
X547707Y301458D01*
X547716Y301476D01*
X547729Y301491D01*
X547768Y301587D01*
X547811Y301681D01*
X547813Y301701D01*
X547821Y301719D01*
X547839Y301886D01*
X547839Y303234D01*
X547836Y303254D01*
X547838Y303273D01*
X547816Y303375D01*
X547799Y303477D01*
X547790Y303494D01*
X547786Y303514D01*
X547733Y303603D01*
X547684Y303694D01*
X547670Y303708D01*
X547660Y303725D01*
X547581Y303792D01*
X547506Y303864D01*
X547488Y303872D01*
X547473Y303885D01*
X547377Y303924D01*
X547283Y303967D01*
X547263Y303969D01*
X547245Y303977D01*
X547078Y303995D01*
X544556Y303995D01*
X541408Y305299D01*
X538986Y307722D01*
X538970Y307764D01*
X538922Y307825D01*
X538881Y307891D01*
X538845Y307920D01*
X538817Y307956D01*
X538751Y307998D01*
X538691Y308047D01*
X538648Y308064D01*
X538610Y308089D01*
X538534Y308108D01*
X538462Y308136D01*
X538416Y308138D01*
X538371Y308149D01*
X538294Y308143D01*
X538216Y308146D01*
X538172Y308133D01*
X538126Y308130D01*
X538055Y308099D01*
X537980Y308078D01*
X537942Y308052D01*
X537900Y308034D01*
X537793Y307948D01*
X537778Y307938D01*
X537775Y307933D01*
X537769Y307929D01*
X514320Y284480D01*
X514267Y284406D01*
X514207Y284336D01*
X514195Y284306D01*
X514176Y284280D01*
X514149Y284193D01*
X514115Y284108D01*
X514111Y284067D01*
X514104Y284045D01*
X514105Y284013D01*
X514097Y283941D01*
X514097Y222703D01*
X514111Y222613D01*
X514119Y222522D01*
X514131Y222493D01*
X514136Y222461D01*
X514179Y222380D01*
X514215Y222296D01*
X514241Y222264D01*
X514252Y222243D01*
X514275Y222221D01*
X514320Y222165D01*
X515847Y220638D01*
X515847Y216242D01*
X514320Y214715D01*
X514275Y214653D01*
X514228Y214604D01*
X514221Y214588D01*
X514207Y214571D01*
X514195Y214541D01*
X514176Y214515D01*
X514154Y214444D01*
X514125Y214381D01*
X514123Y214362D01*
X514115Y214343D01*
X514111Y214302D01*
X514104Y214280D01*
X514105Y214248D01*
X514097Y214177D01*
X514097Y210704D01*
X514111Y210613D01*
X514119Y210523D01*
X514131Y210493D01*
X514136Y210461D01*
X514179Y210380D01*
X514215Y210296D01*
X514241Y210264D01*
X514252Y210243D01*
X514275Y210221D01*
X514320Y210165D01*
X524257Y200228D01*
X524257Y187143D01*
X524271Y187053D01*
X524279Y186962D01*
X524291Y186933D01*
X524296Y186901D01*
X524339Y186820D01*
X524375Y186736D01*
X524401Y186704D01*
X524412Y186683D01*
X524435Y186661D01*
X524480Y186605D01*
X526007Y185078D01*
X526007Y180682D01*
X524480Y179155D01*
X524427Y179081D01*
X524367Y179011D01*
X524355Y178981D01*
X524336Y178955D01*
X524309Y178868D01*
X524275Y178783D01*
X524271Y178742D01*
X524264Y178720D01*
X524265Y178688D01*
X524257Y178617D01*
X524257Y166823D01*
X524271Y166733D01*
X524279Y166642D01*
X524291Y166613D01*
X524296Y166581D01*
X524339Y166500D01*
X524375Y166416D01*
X524401Y166384D01*
X524412Y166363D01*
X524435Y166341D01*
X524480Y166285D01*
X526007Y164758D01*
X526007Y160362D01*
X524480Y158835D01*
X524427Y158761D01*
X524367Y158691D01*
X524355Y158661D01*
X524336Y158635D01*
X524309Y158548D01*
X524275Y158463D01*
X524271Y158422D01*
X524264Y158400D01*
X524265Y158368D01*
X524257Y158297D01*
X524257Y61192D01*
X484908Y21843D01*
X429713Y21843D01*
X429623Y21829D01*
X429532Y21821D01*
X429503Y21809D01*
X429471Y21804D01*
X429390Y21761D01*
X429306Y21725D01*
X429274Y21699D01*
X429253Y21688D01*
X429231Y21665D01*
X429175Y21620D01*
X427648Y20093D01*
X423252Y20093D01*
X420143Y23202D01*
X420143Y27598D01*
X423252Y30707D01*
X427648Y30707D01*
X429175Y29180D01*
X429249Y29127D01*
X429319Y29067D01*
X429349Y29055D01*
X429375Y29036D01*
X429462Y29009D01*
X429547Y28975D01*
X429588Y28971D01*
X429610Y28964D01*
X429642Y28965D01*
X429713Y28957D01*
X481646Y28957D01*
X481736Y28971D01*
X481827Y28979D01*
X481856Y28991D01*
X481888Y28996D01*
X481969Y29039D01*
X482053Y29075D01*
X482085Y29101D01*
X482106Y29112D01*
X482128Y29135D01*
X482184Y29180D01*
X516920Y63916D01*
X516973Y63990D01*
X517033Y64059D01*
X517045Y64090D01*
X517064Y64116D01*
X517091Y64203D01*
X517125Y64288D01*
X517129Y64329D01*
X517136Y64351D01*
X517135Y64383D01*
X517143Y64454D01*
X517143Y158297D01*
X517129Y158387D01*
X517121Y158478D01*
X517109Y158507D01*
X517104Y158539D01*
X517061Y158620D01*
X517025Y158704D01*
X516999Y158736D01*
X516988Y158757D01*
X516965Y158779D01*
X516920Y158835D01*
X515393Y160362D01*
X515393Y164758D01*
X516920Y166285D01*
X516973Y166359D01*
X517033Y166429D01*
X517045Y166459D01*
X517064Y166485D01*
X517091Y166572D01*
X517125Y166657D01*
X517129Y166698D01*
X517136Y166720D01*
X517135Y166752D01*
X517143Y166823D01*
X517143Y178617D01*
X517129Y178707D01*
X517121Y178798D01*
X517109Y178827D01*
X517104Y178859D01*
X517061Y178940D01*
X517025Y179024D01*
X516999Y179056D01*
X516988Y179077D01*
X516965Y179099D01*
X516920Y179155D01*
X515393Y180682D01*
X515393Y185078D01*
X516920Y186605D01*
X516973Y186679D01*
X517033Y186749D01*
X517045Y186779D01*
X517064Y186805D01*
X517091Y186892D01*
X517125Y186977D01*
X517129Y187018D01*
X517136Y187040D01*
X517135Y187072D01*
X517143Y187143D01*
X517143Y196966D01*
X517129Y197057D01*
X517121Y197147D01*
X517109Y197177D01*
X517104Y197209D01*
X517061Y197290D01*
X517025Y197374D01*
X516999Y197406D01*
X516988Y197427D01*
X516965Y197449D01*
X516920Y197505D01*
X506983Y207442D01*
X506983Y214177D01*
X506980Y214196D01*
X506982Y214215D01*
X506967Y214285D01*
X506961Y214358D01*
X506949Y214387D01*
X506944Y214419D01*
X506934Y214437D01*
X506930Y214456D01*
X506894Y214515D01*
X506865Y214584D01*
X506839Y214616D01*
X506828Y214637D01*
X506813Y214651D01*
X506804Y214667D01*
X506788Y214680D01*
X506760Y214715D01*
X505233Y216242D01*
X505233Y220638D01*
X506760Y222165D01*
X506813Y222239D01*
X506873Y222309D01*
X506885Y222339D01*
X506904Y222365D01*
X506931Y222452D01*
X506965Y222537D01*
X506969Y222578D01*
X506976Y222600D01*
X506975Y222632D01*
X506983Y222703D01*
X506983Y287203D01*
X509290Y289510D01*
X533320Y313540D01*
X533362Y313598D01*
X533411Y313650D01*
X533433Y313697D01*
X533463Y313740D01*
X533484Y313808D01*
X533515Y313873D01*
X533520Y313925D01*
X533536Y313975D01*
X533534Y314046D01*
X533542Y314118D01*
X533531Y314168D01*
X533529Y314221D01*
X533505Y314288D01*
X533490Y314358D01*
X533463Y314403D01*
X533445Y314452D01*
X533400Y314508D01*
X533363Y314569D01*
X533324Y314603D01*
X533291Y314644D01*
X533231Y314682D01*
X533176Y314729D01*
X533128Y314748D01*
X533084Y314777D01*
X533015Y314794D01*
X532948Y314821D01*
X532877Y314829D01*
X532846Y314837D01*
X532823Y314835D01*
X532782Y314839D01*
X366950Y314839D01*
X366879Y314828D01*
X366808Y314826D01*
X366759Y314808D01*
X366707Y314800D01*
X366644Y314766D01*
X366577Y314741D01*
X366536Y314709D01*
X366490Y314685D01*
X366441Y314633D01*
X366385Y314588D01*
X366356Y314544D01*
X366320Y314506D01*
X366290Y314441D01*
X366252Y314381D01*
X366239Y314330D01*
X366217Y314283D01*
X366209Y314212D01*
X366191Y314142D01*
X366196Y314090D01*
X366190Y314039D01*
X366205Y313969D01*
X366211Y313897D01*
X366231Y313849D01*
X366242Y313798D01*
X366279Y313737D01*
X366307Y313671D01*
X366352Y313615D01*
X366368Y313587D01*
X366386Y313572D01*
X366412Y313540D01*
X498349Y181603D01*
X498349Y68587D01*
X462908Y33146D01*
X443872Y33146D01*
X414301Y62717D01*
X414301Y71429D01*
X414287Y71519D01*
X414279Y71610D01*
X414267Y71639D01*
X414262Y71671D01*
X414219Y71752D01*
X414183Y71836D01*
X414157Y71868D01*
X414146Y71889D01*
X414123Y71911D01*
X414078Y71967D01*
X412018Y74027D01*
X411960Y74069D01*
X411908Y74118D01*
X411861Y74140D01*
X411819Y74170D01*
X411750Y74191D01*
X411685Y74222D01*
X411633Y74227D01*
X411583Y74243D01*
X411512Y74241D01*
X411441Y74249D01*
X411390Y74238D01*
X411338Y74236D01*
X411270Y74212D01*
X411200Y74197D01*
X411156Y74170D01*
X411107Y74152D01*
X411051Y74107D01*
X410989Y74070D01*
X410955Y74031D01*
X410915Y73998D01*
X410876Y73938D01*
X410829Y73883D01*
X410810Y73835D01*
X410782Y73791D01*
X410764Y73722D01*
X410737Y73655D01*
X410729Y73584D01*
X410721Y73553D01*
X410723Y73530D01*
X410719Y73489D01*
X410719Y48575D01*
X406085Y43941D01*
X382922Y43941D01*
X382902Y43938D01*
X382883Y43940D01*
X382781Y43918D01*
X382679Y43901D01*
X382662Y43892D01*
X382642Y43888D01*
X382553Y43835D01*
X382462Y43786D01*
X382448Y43772D01*
X382431Y43762D01*
X382364Y43683D01*
X382293Y43608D01*
X382284Y43590D01*
X382271Y43575D01*
X382232Y43479D01*
X382189Y43385D01*
X382187Y43365D01*
X382179Y43347D01*
X382161Y43180D01*
X382161Y10922D01*
X382164Y10902D01*
X382162Y10883D01*
X382184Y10781D01*
X382201Y10679D01*
X382210Y10662D01*
X382214Y10642D01*
X382267Y10553D01*
X382316Y10462D01*
X382330Y10448D01*
X382340Y10431D01*
X382419Y10364D01*
X382494Y10292D01*
X382512Y10284D01*
X382527Y10271D01*
X382623Y10232D01*
X382717Y10189D01*
X382737Y10187D01*
X382755Y10179D01*
X382922Y10161D01*
X536934Y10161D01*
X536954Y10164D01*
G37*
G36*
X46137Y200548D02*
X46137Y200548D01*
X46228Y200556D01*
X46258Y200568D01*
X46290Y200573D01*
X46370Y200616D01*
X46454Y200652D01*
X46486Y200678D01*
X46507Y200689D01*
X46529Y200712D01*
X46585Y200757D01*
X47048Y201220D01*
X47101Y201294D01*
X47161Y201363D01*
X47173Y201393D01*
X47192Y201420D01*
X47219Y201507D01*
X47253Y201591D01*
X47257Y201632D01*
X47264Y201655D01*
X47263Y201687D01*
X47271Y201758D01*
X47271Y205387D01*
X52890Y211006D01*
X52943Y211080D01*
X53003Y211149D01*
X53015Y211180D01*
X53034Y211206D01*
X53061Y211293D01*
X53095Y211378D01*
X53099Y211419D01*
X53106Y211441D01*
X53105Y211473D01*
X53113Y211544D01*
X53113Y214288D01*
X56222Y217397D01*
X60618Y217397D01*
X62653Y215362D01*
X62727Y215309D01*
X62797Y215249D01*
X62827Y215237D01*
X62853Y215218D01*
X62940Y215191D01*
X63025Y215157D01*
X63066Y215153D01*
X63088Y215146D01*
X63120Y215147D01*
X63191Y215139D01*
X66358Y215139D01*
X66448Y215153D01*
X66539Y215161D01*
X66569Y215173D01*
X66601Y215178D01*
X66681Y215221D01*
X66765Y215257D01*
X66798Y215283D01*
X66818Y215294D01*
X66840Y215317D01*
X66896Y215362D01*
X69969Y218434D01*
X70011Y218492D01*
X70060Y218544D01*
X70082Y218592D01*
X70112Y218634D01*
X70133Y218702D01*
X70164Y218767D01*
X70169Y218819D01*
X70185Y218869D01*
X70183Y218941D01*
X70191Y219012D01*
X70180Y219063D01*
X70178Y219115D01*
X70154Y219182D01*
X70138Y219252D01*
X70112Y219297D01*
X70094Y219346D01*
X70049Y219402D01*
X70012Y219463D01*
X69973Y219497D01*
X69940Y219538D01*
X69880Y219577D01*
X69825Y219623D01*
X69777Y219643D01*
X69733Y219671D01*
X69664Y219688D01*
X69597Y219715D01*
X69526Y219723D01*
X69495Y219731D01*
X69471Y219729D01*
X69431Y219734D01*
X68036Y219734D01*
X64991Y222779D01*
X64975Y222791D01*
X64962Y222807D01*
X64875Y222863D01*
X64791Y222923D01*
X64772Y222929D01*
X64755Y222940D01*
X64655Y222965D01*
X64556Y222995D01*
X64536Y222995D01*
X64517Y223000D01*
X64414Y222992D01*
X64310Y222989D01*
X64291Y222982D01*
X64271Y222980D01*
X64177Y222940D01*
X64079Y222904D01*
X64063Y222892D01*
X64045Y222884D01*
X63914Y222779D01*
X60618Y219483D01*
X56222Y219483D01*
X53113Y222592D01*
X53113Y226988D01*
X54640Y228515D01*
X54693Y228589D01*
X54753Y228659D01*
X54765Y228689D01*
X54784Y228715D01*
X54811Y228802D01*
X54845Y228887D01*
X54849Y228928D01*
X54856Y228950D01*
X54855Y228982D01*
X54863Y229053D01*
X54863Y269422D01*
X54849Y269512D01*
X54841Y269603D01*
X54829Y269632D01*
X54824Y269664D01*
X54781Y269745D01*
X54745Y269829D01*
X54719Y269861D01*
X54708Y269882D01*
X54685Y269904D01*
X54640Y269960D01*
X53113Y271487D01*
X53113Y275883D01*
X56222Y278992D01*
X60618Y278992D01*
X63727Y275883D01*
X63727Y271487D01*
X62200Y269960D01*
X62147Y269886D01*
X62087Y269816D01*
X62075Y269786D01*
X62056Y269760D01*
X62029Y269673D01*
X61995Y269588D01*
X61991Y269547D01*
X61984Y269525D01*
X61985Y269493D01*
X61977Y269422D01*
X61977Y229053D01*
X61991Y228963D01*
X61999Y228872D01*
X62011Y228843D01*
X62016Y228811D01*
X62059Y228730D01*
X62095Y228646D01*
X62121Y228614D01*
X62132Y228593D01*
X62155Y228571D01*
X62200Y228515D01*
X63664Y227051D01*
X63680Y227039D01*
X63692Y227024D01*
X63780Y226968D01*
X63863Y226908D01*
X63882Y226902D01*
X63899Y226891D01*
X64000Y226866D01*
X64099Y226835D01*
X64119Y226836D01*
X64138Y226831D01*
X64241Y226839D01*
X64344Y226842D01*
X64363Y226848D01*
X64383Y226850D01*
X64478Y226890D01*
X64575Y226926D01*
X64591Y226939D01*
X64609Y226946D01*
X64740Y227051D01*
X68036Y230347D01*
X70914Y230347D01*
X71004Y230362D01*
X71095Y230369D01*
X71125Y230382D01*
X71157Y230387D01*
X71238Y230430D01*
X71322Y230465D01*
X71354Y230491D01*
X71375Y230502D01*
X71397Y230525D01*
X71453Y230570D01*
X90311Y249429D01*
X138757Y249429D01*
X138847Y249443D01*
X138938Y249451D01*
X138968Y249463D01*
X139000Y249468D01*
X139080Y249511D01*
X139164Y249547D01*
X139196Y249573D01*
X139217Y249584D01*
X139239Y249607D01*
X139295Y249652D01*
X162790Y273147D01*
X162832Y273205D01*
X162881Y273257D01*
X162903Y273304D01*
X162934Y273346D01*
X162955Y273415D01*
X162985Y273480D01*
X162991Y273532D01*
X163006Y273582D01*
X163004Y273653D01*
X163012Y273724D01*
X163001Y273775D01*
X163000Y273827D01*
X162975Y273895D01*
X162960Y273965D01*
X162933Y274010D01*
X162915Y274058D01*
X162870Y274114D01*
X162834Y274176D01*
X162794Y274210D01*
X162762Y274250D01*
X162701Y274289D01*
X162647Y274336D01*
X162598Y274355D01*
X162555Y274383D01*
X162485Y274401D01*
X162419Y274428D01*
X162347Y274436D01*
X162316Y274444D01*
X162293Y274442D01*
X162252Y274446D01*
X73667Y274446D01*
X65531Y282582D01*
X65531Y284789D01*
X65517Y284879D01*
X65509Y284970D01*
X65497Y284999D01*
X65492Y285031D01*
X65449Y285112D01*
X65413Y285196D01*
X65387Y285228D01*
X65376Y285249D01*
X65353Y285271D01*
X65308Y285327D01*
X63273Y287362D01*
X63273Y291758D01*
X66382Y294867D01*
X70778Y294867D01*
X73887Y291758D01*
X73887Y287362D01*
X72169Y285644D01*
X72157Y285628D01*
X72142Y285616D01*
X72086Y285528D01*
X72025Y285444D01*
X72020Y285425D01*
X72009Y285409D01*
X71984Y285308D01*
X71953Y285209D01*
X71954Y285189D01*
X71949Y285170D01*
X71957Y285067D01*
X71959Y284963D01*
X71966Y284945D01*
X71968Y284925D01*
X72008Y284830D01*
X72044Y284732D01*
X72056Y284717D01*
X72064Y284699D01*
X72169Y284568D01*
X75970Y280767D01*
X76044Y280714D01*
X76113Y280654D01*
X76143Y280642D01*
X76170Y280623D01*
X76257Y280596D01*
X76341Y280562D01*
X76382Y280558D01*
X76405Y280551D01*
X76437Y280552D01*
X76508Y280544D01*
X96847Y280544D01*
X96918Y280555D01*
X96989Y280557D01*
X97038Y280575D01*
X97090Y280583D01*
X97153Y280617D01*
X97220Y280642D01*
X97261Y280674D01*
X97307Y280699D01*
X97356Y280751D01*
X97412Y280795D01*
X97441Y280839D01*
X97476Y280877D01*
X97507Y280942D01*
X97545Y281002D01*
X97558Y281053D01*
X97580Y281100D01*
X97588Y281171D01*
X97605Y281241D01*
X97601Y281293D01*
X97607Y281344D01*
X97592Y281415D01*
X97586Y281486D01*
X97566Y281534D01*
X97555Y281585D01*
X97518Y281646D01*
X97490Y281712D01*
X97445Y281768D01*
X97429Y281796D01*
X97411Y281811D01*
X97385Y281843D01*
X96423Y282805D01*
X74842Y304386D01*
X74826Y304398D01*
X74814Y304413D01*
X74726Y304469D01*
X74643Y304530D01*
X74624Y304535D01*
X74607Y304546D01*
X74506Y304572D01*
X74408Y304602D01*
X74388Y304601D01*
X74368Y304606D01*
X74265Y304598D01*
X74162Y304596D01*
X74143Y304589D01*
X74123Y304587D01*
X74028Y304547D01*
X73931Y304511D01*
X73915Y304499D01*
X73897Y304491D01*
X73766Y304386D01*
X72048Y302668D01*
X67652Y302668D01*
X64543Y305777D01*
X64543Y310173D01*
X67652Y313282D01*
X72048Y313282D01*
X74083Y311247D01*
X74157Y311194D01*
X74227Y311134D01*
X74257Y311122D01*
X74283Y311103D01*
X74370Y311076D01*
X74455Y311042D01*
X74496Y311038D01*
X74518Y311031D01*
X74550Y311032D01*
X74621Y311024D01*
X76828Y311024D01*
X100735Y287117D01*
X100809Y287064D01*
X100878Y287004D01*
X100908Y286992D01*
X100935Y286973D01*
X101022Y286946D01*
X101106Y286912D01*
X101147Y286908D01*
X101170Y286901D01*
X101202Y286902D01*
X101273Y286894D01*
X188287Y286894D01*
X188377Y286908D01*
X188468Y286916D01*
X188498Y286928D01*
X188530Y286933D01*
X188610Y286976D01*
X188694Y287012D01*
X188726Y287038D01*
X188747Y287049D01*
X188769Y287072D01*
X188825Y287117D01*
X196753Y295045D01*
X198762Y297054D01*
X244468Y297054D01*
X261811Y279710D01*
X261811Y267961D01*
X261826Y267871D01*
X261833Y267780D01*
X261846Y267750D01*
X261851Y267718D01*
X261894Y267637D01*
X261929Y267553D01*
X261955Y267521D01*
X261966Y267501D01*
X261989Y267478D01*
X262034Y267422D01*
X282345Y247112D01*
X282419Y247059D01*
X282488Y246999D01*
X282518Y246987D01*
X282545Y246968D01*
X282632Y246941D01*
X282716Y246907D01*
X282757Y246903D01*
X282780Y246896D01*
X282812Y246897D01*
X282883Y246889D01*
X284789Y246889D01*
X284859Y246900D01*
X284931Y246902D01*
X284980Y246920D01*
X285031Y246928D01*
X285095Y246962D01*
X285162Y246987D01*
X285203Y247019D01*
X285249Y247044D01*
X285298Y247096D01*
X285354Y247140D01*
X285382Y247184D01*
X285418Y247222D01*
X285448Y247287D01*
X285487Y247347D01*
X285500Y247398D01*
X285522Y247445D01*
X285530Y247516D01*
X285547Y247586D01*
X285543Y247638D01*
X285549Y247689D01*
X285534Y247760D01*
X285528Y247831D01*
X285508Y247879D01*
X285497Y247930D01*
X285460Y247991D01*
X285432Y248057D01*
X285387Y248113D01*
X285370Y248141D01*
X285353Y248156D01*
X285350Y248162D01*
X285345Y248166D01*
X285327Y248188D01*
X284253Y249262D01*
X284253Y253658D01*
X287362Y256767D01*
X290151Y256767D01*
X290221Y256778D01*
X290293Y256780D01*
X290342Y256798D01*
X290393Y256806D01*
X290457Y256840D01*
X290524Y256865D01*
X290565Y256897D01*
X290611Y256922D01*
X290660Y256974D01*
X290716Y257018D01*
X290744Y257062D01*
X290780Y257100D01*
X290810Y257165D01*
X290849Y257225D01*
X290862Y257276D01*
X290884Y257323D01*
X290892Y257394D01*
X290909Y257464D01*
X290905Y257516D01*
X290911Y257567D01*
X290896Y257638D01*
X290890Y257709D01*
X290870Y257757D01*
X290859Y257808D01*
X290822Y257869D01*
X290794Y257935D01*
X290749Y257991D01*
X290732Y258019D01*
X290715Y258034D01*
X290689Y258066D01*
X289333Y259422D01*
X289333Y263818D01*
X292442Y266927D01*
X295231Y266927D01*
X295301Y266938D01*
X295373Y266940D01*
X295422Y266958D01*
X295473Y266966D01*
X295537Y267000D01*
X295604Y267025D01*
X295645Y267057D01*
X295691Y267082D01*
X295740Y267134D01*
X295796Y267178D01*
X295824Y267222D01*
X295860Y267260D01*
X295890Y267325D01*
X295929Y267385D01*
X295942Y267436D01*
X295964Y267483D01*
X295972Y267554D01*
X295989Y267624D01*
X295985Y267676D01*
X295991Y267727D01*
X295976Y267798D01*
X295970Y267869D01*
X295950Y267917D01*
X295939Y267968D01*
X295902Y268029D01*
X295874Y268095D01*
X295829Y268151D01*
X295812Y268179D01*
X295795Y268194D01*
X295769Y268226D01*
X294413Y269582D01*
X294413Y273978D01*
X297522Y277087D01*
X300311Y277087D01*
X300381Y277098D01*
X300453Y277100D01*
X300502Y277118D01*
X300553Y277126D01*
X300617Y277160D01*
X300684Y277185D01*
X300725Y277217D01*
X300771Y277242D01*
X300820Y277294D01*
X300876Y277338D01*
X300904Y277382D01*
X300940Y277420D01*
X300970Y277485D01*
X301009Y277545D01*
X301022Y277596D01*
X301044Y277643D01*
X301052Y277714D01*
X301069Y277784D01*
X301065Y277836D01*
X301071Y277887D01*
X301056Y277958D01*
X301050Y278029D01*
X301030Y278077D01*
X301019Y278128D01*
X300982Y278189D01*
X300954Y278255D01*
X300909Y278311D01*
X300892Y278339D01*
X300875Y278354D01*
X300849Y278386D01*
X299493Y279742D01*
X299493Y281901D01*
X299479Y281992D01*
X299471Y282082D01*
X299459Y282112D01*
X299454Y282144D01*
X299411Y282225D01*
X299375Y282309D01*
X299349Y282341D01*
X299338Y282362D01*
X299315Y282384D01*
X299290Y282416D01*
X299288Y282418D01*
X299287Y282419D01*
X299270Y282440D01*
X282595Y299115D01*
X282521Y299168D01*
X282451Y299228D01*
X282421Y299240D01*
X282395Y299259D01*
X282308Y299286D01*
X282223Y299320D01*
X282182Y299324D01*
X282160Y299331D01*
X282128Y299330D01*
X282056Y299338D01*
X161743Y299338D01*
X161653Y299324D01*
X161562Y299316D01*
X161533Y299304D01*
X161501Y299299D01*
X161420Y299256D01*
X161336Y299220D01*
X161304Y299194D01*
X161283Y299183D01*
X161261Y299160D01*
X161205Y299115D01*
X159678Y297588D01*
X155282Y297588D01*
X153755Y299115D01*
X153681Y299168D01*
X153611Y299228D01*
X153581Y299240D01*
X153555Y299259D01*
X153468Y299286D01*
X153383Y299320D01*
X153342Y299324D01*
X153320Y299331D01*
X153288Y299330D01*
X153217Y299338D01*
X128154Y299338D01*
X128063Y299324D01*
X127973Y299316D01*
X127943Y299304D01*
X127911Y299299D01*
X127830Y299256D01*
X127746Y299220D01*
X127714Y299194D01*
X127693Y299183D01*
X127671Y299160D01*
X127615Y299115D01*
X126335Y297835D01*
X124028Y295528D01*
X105863Y295528D01*
X105773Y295514D01*
X105682Y295506D01*
X105653Y295494D01*
X105621Y295489D01*
X105540Y295446D01*
X105456Y295410D01*
X105424Y295384D01*
X105403Y295373D01*
X105381Y295350D01*
X105325Y295305D01*
X103798Y293778D01*
X99402Y293778D01*
X96293Y296887D01*
X96293Y301283D01*
X99402Y304392D01*
X103798Y304392D01*
X105325Y302865D01*
X105399Y302812D01*
X105469Y302752D01*
X105499Y302740D01*
X105525Y302721D01*
X105612Y302694D01*
X105697Y302660D01*
X105738Y302656D01*
X105760Y302649D01*
X105792Y302650D01*
X105863Y302642D01*
X120766Y302642D01*
X120857Y302656D01*
X120947Y302664D01*
X120977Y302676D01*
X121009Y302681D01*
X121090Y302724D01*
X121174Y302760D01*
X121206Y302786D01*
X121227Y302797D01*
X121249Y302820D01*
X121305Y302865D01*
X122585Y304145D01*
X124892Y306452D01*
X153217Y306452D01*
X153307Y306466D01*
X153398Y306474D01*
X153427Y306486D01*
X153459Y306491D01*
X153540Y306534D01*
X153624Y306570D01*
X153656Y306596D01*
X153677Y306607D01*
X153699Y306630D01*
X153755Y306675D01*
X155282Y308202D01*
X159678Y308202D01*
X161205Y306675D01*
X161279Y306622D01*
X161349Y306562D01*
X161379Y306550D01*
X161405Y306531D01*
X161492Y306504D01*
X161577Y306470D01*
X161618Y306466D01*
X161640Y306459D01*
X161672Y306460D01*
X161743Y306452D01*
X285318Y306452D01*
X287625Y304145D01*
X304300Y287470D01*
X304374Y287417D01*
X304444Y287357D01*
X304474Y287345D01*
X304500Y287326D01*
X304587Y287299D01*
X304672Y287265D01*
X304713Y287261D01*
X304735Y287254D01*
X304767Y287255D01*
X304839Y287247D01*
X305391Y287247D01*
X305461Y287258D01*
X305533Y287260D01*
X305582Y287278D01*
X305633Y287286D01*
X305697Y287320D01*
X305764Y287345D01*
X305805Y287377D01*
X305851Y287402D01*
X305900Y287454D01*
X305956Y287498D01*
X305984Y287542D01*
X306020Y287580D01*
X306050Y287645D01*
X306089Y287705D01*
X306102Y287756D01*
X306124Y287803D01*
X306132Y287874D01*
X306149Y287944D01*
X306145Y287996D01*
X306151Y288047D01*
X306136Y288118D01*
X306130Y288189D01*
X306110Y288237D01*
X306099Y288288D01*
X306062Y288349D01*
X306034Y288415D01*
X305989Y288471D01*
X305972Y288499D01*
X305965Y288505D01*
X305963Y288508D01*
X305951Y288518D01*
X305929Y288546D01*
X304573Y289902D01*
X304573Y294298D01*
X307682Y297407D01*
X312078Y297407D01*
X315187Y294298D01*
X315187Y291420D01*
X315201Y291330D01*
X315209Y291239D01*
X315221Y291209D01*
X315226Y291177D01*
X315269Y291097D01*
X315305Y291013D01*
X315331Y290981D01*
X315342Y290960D01*
X315365Y290938D01*
X315410Y290882D01*
X358545Y247747D01*
X358619Y247694D01*
X358688Y247634D01*
X358718Y247622D01*
X358745Y247603D01*
X358832Y247576D01*
X358916Y247542D01*
X358957Y247538D01*
X358980Y247531D01*
X359012Y247532D01*
X359083Y247524D01*
X421967Y247524D01*
X422038Y247535D01*
X422109Y247537D01*
X422158Y247555D01*
X422210Y247563D01*
X422273Y247597D01*
X422340Y247622D01*
X422381Y247654D01*
X422427Y247679D01*
X422476Y247731D01*
X422532Y247775D01*
X422561Y247819D01*
X422596Y247857D01*
X422627Y247922D01*
X422665Y247982D01*
X422678Y248033D01*
X422700Y248080D01*
X422708Y248151D01*
X422725Y248221D01*
X422721Y248273D01*
X422727Y248324D01*
X422712Y248395D01*
X422706Y248466D01*
X422686Y248514D01*
X422675Y248565D01*
X422638Y248626D01*
X422610Y248692D01*
X422565Y248748D01*
X422549Y248776D01*
X422531Y248791D01*
X422505Y248823D01*
X364085Y307243D01*
X364011Y307296D01*
X363942Y307356D01*
X363912Y307368D01*
X363885Y307387D01*
X363798Y307414D01*
X363714Y307448D01*
X363673Y307452D01*
X363650Y307459D01*
X363618Y307458D01*
X363547Y307466D01*
X337511Y307466D01*
X337421Y307452D01*
X337330Y307444D01*
X337301Y307432D01*
X337269Y307427D01*
X337188Y307384D01*
X337104Y307348D01*
X337072Y307322D01*
X337051Y307311D01*
X337029Y307288D01*
X336973Y307243D01*
X334938Y305208D01*
X330542Y305208D01*
X327433Y308317D01*
X327433Y312713D01*
X328260Y313540D01*
X328302Y313598D01*
X328351Y313650D01*
X328373Y313697D01*
X328404Y313740D01*
X328425Y313808D01*
X328455Y313873D01*
X328461Y313925D01*
X328476Y313975D01*
X328474Y314046D01*
X328482Y314118D01*
X328471Y314168D01*
X328470Y314221D01*
X328445Y314288D01*
X328430Y314358D01*
X328403Y314403D01*
X328385Y314452D01*
X328340Y314508D01*
X328304Y314569D01*
X328264Y314603D01*
X328231Y314644D01*
X328171Y314682D01*
X328117Y314729D01*
X328068Y314748D01*
X328024Y314777D01*
X327955Y314794D01*
X327888Y314821D01*
X327817Y314829D01*
X327786Y314837D01*
X327763Y314835D01*
X327722Y314839D01*
X22186Y314839D01*
X22166Y314836D01*
X22147Y314838D01*
X22045Y314816D01*
X21943Y314800D01*
X21926Y314790D01*
X21906Y314786D01*
X21817Y314733D01*
X21726Y314685D01*
X21712Y314670D01*
X21695Y314660D01*
X21628Y314581D01*
X21556Y314506D01*
X21548Y314488D01*
X21535Y314473D01*
X21496Y314377D01*
X21453Y314283D01*
X21451Y314263D01*
X21443Y314245D01*
X21425Y314078D01*
X21425Y310856D01*
X20121Y307708D01*
X17712Y305299D01*
X14564Y303995D01*
X11140Y303995D01*
X11127Y304002D01*
X11050Y304010D01*
X10974Y304028D01*
X10928Y304024D01*
X10883Y304029D01*
X10807Y304012D01*
X10729Y304005D01*
X10687Y303986D01*
X10642Y303976D01*
X10575Y303936D01*
X10504Y303905D01*
X10470Y303874D01*
X10431Y303850D01*
X10381Y303791D01*
X10323Y303738D01*
X10301Y303698D01*
X10271Y303663D01*
X10242Y303591D01*
X10205Y303523D01*
X10196Y303478D01*
X10179Y303435D01*
X10164Y303300D01*
X10161Y303281D01*
X10162Y303276D01*
X10161Y303268D01*
X10161Y301852D01*
X10168Y301806D01*
X10166Y301760D01*
X10188Y301686D01*
X10200Y301609D01*
X10222Y301568D01*
X10235Y301524D01*
X10279Y301460D01*
X10316Y301391D01*
X10349Y301360D01*
X10375Y301322D01*
X10438Y301276D01*
X10494Y301222D01*
X10536Y301203D01*
X10573Y301175D01*
X10646Y301151D01*
X10717Y301118D01*
X10763Y301113D01*
X10806Y301099D01*
X10884Y301100D01*
X10961Y301091D01*
X11006Y301101D01*
X11052Y301102D01*
X11132Y301125D01*
X14564Y301125D01*
X17712Y299821D01*
X20121Y297412D01*
X21425Y294264D01*
X21425Y290856D01*
X20121Y287708D01*
X17712Y285299D01*
X14564Y283995D01*
X11140Y283995D01*
X11127Y284002D01*
X11050Y284010D01*
X10974Y284028D01*
X10928Y284024D01*
X10883Y284029D01*
X10807Y284012D01*
X10729Y284005D01*
X10687Y283986D01*
X10642Y283976D01*
X10575Y283936D01*
X10504Y283905D01*
X10470Y283874D01*
X10431Y283850D01*
X10381Y283791D01*
X10323Y283738D01*
X10301Y283698D01*
X10271Y283663D01*
X10242Y283591D01*
X10205Y283523D01*
X10196Y283478D01*
X10179Y283435D01*
X10164Y283300D01*
X10161Y283281D01*
X10162Y283276D01*
X10161Y283268D01*
X10161Y281852D01*
X10168Y281806D01*
X10166Y281760D01*
X10188Y281686D01*
X10200Y281609D01*
X10222Y281568D01*
X10235Y281524D01*
X10279Y281460D01*
X10316Y281391D01*
X10349Y281360D01*
X10375Y281322D01*
X10438Y281276D01*
X10494Y281222D01*
X10536Y281203D01*
X10573Y281175D01*
X10646Y281151D01*
X10717Y281118D01*
X10763Y281113D01*
X10806Y281099D01*
X10884Y281100D01*
X10961Y281091D01*
X11006Y281101D01*
X11052Y281102D01*
X11132Y281125D01*
X14564Y281125D01*
X17712Y279821D01*
X20121Y277412D01*
X21425Y274264D01*
X21425Y270856D01*
X20873Y269523D01*
X20846Y269410D01*
X20817Y269296D01*
X20818Y269290D01*
X20816Y269284D01*
X20827Y269167D01*
X20837Y269051D01*
X20839Y269045D01*
X20840Y269039D01*
X20887Y268932D01*
X20933Y268825D01*
X20938Y268819D01*
X20940Y268814D01*
X20952Y268801D01*
X21038Y268694D01*
X26440Y263292D01*
X28449Y261283D01*
X28449Y229543D01*
X28463Y229453D01*
X28471Y229362D01*
X28483Y229332D01*
X28488Y229300D01*
X28531Y229220D01*
X28567Y229136D01*
X28593Y229104D01*
X28604Y229083D01*
X28627Y229061D01*
X28672Y229005D01*
X34481Y223195D01*
X34481Y219932D01*
X34496Y219842D01*
X34503Y219751D01*
X34516Y219722D01*
X34521Y219690D01*
X34564Y219609D01*
X34599Y219525D01*
X34625Y219493D01*
X34636Y219472D01*
X34659Y219450D01*
X34704Y219394D01*
X40514Y213584D01*
X40514Y201603D01*
X40528Y201513D01*
X40536Y201422D01*
X40548Y201392D01*
X40553Y201360D01*
X40596Y201280D01*
X40632Y201196D01*
X40658Y201164D01*
X40669Y201143D01*
X40692Y201121D01*
X40737Y201065D01*
X41045Y200757D01*
X41119Y200704D01*
X41188Y200644D01*
X41218Y200632D01*
X41245Y200613D01*
X41332Y200586D01*
X41416Y200552D01*
X41457Y200548D01*
X41480Y200541D01*
X41512Y200542D01*
X41583Y200534D01*
X46047Y200534D01*
X46137Y200548D01*
G37*
G36*
X438875Y47184D02*
X438875Y47184D01*
X438927Y47185D01*
X438995Y47210D01*
X439065Y47225D01*
X439110Y47252D01*
X439158Y47270D01*
X439214Y47315D01*
X439276Y47351D01*
X439310Y47391D01*
X439350Y47423D01*
X439389Y47484D01*
X439436Y47538D01*
X439455Y47587D01*
X439483Y47630D01*
X439501Y47700D01*
X439528Y47766D01*
X439536Y47838D01*
X439544Y47869D01*
X439542Y47892D01*
X439546Y47933D01*
X439546Y81908D01*
X445320Y87682D01*
X445373Y87756D01*
X445433Y87825D01*
X445445Y87855D01*
X445464Y87882D01*
X445491Y87969D01*
X445525Y88053D01*
X445529Y88094D01*
X445536Y88117D01*
X445535Y88149D01*
X445543Y88220D01*
X445543Y91098D01*
X448652Y94207D01*
X453048Y94207D01*
X456157Y91098D01*
X456157Y86702D01*
X453048Y83593D01*
X450170Y83593D01*
X450080Y83579D01*
X449989Y83571D01*
X449959Y83559D01*
X449927Y83554D01*
X449847Y83511D01*
X449763Y83475D01*
X449731Y83449D01*
X449710Y83438D01*
X449688Y83415D01*
X449632Y83370D01*
X445867Y79605D01*
X445814Y79531D01*
X445754Y79462D01*
X445742Y79432D01*
X445723Y79405D01*
X445696Y79318D01*
X445662Y79234D01*
X445658Y79193D01*
X445651Y79170D01*
X445652Y79138D01*
X445644Y79067D01*
X445644Y67636D01*
X445655Y67566D01*
X445657Y67494D01*
X445675Y67445D01*
X445683Y67394D01*
X445717Y67330D01*
X445742Y67263D01*
X445774Y67222D01*
X445799Y67176D01*
X445851Y67127D01*
X445895Y67071D01*
X445939Y67043D01*
X445977Y67007D01*
X446042Y66977D01*
X446102Y66938D01*
X446153Y66925D01*
X446200Y66903D01*
X446271Y66895D01*
X446341Y66878D01*
X446393Y66882D01*
X446444Y66876D01*
X446515Y66891D01*
X446586Y66897D01*
X446634Y66917D01*
X446685Y66928D01*
X446746Y66965D01*
X446812Y66993D01*
X446868Y67038D01*
X446896Y67055D01*
X446911Y67072D01*
X446943Y67098D01*
X448652Y68807D01*
X453048Y68807D01*
X455083Y66772D01*
X455157Y66719D01*
X455227Y66659D01*
X455257Y66647D01*
X455283Y66628D01*
X455370Y66601D01*
X455455Y66567D01*
X455496Y66563D01*
X455518Y66556D01*
X455550Y66557D01*
X455621Y66549D01*
X459432Y66549D01*
X459522Y66563D01*
X459613Y66571D01*
X459643Y66583D01*
X459675Y66588D01*
X459755Y66631D01*
X459839Y66667D01*
X459871Y66693D01*
X459892Y66704D01*
X459914Y66727D01*
X459970Y66772D01*
X472978Y79780D01*
X473031Y79854D01*
X473091Y79923D01*
X473103Y79953D01*
X473122Y79980D01*
X473149Y80067D01*
X473183Y80151D01*
X473187Y80192D01*
X473194Y80215D01*
X473193Y80247D01*
X473201Y80318D01*
X473201Y105102D01*
X473190Y105173D01*
X473188Y105244D01*
X473170Y105293D01*
X473162Y105345D01*
X473128Y105408D01*
X473103Y105475D01*
X473071Y105516D01*
X473046Y105562D01*
X472994Y105611D01*
X472950Y105667D01*
X472906Y105696D01*
X472868Y105731D01*
X472803Y105762D01*
X472743Y105800D01*
X472692Y105813D01*
X472645Y105835D01*
X472574Y105843D01*
X472504Y105860D01*
X472452Y105856D01*
X472401Y105862D01*
X472330Y105847D01*
X472259Y105841D01*
X472211Y105821D01*
X472160Y105810D01*
X472099Y105773D01*
X472033Y105745D01*
X471977Y105700D01*
X471949Y105684D01*
X471934Y105666D01*
X471902Y105640D01*
X469080Y102818D01*
X469027Y102744D01*
X468992Y102704D01*
X468988Y102700D01*
X468988Y102699D01*
X468967Y102675D01*
X468955Y102645D01*
X468936Y102618D01*
X468909Y102531D01*
X468905Y102519D01*
X468885Y102477D01*
X468884Y102468D01*
X468875Y102447D01*
X468871Y102406D01*
X468864Y102383D01*
X468865Y102351D01*
X468857Y102280D01*
X468857Y99402D01*
X465748Y96293D01*
X461352Y96293D01*
X458243Y99402D01*
X458243Y103798D01*
X461352Y106907D01*
X464230Y106907D01*
X464320Y106921D01*
X464411Y106929D01*
X464441Y106941D01*
X464473Y106946D01*
X464553Y106989D01*
X464637Y107025D01*
X464669Y107051D01*
X464690Y107062D01*
X464712Y107085D01*
X464768Y107130D01*
X466628Y108990D01*
X466681Y109064D01*
X466741Y109133D01*
X466753Y109163D01*
X466772Y109190D01*
X466799Y109277D01*
X466833Y109361D01*
X466837Y109402D01*
X466844Y109425D01*
X466843Y109457D01*
X466851Y109528D01*
X466851Y171142D01*
X466837Y171232D01*
X466829Y171323D01*
X466817Y171353D01*
X466812Y171385D01*
X466769Y171465D01*
X466733Y171549D01*
X466707Y171581D01*
X466696Y171602D01*
X466673Y171624D01*
X466628Y171680D01*
X437418Y200890D01*
X437360Y200932D01*
X437308Y200981D01*
X437261Y201003D01*
X437219Y201034D01*
X437150Y201055D01*
X437085Y201085D01*
X437033Y201091D01*
X436983Y201106D01*
X436912Y201104D01*
X436841Y201112D01*
X436790Y201101D01*
X436738Y201100D01*
X436670Y201075D01*
X436600Y201060D01*
X436555Y201033D01*
X436507Y201015D01*
X436451Y200970D01*
X436389Y200934D01*
X436355Y200894D01*
X436315Y200862D01*
X436276Y200801D01*
X436229Y200747D01*
X436210Y200698D01*
X436182Y200655D01*
X436164Y200585D01*
X436137Y200519D01*
X436129Y200447D01*
X436121Y200416D01*
X436123Y200393D01*
X436119Y200352D01*
X436119Y191408D01*
X436138Y191294D01*
X436155Y191178D01*
X436157Y191172D01*
X436158Y191166D01*
X436213Y191063D01*
X436266Y190958D01*
X436271Y190954D01*
X436274Y190948D01*
X436358Y190869D01*
X436442Y190786D01*
X436448Y190782D01*
X436452Y190779D01*
X436469Y190771D01*
X436589Y190705D01*
X439257Y189600D01*
X442330Y186527D01*
X443993Y182513D01*
X443993Y178167D01*
X442330Y174153D01*
X439257Y171080D01*
X435243Y169417D01*
X430897Y169417D01*
X426883Y171080D01*
X423810Y174153D01*
X422705Y176821D01*
X422643Y176921D01*
X422583Y177021D01*
X422578Y177025D01*
X422575Y177030D01*
X422486Y177105D01*
X422396Y177181D01*
X422390Y177183D01*
X422386Y177187D01*
X422278Y177229D01*
X422168Y177273D01*
X422161Y177274D01*
X422156Y177275D01*
X422138Y177276D01*
X422001Y177291D01*
X410217Y177291D01*
X405233Y182275D01*
X405159Y182328D01*
X405090Y182388D01*
X405060Y182400D01*
X405033Y182419D01*
X404946Y182446D01*
X404862Y182480D01*
X404821Y182484D01*
X404798Y182491D01*
X404766Y182490D01*
X404695Y182498D01*
X402336Y182498D01*
X402316Y182495D01*
X402297Y182497D01*
X402195Y182475D01*
X402093Y182459D01*
X402076Y182449D01*
X402056Y182445D01*
X401967Y182392D01*
X401876Y182343D01*
X401862Y182329D01*
X401845Y182319D01*
X401778Y182240D01*
X401706Y182165D01*
X401698Y182147D01*
X401685Y182132D01*
X401646Y182036D01*
X401603Y181942D01*
X401601Y181922D01*
X401593Y181904D01*
X401575Y181737D01*
X401575Y181613D01*
X400840Y180878D01*
X400828Y180862D01*
X400812Y180850D01*
X400756Y180762D01*
X400696Y180679D01*
X400690Y180660D01*
X400679Y180643D01*
X400654Y180542D01*
X400624Y180443D01*
X400624Y180424D01*
X400619Y180404D01*
X400627Y180301D01*
X400630Y180198D01*
X400637Y180179D01*
X400638Y180159D01*
X400679Y180064D01*
X400714Y179967D01*
X400727Y179951D01*
X400735Y179933D01*
X400840Y179802D01*
X401575Y179067D01*
X401575Y171199D01*
X400682Y170306D01*
X397510Y170306D01*
X397490Y170303D01*
X397471Y170305D01*
X397369Y170283D01*
X397267Y170267D01*
X397250Y170257D01*
X397230Y170253D01*
X397141Y170200D01*
X397050Y170151D01*
X397036Y170137D01*
X397019Y170127D01*
X396952Y170048D01*
X396880Y169973D01*
X396872Y169955D01*
X396859Y169940D01*
X396820Y169844D01*
X396777Y169750D01*
X396775Y169730D01*
X396767Y169712D01*
X396749Y169545D01*
X396749Y165643D01*
X396768Y165527D01*
X396785Y165412D01*
X396787Y165406D01*
X396788Y165400D01*
X396843Y165297D01*
X396896Y165192D01*
X396901Y165188D01*
X396904Y165183D01*
X396988Y165103D01*
X397072Y165020D01*
X397078Y165017D01*
X397082Y165013D01*
X397099Y165005D01*
X397219Y164939D01*
X397702Y164739D01*
X399689Y162752D01*
X400765Y160155D01*
X400765Y157345D01*
X399689Y154748D01*
X397702Y152761D01*
X395105Y151685D01*
X392295Y151685D01*
X389698Y152761D01*
X387711Y154748D01*
X386635Y157345D01*
X386635Y160155D01*
X387711Y162752D01*
X389698Y164739D01*
X390181Y164939D01*
X390281Y165001D01*
X390381Y165061D01*
X390385Y165066D01*
X390390Y165069D01*
X390465Y165159D01*
X390541Y165248D01*
X390543Y165254D01*
X390547Y165258D01*
X390589Y165366D01*
X390633Y165476D01*
X390634Y165483D01*
X390635Y165488D01*
X390636Y165506D01*
X390651Y165643D01*
X390651Y169545D01*
X390648Y169565D01*
X390650Y169584D01*
X390628Y169686D01*
X390612Y169788D01*
X390602Y169805D01*
X390598Y169825D01*
X390545Y169914D01*
X390496Y170005D01*
X390482Y170019D01*
X390472Y170036D01*
X390393Y170103D01*
X390318Y170175D01*
X390300Y170183D01*
X390285Y170196D01*
X390189Y170235D01*
X390095Y170278D01*
X390075Y170280D01*
X390057Y170288D01*
X389890Y170306D01*
X386718Y170306D01*
X385825Y171199D01*
X385825Y179067D01*
X386560Y179802D01*
X386572Y179818D01*
X386588Y179830D01*
X386644Y179918D01*
X386704Y180001D01*
X386710Y180020D01*
X386721Y180037D01*
X386746Y180138D01*
X386776Y180237D01*
X386776Y180256D01*
X386781Y180276D01*
X386773Y180379D01*
X386770Y180482D01*
X386763Y180501D01*
X386762Y180521D01*
X386721Y180616D01*
X386686Y180713D01*
X386673Y180729D01*
X386665Y180747D01*
X386560Y180878D01*
X385825Y181613D01*
X385825Y189481D01*
X386718Y190374D01*
X400682Y190374D01*
X401575Y189481D01*
X401575Y189357D01*
X401578Y189337D01*
X401576Y189318D01*
X401598Y189216D01*
X401614Y189114D01*
X401624Y189097D01*
X401628Y189077D01*
X401681Y188988D01*
X401730Y188897D01*
X401744Y188883D01*
X401754Y188866D01*
X401833Y188799D01*
X401908Y188727D01*
X401926Y188719D01*
X401941Y188706D01*
X402037Y188667D01*
X402131Y188624D01*
X402151Y188622D01*
X402169Y188614D01*
X402336Y188596D01*
X407536Y188596D01*
X412520Y183612D01*
X412594Y183559D01*
X412663Y183499D01*
X412693Y183487D01*
X412720Y183468D01*
X412807Y183441D01*
X412891Y183407D01*
X412932Y183403D01*
X412955Y183396D01*
X412987Y183397D01*
X413058Y183389D01*
X422001Y183389D01*
X422116Y183408D01*
X422232Y183425D01*
X422238Y183427D01*
X422244Y183428D01*
X422347Y183483D01*
X422452Y183536D01*
X422456Y183541D01*
X422462Y183544D01*
X422541Y183628D01*
X422624Y183712D01*
X422628Y183718D01*
X422631Y183722D01*
X422639Y183739D01*
X422705Y183859D01*
X423810Y186527D01*
X426883Y189600D01*
X429551Y190705D01*
X429651Y190767D01*
X429751Y190827D01*
X429755Y190831D01*
X429760Y190835D01*
X429835Y190925D01*
X429911Y191014D01*
X429913Y191019D01*
X429917Y191024D01*
X429959Y191133D01*
X430003Y191242D01*
X430004Y191249D01*
X430005Y191254D01*
X430006Y191272D01*
X430021Y191408D01*
X430021Y199717D01*
X430018Y199735D01*
X430020Y199751D01*
X430006Y199819D01*
X429999Y199898D01*
X429987Y199928D01*
X429982Y199960D01*
X429970Y199981D01*
X429968Y199992D01*
X429938Y200041D01*
X429903Y200124D01*
X429877Y200156D01*
X429866Y200177D01*
X429845Y200197D01*
X429842Y200203D01*
X429836Y200208D01*
X429798Y200255D01*
X414250Y215803D01*
X414176Y215856D01*
X414107Y215916D01*
X414077Y215928D01*
X414050Y215947D01*
X413963Y215974D01*
X413879Y216008D01*
X413838Y216012D01*
X413815Y216019D01*
X413783Y216018D01*
X413712Y216026D01*
X314332Y216026D01*
X312323Y218035D01*
X307878Y222480D01*
X307862Y222492D01*
X307850Y222507D01*
X307762Y222563D01*
X307679Y222624D01*
X307660Y222630D01*
X307643Y222640D01*
X307542Y222666D01*
X307443Y222696D01*
X307424Y222696D01*
X307404Y222700D01*
X307301Y222692D01*
X307198Y222690D01*
X307179Y222683D01*
X307159Y222681D01*
X307064Y222641D01*
X306967Y222605D01*
X306951Y222593D01*
X306933Y222585D01*
X306802Y222480D01*
X304158Y219836D01*
X285757Y219836D01*
X243331Y262262D01*
X243331Y272742D01*
X243317Y272832D01*
X243309Y272923D01*
X243297Y272953D01*
X243292Y272985D01*
X243249Y273065D01*
X243213Y273149D01*
X243187Y273181D01*
X243176Y273202D01*
X243153Y273224D01*
X243108Y273280D01*
X238355Y278033D01*
X238281Y278086D01*
X238212Y278146D01*
X238182Y278158D01*
X238155Y278177D01*
X238068Y278204D01*
X237984Y278238D01*
X237943Y278242D01*
X237920Y278249D01*
X237888Y278248D01*
X237817Y278256D01*
X235276Y278256D01*
X235206Y278245D01*
X235134Y278243D01*
X235085Y278225D01*
X235034Y278217D01*
X234970Y278183D01*
X234903Y278158D01*
X234862Y278126D01*
X234816Y278101D01*
X234767Y278049D01*
X234711Y278005D01*
X234683Y277961D01*
X234647Y277923D01*
X234617Y277858D01*
X234578Y277798D01*
X234565Y277747D01*
X234543Y277700D01*
X234535Y277629D01*
X234518Y277559D01*
X234522Y277507D01*
X234516Y277456D01*
X234531Y277385D01*
X234537Y277314D01*
X234557Y277266D01*
X234568Y277215D01*
X234605Y277154D01*
X234633Y277088D01*
X234678Y277032D01*
X234695Y277004D01*
X234712Y276989D01*
X234738Y276957D01*
X237082Y274613D01*
X237082Y270217D01*
X233973Y267108D01*
X229577Y267108D01*
X227397Y269288D01*
X227323Y269341D01*
X227253Y269401D01*
X227223Y269413D01*
X227197Y269432D01*
X227110Y269459D01*
X227025Y269493D01*
X226984Y269497D01*
X226962Y269504D01*
X226930Y269503D01*
X226859Y269511D01*
X221161Y269511D01*
X221091Y269500D01*
X221019Y269498D01*
X220970Y269480D01*
X220919Y269472D01*
X220855Y269438D01*
X220788Y269413D01*
X220747Y269381D01*
X220701Y269356D01*
X220652Y269304D01*
X220596Y269260D01*
X220568Y269216D01*
X220532Y269178D01*
X220502Y269113D01*
X220463Y269053D01*
X220450Y269002D01*
X220428Y268955D01*
X220420Y268884D01*
X220403Y268814D01*
X220407Y268762D01*
X220401Y268711D01*
X220416Y268640D01*
X220422Y268569D01*
X220442Y268521D01*
X220453Y268470D01*
X220490Y268409D01*
X220518Y268343D01*
X220563Y268287D01*
X220580Y268259D01*
X220597Y268244D01*
X220623Y268212D01*
X223112Y265723D01*
X223112Y261327D01*
X220003Y258218D01*
X215607Y258218D01*
X213727Y260098D01*
X213653Y260151D01*
X213583Y260211D01*
X213553Y260223D01*
X213527Y260242D01*
X213440Y260269D01*
X213355Y260303D01*
X213314Y260307D01*
X213292Y260314D01*
X213260Y260313D01*
X213189Y260321D01*
X208126Y260321D01*
X208056Y260310D01*
X207984Y260308D01*
X207935Y260290D01*
X207884Y260282D01*
X207820Y260248D01*
X207753Y260223D01*
X207712Y260191D01*
X207666Y260166D01*
X207617Y260114D01*
X207561Y260070D01*
X207533Y260026D01*
X207497Y259988D01*
X207467Y259923D01*
X207428Y259863D01*
X207415Y259812D01*
X207393Y259765D01*
X207385Y259694D01*
X207368Y259624D01*
X207372Y259572D01*
X207366Y259521D01*
X207381Y259450D01*
X207387Y259379D01*
X207407Y259331D01*
X207418Y259280D01*
X207455Y259219D01*
X207483Y259153D01*
X207528Y259097D01*
X207545Y259069D01*
X207562Y259054D01*
X207588Y259022D01*
X209777Y256833D01*
X209777Y252437D01*
X206668Y249328D01*
X202272Y249328D01*
X200110Y251490D01*
X200036Y251543D01*
X199966Y251603D01*
X199936Y251615D01*
X199910Y251634D01*
X199823Y251661D01*
X199738Y251695D01*
X199697Y251699D01*
X199675Y251706D01*
X199643Y251705D01*
X199572Y251713D01*
X194509Y251713D01*
X194439Y251702D01*
X194367Y251700D01*
X194318Y251682D01*
X194267Y251674D01*
X194203Y251640D01*
X194136Y251615D01*
X194095Y251583D01*
X194049Y251558D01*
X194000Y251506D01*
X193944Y251462D01*
X193916Y251418D01*
X193880Y251380D01*
X193850Y251315D01*
X193811Y251255D01*
X193798Y251204D01*
X193776Y251157D01*
X193768Y251086D01*
X193751Y251016D01*
X193755Y250964D01*
X193749Y250913D01*
X193764Y250842D01*
X193770Y250771D01*
X193790Y250723D01*
X193801Y250672D01*
X193838Y250611D01*
X193866Y250545D01*
X193911Y250489D01*
X193928Y250461D01*
X193945Y250446D01*
X193971Y250414D01*
X195807Y248578D01*
X195807Y244182D01*
X192698Y241073D01*
X188302Y241073D01*
X186267Y243108D01*
X186193Y243161D01*
X186123Y243221D01*
X186093Y243233D01*
X186067Y243252D01*
X185980Y243279D01*
X185895Y243313D01*
X185854Y243317D01*
X185832Y243324D01*
X185800Y243323D01*
X185729Y243331D01*
X181936Y243331D01*
X181866Y243320D01*
X181794Y243318D01*
X181745Y243300D01*
X181694Y243292D01*
X181630Y243258D01*
X181563Y243233D01*
X181522Y243201D01*
X181476Y243176D01*
X181427Y243124D01*
X181371Y243080D01*
X181343Y243036D01*
X181307Y242998D01*
X181277Y242933D01*
X181238Y242873D01*
X181225Y242822D01*
X181203Y242775D01*
X181195Y242704D01*
X181178Y242634D01*
X181182Y242582D01*
X181176Y242531D01*
X181191Y242460D01*
X181197Y242389D01*
X181217Y242341D01*
X181228Y242290D01*
X181265Y242229D01*
X181293Y242163D01*
X181338Y242107D01*
X181355Y242079D01*
X181372Y242064D01*
X181398Y242032D01*
X183107Y240323D01*
X183107Y235927D01*
X179998Y232818D01*
X177120Y232818D01*
X177030Y232804D01*
X176939Y232796D01*
X176909Y232784D01*
X176877Y232779D01*
X176797Y232736D01*
X176713Y232700D01*
X176681Y232674D01*
X176660Y232663D01*
X176638Y232640D01*
X176582Y232595D01*
X158847Y214860D01*
X157885Y213898D01*
X157843Y213840D01*
X157794Y213788D01*
X157772Y213741D01*
X157741Y213699D01*
X157720Y213630D01*
X157690Y213565D01*
X157684Y213513D01*
X157669Y213463D01*
X157671Y213392D01*
X157663Y213321D01*
X157674Y213270D01*
X157675Y213218D01*
X157700Y213150D01*
X157715Y213080D01*
X157742Y213035D01*
X157760Y212987D01*
X157805Y212931D01*
X157841Y212869D01*
X157881Y212835D01*
X157913Y212795D01*
X157974Y212756D01*
X158028Y212709D01*
X158077Y212690D01*
X158120Y212662D01*
X158190Y212644D01*
X158256Y212617D01*
X158328Y212609D01*
X158359Y212601D01*
X158382Y212603D01*
X158423Y212599D01*
X168602Y212599D01*
X168692Y212613D01*
X168783Y212621D01*
X168813Y212633D01*
X168845Y212638D01*
X168925Y212681D01*
X169009Y212717D01*
X169041Y212743D01*
X169062Y212754D01*
X169084Y212777D01*
X169140Y212822D01*
X185605Y229287D01*
X185658Y229361D01*
X185718Y229430D01*
X185730Y229460D01*
X185749Y229487D01*
X185776Y229574D01*
X185810Y229658D01*
X185814Y229699D01*
X185821Y229722D01*
X185820Y229754D01*
X185828Y229825D01*
X185828Y232703D01*
X188937Y235812D01*
X193333Y235812D01*
X196442Y232703D01*
X196442Y228307D01*
X193333Y225198D01*
X190455Y225198D01*
X190365Y225184D01*
X190274Y225176D01*
X190244Y225164D01*
X190212Y225159D01*
X190132Y225116D01*
X190048Y225080D01*
X190016Y225054D01*
X189995Y225043D01*
X189973Y225020D01*
X189917Y224975D01*
X173452Y208510D01*
X172816Y207874D01*
X172774Y207816D01*
X172725Y207764D01*
X172703Y207717D01*
X172672Y207675D01*
X172651Y207606D01*
X172621Y207541D01*
X172615Y207489D01*
X172600Y207439D01*
X172602Y207368D01*
X172594Y207297D01*
X172605Y207246D01*
X172606Y207194D01*
X172631Y207126D01*
X172646Y207056D01*
X172673Y207011D01*
X172691Y206963D01*
X172736Y206907D01*
X172772Y206845D01*
X172812Y206811D01*
X172844Y206771D01*
X172905Y206732D01*
X172959Y206685D01*
X173008Y206666D01*
X173051Y206638D01*
X173121Y206620D01*
X173187Y206593D01*
X173259Y206585D01*
X173290Y206577D01*
X173313Y206579D01*
X173354Y206575D01*
X184168Y206575D01*
X184258Y206589D01*
X184349Y206597D01*
X184379Y206609D01*
X184411Y206614D01*
X184491Y206657D01*
X184575Y206693D01*
X184607Y206719D01*
X184628Y206730D01*
X184650Y206753D01*
X184706Y206798D01*
X199575Y221667D01*
X199628Y221741D01*
X199688Y221810D01*
X199700Y221840D01*
X199719Y221867D01*
X199746Y221954D01*
X199780Y222038D01*
X199784Y222079D01*
X199791Y222102D01*
X199790Y222134D01*
X199798Y222205D01*
X199798Y225083D01*
X202907Y228192D01*
X207303Y228192D01*
X210412Y225083D01*
X210412Y220687D01*
X207303Y217578D01*
X204425Y217578D01*
X204335Y217564D01*
X204244Y217556D01*
X204214Y217544D01*
X204182Y217539D01*
X204102Y217496D01*
X204018Y217460D01*
X203986Y217434D01*
X203965Y217423D01*
X203943Y217400D01*
X203887Y217355D01*
X189018Y202486D01*
X188564Y202032D01*
X188522Y201974D01*
X188473Y201922D01*
X188451Y201875D01*
X188420Y201833D01*
X188399Y201764D01*
X188369Y201699D01*
X188363Y201647D01*
X188348Y201597D01*
X188350Y201526D01*
X188342Y201455D01*
X188353Y201404D01*
X188354Y201352D01*
X188379Y201284D01*
X188394Y201214D01*
X188421Y201169D01*
X188439Y201121D01*
X188484Y201065D01*
X188520Y201003D01*
X188560Y200969D01*
X188592Y200929D01*
X188653Y200890D01*
X188707Y200843D01*
X188756Y200824D01*
X188799Y200796D01*
X188869Y200778D01*
X188935Y200751D01*
X189007Y200743D01*
X189038Y200735D01*
X189061Y200737D01*
X189102Y200733D01*
X199281Y200733D01*
X199371Y200747D01*
X199462Y200755D01*
X199492Y200767D01*
X199524Y200772D01*
X199604Y200815D01*
X199688Y200851D01*
X199720Y200877D01*
X199741Y200888D01*
X199763Y200911D01*
X199819Y200956D01*
X212910Y214047D01*
X212963Y214121D01*
X213023Y214190D01*
X213035Y214220D01*
X213054Y214247D01*
X213081Y214334D01*
X213115Y214418D01*
X213119Y214459D01*
X213126Y214482D01*
X213125Y214514D01*
X213133Y214585D01*
X213133Y217463D01*
X216242Y220572D01*
X220638Y220572D01*
X223747Y217463D01*
X223747Y213067D01*
X220638Y209958D01*
X217760Y209958D01*
X217670Y209944D01*
X217579Y209936D01*
X217549Y209924D01*
X217517Y209919D01*
X217437Y209876D01*
X217353Y209840D01*
X217321Y209814D01*
X217300Y209803D01*
X217278Y209780D01*
X217222Y209735D01*
X204947Y197460D01*
X204905Y197402D01*
X204856Y197350D01*
X204834Y197303D01*
X204803Y197261D01*
X204782Y197192D01*
X204752Y197127D01*
X204746Y197075D01*
X204731Y197025D01*
X204733Y196954D01*
X204725Y196883D01*
X204736Y196832D01*
X204737Y196780D01*
X204762Y196712D01*
X204777Y196642D01*
X204804Y196597D01*
X204822Y196549D01*
X204867Y196493D01*
X204903Y196431D01*
X204943Y196397D01*
X204975Y196357D01*
X205036Y196318D01*
X205090Y196271D01*
X205139Y196252D01*
X205182Y196224D01*
X205252Y196206D01*
X205318Y196179D01*
X205390Y196171D01*
X205421Y196163D01*
X205444Y196165D01*
X205485Y196161D01*
X237745Y196161D01*
X237816Y196172D01*
X237887Y196174D01*
X237936Y196192D01*
X237988Y196200D01*
X238051Y196234D01*
X238118Y196259D01*
X238159Y196291D01*
X238205Y196316D01*
X238254Y196368D01*
X238310Y196412D01*
X238339Y196456D01*
X238374Y196494D01*
X238405Y196559D01*
X238443Y196619D01*
X238456Y196670D01*
X238478Y196717D01*
X238486Y196788D01*
X238503Y196858D01*
X238499Y196910D01*
X238505Y196961D01*
X238490Y197032D01*
X238484Y197103D01*
X238464Y197151D01*
X238453Y197202D01*
X238416Y197263D01*
X238388Y197329D01*
X238343Y197385D01*
X238327Y197413D01*
X238309Y197428D01*
X238283Y197460D01*
X233628Y202115D01*
X233554Y202168D01*
X233485Y202228D01*
X233455Y202240D01*
X233428Y202259D01*
X233341Y202286D01*
X233257Y202320D01*
X233216Y202324D01*
X233193Y202331D01*
X233161Y202330D01*
X233090Y202338D01*
X230212Y202338D01*
X227103Y205447D01*
X227103Y209843D01*
X230212Y212952D01*
X234608Y212952D01*
X237717Y209843D01*
X237717Y206965D01*
X237731Y206875D01*
X237739Y206784D01*
X237751Y206754D01*
X237756Y206722D01*
X237799Y206642D01*
X237835Y206558D01*
X237861Y206526D01*
X237872Y206505D01*
X237895Y206483D01*
X237940Y206427D01*
X243411Y200956D01*
X243485Y200903D01*
X243554Y200843D01*
X243584Y200831D01*
X243611Y200812D01*
X243698Y200785D01*
X243782Y200751D01*
X243823Y200747D01*
X243846Y200740D01*
X243878Y200741D01*
X243949Y200733D01*
X395297Y200733D01*
X395387Y200747D01*
X395478Y200755D01*
X395508Y200767D01*
X395540Y200772D01*
X395620Y200815D01*
X395704Y200851D01*
X395736Y200877D01*
X395757Y200888D01*
X395779Y200911D01*
X395835Y200956D01*
X400870Y205991D01*
X400923Y206065D01*
X400983Y206134D01*
X400995Y206164D01*
X401014Y206191D01*
X401041Y206278D01*
X401075Y206362D01*
X401079Y206403D01*
X401086Y206426D01*
X401085Y206458D01*
X401093Y206529D01*
X401093Y209843D01*
X404202Y212952D01*
X408598Y212952D01*
X411707Y209843D01*
X411707Y205447D01*
X408598Y202338D01*
X406156Y202338D01*
X406066Y202324D01*
X405975Y202316D01*
X405945Y202304D01*
X405913Y202299D01*
X405833Y202256D01*
X405749Y202220D01*
X405717Y202194D01*
X405696Y202183D01*
X405674Y202160D01*
X405618Y202115D01*
X398138Y194635D01*
X382047Y194635D01*
X381976Y194624D01*
X381904Y194622D01*
X381855Y194604D01*
X381804Y194596D01*
X381741Y194562D01*
X381673Y194537D01*
X381633Y194505D01*
X381587Y194480D01*
X381537Y194428D01*
X381481Y194384D01*
X381453Y194340D01*
X381417Y194302D01*
X381387Y194237D01*
X381348Y194177D01*
X381336Y194126D01*
X381314Y194079D01*
X381306Y194008D01*
X381288Y193938D01*
X381292Y193886D01*
X381287Y193835D01*
X381302Y193764D01*
X381307Y193693D01*
X381328Y193645D01*
X381339Y193594D01*
X381376Y193533D01*
X381404Y193467D01*
X381449Y193411D01*
X381465Y193383D01*
X381483Y193368D01*
X381509Y193336D01*
X382097Y192747D01*
X383911Y188369D01*
X383911Y183631D01*
X382219Y179546D01*
X382204Y179482D01*
X382179Y179421D01*
X382170Y179338D01*
X382163Y179306D01*
X382164Y179287D01*
X382161Y179254D01*
X382161Y147320D01*
X382164Y147300D01*
X382162Y147281D01*
X382184Y147179D01*
X382201Y147077D01*
X382210Y147060D01*
X382214Y147040D01*
X382267Y146951D01*
X382316Y146860D01*
X382330Y146846D01*
X382340Y146829D01*
X382419Y146762D01*
X382494Y146691D01*
X382512Y146682D01*
X382527Y146669D01*
X382623Y146630D01*
X382717Y146587D01*
X382737Y146585D01*
X382755Y146577D01*
X382922Y146559D01*
X406085Y146559D01*
X410719Y141925D01*
X410719Y78911D01*
X410730Y78841D01*
X410732Y78769D01*
X410750Y78720D01*
X410759Y78669D01*
X410792Y78605D01*
X410817Y78538D01*
X410849Y78497D01*
X410874Y78451D01*
X410926Y78402D01*
X410970Y78346D01*
X411014Y78318D01*
X411052Y78282D01*
X411117Y78252D01*
X411177Y78213D01*
X411228Y78200D01*
X411275Y78178D01*
X411346Y78170D01*
X411416Y78153D01*
X411468Y78157D01*
X411519Y78151D01*
X411590Y78166D01*
X411661Y78172D01*
X411709Y78192D01*
X411760Y78203D01*
X411821Y78240D01*
X411887Y78268D01*
X411943Y78313D01*
X411971Y78330D01*
X411986Y78347D01*
X412018Y78373D01*
X415152Y81507D01*
X419548Y81507D01*
X422657Y78398D01*
X422657Y74002D01*
X420622Y71967D01*
X420569Y71893D01*
X420509Y71823D01*
X420497Y71793D01*
X420478Y71767D01*
X420451Y71680D01*
X420417Y71595D01*
X420413Y71554D01*
X420406Y71532D01*
X420407Y71500D01*
X420399Y71429D01*
X420399Y65558D01*
X420413Y65468D01*
X420421Y65377D01*
X420433Y65347D01*
X420438Y65315D01*
X420481Y65235D01*
X420517Y65151D01*
X420543Y65119D01*
X420554Y65098D01*
X420577Y65076D01*
X420622Y65020D01*
X438247Y47395D01*
X438305Y47353D01*
X438357Y47304D01*
X438404Y47282D01*
X438446Y47251D01*
X438515Y47230D01*
X438580Y47200D01*
X438632Y47194D01*
X438682Y47179D01*
X438753Y47181D01*
X438824Y47173D01*
X438875Y47184D01*
G37*
G36*
X108098Y10164D02*
X108098Y10164D01*
X108117Y10162D01*
X108219Y10184D01*
X108321Y10200D01*
X108338Y10210D01*
X108358Y10214D01*
X108447Y10267D01*
X108538Y10316D01*
X108552Y10330D01*
X108569Y10340D01*
X108636Y10419D01*
X108708Y10494D01*
X108716Y10512D01*
X108729Y10527D01*
X108768Y10623D01*
X108811Y10717D01*
X108813Y10737D01*
X108821Y10755D01*
X108839Y10922D01*
X108839Y119182D01*
X108828Y119252D01*
X108826Y119324D01*
X108808Y119373D01*
X108800Y119424D01*
X108766Y119488D01*
X108741Y119555D01*
X108709Y119596D01*
X108684Y119642D01*
X108633Y119691D01*
X108588Y119747D01*
X108544Y119775D01*
X108506Y119811D01*
X108441Y119841D01*
X108381Y119880D01*
X108330Y119893D01*
X108283Y119915D01*
X108212Y119923D01*
X108142Y119940D01*
X108090Y119936D01*
X108039Y119942D01*
X107968Y119927D01*
X107897Y119921D01*
X107849Y119901D01*
X107798Y119890D01*
X107737Y119853D01*
X107671Y119825D01*
X107615Y119780D01*
X107587Y119763D01*
X107572Y119746D01*
X107540Y119720D01*
X107412Y119592D01*
X107358Y119518D01*
X107299Y119448D01*
X107287Y119418D01*
X107268Y119392D01*
X107241Y119305D01*
X107207Y119220D01*
X107203Y119179D01*
X107196Y119157D01*
X107197Y119125D01*
X107189Y119054D01*
X107189Y100337D01*
X93802Y86951D01*
X93735Y86857D01*
X93664Y86762D01*
X93662Y86756D01*
X93659Y86751D01*
X93625Y86640D01*
X93588Y86528D01*
X93588Y86522D01*
X93586Y86516D01*
X93590Y86399D01*
X93591Y86282D01*
X93593Y86275D01*
X93593Y86270D01*
X93599Y86253D01*
X93637Y86121D01*
X94743Y83453D01*
X94743Y79107D01*
X93080Y75093D01*
X90007Y72020D01*
X85993Y70357D01*
X81647Y70357D01*
X77633Y72020D01*
X74560Y75093D01*
X72897Y79107D01*
X72897Y83453D01*
X74560Y87467D01*
X77633Y90540D01*
X81647Y92203D01*
X85993Y92203D01*
X88661Y91097D01*
X88775Y91071D01*
X88888Y91042D01*
X88895Y91043D01*
X88901Y91041D01*
X89017Y91052D01*
X89134Y91061D01*
X89139Y91064D01*
X89146Y91064D01*
X89253Y91112D01*
X89360Y91158D01*
X89366Y91162D01*
X89370Y91164D01*
X89384Y91177D01*
X89491Y91262D01*
X100868Y102640D01*
X100921Y102714D01*
X100981Y102783D01*
X100993Y102813D01*
X101012Y102840D01*
X101039Y102927D01*
X101073Y103011D01*
X101077Y103052D01*
X101084Y103075D01*
X101083Y103107D01*
X101091Y103178D01*
X101091Y119054D01*
X101077Y119144D01*
X101069Y119235D01*
X101057Y119264D01*
X101052Y119296D01*
X101009Y119377D01*
X100973Y119461D01*
X100947Y119493D01*
X100936Y119514D01*
X100913Y119536D01*
X100868Y119592D01*
X98833Y121627D01*
X98833Y126023D01*
X101942Y129132D01*
X106338Y129132D01*
X107540Y127930D01*
X107598Y127888D01*
X107650Y127839D01*
X107697Y127817D01*
X107739Y127787D01*
X107808Y127765D01*
X107873Y127735D01*
X107925Y127730D01*
X107975Y127714D01*
X108046Y127716D01*
X108117Y127708D01*
X108168Y127719D01*
X108220Y127721D01*
X108288Y127745D01*
X108358Y127760D01*
X108403Y127787D01*
X108451Y127805D01*
X108507Y127850D01*
X108569Y127887D01*
X108603Y127926D01*
X108643Y127959D01*
X108682Y128019D01*
X108729Y128074D01*
X108748Y128122D01*
X108776Y128166D01*
X108794Y128235D01*
X108821Y128302D01*
X108829Y128373D01*
X108837Y128404D01*
X108835Y128427D01*
X108839Y128468D01*
X108839Y150297D01*
X108828Y150367D01*
X108826Y150439D01*
X108808Y150488D01*
X108800Y150539D01*
X108766Y150603D01*
X108741Y150670D01*
X108709Y150711D01*
X108684Y150757D01*
X108633Y150806D01*
X108588Y150862D01*
X108544Y150890D01*
X108506Y150926D01*
X108441Y150956D01*
X108381Y150995D01*
X108330Y151008D01*
X108283Y151030D01*
X108212Y151038D01*
X108142Y151055D01*
X108090Y151051D01*
X108039Y151057D01*
X107968Y151042D01*
X107897Y151036D01*
X107849Y151016D01*
X107798Y151005D01*
X107737Y150968D01*
X107671Y150940D01*
X107615Y150895D01*
X107587Y150878D01*
X107572Y150861D01*
X107540Y150835D01*
X107412Y150707D01*
X107358Y150633D01*
X107299Y150563D01*
X107287Y150533D01*
X107268Y150507D01*
X107241Y150420D01*
X107207Y150335D01*
X107203Y150294D01*
X107196Y150272D01*
X107197Y150240D01*
X107189Y150169D01*
X107189Y138437D01*
X95347Y126595D01*
X95294Y126521D01*
X95234Y126452D01*
X95222Y126422D01*
X95203Y126395D01*
X95176Y126308D01*
X95142Y126224D01*
X95138Y126183D01*
X95131Y126160D01*
X95132Y126128D01*
X95124Y126057D01*
X95124Y113672D01*
X93802Y112351D01*
X93735Y112256D01*
X93664Y112162D01*
X93662Y112156D01*
X93659Y112151D01*
X93625Y112040D01*
X93588Y111928D01*
X93588Y111922D01*
X93586Y111916D01*
X93590Y111799D01*
X93591Y111682D01*
X93593Y111675D01*
X93593Y111670D01*
X93599Y111653D01*
X93637Y111521D01*
X94743Y108853D01*
X94743Y104507D01*
X93080Y100493D01*
X90007Y97420D01*
X85993Y95757D01*
X81647Y95757D01*
X77633Y97420D01*
X74560Y100493D01*
X72897Y104507D01*
X72897Y108853D01*
X74560Y112867D01*
X77633Y115940D01*
X81647Y117603D01*
X85993Y117603D01*
X87974Y116782D01*
X88018Y116772D01*
X88060Y116752D01*
X88137Y116744D01*
X88213Y116726D01*
X88259Y116730D01*
X88304Y116725D01*
X88381Y116742D01*
X88458Y116749D01*
X88500Y116768D01*
X88545Y116777D01*
X88612Y116817D01*
X88683Y116849D01*
X88717Y116880D01*
X88756Y116904D01*
X88807Y116963D01*
X88864Y117015D01*
X88886Y117056D01*
X88916Y117091D01*
X88945Y117163D01*
X88982Y117231D01*
X88991Y117276D01*
X88998Y117292D01*
X88999Y117296D01*
X89008Y117319D01*
X89023Y117455D01*
X89026Y117473D01*
X89025Y117478D01*
X89026Y117485D01*
X89026Y128898D01*
X100868Y140740D01*
X100921Y140814D01*
X100981Y140883D01*
X100993Y140913D01*
X101012Y140940D01*
X101039Y141027D01*
X101073Y141111D01*
X101077Y141152D01*
X101084Y141175D01*
X101083Y141207D01*
X101091Y141278D01*
X101091Y150169D01*
X101077Y150259D01*
X101069Y150350D01*
X101057Y150379D01*
X101052Y150411D01*
X101009Y150492D01*
X100973Y150576D01*
X100947Y150608D01*
X100936Y150629D01*
X100913Y150651D01*
X100868Y150707D01*
X98833Y152742D01*
X98833Y157138D01*
X101942Y160247D01*
X106338Y160247D01*
X107540Y159045D01*
X107598Y159003D01*
X107650Y158954D01*
X107697Y158932D01*
X107739Y158902D01*
X107808Y158880D01*
X107873Y158850D01*
X107925Y158845D01*
X107975Y158829D01*
X108046Y158831D01*
X108117Y158823D01*
X108168Y158834D01*
X108220Y158836D01*
X108288Y158860D01*
X108358Y158875D01*
X108403Y158902D01*
X108451Y158920D01*
X108507Y158965D01*
X108569Y159002D01*
X108603Y159041D01*
X108643Y159074D01*
X108682Y159134D01*
X108729Y159189D01*
X108748Y159237D01*
X108776Y159281D01*
X108794Y159350D01*
X108821Y159417D01*
X108829Y159488D01*
X108837Y159519D01*
X108835Y159542D01*
X108839Y159583D01*
X108839Y179254D01*
X108829Y179319D01*
X108828Y179385D01*
X108805Y179465D01*
X108800Y179497D01*
X108790Y179514D01*
X108781Y179546D01*
X107089Y183631D01*
X107089Y188369D01*
X107515Y189397D01*
X107537Y189492D01*
X107566Y189585D01*
X107565Y189611D01*
X107571Y189637D01*
X107562Y189734D01*
X107560Y189831D01*
X107551Y189856D01*
X107548Y189882D01*
X107509Y189971D01*
X107475Y190062D01*
X107459Y190083D01*
X107448Y190106D01*
X107382Y190178D01*
X107322Y190254D01*
X107300Y190268D01*
X107282Y190288D01*
X107197Y190334D01*
X107115Y190387D01*
X107089Y190394D01*
X107066Y190406D01*
X106970Y190424D01*
X106876Y190447D01*
X106850Y190445D01*
X106824Y190450D01*
X106728Y190436D01*
X106631Y190428D01*
X106607Y190418D01*
X106581Y190414D01*
X106494Y190370D01*
X106405Y190332D01*
X106379Y190311D01*
X106362Y190303D01*
X106339Y190279D01*
X106274Y190227D01*
X88679Y172633D01*
X88626Y172559D01*
X88567Y172489D01*
X88554Y172459D01*
X88536Y172433D01*
X88509Y172346D01*
X88475Y172261D01*
X88470Y172220D01*
X88463Y172198D01*
X88464Y172166D01*
X88456Y172094D01*
X88456Y167330D01*
X67620Y146494D01*
X47616Y146494D01*
X47526Y146479D01*
X47435Y146472D01*
X47405Y146459D01*
X47373Y146454D01*
X47292Y146411D01*
X47208Y146376D01*
X47176Y146350D01*
X47156Y146339D01*
X47133Y146316D01*
X47077Y146271D01*
X46769Y145963D01*
X46716Y145889D01*
X46657Y145819D01*
X46644Y145789D01*
X46626Y145763D01*
X46599Y145676D01*
X46565Y145591D01*
X46560Y145550D01*
X46553Y145528D01*
X46554Y145496D01*
X46546Y145424D01*
X46546Y125420D01*
X41372Y120245D01*
X41319Y120171D01*
X41259Y120102D01*
X41247Y120072D01*
X41228Y120045D01*
X41201Y119958D01*
X41167Y119874D01*
X41163Y119833D01*
X41156Y119810D01*
X41157Y119778D01*
X41149Y119707D01*
X41149Y70492D01*
X35022Y64365D01*
X34969Y64291D01*
X34909Y64222D01*
X34897Y64192D01*
X34878Y64165D01*
X34851Y64078D01*
X34817Y63994D01*
X34813Y63953D01*
X34806Y63930D01*
X34807Y63898D01*
X34799Y63827D01*
X34799Y52712D01*
X28989Y46903D01*
X28936Y46829D01*
X28877Y46759D01*
X28864Y46729D01*
X28846Y46703D01*
X28819Y46616D01*
X28785Y46531D01*
X28780Y46490D01*
X28773Y46468D01*
X28774Y46436D01*
X28766Y46364D01*
X28766Y34615D01*
X22853Y28701D01*
X21041Y28701D01*
X20926Y28683D01*
X20810Y28665D01*
X20804Y28663D01*
X20798Y28662D01*
X20695Y28607D01*
X20590Y28554D01*
X20586Y28549D01*
X20581Y28546D01*
X20500Y28462D01*
X20418Y28378D01*
X20415Y28372D01*
X20411Y28368D01*
X20403Y28351D01*
X20337Y28231D01*
X20121Y27708D01*
X17712Y25299D01*
X14564Y23995D01*
X11140Y23995D01*
X11127Y24002D01*
X11050Y24010D01*
X10974Y24028D01*
X10928Y24024D01*
X10883Y24029D01*
X10807Y24012D01*
X10729Y24005D01*
X10687Y23986D01*
X10642Y23976D01*
X10575Y23936D01*
X10504Y23905D01*
X10470Y23874D01*
X10431Y23850D01*
X10381Y23791D01*
X10323Y23738D01*
X10301Y23698D01*
X10271Y23663D01*
X10242Y23591D01*
X10205Y23523D01*
X10196Y23478D01*
X10179Y23435D01*
X10164Y23300D01*
X10161Y23281D01*
X10162Y23276D01*
X10161Y23268D01*
X10161Y21852D01*
X10168Y21806D01*
X10166Y21760D01*
X10188Y21686D01*
X10200Y21609D01*
X10222Y21568D01*
X10235Y21524D01*
X10279Y21460D01*
X10316Y21391D01*
X10349Y21360D01*
X10375Y21322D01*
X10438Y21276D01*
X10494Y21222D01*
X10536Y21203D01*
X10573Y21175D01*
X10646Y21151D01*
X10717Y21118D01*
X10763Y21113D01*
X10806Y21099D01*
X10884Y21100D01*
X10961Y21091D01*
X11006Y21101D01*
X11052Y21102D01*
X11132Y21125D01*
X14564Y21125D01*
X17712Y19821D01*
X20121Y17412D01*
X21425Y14264D01*
X21425Y10922D01*
X21428Y10902D01*
X21426Y10883D01*
X21448Y10781D01*
X21464Y10679D01*
X21474Y10662D01*
X21478Y10642D01*
X21531Y10553D01*
X21580Y10462D01*
X21594Y10448D01*
X21604Y10431D01*
X21683Y10364D01*
X21758Y10292D01*
X21776Y10284D01*
X21791Y10271D01*
X21887Y10232D01*
X21981Y10189D01*
X22001Y10187D01*
X22019Y10179D01*
X22186Y10161D01*
X108078Y10161D01*
X108098Y10164D01*
G37*
%LPC*%
G36*
X376262Y258853D02*
X376262Y258853D01*
X373153Y261962D01*
X373153Y264121D01*
X373139Y264212D01*
X373131Y264302D01*
X373119Y264332D01*
X373114Y264364D01*
X373071Y264445D01*
X373035Y264529D01*
X373009Y264561D01*
X372998Y264582D01*
X372975Y264604D01*
X372930Y264660D01*
X345940Y291650D01*
X345866Y291703D01*
X345796Y291763D01*
X345766Y291775D01*
X345740Y291794D01*
X345653Y291821D01*
X345568Y291855D01*
X345527Y291859D01*
X345505Y291866D01*
X345473Y291865D01*
X345401Y291873D01*
X343242Y291873D01*
X340133Y294982D01*
X340133Y299378D01*
X343242Y302487D01*
X347638Y302487D01*
X350747Y299378D01*
X350747Y297219D01*
X350761Y297128D01*
X350769Y297038D01*
X350781Y297008D01*
X350786Y296976D01*
X350829Y296895D01*
X350865Y296811D01*
X350891Y296779D01*
X350902Y296758D01*
X350925Y296736D01*
X350970Y296680D01*
X377960Y269690D01*
X378034Y269637D01*
X378104Y269577D01*
X378134Y269565D01*
X378160Y269546D01*
X378247Y269519D01*
X378332Y269485D01*
X378373Y269481D01*
X378395Y269474D01*
X378427Y269475D01*
X378499Y269467D01*
X380658Y269467D01*
X383767Y266358D01*
X383767Y261962D01*
X380658Y258853D01*
X376262Y258853D01*
G37*
%LPD*%
%LPC*%
G36*
X56247Y44957D02*
X56247Y44957D01*
X52233Y46620D01*
X49160Y49693D01*
X47497Y53707D01*
X47497Y58053D01*
X49160Y62067D01*
X52233Y65140D01*
X56247Y66803D01*
X60593Y66803D01*
X64607Y65140D01*
X67680Y62067D01*
X69343Y58053D01*
X69343Y53707D01*
X67680Y49693D01*
X64607Y46620D01*
X60593Y44957D01*
X56247Y44957D01*
G37*
%LPD*%
%LPC*%
G36*
X81647Y44957D02*
X81647Y44957D01*
X77633Y46620D01*
X74560Y49693D01*
X72897Y53707D01*
X72897Y58053D01*
X74560Y62067D01*
X77633Y65140D01*
X81647Y66803D01*
X85993Y66803D01*
X90007Y65140D01*
X93080Y62067D01*
X94743Y58053D01*
X94743Y53707D01*
X93080Y49693D01*
X90007Y46620D01*
X85993Y44957D01*
X81647Y44957D01*
G37*
%LPD*%
%LPC*%
G36*
X56247Y70357D02*
X56247Y70357D01*
X52233Y72020D01*
X49160Y75093D01*
X47497Y79107D01*
X47497Y83453D01*
X49160Y87467D01*
X52233Y90540D01*
X56247Y92203D01*
X60593Y92203D01*
X64607Y90540D01*
X67680Y87467D01*
X69343Y83453D01*
X69343Y79107D01*
X67680Y75093D01*
X64607Y72020D01*
X60593Y70357D01*
X56247Y70357D01*
G37*
%LPD*%
%LPC*%
G36*
X67652Y125503D02*
X67652Y125503D01*
X64543Y128612D01*
X64543Y133008D01*
X67652Y136117D01*
X69811Y136117D01*
X69902Y136131D01*
X69992Y136139D01*
X70022Y136151D01*
X70054Y136156D01*
X70135Y136199D01*
X70219Y136235D01*
X70251Y136261D01*
X70272Y136272D01*
X70294Y136295D01*
X70350Y136340D01*
X82100Y148090D01*
X82153Y148164D01*
X82213Y148234D01*
X82225Y148264D01*
X82244Y148290D01*
X82271Y148377D01*
X82305Y148462D01*
X82309Y148503D01*
X82316Y148525D01*
X82315Y148557D01*
X82323Y148629D01*
X82323Y150788D01*
X85432Y153897D01*
X89828Y153897D01*
X92937Y150788D01*
X92937Y146392D01*
X89828Y143283D01*
X87669Y143283D01*
X87578Y143269D01*
X87488Y143261D01*
X87458Y143249D01*
X87426Y143244D01*
X87345Y143201D01*
X87261Y143165D01*
X87229Y143139D01*
X87208Y143128D01*
X87186Y143105D01*
X87130Y143060D01*
X75380Y131310D01*
X75327Y131236D01*
X75267Y131166D01*
X75255Y131136D01*
X75236Y131110D01*
X75209Y131023D01*
X75175Y130938D01*
X75171Y130897D01*
X75164Y130875D01*
X75165Y130843D01*
X75157Y130771D01*
X75157Y128612D01*
X72048Y125503D01*
X67652Y125503D01*
G37*
%LPD*%
%LPC*%
G36*
X59943Y108203D02*
X59943Y108203D01*
X59943Y118526D01*
X61216Y118325D01*
X63003Y117744D01*
X64677Y116891D01*
X66198Y115786D01*
X67526Y114458D01*
X68631Y112937D01*
X69484Y111263D01*
X70065Y109476D01*
X70266Y108203D01*
X59943Y108203D01*
G37*
%LPD*%
%LPC*%
G36*
X434593Y156463D02*
X434593Y156463D01*
X434593Y166786D01*
X435866Y166585D01*
X437653Y166004D01*
X439327Y165151D01*
X440848Y164046D01*
X442176Y162718D01*
X443281Y161197D01*
X444134Y159523D01*
X444715Y157736D01*
X444916Y156463D01*
X434593Y156463D01*
G37*
%LPD*%
%LPC*%
G36*
X434593Y153417D02*
X434593Y153417D01*
X444916Y153417D01*
X444715Y152144D01*
X444134Y150357D01*
X443281Y148683D01*
X442176Y147162D01*
X440848Y145834D01*
X439327Y144729D01*
X437653Y143876D01*
X435866Y143295D01*
X434593Y143094D01*
X434593Y153417D01*
G37*
%LPD*%
%LPC*%
G36*
X59943Y105157D02*
X59943Y105157D01*
X70266Y105157D01*
X70065Y103884D01*
X69484Y102097D01*
X68631Y100423D01*
X67526Y98902D01*
X66198Y97574D01*
X64677Y96469D01*
X63003Y95616D01*
X61216Y95035D01*
X59943Y94834D01*
X59943Y105157D01*
G37*
%LPD*%
%LPC*%
G36*
X421224Y156463D02*
X421224Y156463D01*
X421425Y157736D01*
X422006Y159523D01*
X422859Y161197D01*
X423964Y162718D01*
X425292Y164046D01*
X426813Y165151D01*
X428487Y166004D01*
X430274Y166585D01*
X431547Y166786D01*
X431547Y156463D01*
X421224Y156463D01*
G37*
%LPD*%
%LPC*%
G36*
X46574Y108203D02*
X46574Y108203D01*
X46775Y109476D01*
X47356Y111263D01*
X48209Y112937D01*
X49314Y114458D01*
X50642Y115786D01*
X52163Y116891D01*
X53837Y117744D01*
X55624Y118325D01*
X56897Y118526D01*
X56897Y108203D01*
X46574Y108203D01*
G37*
%LPD*%
%LPC*%
G36*
X55624Y95035D02*
X55624Y95035D01*
X53837Y95616D01*
X52163Y96469D01*
X50642Y97574D01*
X49314Y98902D01*
X48209Y100423D01*
X47356Y102097D01*
X46775Y103884D01*
X46574Y105157D01*
X56897Y105157D01*
X56897Y94834D01*
X55624Y95035D01*
G37*
%LPD*%
%LPC*%
G36*
X430274Y143295D02*
X430274Y143295D01*
X428487Y143876D01*
X426813Y144729D01*
X425292Y145834D01*
X423964Y147162D01*
X422859Y148683D01*
X422006Y150357D01*
X421425Y152144D01*
X421224Y153417D01*
X431547Y153417D01*
X431547Y143094D01*
X430274Y143295D01*
G37*
%LPD*%
%LPC*%
G36*
X536801Y254083D02*
X536801Y254083D01*
X536915Y254803D01*
X537381Y256238D01*
X538066Y257581D01*
X538952Y258802D01*
X540018Y259868D01*
X541239Y260754D01*
X542582Y261439D01*
X544017Y261905D01*
X544737Y262019D01*
X544737Y254083D01*
X536801Y254083D01*
G37*
%LPD*%
%LPC*%
G36*
X544017Y243215D02*
X544017Y243215D01*
X542582Y243681D01*
X541239Y244366D01*
X540018Y245252D01*
X538952Y246318D01*
X538066Y247539D01*
X537381Y248882D01*
X536915Y250317D01*
X536801Y251037D01*
X544737Y251037D01*
X544737Y243101D01*
X544017Y243215D01*
G37*
%LPD*%
%LPC*%
G36*
X395199Y33249D02*
X395199Y33249D01*
X395199Y39691D01*
X396057Y39520D01*
X397528Y38911D01*
X398851Y38027D01*
X399977Y36901D01*
X400861Y35578D01*
X401470Y34107D01*
X401641Y33249D01*
X395199Y33249D01*
G37*
%LPD*%
%LPC*%
G36*
X395199Y30251D02*
X395199Y30251D01*
X401641Y30251D01*
X401470Y29393D01*
X400861Y27922D01*
X399977Y26599D01*
X398851Y25473D01*
X397528Y24589D01*
X396057Y23980D01*
X395199Y23809D01*
X395199Y30251D01*
G37*
%LPD*%
%LPC*%
G36*
X385759Y33249D02*
X385759Y33249D01*
X385930Y34107D01*
X386539Y35578D01*
X387423Y36901D01*
X388549Y38027D01*
X389872Y38911D01*
X391343Y39520D01*
X392201Y39691D01*
X392201Y33249D01*
X385759Y33249D01*
G37*
%LPD*%
%LPC*%
G36*
X391343Y23980D02*
X391343Y23980D01*
X389872Y24589D01*
X388549Y25473D01*
X387423Y26599D01*
X386539Y27922D01*
X385930Y29393D01*
X385759Y30251D01*
X392201Y30251D01*
X392201Y23809D01*
X391343Y23980D01*
G37*
%LPD*%
G36*
X394989Y173304D02*
X394989Y173304D01*
X395011Y173308D01*
X395018Y173323D01*
X395027Y173329D01*
X395026Y173339D01*
X395033Y173355D01*
X395033Y182182D01*
X395021Y182200D01*
X395017Y182223D01*
X395002Y182230D01*
X394996Y182239D01*
X394986Y182237D01*
X394970Y182244D01*
X392430Y182244D01*
X392411Y182232D01*
X392389Y182229D01*
X392382Y182213D01*
X392373Y182207D01*
X392374Y182197D01*
X392367Y182182D01*
X392367Y173355D01*
X392379Y173336D01*
X392383Y173314D01*
X392398Y173307D01*
X392404Y173298D01*
X392414Y173299D01*
X392430Y173292D01*
X394970Y173292D01*
X394989Y173304D01*
G37*
%LPC*%
G36*
X58419Y106679D02*
X58419Y106679D01*
X58419Y106681D01*
X58421Y106681D01*
X58421Y106679D01*
X58419Y106679D01*
G37*
%LPD*%
%LPC*%
G36*
X433069Y154939D02*
X433069Y154939D01*
X433069Y154941D01*
X433071Y154941D01*
X433071Y154939D01*
X433069Y154939D01*
G37*
%LPD*%
D10*
X546260Y312560D03*
X546260Y292560D03*
X546260Y272560D03*
X546260Y252560D03*
X546260Y232560D03*
X546260Y212560D03*
X546260Y192560D03*
X546260Y172560D03*
X546260Y152560D03*
X546260Y132560D03*
X546260Y112560D03*
X546260Y92560D03*
X546260Y72560D03*
X546260Y52560D03*
X546260Y32560D03*
X546260Y12560D03*
X12860Y312560D03*
X12860Y292560D03*
X12860Y272560D03*
X12860Y252560D03*
X12860Y232560D03*
X12860Y212560D03*
X12860Y192560D03*
X12860Y172560D03*
X12860Y152560D03*
X12860Y132560D03*
X12860Y112560D03*
X12860Y92560D03*
X12860Y72560D03*
X12860Y52560D03*
X12860Y32560D03*
X12860Y12560D03*
D11*
X433070Y154940D03*
X433070Y180340D03*
D12*
X393700Y158750D03*
X393700Y31750D03*
D11*
X83820Y55880D03*
X58420Y55880D03*
X83820Y81280D03*
X58420Y81280D03*
X83820Y106680D03*
X58420Y106680D03*
D13*
X393700Y175133D03*
X393700Y185547D03*
D14*
X365125Y257810D03*
X393700Y209550D03*
X495300Y19050D03*
X388620Y17780D03*
X504825Y139700D03*
X111125Y307975D03*
X382270Y281940D03*
X492760Y200660D03*
X78740Y289560D03*
X133350Y291465D03*
X388620Y307340D03*
X104140Y167640D03*
X480060Y297180D03*
X515620Y309880D03*
X525780Y243840D03*
X254000Y294005D03*
X365760Y289560D03*
D15*
X104140Y167640D02*
X103985Y167485D01*
X92421Y167485D01*
X58420Y133484D01*
X58420Y106680D01*
X365760Y289560D02*
X374650Y289560D01*
X382270Y281940D01*
D14*
X294640Y261620D03*
D15*
X323850Y261620D01*
X353695Y231775D01*
X419100Y231775D01*
X476250Y174625D01*
X476250Y78740D01*
X461010Y63500D01*
X450850Y63500D01*
D14*
X450850Y63500D03*
X309880Y292100D03*
D15*
X357505Y244475D01*
X422910Y244475D01*
X488950Y178435D01*
D14*
X450850Y88900D03*
D15*
X442595Y80645D01*
X442595Y47625D01*
X447675Y42545D01*
X458470Y42545D01*
X488950Y73025D01*
X488950Y178435D01*
D14*
X332740Y310515D03*
D15*
X365125Y310515D01*
X495300Y69850D02*
X461645Y36195D01*
X445135Y36195D01*
X417350Y63980D01*
X417350Y76200D01*
D14*
X417350Y76200D03*
D15*
X495300Y69850D02*
X495300Y180340D01*
X365125Y310515D01*
D14*
X177800Y238125D03*
D15*
X155575Y215900D01*
X103820Y215900D01*
X66515Y178595D01*
X21590Y132560D02*
X12860Y132560D01*
X66515Y174465D02*
X66515Y178595D01*
X61595Y169545D02*
X41275Y169545D01*
X25400Y153670D01*
X61595Y169545D02*
X66515Y174465D01*
X25400Y136370D02*
X21590Y132560D01*
X25400Y136370D02*
X25400Y153670D01*
D14*
X191135Y230505D03*
D15*
X170180Y209550D01*
X105791Y209550D01*
X72581Y176340D01*
X31433Y131128D02*
X25400Y125095D01*
X21760Y72560D02*
X12860Y72560D01*
X21760Y72560D02*
X25400Y76200D01*
X25400Y125095D01*
X72581Y172276D02*
X72581Y176340D01*
X63500Y163195D02*
X43180Y163195D01*
X63500Y163195D02*
X72581Y172276D01*
X31433Y151448D02*
X31433Y131128D01*
X31433Y151448D02*
X43180Y163195D01*
D14*
X205105Y222885D03*
D15*
X185746Y203526D01*
X107514Y203526D01*
X78994Y175006D01*
X78994Y170434D02*
X65405Y156845D01*
X37465Y128905D02*
X31750Y123190D01*
X22080Y52560D02*
X12860Y52560D01*
X22080Y52560D02*
X25400Y55880D01*
X25400Y67310D01*
X31750Y73660D01*
X31750Y123190D01*
X78994Y170434D02*
X78994Y175006D01*
X65405Y156845D02*
X45085Y156845D01*
X37465Y149225D01*
X37465Y128905D01*
D14*
X299720Y271780D03*
D15*
X321945Y271780D02*
X355600Y238125D01*
X321945Y271780D02*
X299720Y271780D01*
X355600Y238125D02*
X421005Y238125D01*
X482600Y176530D01*
X482600Y76084D01*
D14*
X450850Y50800D03*
D15*
X457316Y50800D02*
X482600Y76084D01*
X457316Y50800D02*
X450850Y50800D01*
D14*
X217805Y263525D03*
D15*
X217650Y263370D01*
X201930Y263370D01*
X144182Y234197D02*
X98307Y234197D01*
X198529Y259969D02*
X201930Y263370D01*
X198529Y259969D02*
X169954Y259969D01*
X144182Y234197D01*
D14*
X58420Y199390D03*
D15*
X63500Y199390D01*
X98307Y234197D01*
X26110Y219150D02*
X12860Y232400D01*
X12860Y232560D01*
X26110Y219150D02*
X26110Y215941D01*
X31560Y210491D01*
X31560Y198120D01*
X38545Y191135D01*
X55245Y191135D01*
X58420Y194310D01*
X58420Y199390D01*
D14*
X204470Y254635D03*
D15*
X204343Y254762D01*
X173990Y254762D01*
X21755Y212560D02*
X12860Y212560D01*
X100330Y228248D02*
X147476Y228248D01*
X173990Y254762D01*
X25718Y208598D02*
X21755Y212560D01*
X58137Y186055D02*
X100330Y228248D01*
X25718Y208598D02*
X25718Y195898D01*
X35560Y186055D01*
X58137Y186055D01*
D14*
X190500Y246380D03*
D15*
X173990Y246380D01*
X149860Y222250D01*
X102068Y222250D01*
D14*
X58420Y177800D03*
D15*
X57785Y177800D01*
X55880Y175895D01*
X39370Y175895D01*
X36035Y172560D01*
X12860Y172560D01*
X58420Y178602D02*
X102068Y222250D01*
X58420Y178602D02*
X58420Y177800D01*
D14*
X231775Y272415D03*
D15*
X231630Y272560D02*
X203200Y272560D01*
X231630Y272560D02*
X231775Y272415D01*
X203200Y272560D02*
X195435Y264795D01*
X167005Y264795D01*
X142249Y240039D01*
X95885Y240039D01*
D14*
X58420Y212090D03*
D15*
X104140Y123825D02*
X104140Y101600D01*
D14*
X104140Y123825D03*
D15*
X67936Y212090D02*
X95885Y240039D01*
X67936Y212090D02*
X58420Y212090D01*
X25400Y260020D02*
X12860Y272560D01*
X25400Y227965D02*
X31433Y221933D01*
X25400Y227965D02*
X25400Y260020D01*
X104140Y101600D02*
X83820Y81280D01*
X31433Y218354D02*
X31433Y221933D01*
X37465Y200025D02*
X40005Y197485D01*
X47625Y197485D01*
X50320Y200180D02*
X50320Y204124D01*
X58286Y212090D02*
X58420Y212090D01*
X58286Y212090D02*
X50320Y204124D01*
X37465Y212322D02*
X31433Y218354D01*
X37465Y212322D02*
X37465Y200025D01*
X47625Y197485D02*
X50320Y200180D01*
D14*
X289560Y251460D03*
X463550Y101600D03*
D15*
X351790Y225425D02*
X325755Y251460D01*
X351790Y225425D02*
X417195Y225425D01*
X469900Y172720D01*
X469900Y107950D01*
X463550Y101600D01*
X325755Y251460D02*
X289560Y251460D01*
D14*
X232410Y207645D03*
D15*
X242371Y197684D01*
X396875Y197684D01*
X406400Y207209D02*
X406400Y207645D01*
X406400Y207209D02*
X396875Y197684D01*
D14*
X406400Y207645D03*
X218440Y215265D03*
D15*
X200859Y197684D01*
X109419Y197684D01*
X25718Y35878D02*
X21590Y31750D01*
X13670Y31750D01*
X12860Y32560D01*
X85408Y173673D02*
X109419Y197684D01*
X85408Y168593D02*
X66358Y149543D01*
X43498Y126683D02*
X38100Y121285D01*
X25718Y47943D02*
X25718Y35878D01*
X31750Y65405D02*
X38100Y71755D01*
X31750Y53975D02*
X25718Y47943D01*
X31750Y53975D02*
X31750Y65405D01*
X38100Y71755D02*
X38100Y121285D01*
X85408Y168593D02*
X85408Y173673D01*
X66358Y149543D02*
X46038Y149543D01*
X43498Y147003D02*
X43498Y126683D01*
X43498Y147003D02*
X46038Y149543D01*
D14*
X304800Y281940D03*
X425450Y25400D03*
X520700Y162560D03*
X520700Y182880D03*
D16*
X510540Y285730D02*
X537370Y312560D01*
X546260Y312560D01*
X520700Y182880D02*
X520700Y162560D01*
X483434Y25400D02*
X425450Y25400D01*
X520700Y62666D02*
X520700Y162560D01*
X520700Y62666D02*
X483434Y25400D01*
D14*
X157480Y302895D03*
D16*
X283845Y302895D02*
X304800Y281940D01*
D14*
X101600Y299085D03*
D16*
X122555Y299085D02*
X126365Y302895D01*
X157480Y302895D02*
X283845Y302895D01*
D14*
X345440Y297180D03*
X378460Y264160D03*
X510540Y218440D03*
D16*
X510540Y208915D01*
X520700Y198755D01*
X520700Y182880D01*
X510540Y218440D02*
X510540Y285730D01*
X378460Y264160D02*
X345440Y297180D01*
D14*
X58420Y224790D03*
D16*
X101600Y299085D02*
X122555Y299085D01*
D14*
X58420Y273685D03*
D16*
X126365Y302895D02*
X157480Y302895D01*
D14*
X87630Y148590D03*
D15*
X58420Y55880D02*
X57964Y55880D01*
D14*
X69850Y130810D03*
D16*
X87630Y148590D01*
X58420Y224790D02*
X58420Y273685D01*
D14*
X69850Y307975D03*
X320040Y241300D03*
D15*
X99695Y283845D02*
X75565Y307975D01*
X69850Y307975D01*
X312420Y243840D02*
X314960Y241300D01*
X312420Y243840D02*
X281305Y243840D01*
X189865Y283845D02*
X99695Y283845D01*
X258763Y266383D02*
X281305Y243840D01*
X200025Y294005D02*
X189865Y283845D01*
X258763Y278448D02*
X258763Y266383D01*
X243205Y294005D02*
X200025Y294005D01*
X243205Y294005D02*
X258763Y278448D01*
X314960Y241300D02*
X320040Y241300D01*
D14*
X68580Y289560D03*
X294640Y231140D03*
D15*
X286519Y231140D01*
X191770Y277495D02*
X74930Y277495D01*
X68580Y283845D01*
X68580Y289560D01*
X191770Y277495D02*
X201930Y287655D01*
X252730Y264929D02*
X286519Y231140D01*
X241300Y287655D02*
X201930Y287655D01*
X241300Y287655D02*
X252730Y276225D01*
X252730Y264929D01*
D14*
X307340Y236220D03*
D15*
X307340Y227330D01*
X287020Y222885D02*
X246380Y263525D01*
X246380Y274320D01*
X239395Y281305D01*
X203835Y281305D02*
X193675Y271145D01*
X203835Y281305D02*
X239395Y281305D01*
X104140Y154940D02*
X104140Y139700D01*
D14*
X104140Y154940D03*
X70235Y225040D03*
D15*
X165100Y271145D02*
X193675Y271145D01*
X91574Y246380D02*
X70235Y225040D01*
X140335Y246380D02*
X165100Y271145D01*
X140335Y246380D02*
X91574Y246380D01*
X92075Y127635D02*
X92075Y114935D01*
X83820Y106680D01*
X92075Y127635D02*
X104140Y139700D01*
X433070Y180340D02*
X433070Y201295D01*
X415290Y219075D01*
X315595Y219075D02*
X307340Y227330D01*
X315595Y219075D02*
X415290Y219075D01*
X307340Y227330D02*
X302895Y222885D01*
X287020Y222885D01*
X393700Y185547D02*
X406273Y185547D01*
X411480Y180340D01*
X433070Y180340D01*
X393700Y175133D02*
X393700Y158750D01*
M02*
