G04 EAGLE Gerber RS-274X export*
G75*
%MOMM*%
%FSLAX34Y34*%
%LPD*%
%INSoldermask Bottom*%
%IPPOS*%
%AMOC8*
5,1,8,0,0,1.08239X$1,22.5*%
G01*
%ADD10C,1.611200*%
%ADD11C,2.082800*%
%ADD12C,1.311200*%
%ADD13R,1.473200X0.863600*%
%ADD14C,0.959600*%

G36*
X395035Y177812D02*
X395035Y177812D01*
X395101Y177814D01*
X395144Y177832D01*
X395191Y177840D01*
X395248Y177874D01*
X395308Y177899D01*
X395343Y177930D01*
X395384Y177955D01*
X395426Y178006D01*
X395474Y178050D01*
X395496Y178092D01*
X395525Y178129D01*
X395546Y178191D01*
X395577Y178250D01*
X395585Y178304D01*
X395597Y178341D01*
X395596Y178381D01*
X395604Y178435D01*
X395604Y182245D01*
X395593Y182310D01*
X395591Y182376D01*
X395573Y182419D01*
X395565Y182466D01*
X395531Y182523D01*
X395506Y182583D01*
X395475Y182618D01*
X395450Y182659D01*
X395399Y182701D01*
X395355Y182749D01*
X395313Y182771D01*
X395276Y182800D01*
X395214Y182821D01*
X395155Y182852D01*
X395101Y182860D01*
X395064Y182872D01*
X395024Y182871D01*
X394970Y182879D01*
X392430Y182879D01*
X392365Y182868D01*
X392299Y182866D01*
X392256Y182848D01*
X392209Y182840D01*
X392152Y182806D01*
X392092Y182781D01*
X392057Y182750D01*
X392016Y182725D01*
X391975Y182674D01*
X391926Y182630D01*
X391904Y182588D01*
X391875Y182551D01*
X391854Y182489D01*
X391823Y182430D01*
X391815Y182376D01*
X391803Y182339D01*
X391803Y182335D01*
X391803Y182334D01*
X391804Y182299D01*
X391796Y182245D01*
X391796Y178435D01*
X391807Y178370D01*
X391809Y178304D01*
X391827Y178261D01*
X391835Y178214D01*
X391869Y178157D01*
X391894Y178097D01*
X391925Y178062D01*
X391950Y178021D01*
X392001Y177980D01*
X392045Y177931D01*
X392087Y177909D01*
X392124Y177880D01*
X392186Y177859D01*
X392245Y177828D01*
X392299Y177820D01*
X392336Y177808D01*
X392376Y177809D01*
X392430Y177801D01*
X394970Y177801D01*
X395035Y177812D01*
G37*
D10*
X544177Y312560D03*
X544177Y292560D03*
X544177Y272560D03*
X544177Y252560D03*
X544177Y232560D03*
X544177Y212560D03*
X544177Y192560D03*
X544177Y172560D03*
X544177Y152560D03*
X544177Y132560D03*
X544177Y112560D03*
X544177Y92560D03*
X544177Y72560D03*
X544177Y52560D03*
X544177Y32560D03*
X544177Y12560D03*
X14003Y312560D03*
X14003Y292560D03*
X14003Y272560D03*
X14003Y252560D03*
X14003Y232560D03*
X14003Y212560D03*
X14003Y192560D03*
X14003Y172560D03*
X14003Y152560D03*
X14003Y132560D03*
X14003Y112560D03*
X14003Y92560D03*
X14003Y72560D03*
X14003Y52560D03*
X14003Y32560D03*
X14003Y12560D03*
D11*
X435610Y154940D03*
X435610Y180340D03*
D12*
X393700Y158750D03*
X393700Y31750D03*
D13*
X393700Y175133D03*
X393700Y185547D03*
D11*
X83820Y20320D03*
X83820Y45720D03*
X83820Y71120D03*
X83820Y96520D03*
X83820Y121920D03*
X83820Y147320D03*
D14*
X382270Y281940D03*
X101600Y175260D03*
X365760Y289560D03*
X133350Y227965D03*
X181610Y238125D03*
X471170Y229870D03*
X500380Y190500D03*
X406400Y254000D03*
X266700Y200660D03*
X88900Y309880D03*
X45720Y15240D03*
X480060Y284480D03*
X304800Y309880D03*
X294640Y271780D03*
X450850Y63500D03*
X309880Y289560D03*
X450850Y88900D03*
X339090Y307340D03*
X417350Y76200D03*
X193040Y238125D03*
X203835Y230505D03*
X214630Y222885D03*
X302260Y281940D03*
X450850Y50800D03*
X225425Y263525D03*
X58420Y199390D03*
X214630Y254635D03*
X203200Y246380D03*
X53340Y177800D03*
X236855Y272415D03*
X58420Y212090D03*
X393700Y198120D03*
X251460Y207645D03*
X237490Y207645D03*
X398780Y208280D03*
X225425Y215265D03*
X425450Y25400D03*
X345440Y297180D03*
X378460Y264160D03*
X58420Y236220D03*
X33020Y276860D03*
X104775Y309880D03*
X167640Y309880D03*
X500380Y226060D03*
X79375Y300990D03*
X320040Y246380D03*
X69215Y292100D03*
X294640Y231140D03*
X307340Y238760D03*
X58170Y223905D03*
X45720Y91440D03*
M02*
