G04 EAGLE Gerber RS-274X export*
G75*
%MOMM*%
%FSLAX34Y34*%
%LPD*%
%INSilkscreen Top*%
%IPPOS*%
%AMOC8*
5,1,8,0,0,1.08239X$1,22.5*%
G01*
%ADD10C,0.050800*%
%ADD11R,2.540000X2.540000*%
%ADD12C,0.152400*%
%ADD13C,0.076200*%
%ADD14C,0.203200*%
%ADD15C,0.025400*%
%ADD16C,0.127000*%
%ADD17C,0.200000*%

G36*
X442050Y141494D02*
X442050Y141494D01*
X442141Y141501D01*
X442171Y141513D01*
X442203Y141519D01*
X442283Y141561D01*
X442367Y141597D01*
X442399Y141623D01*
X442420Y141634D01*
X442442Y141657D01*
X442498Y141702D01*
X447578Y146782D01*
X447631Y146856D01*
X447691Y146925D01*
X447703Y146955D01*
X447722Y146981D01*
X447749Y147068D01*
X447783Y147153D01*
X447787Y147194D01*
X447794Y147217D01*
X447793Y147249D01*
X447801Y147320D01*
X447801Y162560D01*
X447787Y162650D01*
X447779Y162741D01*
X447767Y162771D01*
X447762Y162803D01*
X447719Y162883D01*
X447683Y162967D01*
X447657Y162999D01*
X447646Y163020D01*
X447623Y163042D01*
X447578Y163098D01*
X442498Y168178D01*
X442424Y168231D01*
X442355Y168291D01*
X442325Y168303D01*
X442299Y168322D01*
X442212Y168349D01*
X442127Y168383D01*
X442086Y168387D01*
X442063Y168394D01*
X442031Y168393D01*
X441960Y168401D01*
X429260Y168401D01*
X429170Y168387D01*
X429079Y168379D01*
X429049Y168367D01*
X429017Y168362D01*
X428937Y168319D01*
X428853Y168283D01*
X428821Y168257D01*
X428800Y168246D01*
X428778Y168223D01*
X428722Y168178D01*
X423642Y163098D01*
X423589Y163024D01*
X423529Y162955D01*
X423517Y162925D01*
X423498Y162899D01*
X423471Y162812D01*
X423437Y162727D01*
X423433Y162686D01*
X423426Y162663D01*
X423427Y162631D01*
X423419Y162560D01*
X423419Y147320D01*
X423434Y147230D01*
X423441Y147139D01*
X423453Y147109D01*
X423459Y147077D01*
X423501Y146997D01*
X423537Y146913D01*
X423563Y146881D01*
X423574Y146860D01*
X423597Y146838D01*
X423642Y146782D01*
X428722Y141702D01*
X428796Y141649D01*
X428865Y141589D01*
X428895Y141577D01*
X428921Y141558D01*
X429008Y141531D01*
X429093Y141497D01*
X429134Y141493D01*
X429157Y141486D01*
X429189Y141487D01*
X429260Y141479D01*
X441960Y141479D01*
X442050Y141494D01*
G37*
G36*
X556915Y243082D02*
X556915Y243082D01*
X556934Y243080D01*
X557036Y243102D01*
X557138Y243119D01*
X557155Y243128D01*
X557175Y243132D01*
X557264Y243185D01*
X557355Y243234D01*
X557369Y243248D01*
X557386Y243258D01*
X557453Y243337D01*
X557525Y243412D01*
X557533Y243430D01*
X557546Y243445D01*
X557585Y243541D01*
X557628Y243635D01*
X557630Y243655D01*
X557638Y243673D01*
X557656Y243840D01*
X557656Y261620D01*
X557653Y261640D01*
X557655Y261659D01*
X557633Y261761D01*
X557617Y261863D01*
X557607Y261880D01*
X557603Y261900D01*
X557550Y261989D01*
X557501Y262080D01*
X557487Y262094D01*
X557477Y262111D01*
X557398Y262178D01*
X557323Y262250D01*
X557305Y262258D01*
X557290Y262271D01*
X557194Y262310D01*
X557100Y262353D01*
X557080Y262355D01*
X557062Y262363D01*
X556895Y262381D01*
X535940Y262381D01*
X535920Y262378D01*
X535901Y262380D01*
X535799Y262358D01*
X535697Y262342D01*
X535680Y262332D01*
X535660Y262328D01*
X535571Y262275D01*
X535480Y262226D01*
X535466Y262212D01*
X535449Y262202D01*
X535382Y262123D01*
X535311Y262048D01*
X535302Y262030D01*
X535289Y262015D01*
X535250Y261919D01*
X535207Y261825D01*
X535205Y261805D01*
X535197Y261787D01*
X535179Y261620D01*
X535179Y243840D01*
X535182Y243820D01*
X535180Y243801D01*
X535202Y243699D01*
X535219Y243597D01*
X535228Y243580D01*
X535232Y243560D01*
X535285Y243471D01*
X535334Y243380D01*
X535348Y243366D01*
X535358Y243349D01*
X535437Y243282D01*
X535512Y243211D01*
X535530Y243202D01*
X535545Y243189D01*
X535641Y243150D01*
X535735Y243107D01*
X535755Y243105D01*
X535773Y243097D01*
X535940Y243079D01*
X556895Y243079D01*
X556915Y243082D01*
G37*
G36*
X477546Y28960D02*
X477546Y28960D01*
X477572Y28958D01*
X477719Y28980D01*
X477866Y28997D01*
X477891Y29005D01*
X477917Y29009D01*
X478055Y29064D01*
X478194Y29114D01*
X478216Y29128D01*
X478241Y29138D01*
X478362Y29223D01*
X478487Y29303D01*
X478505Y29322D01*
X478527Y29337D01*
X478626Y29447D01*
X478729Y29554D01*
X478743Y29576D01*
X478760Y29596D01*
X478832Y29726D01*
X478908Y29853D01*
X478916Y29878D01*
X478929Y29901D01*
X478969Y30044D01*
X479014Y30185D01*
X479016Y30211D01*
X479024Y30236D01*
X479043Y30480D01*
X479043Y35560D01*
X479040Y35586D01*
X479042Y35612D01*
X479020Y35759D01*
X479003Y35906D01*
X478995Y35931D01*
X478991Y35957D01*
X478936Y36095D01*
X478886Y36234D01*
X478872Y36256D01*
X478862Y36281D01*
X478777Y36402D01*
X478697Y36527D01*
X478678Y36545D01*
X478663Y36567D01*
X478553Y36666D01*
X478446Y36769D01*
X478424Y36783D01*
X478404Y36800D01*
X478274Y36872D01*
X478147Y36948D01*
X478122Y36956D01*
X478099Y36969D01*
X477956Y37009D01*
X477815Y37054D01*
X477789Y37056D01*
X477764Y37064D01*
X477520Y37083D01*
X436880Y37083D01*
X436854Y37080D01*
X436828Y37082D01*
X436681Y37060D01*
X436534Y37043D01*
X436509Y37035D01*
X436483Y37031D01*
X436345Y36976D01*
X436206Y36926D01*
X436184Y36912D01*
X436159Y36902D01*
X436038Y36817D01*
X435913Y36737D01*
X435895Y36718D01*
X435873Y36703D01*
X435774Y36593D01*
X435671Y36486D01*
X435657Y36464D01*
X435640Y36444D01*
X435568Y36314D01*
X435492Y36187D01*
X435484Y36162D01*
X435471Y36139D01*
X435431Y35996D01*
X435386Y35855D01*
X435384Y35829D01*
X435376Y35804D01*
X435357Y35560D01*
X435357Y30480D01*
X435360Y30454D01*
X435358Y30428D01*
X435380Y30281D01*
X435397Y30134D01*
X435405Y30109D01*
X435409Y30083D01*
X435464Y29945D01*
X435514Y29806D01*
X435528Y29784D01*
X435538Y29759D01*
X435623Y29638D01*
X435703Y29513D01*
X435722Y29495D01*
X435737Y29473D01*
X435847Y29374D01*
X435954Y29271D01*
X435976Y29257D01*
X435996Y29240D01*
X436126Y29168D01*
X436253Y29092D01*
X436278Y29084D01*
X436301Y29071D01*
X436444Y29031D01*
X436585Y28986D01*
X436611Y28984D01*
X436636Y28976D01*
X436880Y28957D01*
X477520Y28957D01*
X477546Y28960D01*
G37*
G36*
X152426Y288040D02*
X152426Y288040D01*
X152452Y288038D01*
X152599Y288060D01*
X152746Y288077D01*
X152771Y288085D01*
X152797Y288089D01*
X152935Y288144D01*
X153074Y288194D01*
X153096Y288208D01*
X153121Y288218D01*
X153242Y288303D01*
X153367Y288383D01*
X153385Y288402D01*
X153407Y288417D01*
X153506Y288527D01*
X153609Y288634D01*
X153623Y288656D01*
X153640Y288676D01*
X153712Y288806D01*
X153788Y288933D01*
X153796Y288958D01*
X153809Y288981D01*
X153849Y289124D01*
X153894Y289265D01*
X153896Y289291D01*
X153904Y289316D01*
X153923Y289560D01*
X153923Y294640D01*
X153920Y294666D01*
X153922Y294692D01*
X153900Y294839D01*
X153883Y294986D01*
X153875Y295011D01*
X153871Y295037D01*
X153816Y295175D01*
X153766Y295314D01*
X153752Y295336D01*
X153742Y295361D01*
X153657Y295482D01*
X153577Y295607D01*
X153558Y295625D01*
X153543Y295647D01*
X153433Y295746D01*
X153326Y295849D01*
X153304Y295863D01*
X153284Y295880D01*
X153154Y295952D01*
X153027Y296028D01*
X153002Y296036D01*
X152979Y296049D01*
X152836Y296089D01*
X152695Y296134D01*
X152669Y296136D01*
X152644Y296144D01*
X152400Y296163D01*
X114300Y296163D01*
X114274Y296160D01*
X114248Y296162D01*
X114101Y296140D01*
X113954Y296123D01*
X113929Y296115D01*
X113903Y296111D01*
X113765Y296056D01*
X113626Y296006D01*
X113604Y295992D01*
X113579Y295982D01*
X113458Y295897D01*
X113333Y295817D01*
X113315Y295798D01*
X113293Y295783D01*
X113194Y295673D01*
X113091Y295566D01*
X113077Y295544D01*
X113060Y295524D01*
X112988Y295394D01*
X112912Y295267D01*
X112904Y295242D01*
X112891Y295219D01*
X112851Y295076D01*
X112806Y294935D01*
X112804Y294909D01*
X112796Y294884D01*
X112777Y294640D01*
X112777Y289560D01*
X112780Y289534D01*
X112778Y289508D01*
X112800Y289361D01*
X112817Y289214D01*
X112825Y289189D01*
X112829Y289163D01*
X112884Y289025D01*
X112934Y288886D01*
X112948Y288864D01*
X112958Y288839D01*
X113043Y288718D01*
X113123Y288593D01*
X113142Y288575D01*
X113157Y288553D01*
X113267Y288454D01*
X113374Y288351D01*
X113396Y288337D01*
X113416Y288320D01*
X113546Y288248D01*
X113673Y288172D01*
X113698Y288164D01*
X113721Y288151D01*
X113864Y288111D01*
X114005Y288066D01*
X114031Y288064D01*
X114056Y288056D01*
X114300Y288037D01*
X152400Y288037D01*
X152426Y288040D01*
G37*
G36*
X172976Y210060D02*
X172976Y210060D01*
X172978Y210059D01*
X173021Y210079D01*
X173065Y210097D01*
X173065Y210099D01*
X173067Y210100D01*
X173100Y210185D01*
X173100Y213995D01*
X173099Y213997D01*
X173100Y213999D01*
X173080Y214042D01*
X173062Y214086D01*
X173060Y214086D01*
X173059Y214088D01*
X172974Y214121D01*
X170434Y214121D01*
X170432Y214120D01*
X170430Y214121D01*
X170387Y214101D01*
X170343Y214083D01*
X170343Y214081D01*
X170341Y214080D01*
X170308Y213995D01*
X170308Y210185D01*
X170309Y210183D01*
X170308Y210181D01*
X170328Y210138D01*
X170346Y210094D01*
X170348Y210094D01*
X170349Y210092D01*
X170434Y210059D01*
X172974Y210059D01*
X172976Y210060D01*
G37*
G36*
X420118Y112270D02*
X420118Y112270D01*
X420120Y112269D01*
X420163Y112289D01*
X420207Y112307D01*
X420207Y112309D01*
X420209Y112310D01*
X420242Y112395D01*
X420242Y116205D01*
X420241Y116207D01*
X420242Y116209D01*
X420222Y116252D01*
X420204Y116296D01*
X420202Y116296D01*
X420201Y116298D01*
X420116Y116331D01*
X417576Y116331D01*
X417574Y116330D01*
X417572Y116331D01*
X417529Y116311D01*
X417485Y116293D01*
X417485Y116291D01*
X417483Y116290D01*
X417450Y116205D01*
X417450Y112395D01*
X417451Y112393D01*
X417450Y112391D01*
X417470Y112348D01*
X417488Y112304D01*
X417490Y112304D01*
X417491Y112302D01*
X417576Y112269D01*
X420116Y112269D01*
X420118Y112270D01*
G37*
D10*
X524245Y308356D02*
X526107Y308356D01*
X526177Y308358D01*
X526246Y308364D01*
X526315Y308374D01*
X526383Y308387D01*
X526451Y308405D01*
X526517Y308426D01*
X526582Y308451D01*
X526646Y308479D01*
X526708Y308511D01*
X526768Y308546D01*
X526826Y308585D01*
X526881Y308627D01*
X526935Y308672D01*
X526985Y308720D01*
X527033Y308770D01*
X527078Y308824D01*
X527120Y308879D01*
X527159Y308937D01*
X527194Y308997D01*
X527226Y309059D01*
X527254Y309123D01*
X527279Y309188D01*
X527300Y309254D01*
X527318Y309322D01*
X527331Y309390D01*
X527341Y309459D01*
X527347Y309528D01*
X527349Y309598D01*
X527349Y310219D01*
X527347Y310289D01*
X527341Y310358D01*
X527331Y310427D01*
X527318Y310495D01*
X527300Y310563D01*
X527279Y310629D01*
X527254Y310694D01*
X527226Y310758D01*
X527194Y310820D01*
X527159Y310880D01*
X527120Y310938D01*
X527078Y310993D01*
X527033Y311047D01*
X526985Y311097D01*
X526935Y311145D01*
X526881Y311190D01*
X526826Y311232D01*
X526768Y311271D01*
X526708Y311306D01*
X526646Y311338D01*
X526582Y311366D01*
X526517Y311391D01*
X526451Y311412D01*
X526383Y311430D01*
X526315Y311443D01*
X526246Y311453D01*
X526177Y311459D01*
X526107Y311461D01*
X526107Y311460D02*
X524245Y311460D01*
X524245Y313944D01*
X527349Y313944D01*
X529421Y313944D02*
X531283Y308356D01*
X533146Y313944D01*
X523696Y294894D02*
X523696Y289306D01*
X523696Y294894D02*
X525248Y294894D01*
X525324Y294892D01*
X525400Y294887D01*
X525476Y294877D01*
X525551Y294864D01*
X525625Y294847D01*
X525699Y294827D01*
X525771Y294803D01*
X525842Y294776D01*
X525912Y294745D01*
X525980Y294711D01*
X526046Y294673D01*
X526110Y294632D01*
X526173Y294589D01*
X526233Y294542D01*
X526290Y294492D01*
X526345Y294439D01*
X526398Y294384D01*
X526448Y294327D01*
X526495Y294267D01*
X526538Y294204D01*
X526579Y294140D01*
X526617Y294074D01*
X526651Y294006D01*
X526682Y293936D01*
X526709Y293865D01*
X526733Y293792D01*
X526753Y293719D01*
X526770Y293645D01*
X526783Y293570D01*
X526793Y293494D01*
X526798Y293418D01*
X526800Y293342D01*
X526801Y293342D02*
X526801Y290858D01*
X526800Y290858D02*
X526798Y290779D01*
X526792Y290701D01*
X526782Y290623D01*
X526768Y290546D01*
X526750Y290469D01*
X526729Y290393D01*
X526703Y290319D01*
X526674Y290246D01*
X526641Y290175D01*
X526605Y290105D01*
X526565Y290037D01*
X526522Y289971D01*
X526475Y289908D01*
X526426Y289847D01*
X526373Y289789D01*
X526317Y289733D01*
X526259Y289680D01*
X526198Y289631D01*
X526135Y289584D01*
X526069Y289541D01*
X526001Y289501D01*
X525932Y289465D01*
X525860Y289432D01*
X525787Y289403D01*
X525713Y289377D01*
X525637Y289356D01*
X525560Y289338D01*
X525483Y289324D01*
X525405Y289314D01*
X525327Y289308D01*
X525248Y289306D01*
X523696Y289306D01*
X529421Y291479D02*
X533146Y291479D01*
X523696Y275844D02*
X523696Y270256D01*
X523696Y275844D02*
X525248Y275844D01*
X525324Y275842D01*
X525400Y275837D01*
X525476Y275827D01*
X525551Y275814D01*
X525625Y275797D01*
X525699Y275777D01*
X525771Y275753D01*
X525842Y275726D01*
X525912Y275695D01*
X525980Y275661D01*
X526046Y275623D01*
X526110Y275582D01*
X526173Y275539D01*
X526233Y275492D01*
X526290Y275442D01*
X526345Y275389D01*
X526398Y275334D01*
X526448Y275277D01*
X526495Y275217D01*
X526538Y275154D01*
X526579Y275090D01*
X526617Y275024D01*
X526651Y274956D01*
X526682Y274886D01*
X526709Y274815D01*
X526733Y274742D01*
X526753Y274669D01*
X526770Y274595D01*
X526783Y274520D01*
X526793Y274444D01*
X526798Y274368D01*
X526800Y274292D01*
X526801Y274292D02*
X526801Y271808D01*
X526800Y271808D02*
X526798Y271729D01*
X526792Y271651D01*
X526782Y271573D01*
X526768Y271496D01*
X526750Y271419D01*
X526729Y271343D01*
X526703Y271269D01*
X526674Y271196D01*
X526641Y271125D01*
X526605Y271055D01*
X526565Y270987D01*
X526522Y270921D01*
X526475Y270858D01*
X526426Y270797D01*
X526373Y270739D01*
X526317Y270683D01*
X526259Y270630D01*
X526198Y270581D01*
X526135Y270534D01*
X526069Y270491D01*
X526001Y270451D01*
X525932Y270415D01*
X525860Y270382D01*
X525787Y270353D01*
X525713Y270327D01*
X525637Y270306D01*
X525560Y270288D01*
X525483Y270274D01*
X525405Y270264D01*
X525327Y270258D01*
X525248Y270256D01*
X523696Y270256D01*
X529421Y272429D02*
X533146Y272429D01*
X531283Y270566D02*
X531283Y274292D01*
X521442Y254310D02*
X520510Y254310D01*
X521442Y254310D02*
X521442Y251206D01*
X519579Y251206D01*
X519509Y251208D01*
X519440Y251214D01*
X519371Y251224D01*
X519303Y251237D01*
X519235Y251255D01*
X519169Y251276D01*
X519104Y251301D01*
X519040Y251329D01*
X518978Y251361D01*
X518918Y251396D01*
X518860Y251435D01*
X518805Y251477D01*
X518751Y251522D01*
X518701Y251570D01*
X518653Y251620D01*
X518608Y251674D01*
X518566Y251729D01*
X518527Y251787D01*
X518492Y251847D01*
X518460Y251909D01*
X518432Y251973D01*
X518407Y252038D01*
X518386Y252104D01*
X518368Y252172D01*
X518355Y252240D01*
X518345Y252309D01*
X518339Y252378D01*
X518337Y252448D01*
X518337Y255552D01*
X518339Y255622D01*
X518345Y255691D01*
X518355Y255760D01*
X518368Y255828D01*
X518386Y255896D01*
X518407Y255962D01*
X518432Y256027D01*
X518460Y256091D01*
X518492Y256153D01*
X518527Y256213D01*
X518566Y256271D01*
X518608Y256326D01*
X518653Y256380D01*
X518701Y256430D01*
X518751Y256478D01*
X518805Y256523D01*
X518860Y256565D01*
X518918Y256604D01*
X518978Y256639D01*
X519040Y256671D01*
X519104Y256699D01*
X519169Y256724D01*
X519235Y256745D01*
X519303Y256763D01*
X519371Y256776D01*
X519440Y256786D01*
X519509Y256792D01*
X519579Y256794D01*
X521442Y256794D01*
X524189Y256794D02*
X524189Y251206D01*
X527294Y251206D02*
X524189Y256794D01*
X527294Y256794D02*
X527294Y251206D01*
X530042Y251206D02*
X530042Y256794D01*
X531594Y256794D01*
X531670Y256792D01*
X531746Y256787D01*
X531822Y256777D01*
X531897Y256764D01*
X531971Y256747D01*
X532045Y256727D01*
X532117Y256703D01*
X532188Y256676D01*
X532258Y256645D01*
X532326Y256611D01*
X532392Y256573D01*
X532456Y256532D01*
X532519Y256489D01*
X532579Y256442D01*
X532636Y256392D01*
X532691Y256339D01*
X532744Y256284D01*
X532794Y256227D01*
X532841Y256167D01*
X532884Y256104D01*
X532925Y256040D01*
X532963Y255974D01*
X532997Y255906D01*
X533028Y255836D01*
X533055Y255765D01*
X533079Y255692D01*
X533099Y255619D01*
X533116Y255545D01*
X533129Y255470D01*
X533139Y255394D01*
X533144Y255318D01*
X533146Y255242D01*
X533146Y252758D01*
X533144Y252679D01*
X533138Y252601D01*
X533128Y252523D01*
X533114Y252446D01*
X533096Y252369D01*
X533075Y252293D01*
X533049Y252219D01*
X533020Y252146D01*
X532987Y252075D01*
X532951Y252005D01*
X532911Y251937D01*
X532868Y251871D01*
X532821Y251808D01*
X532772Y251747D01*
X532719Y251689D01*
X532663Y251633D01*
X532605Y251580D01*
X532544Y251531D01*
X532481Y251484D01*
X532415Y251441D01*
X532347Y251401D01*
X532278Y251365D01*
X532206Y251332D01*
X532133Y251303D01*
X532059Y251277D01*
X531983Y251256D01*
X531906Y251238D01*
X531829Y251224D01*
X531751Y251214D01*
X531673Y251208D01*
X531594Y251206D01*
X530042Y251206D01*
X28759Y267688D02*
X28757Y267618D01*
X28751Y267549D01*
X28741Y267480D01*
X28728Y267412D01*
X28710Y267344D01*
X28689Y267278D01*
X28664Y267213D01*
X28636Y267149D01*
X28604Y267087D01*
X28569Y267027D01*
X28530Y266969D01*
X28488Y266914D01*
X28443Y266860D01*
X28395Y266810D01*
X28345Y266762D01*
X28291Y266717D01*
X28236Y266675D01*
X28178Y266636D01*
X28118Y266601D01*
X28056Y266569D01*
X27992Y266541D01*
X27927Y266516D01*
X27861Y266495D01*
X27793Y266477D01*
X27725Y266464D01*
X27656Y266454D01*
X27587Y266448D01*
X27517Y266446D01*
X27418Y266448D01*
X27320Y266453D01*
X27222Y266463D01*
X27124Y266476D01*
X27027Y266492D01*
X26930Y266512D01*
X26835Y266536D01*
X26740Y266564D01*
X26646Y266595D01*
X26554Y266629D01*
X26463Y266667D01*
X26373Y266708D01*
X26285Y266753D01*
X26199Y266801D01*
X26115Y266852D01*
X26033Y266906D01*
X25952Y266964D01*
X25874Y267024D01*
X25799Y267087D01*
X25725Y267153D01*
X25655Y267222D01*
X25809Y270792D02*
X25811Y270862D01*
X25817Y270931D01*
X25827Y271000D01*
X25840Y271068D01*
X25858Y271136D01*
X25879Y271202D01*
X25904Y271267D01*
X25932Y271331D01*
X25964Y271393D01*
X25999Y271453D01*
X26038Y271511D01*
X26080Y271566D01*
X26125Y271620D01*
X26173Y271670D01*
X26223Y271718D01*
X26277Y271763D01*
X26332Y271805D01*
X26390Y271844D01*
X26450Y271879D01*
X26512Y271911D01*
X26576Y271939D01*
X26641Y271964D01*
X26707Y271985D01*
X26775Y272003D01*
X26843Y272016D01*
X26912Y272026D01*
X26981Y272032D01*
X27051Y272034D01*
X27145Y272032D01*
X27238Y272026D01*
X27331Y272017D01*
X27424Y272004D01*
X27516Y271987D01*
X27607Y271967D01*
X27698Y271942D01*
X27787Y271915D01*
X27875Y271883D01*
X27962Y271848D01*
X28048Y271810D01*
X28131Y271768D01*
X28213Y271723D01*
X28294Y271675D01*
X28372Y271623D01*
X28448Y271568D01*
X26430Y269706D02*
X26371Y269742D01*
X26315Y269782D01*
X26261Y269825D01*
X26209Y269870D01*
X26160Y269919D01*
X26114Y269970D01*
X26071Y270023D01*
X26030Y270079D01*
X25993Y270137D01*
X25958Y270197D01*
X25928Y270258D01*
X25900Y270321D01*
X25876Y270386D01*
X25856Y270452D01*
X25839Y270519D01*
X25826Y270586D01*
X25817Y270654D01*
X25811Y270723D01*
X25809Y270792D01*
X28137Y268774D02*
X28196Y268738D01*
X28252Y268698D01*
X28306Y268655D01*
X28358Y268610D01*
X28407Y268561D01*
X28453Y268510D01*
X28496Y268457D01*
X28537Y268401D01*
X28574Y268343D01*
X28609Y268283D01*
X28639Y268222D01*
X28667Y268159D01*
X28691Y268094D01*
X28711Y268028D01*
X28728Y267961D01*
X28741Y267894D01*
X28750Y267826D01*
X28756Y267757D01*
X28758Y267688D01*
X28138Y268774D02*
X26430Y269706D01*
X32183Y266446D02*
X33425Y266446D01*
X32183Y266446D02*
X32113Y266448D01*
X32044Y266454D01*
X31975Y266464D01*
X31907Y266477D01*
X31839Y266495D01*
X31773Y266516D01*
X31708Y266541D01*
X31644Y266569D01*
X31582Y266601D01*
X31522Y266636D01*
X31464Y266675D01*
X31409Y266717D01*
X31355Y266762D01*
X31305Y266810D01*
X31257Y266860D01*
X31212Y266914D01*
X31170Y266969D01*
X31131Y267027D01*
X31096Y267087D01*
X31064Y267149D01*
X31036Y267213D01*
X31011Y267278D01*
X30990Y267344D01*
X30972Y267412D01*
X30959Y267480D01*
X30949Y267549D01*
X30943Y267618D01*
X30941Y267688D01*
X30941Y270792D01*
X30943Y270862D01*
X30949Y270931D01*
X30959Y271000D01*
X30972Y271068D01*
X30990Y271136D01*
X31011Y271202D01*
X31036Y271267D01*
X31064Y271331D01*
X31096Y271393D01*
X31131Y271453D01*
X31170Y271511D01*
X31212Y271566D01*
X31257Y271620D01*
X31305Y271670D01*
X31355Y271718D01*
X31409Y271763D01*
X31464Y271805D01*
X31522Y271844D01*
X31582Y271879D01*
X31644Y271911D01*
X31708Y271939D01*
X31773Y271964D01*
X31839Y271985D01*
X31907Y272003D01*
X31975Y272016D01*
X32044Y272026D01*
X32113Y272032D01*
X32183Y272034D01*
X33425Y272034D01*
X35723Y272034D02*
X35723Y266446D01*
X38207Y266446D01*
X40550Y266446D02*
X40550Y272034D01*
X43655Y272034D02*
X40550Y268619D01*
X41792Y269861D02*
X43655Y266446D01*
X26289Y234569D02*
X26289Y228981D01*
X28152Y231465D02*
X26289Y234569D01*
X28152Y231465D02*
X30014Y234569D01*
X30014Y228981D01*
X32634Y230533D02*
X32634Y233017D01*
X32635Y233017D02*
X32637Y233094D01*
X32643Y233172D01*
X32652Y233248D01*
X32666Y233325D01*
X32683Y233400D01*
X32704Y233474D01*
X32729Y233548D01*
X32757Y233620D01*
X32789Y233690D01*
X32824Y233759D01*
X32863Y233826D01*
X32905Y233891D01*
X32950Y233954D01*
X32998Y234015D01*
X33049Y234073D01*
X33103Y234128D01*
X33160Y234181D01*
X33219Y234230D01*
X33281Y234277D01*
X33345Y234321D01*
X33411Y234361D01*
X33479Y234398D01*
X33549Y234432D01*
X33620Y234462D01*
X33693Y234488D01*
X33767Y234511D01*
X33842Y234530D01*
X33917Y234545D01*
X33994Y234557D01*
X34071Y234565D01*
X34148Y234569D01*
X34226Y234569D01*
X34303Y234565D01*
X34380Y234557D01*
X34457Y234545D01*
X34532Y234530D01*
X34607Y234511D01*
X34681Y234488D01*
X34754Y234462D01*
X34825Y234432D01*
X34895Y234398D01*
X34963Y234361D01*
X35029Y234321D01*
X35093Y234277D01*
X35155Y234230D01*
X35214Y234181D01*
X35271Y234128D01*
X35325Y234073D01*
X35376Y234015D01*
X35424Y233954D01*
X35469Y233891D01*
X35511Y233826D01*
X35550Y233759D01*
X35585Y233690D01*
X35617Y233620D01*
X35645Y233548D01*
X35670Y233474D01*
X35691Y233400D01*
X35708Y233325D01*
X35722Y233248D01*
X35731Y233172D01*
X35737Y233094D01*
X35739Y233017D01*
X35739Y230533D01*
X35737Y230456D01*
X35731Y230378D01*
X35722Y230302D01*
X35708Y230225D01*
X35691Y230150D01*
X35670Y230076D01*
X35645Y230002D01*
X35617Y229930D01*
X35585Y229860D01*
X35550Y229791D01*
X35511Y229724D01*
X35469Y229659D01*
X35424Y229596D01*
X35376Y229535D01*
X35325Y229477D01*
X35271Y229422D01*
X35214Y229369D01*
X35155Y229320D01*
X35093Y229273D01*
X35029Y229229D01*
X34963Y229189D01*
X34895Y229152D01*
X34825Y229118D01*
X34754Y229088D01*
X34681Y229062D01*
X34607Y229039D01*
X34532Y229020D01*
X34457Y229005D01*
X34380Y228993D01*
X34303Y228985D01*
X34226Y228981D01*
X34148Y228981D01*
X34071Y228985D01*
X33994Y228993D01*
X33917Y229005D01*
X33842Y229020D01*
X33767Y229039D01*
X33693Y229062D01*
X33620Y229088D01*
X33549Y229118D01*
X33479Y229152D01*
X33411Y229189D01*
X33345Y229229D01*
X33281Y229273D01*
X33219Y229320D01*
X33160Y229369D01*
X33103Y229422D01*
X33049Y229477D01*
X32998Y229535D01*
X32950Y229596D01*
X32905Y229659D01*
X32863Y229724D01*
X32824Y229791D01*
X32789Y229860D01*
X32757Y229930D01*
X32729Y230002D01*
X32704Y230076D01*
X32683Y230150D01*
X32666Y230225D01*
X32652Y230302D01*
X32643Y230378D01*
X32637Y230456D01*
X32635Y230533D01*
X39801Y228981D02*
X39871Y228983D01*
X39940Y228989D01*
X40009Y228999D01*
X40077Y229012D01*
X40145Y229030D01*
X40211Y229051D01*
X40276Y229076D01*
X40340Y229104D01*
X40402Y229136D01*
X40462Y229171D01*
X40520Y229210D01*
X40575Y229252D01*
X40629Y229297D01*
X40679Y229345D01*
X40727Y229395D01*
X40772Y229449D01*
X40814Y229504D01*
X40853Y229562D01*
X40888Y229622D01*
X40920Y229684D01*
X40948Y229748D01*
X40973Y229813D01*
X40994Y229879D01*
X41012Y229947D01*
X41025Y230015D01*
X41035Y230084D01*
X41041Y230153D01*
X41043Y230223D01*
X39801Y228981D02*
X39702Y228983D01*
X39604Y228988D01*
X39506Y228998D01*
X39408Y229011D01*
X39311Y229027D01*
X39214Y229047D01*
X39119Y229071D01*
X39024Y229099D01*
X38930Y229130D01*
X38838Y229164D01*
X38747Y229202D01*
X38657Y229243D01*
X38569Y229288D01*
X38483Y229336D01*
X38399Y229387D01*
X38317Y229441D01*
X38236Y229499D01*
X38158Y229559D01*
X38083Y229622D01*
X38009Y229688D01*
X37939Y229757D01*
X38093Y233327D02*
X38095Y233397D01*
X38101Y233466D01*
X38111Y233535D01*
X38124Y233603D01*
X38142Y233671D01*
X38163Y233737D01*
X38188Y233802D01*
X38216Y233866D01*
X38248Y233928D01*
X38283Y233988D01*
X38322Y234046D01*
X38364Y234101D01*
X38409Y234155D01*
X38457Y234205D01*
X38507Y234253D01*
X38561Y234298D01*
X38616Y234340D01*
X38674Y234379D01*
X38734Y234414D01*
X38796Y234446D01*
X38860Y234474D01*
X38925Y234499D01*
X38991Y234520D01*
X39059Y234538D01*
X39127Y234551D01*
X39196Y234561D01*
X39265Y234567D01*
X39335Y234569D01*
X39429Y234567D01*
X39522Y234561D01*
X39615Y234552D01*
X39708Y234539D01*
X39800Y234522D01*
X39891Y234502D01*
X39982Y234477D01*
X40071Y234450D01*
X40159Y234418D01*
X40246Y234383D01*
X40332Y234345D01*
X40415Y234303D01*
X40497Y234258D01*
X40578Y234210D01*
X40656Y234158D01*
X40732Y234103D01*
X38714Y232241D02*
X38655Y232277D01*
X38599Y232317D01*
X38545Y232360D01*
X38493Y232405D01*
X38444Y232454D01*
X38398Y232505D01*
X38355Y232558D01*
X38314Y232614D01*
X38277Y232672D01*
X38242Y232732D01*
X38212Y232793D01*
X38184Y232856D01*
X38160Y232921D01*
X38140Y232987D01*
X38123Y233054D01*
X38110Y233121D01*
X38101Y233189D01*
X38095Y233258D01*
X38093Y233327D01*
X40421Y231309D02*
X40480Y231273D01*
X40536Y231233D01*
X40590Y231190D01*
X40642Y231145D01*
X40691Y231096D01*
X40737Y231045D01*
X40780Y230992D01*
X40821Y230936D01*
X40858Y230878D01*
X40893Y230818D01*
X40923Y230757D01*
X40951Y230694D01*
X40975Y230629D01*
X40995Y230563D01*
X41012Y230496D01*
X41025Y230429D01*
X41034Y230361D01*
X41040Y230292D01*
X41042Y230223D01*
X40422Y231309D02*
X38714Y232241D01*
X43696Y234569D02*
X43696Y228981D01*
X43076Y228981D02*
X44317Y228981D01*
X44317Y234569D02*
X43076Y234569D01*
X25654Y214884D02*
X25654Y209296D01*
X27517Y211780D02*
X25654Y214884D01*
X27517Y211780D02*
X29379Y214884D01*
X29379Y209296D01*
X32454Y209296D02*
X32454Y214884D01*
X31834Y209296D02*
X33075Y209296D01*
X33075Y214884D02*
X31834Y214884D01*
X36971Y209296D02*
X37041Y209298D01*
X37110Y209304D01*
X37179Y209314D01*
X37247Y209327D01*
X37315Y209345D01*
X37381Y209366D01*
X37446Y209391D01*
X37510Y209419D01*
X37572Y209451D01*
X37632Y209486D01*
X37690Y209525D01*
X37745Y209567D01*
X37799Y209612D01*
X37849Y209660D01*
X37897Y209710D01*
X37942Y209764D01*
X37984Y209819D01*
X38023Y209877D01*
X38058Y209937D01*
X38090Y209999D01*
X38118Y210063D01*
X38143Y210128D01*
X38164Y210194D01*
X38182Y210262D01*
X38195Y210330D01*
X38205Y210399D01*
X38211Y210468D01*
X38213Y210538D01*
X36971Y209296D02*
X36872Y209298D01*
X36774Y209303D01*
X36676Y209313D01*
X36578Y209326D01*
X36481Y209342D01*
X36384Y209362D01*
X36289Y209386D01*
X36194Y209414D01*
X36100Y209445D01*
X36008Y209479D01*
X35917Y209517D01*
X35827Y209558D01*
X35739Y209603D01*
X35653Y209651D01*
X35569Y209702D01*
X35487Y209756D01*
X35406Y209814D01*
X35328Y209874D01*
X35253Y209937D01*
X35179Y210003D01*
X35109Y210072D01*
X35263Y213642D02*
X35265Y213712D01*
X35271Y213781D01*
X35281Y213850D01*
X35294Y213918D01*
X35312Y213986D01*
X35333Y214052D01*
X35358Y214117D01*
X35386Y214181D01*
X35418Y214243D01*
X35453Y214303D01*
X35492Y214361D01*
X35534Y214416D01*
X35579Y214470D01*
X35627Y214520D01*
X35677Y214568D01*
X35731Y214613D01*
X35786Y214655D01*
X35844Y214694D01*
X35904Y214729D01*
X35966Y214761D01*
X36030Y214789D01*
X36095Y214814D01*
X36161Y214835D01*
X36229Y214853D01*
X36297Y214866D01*
X36366Y214876D01*
X36435Y214882D01*
X36505Y214884D01*
X36599Y214882D01*
X36692Y214876D01*
X36785Y214867D01*
X36878Y214854D01*
X36970Y214837D01*
X37061Y214817D01*
X37152Y214792D01*
X37241Y214765D01*
X37329Y214733D01*
X37416Y214698D01*
X37502Y214660D01*
X37585Y214618D01*
X37667Y214573D01*
X37748Y214525D01*
X37826Y214473D01*
X37902Y214418D01*
X35885Y212556D02*
X35826Y212592D01*
X35770Y212632D01*
X35716Y212675D01*
X35664Y212720D01*
X35615Y212769D01*
X35569Y212820D01*
X35526Y212873D01*
X35485Y212929D01*
X35448Y212987D01*
X35413Y213047D01*
X35383Y213108D01*
X35355Y213171D01*
X35331Y213236D01*
X35311Y213302D01*
X35294Y213369D01*
X35281Y213436D01*
X35272Y213504D01*
X35266Y213573D01*
X35264Y213642D01*
X37592Y211624D02*
X37651Y211588D01*
X37707Y211548D01*
X37761Y211505D01*
X37813Y211460D01*
X37862Y211411D01*
X37908Y211360D01*
X37951Y211307D01*
X37992Y211251D01*
X38029Y211193D01*
X38064Y211133D01*
X38094Y211072D01*
X38122Y211009D01*
X38146Y210944D01*
X38166Y210878D01*
X38183Y210811D01*
X38196Y210744D01*
X38205Y210676D01*
X38211Y210607D01*
X38213Y210538D01*
X37592Y211624D02*
X35885Y212556D01*
X40412Y213332D02*
X40412Y210848D01*
X40412Y213332D02*
X40414Y213409D01*
X40420Y213487D01*
X40429Y213563D01*
X40443Y213640D01*
X40460Y213715D01*
X40481Y213789D01*
X40506Y213863D01*
X40534Y213935D01*
X40566Y214005D01*
X40601Y214074D01*
X40640Y214141D01*
X40682Y214206D01*
X40727Y214269D01*
X40775Y214330D01*
X40826Y214388D01*
X40880Y214443D01*
X40937Y214496D01*
X40996Y214545D01*
X41058Y214592D01*
X41122Y214636D01*
X41188Y214676D01*
X41256Y214713D01*
X41326Y214747D01*
X41397Y214777D01*
X41470Y214803D01*
X41544Y214826D01*
X41619Y214845D01*
X41694Y214860D01*
X41771Y214872D01*
X41848Y214880D01*
X41925Y214884D01*
X42003Y214884D01*
X42080Y214880D01*
X42157Y214872D01*
X42234Y214860D01*
X42309Y214845D01*
X42384Y214826D01*
X42458Y214803D01*
X42531Y214777D01*
X42602Y214747D01*
X42672Y214713D01*
X42740Y214676D01*
X42806Y214636D01*
X42870Y214592D01*
X42932Y214545D01*
X42991Y214496D01*
X43048Y214443D01*
X43102Y214388D01*
X43153Y214330D01*
X43201Y214269D01*
X43246Y214206D01*
X43288Y214141D01*
X43327Y214074D01*
X43362Y214005D01*
X43394Y213935D01*
X43422Y213863D01*
X43447Y213789D01*
X43468Y213715D01*
X43485Y213640D01*
X43499Y213563D01*
X43508Y213487D01*
X43514Y213409D01*
X43516Y213332D01*
X43516Y210848D01*
X43514Y210771D01*
X43508Y210693D01*
X43499Y210617D01*
X43485Y210540D01*
X43468Y210465D01*
X43447Y210391D01*
X43422Y210317D01*
X43394Y210245D01*
X43362Y210175D01*
X43327Y210106D01*
X43288Y210039D01*
X43246Y209974D01*
X43201Y209911D01*
X43153Y209850D01*
X43102Y209792D01*
X43048Y209737D01*
X42991Y209684D01*
X42932Y209635D01*
X42870Y209588D01*
X42806Y209544D01*
X42740Y209504D01*
X42672Y209467D01*
X42602Y209433D01*
X42531Y209403D01*
X42458Y209377D01*
X42384Y209354D01*
X42309Y209335D01*
X42234Y209320D01*
X42157Y209308D01*
X42080Y209300D01*
X42003Y209296D01*
X41925Y209296D01*
X41848Y209300D01*
X41771Y209308D01*
X41694Y209320D01*
X41619Y209335D01*
X41544Y209354D01*
X41470Y209377D01*
X41397Y209403D01*
X41326Y209433D01*
X41256Y209467D01*
X41188Y209504D01*
X41122Y209544D01*
X41058Y209588D01*
X40996Y209635D01*
X40937Y209684D01*
X40880Y209737D01*
X40826Y209792D01*
X40775Y209850D01*
X40727Y209911D01*
X40682Y209974D01*
X40640Y210039D01*
X40601Y210106D01*
X40566Y210175D01*
X40534Y210245D01*
X40506Y210317D01*
X40481Y210391D01*
X40460Y210465D01*
X40443Y210540D01*
X40429Y210617D01*
X40420Y210693D01*
X40414Y210771D01*
X40412Y210848D01*
X451739Y156230D02*
X457327Y156230D01*
X451739Y156230D02*
X451739Y157783D01*
X451741Y157860D01*
X451747Y157938D01*
X451756Y158014D01*
X451770Y158091D01*
X451787Y158166D01*
X451808Y158240D01*
X451833Y158314D01*
X451861Y158386D01*
X451893Y158456D01*
X451928Y158525D01*
X451967Y158592D01*
X452009Y158657D01*
X452054Y158720D01*
X452102Y158781D01*
X452153Y158839D01*
X452207Y158894D01*
X452264Y158947D01*
X452323Y158996D01*
X452385Y159043D01*
X452449Y159087D01*
X452515Y159127D01*
X452583Y159164D01*
X452653Y159198D01*
X452724Y159228D01*
X452797Y159254D01*
X452871Y159277D01*
X452946Y159296D01*
X453021Y159311D01*
X453098Y159323D01*
X453175Y159331D01*
X453252Y159335D01*
X453330Y159335D01*
X453407Y159331D01*
X453484Y159323D01*
X453561Y159311D01*
X453636Y159296D01*
X453711Y159277D01*
X453785Y159254D01*
X453858Y159228D01*
X453929Y159198D01*
X453999Y159164D01*
X454067Y159127D01*
X454133Y159087D01*
X454197Y159043D01*
X454259Y158996D01*
X454318Y158947D01*
X454375Y158894D01*
X454429Y158839D01*
X454480Y158781D01*
X454528Y158720D01*
X454573Y158657D01*
X454615Y158592D01*
X454654Y158525D01*
X454689Y158456D01*
X454721Y158386D01*
X454749Y158314D01*
X454774Y158240D01*
X454795Y158166D01*
X454812Y158091D01*
X454826Y158014D01*
X454835Y157938D01*
X454841Y157860D01*
X454843Y157783D01*
X454843Y156230D01*
X454843Y158093D02*
X457327Y159335D01*
X457327Y161875D02*
X457327Y164358D01*
X457327Y161875D02*
X451739Y161875D01*
X451739Y164358D01*
X454223Y163737D02*
X454223Y161875D01*
X457327Y168115D02*
X457325Y168185D01*
X457319Y168254D01*
X457309Y168323D01*
X457296Y168391D01*
X457278Y168459D01*
X457257Y168525D01*
X457232Y168590D01*
X457204Y168654D01*
X457172Y168716D01*
X457137Y168776D01*
X457098Y168834D01*
X457056Y168889D01*
X457011Y168943D01*
X456963Y168993D01*
X456913Y169041D01*
X456859Y169086D01*
X456804Y169128D01*
X456746Y169167D01*
X456686Y169202D01*
X456624Y169234D01*
X456560Y169262D01*
X456495Y169287D01*
X456429Y169308D01*
X456361Y169326D01*
X456293Y169339D01*
X456224Y169349D01*
X456155Y169355D01*
X456085Y169357D01*
X457327Y168115D02*
X457325Y168016D01*
X457320Y167918D01*
X457310Y167820D01*
X457297Y167722D01*
X457281Y167625D01*
X457261Y167528D01*
X457237Y167433D01*
X457209Y167338D01*
X457178Y167244D01*
X457144Y167152D01*
X457106Y167061D01*
X457065Y166971D01*
X457020Y166883D01*
X456972Y166797D01*
X456921Y166713D01*
X456867Y166631D01*
X456809Y166550D01*
X456749Y166472D01*
X456686Y166397D01*
X456620Y166323D01*
X456551Y166253D01*
X452981Y166408D02*
X452911Y166410D01*
X452842Y166416D01*
X452773Y166426D01*
X452705Y166439D01*
X452637Y166457D01*
X452571Y166478D01*
X452506Y166503D01*
X452442Y166531D01*
X452380Y166563D01*
X452320Y166598D01*
X452262Y166637D01*
X452207Y166679D01*
X452153Y166724D01*
X452103Y166772D01*
X452055Y166822D01*
X452010Y166876D01*
X451968Y166931D01*
X451929Y166989D01*
X451894Y167049D01*
X451862Y167111D01*
X451834Y167175D01*
X451809Y167240D01*
X451788Y167306D01*
X451770Y167374D01*
X451757Y167442D01*
X451747Y167511D01*
X451741Y167580D01*
X451739Y167650D01*
X451741Y167744D01*
X451747Y167837D01*
X451756Y167930D01*
X451769Y168023D01*
X451786Y168115D01*
X451806Y168206D01*
X451831Y168297D01*
X451858Y168386D01*
X451890Y168474D01*
X451925Y168561D01*
X451963Y168647D01*
X452005Y168730D01*
X452050Y168813D01*
X452098Y168893D01*
X452150Y168971D01*
X452205Y169047D01*
X454067Y167029D02*
X454031Y166970D01*
X453991Y166914D01*
X453948Y166860D01*
X453903Y166808D01*
X453854Y166759D01*
X453803Y166713D01*
X453750Y166670D01*
X453694Y166629D01*
X453636Y166592D01*
X453576Y166557D01*
X453515Y166527D01*
X453452Y166499D01*
X453387Y166475D01*
X453321Y166455D01*
X453254Y166438D01*
X453187Y166425D01*
X453119Y166416D01*
X453050Y166410D01*
X452981Y166408D01*
X454999Y168736D02*
X455035Y168795D01*
X455075Y168851D01*
X455118Y168905D01*
X455163Y168957D01*
X455212Y169006D01*
X455263Y169052D01*
X455316Y169095D01*
X455372Y169136D01*
X455430Y169173D01*
X455490Y169208D01*
X455551Y169238D01*
X455614Y169266D01*
X455679Y169290D01*
X455745Y169310D01*
X455812Y169327D01*
X455879Y169340D01*
X455947Y169349D01*
X456016Y169355D01*
X456085Y169357D01*
X454999Y168736D02*
X454067Y167029D01*
X457327Y171750D02*
X457327Y174234D01*
X457327Y171750D02*
X451739Y171750D01*
X451739Y174234D01*
X454223Y173613D02*
X454223Y171750D01*
X451739Y177497D02*
X457327Y177497D01*
X451739Y175945D02*
X451739Y179050D01*
X262505Y252204D02*
X259871Y257472D01*
X265139Y254838D01*
X263822Y255497D02*
X261847Y253521D01*
X267443Y257142D02*
X263492Y261093D01*
X262394Y259996D02*
X264589Y262191D01*
X266183Y263785D02*
X270135Y259833D01*
X269696Y262907D02*
X266183Y263785D01*
X269696Y262907D02*
X268818Y266419D01*
X272769Y262468D01*
X274759Y264457D02*
X276515Y266214D01*
X274759Y264457D02*
X270807Y268409D01*
X272564Y270165D01*
X273881Y267970D02*
X272564Y266653D01*
X277455Y271544D02*
X278113Y272202D01*
X280308Y270007D01*
X278991Y268690D01*
X278941Y268642D01*
X278887Y268597D01*
X278832Y268555D01*
X278774Y268516D01*
X278714Y268481D01*
X278652Y268449D01*
X278588Y268421D01*
X278523Y268396D01*
X278457Y268375D01*
X278389Y268357D01*
X278321Y268344D01*
X278252Y268334D01*
X278183Y268328D01*
X278113Y268326D01*
X278043Y268328D01*
X277974Y268334D01*
X277905Y268344D01*
X277837Y268357D01*
X277769Y268375D01*
X277703Y268396D01*
X277638Y268421D01*
X277574Y268449D01*
X277512Y268481D01*
X277452Y268516D01*
X277394Y268555D01*
X277339Y268597D01*
X277285Y268642D01*
X277235Y268690D01*
X275040Y270885D01*
X274992Y270935D01*
X274947Y270989D01*
X274905Y271044D01*
X274866Y271102D01*
X274831Y271162D01*
X274799Y271224D01*
X274771Y271288D01*
X274746Y271353D01*
X274725Y271419D01*
X274707Y271487D01*
X274694Y271555D01*
X274684Y271624D01*
X274678Y271693D01*
X274676Y271763D01*
X274678Y271833D01*
X274684Y271902D01*
X274694Y271971D01*
X274707Y272039D01*
X274725Y272107D01*
X274746Y272173D01*
X274771Y272238D01*
X274799Y272302D01*
X274831Y272364D01*
X274866Y272424D01*
X274905Y272482D01*
X274947Y272537D01*
X274992Y272591D01*
X275040Y272641D01*
X276357Y273958D01*
X279268Y276869D02*
X281902Y271601D01*
X284537Y274235D02*
X279268Y276869D01*
X283219Y274894D02*
X281244Y272918D01*
X286001Y275700D02*
X287099Y276798D01*
X287098Y276798D02*
X287153Y276855D01*
X287204Y276914D01*
X287252Y276976D01*
X287297Y277041D01*
X287338Y277108D01*
X287377Y277176D01*
X287411Y277247D01*
X287442Y277319D01*
X287470Y277393D01*
X287493Y277468D01*
X287513Y277544D01*
X287529Y277621D01*
X287541Y277699D01*
X287549Y277777D01*
X287553Y277856D01*
X287553Y277934D01*
X287549Y278013D01*
X287541Y278091D01*
X287529Y278169D01*
X287513Y278246D01*
X287493Y278322D01*
X287470Y278397D01*
X287442Y278471D01*
X287411Y278543D01*
X287377Y278614D01*
X287338Y278682D01*
X287297Y278749D01*
X287252Y278814D01*
X287204Y278876D01*
X287153Y278935D01*
X287098Y278992D01*
X287041Y279047D01*
X286982Y279098D01*
X286920Y279146D01*
X286855Y279191D01*
X286788Y279232D01*
X286720Y279271D01*
X286649Y279305D01*
X286577Y279336D01*
X286503Y279364D01*
X286428Y279387D01*
X286352Y279407D01*
X286275Y279423D01*
X286197Y279435D01*
X286119Y279443D01*
X286040Y279447D01*
X285962Y279447D01*
X285883Y279443D01*
X285805Y279435D01*
X285727Y279423D01*
X285650Y279407D01*
X285574Y279387D01*
X285499Y279364D01*
X285425Y279336D01*
X285353Y279305D01*
X285282Y279271D01*
X285214Y279232D01*
X285147Y279191D01*
X285082Y279146D01*
X285020Y279098D01*
X284961Y279047D01*
X284904Y278992D01*
X283367Y280968D02*
X282050Y279651D01*
X283367Y280968D02*
X283417Y281016D01*
X283471Y281061D01*
X283526Y281103D01*
X283584Y281142D01*
X283644Y281177D01*
X283706Y281209D01*
X283770Y281237D01*
X283835Y281262D01*
X283901Y281283D01*
X283969Y281301D01*
X284037Y281314D01*
X284106Y281324D01*
X284175Y281330D01*
X284245Y281332D01*
X284315Y281330D01*
X284384Y281324D01*
X284453Y281314D01*
X284521Y281301D01*
X284589Y281283D01*
X284655Y281262D01*
X284720Y281237D01*
X284784Y281209D01*
X284846Y281177D01*
X284906Y281142D01*
X284964Y281103D01*
X285019Y281061D01*
X285073Y281016D01*
X285123Y280968D01*
X285171Y280918D01*
X285216Y280864D01*
X285258Y280809D01*
X285297Y280751D01*
X285332Y280691D01*
X285364Y280629D01*
X285392Y280565D01*
X285417Y280500D01*
X285438Y280434D01*
X285456Y280366D01*
X285469Y280298D01*
X285479Y280229D01*
X285485Y280160D01*
X285487Y280090D01*
X285485Y280020D01*
X285479Y279951D01*
X285469Y279882D01*
X285456Y279814D01*
X285438Y279746D01*
X285417Y279680D01*
X285392Y279615D01*
X285364Y279551D01*
X285332Y279489D01*
X285297Y279429D01*
X285258Y279371D01*
X285216Y279316D01*
X285171Y279262D01*
X285123Y279212D01*
X284245Y278334D01*
X287136Y284738D02*
X287189Y284788D01*
X287245Y284836D01*
X287303Y284880D01*
X287363Y284922D01*
X287426Y284960D01*
X287490Y284995D01*
X287556Y285026D01*
X287623Y285054D01*
X287692Y285079D01*
X287762Y285099D01*
X287834Y285116D01*
X287905Y285130D01*
X287978Y285139D01*
X288051Y285145D01*
X288124Y285147D01*
X288197Y285145D01*
X288270Y285139D01*
X288343Y285130D01*
X288414Y285116D01*
X288486Y285099D01*
X288556Y285079D01*
X288625Y285054D01*
X288692Y285026D01*
X288758Y284995D01*
X288822Y284960D01*
X288885Y284922D01*
X288945Y284880D01*
X289003Y284836D01*
X289059Y284788D01*
X289112Y284738D01*
X287137Y284738D02*
X287079Y284678D01*
X287024Y284615D01*
X286972Y284549D01*
X286924Y284481D01*
X286878Y284411D01*
X286836Y284339D01*
X286797Y284265D01*
X286762Y284189D01*
X286730Y284112D01*
X286702Y284033D01*
X286677Y283953D01*
X286657Y283872D01*
X286640Y283790D01*
X286627Y283708D01*
X286618Y283624D01*
X286612Y283541D01*
X286611Y283457D01*
X286614Y283374D01*
X286620Y283290D01*
X286630Y283208D01*
X286644Y283125D01*
X286662Y283043D01*
X286684Y282963D01*
X286709Y282883D01*
X286738Y282805D01*
X286771Y282728D01*
X286807Y282652D01*
X289552Y283641D02*
X289551Y283716D01*
X289548Y283792D01*
X289540Y283868D01*
X289528Y283943D01*
X289513Y284017D01*
X289494Y284091D01*
X289471Y284163D01*
X289445Y284234D01*
X289415Y284304D01*
X289381Y284372D01*
X289344Y284439D01*
X289304Y284503D01*
X289261Y284566D01*
X289214Y284626D01*
X289165Y284683D01*
X289112Y284738D01*
X289551Y283640D02*
X289881Y279579D01*
X292076Y281775D01*
X292792Y284686D02*
X289938Y287539D01*
X292792Y284686D02*
X292848Y284632D01*
X292906Y284582D01*
X292967Y284534D01*
X293031Y284490D01*
X293096Y284449D01*
X293164Y284411D01*
X293233Y284376D01*
X293304Y284345D01*
X293376Y284318D01*
X293450Y284294D01*
X293525Y284274D01*
X293600Y284258D01*
X293677Y284246D01*
X293754Y284237D01*
X293831Y284232D01*
X293908Y284231D01*
X293986Y284234D01*
X294063Y284241D01*
X294139Y284251D01*
X294215Y284266D01*
X294291Y284284D01*
X294365Y284306D01*
X294438Y284331D01*
X294510Y284360D01*
X294580Y284393D01*
X294648Y284429D01*
X294715Y284469D01*
X294779Y284512D01*
X294841Y284558D01*
X294901Y284607D01*
X294959Y284659D01*
X295013Y284713D01*
X295065Y284771D01*
X295114Y284831D01*
X295160Y284893D01*
X295203Y284957D01*
X295243Y285024D01*
X295279Y285092D01*
X295312Y285162D01*
X295341Y285234D01*
X295366Y285307D01*
X295388Y285381D01*
X295406Y285457D01*
X295421Y285533D01*
X295431Y285609D01*
X295438Y285686D01*
X295441Y285764D01*
X295440Y285841D01*
X295435Y285918D01*
X295426Y285995D01*
X295414Y286072D01*
X295398Y286147D01*
X295378Y286222D01*
X295354Y286296D01*
X295327Y286368D01*
X295296Y286439D01*
X295261Y286508D01*
X295223Y286576D01*
X295182Y286641D01*
X295138Y286705D01*
X295090Y286766D01*
X295040Y286824D01*
X294986Y286880D01*
X294987Y286881D02*
X292133Y289735D01*
X295154Y292755D02*
X295207Y292805D01*
X295263Y292853D01*
X295321Y292897D01*
X295381Y292939D01*
X295444Y292977D01*
X295508Y293012D01*
X295574Y293043D01*
X295641Y293071D01*
X295710Y293096D01*
X295780Y293116D01*
X295852Y293133D01*
X295923Y293147D01*
X295996Y293156D01*
X296069Y293162D01*
X296142Y293164D01*
X296215Y293162D01*
X296288Y293156D01*
X296361Y293147D01*
X296432Y293133D01*
X296504Y293116D01*
X296574Y293096D01*
X296643Y293071D01*
X296710Y293043D01*
X296776Y293012D01*
X296840Y292977D01*
X296903Y292939D01*
X296963Y292897D01*
X297021Y292853D01*
X297077Y292805D01*
X297130Y292755D01*
X295154Y292755D02*
X295096Y292695D01*
X295041Y292632D01*
X294989Y292566D01*
X294941Y292498D01*
X294895Y292428D01*
X294853Y292356D01*
X294814Y292282D01*
X294779Y292206D01*
X294747Y292129D01*
X294719Y292050D01*
X294694Y291970D01*
X294674Y291889D01*
X294657Y291807D01*
X294644Y291725D01*
X294635Y291641D01*
X294629Y291558D01*
X294628Y291474D01*
X294631Y291391D01*
X294637Y291307D01*
X294647Y291225D01*
X294661Y291142D01*
X294679Y291060D01*
X294701Y290980D01*
X294726Y290900D01*
X294755Y290822D01*
X294788Y290745D01*
X294824Y290669D01*
X297570Y291658D02*
X297569Y291733D01*
X297566Y291809D01*
X297558Y291885D01*
X297546Y291960D01*
X297531Y292034D01*
X297512Y292108D01*
X297489Y292180D01*
X297463Y292251D01*
X297433Y292321D01*
X297399Y292389D01*
X297362Y292456D01*
X297322Y292520D01*
X297279Y292583D01*
X297232Y292643D01*
X297183Y292700D01*
X297130Y292755D01*
X297569Y291658D02*
X297898Y287597D01*
X300093Y289792D01*
X124827Y255508D02*
X124206Y255508D01*
X124206Y258613D01*
X129794Y257061D01*
X128552Y260995D02*
X124206Y262237D01*
X128552Y260995D02*
X128552Y264099D01*
X127310Y263168D02*
X129794Y263168D01*
X129794Y266664D02*
X124206Y266664D01*
X126690Y266664D02*
X126690Y269768D01*
X124206Y269768D02*
X129794Y269768D01*
X129794Y273559D02*
X129794Y274801D01*
X129794Y273559D02*
X129792Y273489D01*
X129786Y273420D01*
X129776Y273351D01*
X129763Y273283D01*
X129745Y273215D01*
X129724Y273149D01*
X129699Y273084D01*
X129671Y273020D01*
X129639Y272958D01*
X129604Y272898D01*
X129565Y272840D01*
X129523Y272785D01*
X129478Y272731D01*
X129430Y272681D01*
X129380Y272633D01*
X129326Y272588D01*
X129271Y272546D01*
X129213Y272507D01*
X129153Y272472D01*
X129091Y272440D01*
X129027Y272412D01*
X128962Y272387D01*
X128896Y272366D01*
X128828Y272348D01*
X128760Y272335D01*
X128691Y272325D01*
X128622Y272319D01*
X128552Y272317D01*
X125448Y272317D01*
X125378Y272319D01*
X125309Y272325D01*
X125240Y272335D01*
X125172Y272348D01*
X125104Y272366D01*
X125038Y272387D01*
X124973Y272412D01*
X124909Y272440D01*
X124847Y272472D01*
X124787Y272507D01*
X124729Y272546D01*
X124674Y272588D01*
X124620Y272633D01*
X124570Y272681D01*
X124522Y272731D01*
X124477Y272785D01*
X124435Y272840D01*
X124396Y272898D01*
X124361Y272958D01*
X124329Y273020D01*
X124301Y273084D01*
X124276Y273149D01*
X124255Y273215D01*
X124237Y273283D01*
X124224Y273351D01*
X124214Y273420D01*
X124208Y273489D01*
X124206Y273559D01*
X124206Y274801D01*
X124206Y278147D02*
X128552Y276905D01*
X128552Y280010D01*
X127310Y279078D02*
X129794Y279078D01*
X124206Y284099D02*
X124208Y284172D01*
X124214Y284245D01*
X124223Y284318D01*
X124237Y284389D01*
X124254Y284461D01*
X124274Y284531D01*
X124299Y284600D01*
X124327Y284667D01*
X124358Y284733D01*
X124393Y284798D01*
X124431Y284860D01*
X124473Y284920D01*
X124517Y284978D01*
X124565Y285034D01*
X124615Y285087D01*
X124668Y285137D01*
X124724Y285185D01*
X124782Y285229D01*
X124842Y285271D01*
X124905Y285309D01*
X124969Y285344D01*
X125035Y285375D01*
X125102Y285403D01*
X125171Y285428D01*
X125241Y285448D01*
X125313Y285465D01*
X125384Y285479D01*
X125457Y285488D01*
X125530Y285494D01*
X125603Y285496D01*
X124206Y284099D02*
X124208Y284015D01*
X124214Y283932D01*
X124223Y283849D01*
X124237Y283766D01*
X124254Y283685D01*
X124276Y283604D01*
X124301Y283524D01*
X124329Y283446D01*
X124361Y283368D01*
X124397Y283293D01*
X124436Y283219D01*
X124479Y283147D01*
X124525Y283077D01*
X124574Y283010D01*
X124627Y282944D01*
X124682Y282882D01*
X124740Y282822D01*
X124801Y282764D01*
X124864Y282710D01*
X124930Y282658D01*
X124998Y282610D01*
X125069Y282565D01*
X125141Y282523D01*
X125216Y282485D01*
X125292Y282450D01*
X125369Y282419D01*
X125448Y282391D01*
X126689Y285030D02*
X126636Y285084D01*
X126579Y285135D01*
X126520Y285183D01*
X126459Y285228D01*
X126396Y285269D01*
X126330Y285308D01*
X126263Y285343D01*
X126194Y285375D01*
X126123Y285403D01*
X126052Y285427D01*
X125979Y285448D01*
X125905Y285465D01*
X125830Y285479D01*
X125755Y285488D01*
X125679Y285494D01*
X125603Y285496D01*
X126690Y285030D02*
X129794Y282392D01*
X129794Y285496D01*
X460756Y38354D02*
X461377Y38354D01*
X460756Y38354D02*
X460756Y41458D01*
X466344Y39906D01*
X465102Y43840D02*
X460756Y45082D01*
X465102Y43840D02*
X465102Y46945D01*
X463860Y46013D02*
X466344Y46013D01*
X466344Y49510D02*
X460756Y49510D01*
X463240Y49510D02*
X463240Y52614D01*
X460756Y52614D02*
X466344Y52614D01*
X466344Y56404D02*
X466344Y57646D01*
X466344Y56404D02*
X466342Y56334D01*
X466336Y56265D01*
X466326Y56196D01*
X466313Y56128D01*
X466295Y56060D01*
X466274Y55994D01*
X466249Y55929D01*
X466221Y55865D01*
X466189Y55803D01*
X466154Y55743D01*
X466115Y55685D01*
X466073Y55630D01*
X466028Y55576D01*
X465980Y55526D01*
X465930Y55478D01*
X465876Y55433D01*
X465821Y55391D01*
X465763Y55352D01*
X465703Y55317D01*
X465641Y55285D01*
X465577Y55257D01*
X465512Y55232D01*
X465446Y55211D01*
X465378Y55193D01*
X465310Y55180D01*
X465241Y55170D01*
X465172Y55164D01*
X465102Y55162D01*
X465102Y55163D02*
X461998Y55163D01*
X461998Y55162D02*
X461928Y55164D01*
X461859Y55170D01*
X461790Y55180D01*
X461722Y55193D01*
X461654Y55211D01*
X461588Y55232D01*
X461523Y55257D01*
X461459Y55285D01*
X461397Y55317D01*
X461337Y55352D01*
X461279Y55391D01*
X461224Y55433D01*
X461170Y55478D01*
X461120Y55526D01*
X461072Y55576D01*
X461027Y55630D01*
X460985Y55685D01*
X460946Y55743D01*
X460911Y55803D01*
X460879Y55865D01*
X460851Y55929D01*
X460826Y55994D01*
X460805Y56060D01*
X460787Y56128D01*
X460774Y56196D01*
X460764Y56265D01*
X460758Y56334D01*
X460756Y56404D01*
X460756Y57646D01*
X460756Y60993D02*
X465102Y59751D01*
X465102Y62855D01*
X463860Y61924D02*
X466344Y61924D01*
X460756Y66945D02*
X460758Y67018D01*
X460764Y67091D01*
X460773Y67164D01*
X460787Y67235D01*
X460804Y67307D01*
X460824Y67377D01*
X460849Y67446D01*
X460877Y67513D01*
X460908Y67579D01*
X460943Y67644D01*
X460981Y67706D01*
X461023Y67766D01*
X461067Y67824D01*
X461115Y67880D01*
X461165Y67933D01*
X461218Y67983D01*
X461274Y68031D01*
X461332Y68075D01*
X461392Y68117D01*
X461455Y68155D01*
X461519Y68190D01*
X461585Y68221D01*
X461652Y68249D01*
X461721Y68274D01*
X461791Y68294D01*
X461863Y68311D01*
X461934Y68325D01*
X462007Y68334D01*
X462080Y68340D01*
X462153Y68342D01*
X460756Y66945D02*
X460758Y66861D01*
X460764Y66778D01*
X460773Y66695D01*
X460787Y66612D01*
X460804Y66531D01*
X460826Y66450D01*
X460851Y66370D01*
X460879Y66292D01*
X460911Y66214D01*
X460947Y66139D01*
X460986Y66065D01*
X461029Y65993D01*
X461075Y65923D01*
X461124Y65856D01*
X461177Y65790D01*
X461232Y65728D01*
X461290Y65668D01*
X461351Y65610D01*
X461414Y65556D01*
X461480Y65504D01*
X461548Y65456D01*
X461619Y65411D01*
X461691Y65369D01*
X461766Y65331D01*
X461842Y65296D01*
X461919Y65265D01*
X461998Y65237D01*
X463239Y67875D02*
X463186Y67929D01*
X463129Y67980D01*
X463070Y68028D01*
X463009Y68073D01*
X462946Y68114D01*
X462880Y68153D01*
X462813Y68188D01*
X462744Y68220D01*
X462673Y68248D01*
X462602Y68272D01*
X462529Y68293D01*
X462455Y68310D01*
X462380Y68324D01*
X462305Y68333D01*
X462229Y68339D01*
X462153Y68341D01*
X463240Y67876D02*
X466344Y65237D01*
X466344Y68342D01*
X396494Y76454D02*
X390906Y76454D01*
X394010Y78317D01*
X390906Y80179D01*
X396494Y80179D01*
X396494Y83065D02*
X390906Y83065D01*
X390906Y86170D02*
X394321Y83065D01*
X393079Y84307D02*
X396494Y86170D01*
X393390Y88286D02*
X393390Y90148D01*
X393389Y90148D02*
X393391Y90218D01*
X393397Y90287D01*
X393407Y90356D01*
X393420Y90424D01*
X393438Y90492D01*
X393459Y90558D01*
X393484Y90623D01*
X393512Y90687D01*
X393544Y90749D01*
X393579Y90809D01*
X393618Y90867D01*
X393660Y90922D01*
X393705Y90976D01*
X393753Y91026D01*
X393803Y91074D01*
X393857Y91119D01*
X393912Y91161D01*
X393970Y91200D01*
X394030Y91235D01*
X394092Y91267D01*
X394156Y91295D01*
X394221Y91320D01*
X394287Y91341D01*
X394355Y91359D01*
X394423Y91372D01*
X394492Y91382D01*
X394561Y91388D01*
X394631Y91390D01*
X394942Y91390D01*
X395019Y91388D01*
X395097Y91382D01*
X395173Y91373D01*
X395250Y91359D01*
X395325Y91342D01*
X395399Y91321D01*
X395473Y91296D01*
X395545Y91268D01*
X395615Y91236D01*
X395684Y91201D01*
X395751Y91162D01*
X395816Y91120D01*
X395879Y91075D01*
X395940Y91027D01*
X395998Y90976D01*
X396053Y90922D01*
X396106Y90865D01*
X396155Y90806D01*
X396202Y90744D01*
X396246Y90680D01*
X396286Y90614D01*
X396323Y90546D01*
X396357Y90476D01*
X396387Y90405D01*
X396413Y90332D01*
X396436Y90258D01*
X396455Y90183D01*
X396470Y90108D01*
X396482Y90031D01*
X396490Y89954D01*
X396494Y89877D01*
X396494Y89799D01*
X396490Y89722D01*
X396482Y89645D01*
X396470Y89568D01*
X396455Y89493D01*
X396436Y89418D01*
X396413Y89344D01*
X396387Y89271D01*
X396357Y89200D01*
X396323Y89130D01*
X396286Y89062D01*
X396246Y88996D01*
X396202Y88932D01*
X396155Y88870D01*
X396106Y88811D01*
X396053Y88754D01*
X395998Y88700D01*
X395940Y88649D01*
X395879Y88601D01*
X395816Y88556D01*
X395751Y88514D01*
X395684Y88475D01*
X395615Y88440D01*
X395545Y88408D01*
X395473Y88380D01*
X395399Y88355D01*
X395325Y88334D01*
X395250Y88317D01*
X395173Y88303D01*
X395097Y88294D01*
X395019Y88288D01*
X394942Y88286D01*
X393390Y88286D01*
X393390Y88285D02*
X393292Y88287D01*
X393195Y88293D01*
X393098Y88302D01*
X393001Y88316D01*
X392905Y88333D01*
X392810Y88354D01*
X392716Y88378D01*
X392622Y88407D01*
X392530Y88439D01*
X392439Y88474D01*
X392350Y88513D01*
X392262Y88556D01*
X392176Y88602D01*
X392092Y88651D01*
X392010Y88704D01*
X391930Y88759D01*
X391852Y88818D01*
X391777Y88880D01*
X391704Y88945D01*
X391634Y89013D01*
X391566Y89083D01*
X391501Y89156D01*
X391439Y89231D01*
X391380Y89309D01*
X391325Y89389D01*
X391272Y89471D01*
X391223Y89555D01*
X391177Y89641D01*
X391134Y89729D01*
X391095Y89818D01*
X391060Y89909D01*
X391028Y90001D01*
X390999Y90095D01*
X390975Y90189D01*
X390954Y90284D01*
X390937Y90380D01*
X390923Y90477D01*
X390914Y90574D01*
X390908Y90671D01*
X390906Y90769D01*
X394321Y93828D02*
X394321Y97553D01*
X396494Y99990D02*
X396494Y101853D01*
X396492Y101923D01*
X396486Y101992D01*
X396476Y102061D01*
X396463Y102129D01*
X396445Y102197D01*
X396424Y102263D01*
X396399Y102328D01*
X396371Y102392D01*
X396339Y102454D01*
X396304Y102514D01*
X396265Y102572D01*
X396223Y102627D01*
X396178Y102681D01*
X396130Y102731D01*
X396080Y102779D01*
X396026Y102824D01*
X395971Y102866D01*
X395913Y102905D01*
X395853Y102940D01*
X395791Y102972D01*
X395727Y103000D01*
X395662Y103025D01*
X395596Y103046D01*
X395528Y103064D01*
X395460Y103077D01*
X395391Y103087D01*
X395322Y103093D01*
X395252Y103095D01*
X394631Y103095D01*
X394561Y103093D01*
X394492Y103087D01*
X394423Y103077D01*
X394355Y103064D01*
X394287Y103046D01*
X394221Y103025D01*
X394156Y103000D01*
X394092Y102972D01*
X394030Y102940D01*
X393970Y102905D01*
X393912Y102866D01*
X393857Y102824D01*
X393803Y102779D01*
X393753Y102731D01*
X393705Y102681D01*
X393660Y102627D01*
X393618Y102572D01*
X393579Y102514D01*
X393544Y102454D01*
X393512Y102392D01*
X393484Y102328D01*
X393459Y102263D01*
X393438Y102197D01*
X393420Y102129D01*
X393407Y102061D01*
X393397Y101992D01*
X393391Y101923D01*
X393389Y101853D01*
X393390Y101853D02*
X393390Y99990D01*
X390906Y99990D01*
X390906Y103095D01*
X394321Y105532D02*
X394321Y109257D01*
X393390Y111960D02*
X393390Y113512D01*
X393392Y113589D01*
X393398Y113667D01*
X393407Y113743D01*
X393421Y113820D01*
X393438Y113895D01*
X393459Y113969D01*
X393484Y114043D01*
X393512Y114115D01*
X393544Y114185D01*
X393579Y114254D01*
X393618Y114321D01*
X393660Y114386D01*
X393705Y114449D01*
X393753Y114510D01*
X393804Y114568D01*
X393858Y114623D01*
X393915Y114676D01*
X393974Y114725D01*
X394036Y114772D01*
X394100Y114816D01*
X394166Y114856D01*
X394234Y114893D01*
X394304Y114927D01*
X394375Y114957D01*
X394448Y114983D01*
X394522Y115006D01*
X394597Y115025D01*
X394672Y115040D01*
X394749Y115052D01*
X394826Y115060D01*
X394903Y115064D01*
X394981Y115064D01*
X395058Y115060D01*
X395135Y115052D01*
X395212Y115040D01*
X395287Y115025D01*
X395362Y115006D01*
X395436Y114983D01*
X395509Y114957D01*
X395580Y114927D01*
X395650Y114893D01*
X395718Y114856D01*
X395784Y114816D01*
X395848Y114772D01*
X395910Y114725D01*
X395969Y114676D01*
X396026Y114623D01*
X396080Y114568D01*
X396131Y114510D01*
X396179Y114449D01*
X396224Y114386D01*
X396266Y114321D01*
X396305Y114254D01*
X396340Y114185D01*
X396372Y114115D01*
X396400Y114043D01*
X396425Y113969D01*
X396446Y113895D01*
X396463Y113820D01*
X396477Y113743D01*
X396486Y113667D01*
X396492Y113589D01*
X396494Y113512D01*
X396494Y111960D01*
X390906Y111960D01*
X390906Y113512D01*
X390908Y113582D01*
X390914Y113651D01*
X390924Y113720D01*
X390937Y113788D01*
X390955Y113856D01*
X390976Y113922D01*
X391001Y113987D01*
X391029Y114051D01*
X391061Y114113D01*
X391096Y114173D01*
X391135Y114231D01*
X391177Y114286D01*
X391222Y114340D01*
X391270Y114390D01*
X391320Y114438D01*
X391374Y114483D01*
X391429Y114525D01*
X391487Y114564D01*
X391547Y114599D01*
X391609Y114631D01*
X391673Y114659D01*
X391738Y114684D01*
X391804Y114705D01*
X391872Y114723D01*
X391940Y114736D01*
X392009Y114746D01*
X392078Y114752D01*
X392148Y114754D01*
X392218Y114752D01*
X392287Y114746D01*
X392356Y114736D01*
X392424Y114723D01*
X392492Y114705D01*
X392558Y114684D01*
X392623Y114659D01*
X392687Y114631D01*
X392749Y114599D01*
X392809Y114564D01*
X392867Y114525D01*
X392922Y114483D01*
X392976Y114438D01*
X393026Y114390D01*
X393074Y114340D01*
X393119Y114286D01*
X393161Y114231D01*
X393200Y114173D01*
X393235Y114113D01*
X393267Y114051D01*
X393295Y113987D01*
X393320Y113922D01*
X393341Y113856D01*
X393359Y113788D01*
X393372Y113720D01*
X393382Y113651D01*
X393388Y113582D01*
X393390Y113512D01*
X104902Y62189D02*
X99314Y62189D01*
X102418Y64052D01*
X99314Y65914D01*
X104902Y65914D01*
X104902Y68989D02*
X99314Y68989D01*
X104902Y68368D02*
X104902Y69610D01*
X99314Y69610D02*
X99314Y68368D01*
X104902Y73506D02*
X104900Y73576D01*
X104894Y73645D01*
X104884Y73714D01*
X104871Y73782D01*
X104853Y73850D01*
X104832Y73916D01*
X104807Y73981D01*
X104779Y74045D01*
X104747Y74107D01*
X104712Y74167D01*
X104673Y74225D01*
X104631Y74280D01*
X104586Y74334D01*
X104538Y74384D01*
X104488Y74432D01*
X104434Y74477D01*
X104379Y74519D01*
X104321Y74558D01*
X104261Y74593D01*
X104199Y74625D01*
X104135Y74653D01*
X104070Y74678D01*
X104004Y74699D01*
X103936Y74717D01*
X103868Y74730D01*
X103799Y74740D01*
X103730Y74746D01*
X103660Y74748D01*
X104902Y73506D02*
X104900Y73407D01*
X104895Y73309D01*
X104885Y73211D01*
X104872Y73113D01*
X104856Y73016D01*
X104836Y72919D01*
X104812Y72824D01*
X104784Y72729D01*
X104753Y72635D01*
X104719Y72543D01*
X104681Y72452D01*
X104640Y72362D01*
X104595Y72274D01*
X104547Y72188D01*
X104496Y72104D01*
X104442Y72022D01*
X104384Y71941D01*
X104324Y71863D01*
X104261Y71788D01*
X104195Y71714D01*
X104126Y71644D01*
X100556Y71798D02*
X100486Y71800D01*
X100417Y71806D01*
X100348Y71816D01*
X100280Y71829D01*
X100212Y71847D01*
X100146Y71868D01*
X100081Y71893D01*
X100017Y71921D01*
X99955Y71953D01*
X99895Y71988D01*
X99837Y72027D01*
X99782Y72069D01*
X99728Y72114D01*
X99678Y72162D01*
X99630Y72212D01*
X99585Y72266D01*
X99543Y72321D01*
X99504Y72379D01*
X99469Y72439D01*
X99437Y72501D01*
X99409Y72565D01*
X99384Y72630D01*
X99363Y72696D01*
X99345Y72764D01*
X99332Y72832D01*
X99322Y72901D01*
X99316Y72970D01*
X99314Y73040D01*
X99316Y73134D01*
X99322Y73227D01*
X99331Y73320D01*
X99344Y73413D01*
X99361Y73505D01*
X99381Y73596D01*
X99406Y73687D01*
X99433Y73776D01*
X99465Y73864D01*
X99500Y73951D01*
X99538Y74037D01*
X99580Y74120D01*
X99625Y74203D01*
X99673Y74283D01*
X99725Y74361D01*
X99780Y74437D01*
X101642Y72420D02*
X101606Y72361D01*
X101566Y72305D01*
X101523Y72251D01*
X101478Y72199D01*
X101429Y72150D01*
X101378Y72104D01*
X101325Y72061D01*
X101269Y72020D01*
X101211Y71983D01*
X101151Y71948D01*
X101090Y71918D01*
X101027Y71890D01*
X100962Y71866D01*
X100896Y71846D01*
X100829Y71829D01*
X100762Y71816D01*
X100694Y71807D01*
X100625Y71801D01*
X100556Y71799D01*
X102574Y74127D02*
X102610Y74186D01*
X102650Y74242D01*
X102693Y74296D01*
X102738Y74348D01*
X102787Y74397D01*
X102838Y74443D01*
X102891Y74486D01*
X102947Y74527D01*
X103005Y74564D01*
X103065Y74599D01*
X103126Y74629D01*
X103189Y74657D01*
X103254Y74681D01*
X103320Y74701D01*
X103387Y74718D01*
X103454Y74731D01*
X103522Y74740D01*
X103591Y74746D01*
X103660Y74748D01*
X102574Y74127D02*
X101642Y72419D01*
X100866Y76947D02*
X103350Y76947D01*
X100866Y76947D02*
X100789Y76949D01*
X100711Y76955D01*
X100635Y76964D01*
X100558Y76978D01*
X100483Y76995D01*
X100409Y77016D01*
X100335Y77041D01*
X100263Y77069D01*
X100193Y77101D01*
X100124Y77136D01*
X100057Y77175D01*
X99992Y77217D01*
X99929Y77262D01*
X99868Y77310D01*
X99810Y77361D01*
X99755Y77415D01*
X99702Y77472D01*
X99653Y77531D01*
X99606Y77593D01*
X99562Y77657D01*
X99522Y77723D01*
X99485Y77791D01*
X99451Y77861D01*
X99421Y77932D01*
X99395Y78005D01*
X99372Y78079D01*
X99353Y78154D01*
X99338Y78229D01*
X99326Y78306D01*
X99318Y78383D01*
X99314Y78460D01*
X99314Y78538D01*
X99318Y78615D01*
X99326Y78692D01*
X99338Y78769D01*
X99353Y78844D01*
X99372Y78919D01*
X99395Y78993D01*
X99421Y79066D01*
X99451Y79137D01*
X99485Y79207D01*
X99522Y79275D01*
X99562Y79341D01*
X99606Y79405D01*
X99653Y79467D01*
X99702Y79526D01*
X99755Y79583D01*
X99810Y79637D01*
X99868Y79688D01*
X99929Y79736D01*
X99992Y79781D01*
X100057Y79823D01*
X100124Y79862D01*
X100193Y79897D01*
X100263Y79929D01*
X100335Y79957D01*
X100409Y79982D01*
X100483Y80003D01*
X100558Y80020D01*
X100635Y80034D01*
X100711Y80043D01*
X100789Y80049D01*
X100866Y80051D01*
X103350Y80051D01*
X103427Y80049D01*
X103505Y80043D01*
X103581Y80034D01*
X103658Y80020D01*
X103733Y80003D01*
X103807Y79982D01*
X103881Y79957D01*
X103953Y79929D01*
X104023Y79897D01*
X104092Y79862D01*
X104159Y79823D01*
X104224Y79781D01*
X104287Y79736D01*
X104348Y79688D01*
X104406Y79637D01*
X104461Y79583D01*
X104514Y79526D01*
X104563Y79467D01*
X104610Y79405D01*
X104654Y79341D01*
X104694Y79275D01*
X104731Y79207D01*
X104765Y79137D01*
X104795Y79066D01*
X104821Y78993D01*
X104844Y78919D01*
X104863Y78844D01*
X104878Y78769D01*
X104890Y78692D01*
X104898Y78615D01*
X104902Y78538D01*
X104902Y78460D01*
X104898Y78383D01*
X104890Y78306D01*
X104878Y78229D01*
X104863Y78154D01*
X104844Y78079D01*
X104821Y78005D01*
X104795Y77932D01*
X104765Y77861D01*
X104731Y77791D01*
X104694Y77723D01*
X104654Y77657D01*
X104610Y77593D01*
X104563Y77531D01*
X104514Y77472D01*
X104461Y77415D01*
X104406Y77361D01*
X104348Y77310D01*
X104287Y77262D01*
X104224Y77217D01*
X104159Y77175D01*
X104092Y77136D01*
X104023Y77101D01*
X103953Y77069D01*
X103881Y77041D01*
X103807Y77016D01*
X103733Y76995D01*
X103658Y76978D01*
X103581Y76964D01*
X103505Y76955D01*
X103427Y76949D01*
X103350Y76947D01*
X104902Y114782D02*
X104900Y114852D01*
X104894Y114921D01*
X104884Y114990D01*
X104871Y115058D01*
X104853Y115126D01*
X104832Y115192D01*
X104807Y115257D01*
X104779Y115321D01*
X104747Y115383D01*
X104712Y115443D01*
X104673Y115501D01*
X104631Y115556D01*
X104586Y115610D01*
X104538Y115660D01*
X104488Y115708D01*
X104434Y115753D01*
X104379Y115795D01*
X104321Y115834D01*
X104261Y115869D01*
X104199Y115901D01*
X104135Y115929D01*
X104070Y115954D01*
X104004Y115975D01*
X103936Y115993D01*
X103868Y116006D01*
X103799Y116016D01*
X103730Y116022D01*
X103660Y116024D01*
X104902Y114782D02*
X104900Y114683D01*
X104895Y114585D01*
X104885Y114487D01*
X104872Y114389D01*
X104856Y114292D01*
X104836Y114195D01*
X104812Y114100D01*
X104784Y114005D01*
X104753Y113911D01*
X104719Y113819D01*
X104681Y113728D01*
X104640Y113638D01*
X104595Y113550D01*
X104547Y113464D01*
X104496Y113380D01*
X104442Y113298D01*
X104384Y113217D01*
X104324Y113139D01*
X104261Y113064D01*
X104195Y112990D01*
X104126Y112920D01*
X100556Y113075D02*
X100486Y113077D01*
X100417Y113083D01*
X100348Y113093D01*
X100280Y113106D01*
X100212Y113124D01*
X100146Y113145D01*
X100081Y113170D01*
X100017Y113198D01*
X99955Y113230D01*
X99895Y113265D01*
X99837Y113304D01*
X99782Y113346D01*
X99728Y113391D01*
X99678Y113439D01*
X99630Y113489D01*
X99585Y113543D01*
X99543Y113598D01*
X99504Y113656D01*
X99469Y113716D01*
X99437Y113778D01*
X99409Y113842D01*
X99384Y113907D01*
X99363Y113973D01*
X99345Y114041D01*
X99332Y114109D01*
X99322Y114178D01*
X99316Y114247D01*
X99314Y114317D01*
X99316Y114411D01*
X99322Y114504D01*
X99331Y114597D01*
X99344Y114690D01*
X99361Y114782D01*
X99381Y114873D01*
X99406Y114964D01*
X99433Y115053D01*
X99465Y115141D01*
X99500Y115228D01*
X99538Y115314D01*
X99580Y115397D01*
X99625Y115480D01*
X99673Y115560D01*
X99725Y115638D01*
X99780Y115714D01*
X101642Y113696D02*
X101606Y113637D01*
X101566Y113581D01*
X101523Y113527D01*
X101478Y113475D01*
X101429Y113426D01*
X101378Y113380D01*
X101325Y113337D01*
X101269Y113296D01*
X101211Y113259D01*
X101151Y113224D01*
X101090Y113194D01*
X101027Y113166D01*
X100962Y113142D01*
X100896Y113122D01*
X100829Y113105D01*
X100762Y113092D01*
X100694Y113083D01*
X100625Y113077D01*
X100556Y113075D01*
X102574Y115403D02*
X102610Y115462D01*
X102650Y115518D01*
X102693Y115572D01*
X102738Y115624D01*
X102787Y115673D01*
X102838Y115719D01*
X102891Y115762D01*
X102947Y115803D01*
X103005Y115840D01*
X103065Y115875D01*
X103126Y115905D01*
X103189Y115933D01*
X103254Y115957D01*
X103320Y115977D01*
X103387Y115994D01*
X103454Y116007D01*
X103522Y116016D01*
X103591Y116022D01*
X103660Y116024D01*
X102574Y115403D02*
X101642Y113696D01*
X104902Y119449D02*
X104902Y120691D01*
X104902Y119449D02*
X104900Y119379D01*
X104894Y119310D01*
X104884Y119241D01*
X104871Y119173D01*
X104853Y119105D01*
X104832Y119039D01*
X104807Y118974D01*
X104779Y118910D01*
X104747Y118848D01*
X104712Y118788D01*
X104673Y118730D01*
X104631Y118675D01*
X104586Y118621D01*
X104538Y118571D01*
X104488Y118523D01*
X104434Y118478D01*
X104379Y118436D01*
X104321Y118397D01*
X104261Y118362D01*
X104199Y118330D01*
X104135Y118302D01*
X104070Y118277D01*
X104004Y118256D01*
X103936Y118238D01*
X103868Y118225D01*
X103799Y118215D01*
X103730Y118209D01*
X103660Y118207D01*
X100556Y118207D01*
X100486Y118209D01*
X100417Y118215D01*
X100348Y118225D01*
X100280Y118238D01*
X100212Y118256D01*
X100146Y118277D01*
X100081Y118302D01*
X100017Y118330D01*
X99955Y118362D01*
X99895Y118397D01*
X99837Y118436D01*
X99782Y118478D01*
X99728Y118523D01*
X99678Y118571D01*
X99630Y118621D01*
X99585Y118675D01*
X99543Y118730D01*
X99504Y118788D01*
X99469Y118848D01*
X99437Y118910D01*
X99409Y118974D01*
X99384Y119039D01*
X99363Y119105D01*
X99345Y119173D01*
X99332Y119241D01*
X99322Y119310D01*
X99316Y119379D01*
X99314Y119449D01*
X99314Y120691D01*
X99314Y122989D02*
X104902Y122989D01*
X104902Y125473D01*
X104902Y127816D02*
X99314Y127816D01*
X99314Y130920D02*
X102729Y127816D01*
X101487Y129058D02*
X104902Y130920D01*
X104902Y140990D02*
X99314Y140990D01*
X99314Y142543D01*
X99316Y142620D01*
X99322Y142698D01*
X99331Y142774D01*
X99345Y142851D01*
X99362Y142926D01*
X99383Y143000D01*
X99408Y143074D01*
X99436Y143146D01*
X99468Y143216D01*
X99503Y143285D01*
X99542Y143352D01*
X99584Y143417D01*
X99629Y143480D01*
X99677Y143541D01*
X99728Y143599D01*
X99782Y143654D01*
X99839Y143707D01*
X99898Y143756D01*
X99960Y143803D01*
X100024Y143847D01*
X100090Y143887D01*
X100158Y143924D01*
X100228Y143958D01*
X100299Y143988D01*
X100372Y144014D01*
X100446Y144037D01*
X100521Y144056D01*
X100596Y144071D01*
X100673Y144083D01*
X100750Y144091D01*
X100827Y144095D01*
X100905Y144095D01*
X100982Y144091D01*
X101059Y144083D01*
X101136Y144071D01*
X101211Y144056D01*
X101286Y144037D01*
X101360Y144014D01*
X101433Y143988D01*
X101504Y143958D01*
X101574Y143924D01*
X101642Y143887D01*
X101708Y143847D01*
X101772Y143803D01*
X101834Y143756D01*
X101893Y143707D01*
X101950Y143654D01*
X102004Y143599D01*
X102055Y143541D01*
X102103Y143480D01*
X102148Y143417D01*
X102190Y143352D01*
X102229Y143285D01*
X102264Y143216D01*
X102296Y143146D01*
X102324Y143074D01*
X102349Y143000D01*
X102370Y142926D01*
X102387Y142851D01*
X102401Y142774D01*
X102410Y142698D01*
X102416Y142620D01*
X102418Y142543D01*
X102418Y140990D01*
X102418Y142853D02*
X104902Y144095D01*
X104902Y146635D02*
X104902Y149118D01*
X104902Y146635D02*
X99314Y146635D01*
X99314Y149118D01*
X101798Y148497D02*
X101798Y146635D01*
X104902Y152875D02*
X104900Y152945D01*
X104894Y153014D01*
X104884Y153083D01*
X104871Y153151D01*
X104853Y153219D01*
X104832Y153285D01*
X104807Y153350D01*
X104779Y153414D01*
X104747Y153476D01*
X104712Y153536D01*
X104673Y153594D01*
X104631Y153649D01*
X104586Y153703D01*
X104538Y153753D01*
X104488Y153801D01*
X104434Y153846D01*
X104379Y153888D01*
X104321Y153927D01*
X104261Y153962D01*
X104199Y153994D01*
X104135Y154022D01*
X104070Y154047D01*
X104004Y154068D01*
X103936Y154086D01*
X103868Y154099D01*
X103799Y154109D01*
X103730Y154115D01*
X103660Y154117D01*
X104902Y152875D02*
X104900Y152776D01*
X104895Y152678D01*
X104885Y152580D01*
X104872Y152482D01*
X104856Y152385D01*
X104836Y152288D01*
X104812Y152193D01*
X104784Y152098D01*
X104753Y152004D01*
X104719Y151912D01*
X104681Y151821D01*
X104640Y151731D01*
X104595Y151643D01*
X104547Y151557D01*
X104496Y151473D01*
X104442Y151391D01*
X104384Y151310D01*
X104324Y151232D01*
X104261Y151157D01*
X104195Y151083D01*
X104126Y151013D01*
X100556Y151168D02*
X100486Y151170D01*
X100417Y151176D01*
X100348Y151186D01*
X100280Y151199D01*
X100212Y151217D01*
X100146Y151238D01*
X100081Y151263D01*
X100017Y151291D01*
X99955Y151323D01*
X99895Y151358D01*
X99837Y151397D01*
X99782Y151439D01*
X99728Y151484D01*
X99678Y151532D01*
X99630Y151582D01*
X99585Y151636D01*
X99543Y151691D01*
X99504Y151749D01*
X99469Y151809D01*
X99437Y151871D01*
X99409Y151935D01*
X99384Y152000D01*
X99363Y152066D01*
X99345Y152134D01*
X99332Y152202D01*
X99322Y152271D01*
X99316Y152340D01*
X99314Y152410D01*
X99316Y152504D01*
X99322Y152597D01*
X99331Y152690D01*
X99344Y152783D01*
X99361Y152875D01*
X99381Y152966D01*
X99406Y153057D01*
X99433Y153146D01*
X99465Y153234D01*
X99500Y153321D01*
X99538Y153407D01*
X99580Y153490D01*
X99625Y153573D01*
X99673Y153653D01*
X99725Y153731D01*
X99780Y153807D01*
X101642Y151789D02*
X101606Y151730D01*
X101566Y151674D01*
X101523Y151620D01*
X101478Y151568D01*
X101429Y151519D01*
X101378Y151473D01*
X101325Y151430D01*
X101269Y151389D01*
X101211Y151352D01*
X101151Y151317D01*
X101090Y151287D01*
X101027Y151259D01*
X100962Y151235D01*
X100896Y151215D01*
X100829Y151198D01*
X100762Y151185D01*
X100694Y151176D01*
X100625Y151170D01*
X100556Y151168D01*
X102574Y153496D02*
X102610Y153555D01*
X102650Y153611D01*
X102693Y153665D01*
X102738Y153717D01*
X102787Y153766D01*
X102838Y153812D01*
X102891Y153855D01*
X102947Y153896D01*
X103005Y153933D01*
X103065Y153968D01*
X103126Y153998D01*
X103189Y154026D01*
X103254Y154050D01*
X103320Y154070D01*
X103387Y154087D01*
X103454Y154100D01*
X103522Y154109D01*
X103591Y154115D01*
X103660Y154117D01*
X102574Y153496D02*
X101642Y151789D01*
X104902Y156510D02*
X104902Y158994D01*
X104902Y156510D02*
X99314Y156510D01*
X99314Y158994D01*
X101798Y158373D02*
X101798Y156510D01*
X99314Y162257D02*
X104902Y162257D01*
X99314Y160705D02*
X99314Y163810D01*
X101798Y16020D02*
X101798Y15089D01*
X101798Y16020D02*
X104902Y16020D01*
X104902Y14157D01*
X104900Y14087D01*
X104894Y14018D01*
X104884Y13949D01*
X104871Y13881D01*
X104853Y13813D01*
X104832Y13747D01*
X104807Y13682D01*
X104779Y13618D01*
X104747Y13556D01*
X104712Y13496D01*
X104673Y13438D01*
X104631Y13383D01*
X104586Y13329D01*
X104538Y13279D01*
X104488Y13231D01*
X104434Y13186D01*
X104379Y13144D01*
X104321Y13105D01*
X104261Y13070D01*
X104199Y13038D01*
X104135Y13010D01*
X104070Y12985D01*
X104004Y12964D01*
X103936Y12946D01*
X103868Y12933D01*
X103799Y12923D01*
X103730Y12917D01*
X103660Y12915D01*
X103660Y12916D02*
X100556Y12916D01*
X100556Y12915D02*
X100486Y12917D01*
X100417Y12923D01*
X100348Y12933D01*
X100280Y12946D01*
X100212Y12964D01*
X100146Y12985D01*
X100081Y13010D01*
X100017Y13038D01*
X99955Y13070D01*
X99895Y13105D01*
X99837Y13144D01*
X99782Y13186D01*
X99728Y13231D01*
X99678Y13279D01*
X99630Y13329D01*
X99585Y13383D01*
X99543Y13438D01*
X99504Y13496D01*
X99469Y13556D01*
X99437Y13618D01*
X99409Y13682D01*
X99384Y13747D01*
X99363Y13813D01*
X99345Y13881D01*
X99332Y13949D01*
X99322Y14018D01*
X99316Y14087D01*
X99314Y14157D01*
X99314Y16020D01*
X99314Y18768D02*
X104902Y18768D01*
X104902Y21872D02*
X99314Y18768D01*
X99314Y21872D02*
X104902Y21872D01*
X104902Y24620D02*
X99314Y24620D01*
X99314Y26172D01*
X99316Y26248D01*
X99321Y26324D01*
X99331Y26400D01*
X99344Y26475D01*
X99361Y26549D01*
X99381Y26623D01*
X99405Y26695D01*
X99432Y26766D01*
X99463Y26836D01*
X99497Y26904D01*
X99535Y26970D01*
X99576Y27034D01*
X99619Y27097D01*
X99666Y27157D01*
X99716Y27214D01*
X99769Y27269D01*
X99824Y27322D01*
X99881Y27372D01*
X99941Y27419D01*
X100004Y27462D01*
X100068Y27503D01*
X100134Y27541D01*
X100202Y27575D01*
X100272Y27606D01*
X100343Y27633D01*
X100416Y27657D01*
X100489Y27677D01*
X100563Y27694D01*
X100638Y27707D01*
X100714Y27717D01*
X100790Y27722D01*
X100866Y27724D01*
X103350Y27724D01*
X103426Y27722D01*
X103502Y27717D01*
X103578Y27707D01*
X103653Y27694D01*
X103727Y27677D01*
X103801Y27657D01*
X103873Y27633D01*
X103944Y27606D01*
X104014Y27575D01*
X104082Y27541D01*
X104148Y27503D01*
X104212Y27462D01*
X104275Y27419D01*
X104335Y27372D01*
X104392Y27322D01*
X104447Y27269D01*
X104500Y27214D01*
X104550Y27157D01*
X104597Y27097D01*
X104640Y27034D01*
X104681Y26970D01*
X104719Y26904D01*
X104753Y26836D01*
X104784Y26766D01*
X104811Y26695D01*
X104835Y26623D01*
X104855Y26549D01*
X104872Y26475D01*
X104885Y26400D01*
X104895Y26324D01*
X104900Y26248D01*
X104902Y26172D01*
X104902Y24620D01*
X104902Y87506D02*
X99314Y87506D01*
X102418Y89369D01*
X99314Y91231D01*
X104902Y91231D01*
X103350Y93851D02*
X100866Y93851D01*
X100866Y93852D02*
X100789Y93854D01*
X100711Y93860D01*
X100635Y93869D01*
X100558Y93883D01*
X100483Y93900D01*
X100409Y93921D01*
X100335Y93946D01*
X100263Y93974D01*
X100193Y94006D01*
X100124Y94041D01*
X100057Y94080D01*
X99992Y94122D01*
X99929Y94167D01*
X99868Y94215D01*
X99810Y94266D01*
X99755Y94320D01*
X99702Y94377D01*
X99653Y94436D01*
X99606Y94498D01*
X99562Y94562D01*
X99522Y94628D01*
X99485Y94696D01*
X99451Y94766D01*
X99421Y94837D01*
X99395Y94910D01*
X99372Y94984D01*
X99353Y95059D01*
X99338Y95134D01*
X99326Y95211D01*
X99318Y95288D01*
X99314Y95365D01*
X99314Y95443D01*
X99318Y95520D01*
X99326Y95597D01*
X99338Y95674D01*
X99353Y95749D01*
X99372Y95824D01*
X99395Y95898D01*
X99421Y95971D01*
X99451Y96042D01*
X99485Y96112D01*
X99522Y96180D01*
X99562Y96246D01*
X99606Y96310D01*
X99653Y96372D01*
X99702Y96431D01*
X99755Y96488D01*
X99810Y96542D01*
X99868Y96593D01*
X99929Y96641D01*
X99992Y96686D01*
X100057Y96728D01*
X100124Y96767D01*
X100193Y96802D01*
X100263Y96834D01*
X100335Y96862D01*
X100409Y96887D01*
X100483Y96908D01*
X100558Y96925D01*
X100635Y96939D01*
X100711Y96948D01*
X100789Y96954D01*
X100866Y96956D01*
X103350Y96956D01*
X103427Y96954D01*
X103505Y96948D01*
X103581Y96939D01*
X103658Y96925D01*
X103733Y96908D01*
X103807Y96887D01*
X103881Y96862D01*
X103953Y96834D01*
X104023Y96802D01*
X104092Y96767D01*
X104159Y96728D01*
X104224Y96686D01*
X104287Y96641D01*
X104348Y96593D01*
X104406Y96542D01*
X104461Y96488D01*
X104514Y96431D01*
X104563Y96372D01*
X104610Y96310D01*
X104654Y96246D01*
X104694Y96180D01*
X104731Y96112D01*
X104765Y96042D01*
X104795Y95971D01*
X104821Y95898D01*
X104844Y95824D01*
X104863Y95749D01*
X104878Y95674D01*
X104890Y95597D01*
X104898Y95520D01*
X104902Y95443D01*
X104902Y95365D01*
X104898Y95288D01*
X104890Y95211D01*
X104878Y95134D01*
X104863Y95059D01*
X104844Y94984D01*
X104821Y94910D01*
X104795Y94837D01*
X104765Y94766D01*
X104731Y94696D01*
X104694Y94628D01*
X104654Y94562D01*
X104610Y94498D01*
X104563Y94436D01*
X104514Y94377D01*
X104461Y94320D01*
X104406Y94266D01*
X104348Y94215D01*
X104287Y94167D01*
X104224Y94122D01*
X104159Y94080D01*
X104092Y94041D01*
X104023Y94006D01*
X103953Y93974D01*
X103881Y93946D01*
X103807Y93921D01*
X103733Y93900D01*
X103658Y93883D01*
X103581Y93869D01*
X103505Y93860D01*
X103427Y93854D01*
X103350Y93852D01*
X104902Y101018D02*
X104900Y101088D01*
X104894Y101157D01*
X104884Y101226D01*
X104871Y101294D01*
X104853Y101362D01*
X104832Y101428D01*
X104807Y101493D01*
X104779Y101557D01*
X104747Y101619D01*
X104712Y101679D01*
X104673Y101737D01*
X104631Y101792D01*
X104586Y101846D01*
X104538Y101896D01*
X104488Y101944D01*
X104434Y101989D01*
X104379Y102031D01*
X104321Y102070D01*
X104261Y102105D01*
X104199Y102137D01*
X104135Y102165D01*
X104070Y102190D01*
X104004Y102211D01*
X103936Y102229D01*
X103868Y102242D01*
X103799Y102252D01*
X103730Y102258D01*
X103660Y102260D01*
X104902Y101018D02*
X104900Y100919D01*
X104895Y100821D01*
X104885Y100723D01*
X104872Y100625D01*
X104856Y100528D01*
X104836Y100431D01*
X104812Y100336D01*
X104784Y100241D01*
X104753Y100147D01*
X104719Y100055D01*
X104681Y99964D01*
X104640Y99874D01*
X104595Y99786D01*
X104547Y99700D01*
X104496Y99616D01*
X104442Y99534D01*
X104384Y99453D01*
X104324Y99375D01*
X104261Y99300D01*
X104195Y99226D01*
X104126Y99156D01*
X100556Y99310D02*
X100486Y99312D01*
X100417Y99318D01*
X100348Y99328D01*
X100280Y99341D01*
X100212Y99359D01*
X100146Y99380D01*
X100081Y99405D01*
X100017Y99433D01*
X99955Y99465D01*
X99895Y99500D01*
X99837Y99539D01*
X99782Y99581D01*
X99728Y99626D01*
X99678Y99674D01*
X99630Y99724D01*
X99585Y99778D01*
X99543Y99833D01*
X99504Y99891D01*
X99469Y99951D01*
X99437Y100013D01*
X99409Y100077D01*
X99384Y100142D01*
X99363Y100208D01*
X99345Y100276D01*
X99332Y100344D01*
X99322Y100413D01*
X99316Y100482D01*
X99314Y100552D01*
X99316Y100646D01*
X99322Y100739D01*
X99331Y100832D01*
X99344Y100925D01*
X99361Y101017D01*
X99381Y101108D01*
X99406Y101199D01*
X99433Y101288D01*
X99465Y101376D01*
X99500Y101463D01*
X99538Y101549D01*
X99580Y101632D01*
X99625Y101715D01*
X99673Y101795D01*
X99725Y101873D01*
X99780Y101949D01*
X101642Y99931D02*
X101606Y99872D01*
X101566Y99816D01*
X101523Y99762D01*
X101478Y99710D01*
X101429Y99661D01*
X101378Y99615D01*
X101325Y99572D01*
X101269Y99531D01*
X101211Y99494D01*
X101151Y99459D01*
X101090Y99429D01*
X101027Y99401D01*
X100962Y99377D01*
X100896Y99357D01*
X100829Y99340D01*
X100762Y99327D01*
X100694Y99318D01*
X100625Y99312D01*
X100556Y99310D01*
X102574Y101638D02*
X102610Y101697D01*
X102650Y101753D01*
X102693Y101807D01*
X102738Y101859D01*
X102787Y101908D01*
X102838Y101954D01*
X102891Y101997D01*
X102947Y102038D01*
X103005Y102075D01*
X103065Y102110D01*
X103126Y102140D01*
X103189Y102168D01*
X103254Y102192D01*
X103320Y102212D01*
X103387Y102229D01*
X103454Y102242D01*
X103522Y102251D01*
X103591Y102257D01*
X103660Y102259D01*
X102574Y101638D02*
X101642Y99931D01*
X99314Y104913D02*
X104902Y104913D01*
X104902Y104292D02*
X104902Y105534D01*
X99314Y105534D02*
X99314Y104292D01*
X104902Y41165D02*
X99314Y39302D01*
X99314Y43027D02*
X104902Y41165D01*
X104902Y46324D02*
X104902Y47566D01*
X104902Y46324D02*
X104900Y46254D01*
X104894Y46185D01*
X104884Y46116D01*
X104871Y46048D01*
X104853Y45980D01*
X104832Y45914D01*
X104807Y45849D01*
X104779Y45785D01*
X104747Y45723D01*
X104712Y45663D01*
X104673Y45605D01*
X104631Y45550D01*
X104586Y45496D01*
X104538Y45446D01*
X104488Y45398D01*
X104434Y45353D01*
X104379Y45311D01*
X104321Y45272D01*
X104261Y45237D01*
X104199Y45205D01*
X104135Y45177D01*
X104070Y45152D01*
X104004Y45131D01*
X103936Y45113D01*
X103868Y45100D01*
X103799Y45090D01*
X103730Y45084D01*
X103660Y45082D01*
X103660Y45083D02*
X100556Y45083D01*
X100556Y45082D02*
X100486Y45084D01*
X100417Y45090D01*
X100348Y45100D01*
X100280Y45113D01*
X100212Y45131D01*
X100146Y45152D01*
X100081Y45177D01*
X100017Y45205D01*
X99955Y45237D01*
X99895Y45272D01*
X99837Y45311D01*
X99782Y45353D01*
X99728Y45398D01*
X99678Y45446D01*
X99630Y45496D01*
X99585Y45550D01*
X99543Y45605D01*
X99504Y45663D01*
X99469Y45723D01*
X99437Y45785D01*
X99409Y45849D01*
X99384Y45914D01*
X99363Y45980D01*
X99345Y46048D01*
X99332Y46116D01*
X99322Y46185D01*
X99316Y46254D01*
X99314Y46324D01*
X99314Y47566D01*
X104902Y50896D02*
X104902Y52138D01*
X104902Y50896D02*
X104900Y50826D01*
X104894Y50757D01*
X104884Y50688D01*
X104871Y50620D01*
X104853Y50552D01*
X104832Y50486D01*
X104807Y50421D01*
X104779Y50357D01*
X104747Y50295D01*
X104712Y50235D01*
X104673Y50177D01*
X104631Y50122D01*
X104586Y50068D01*
X104538Y50018D01*
X104488Y49970D01*
X104434Y49925D01*
X104379Y49883D01*
X104321Y49844D01*
X104261Y49809D01*
X104199Y49777D01*
X104135Y49749D01*
X104070Y49724D01*
X104004Y49703D01*
X103936Y49685D01*
X103868Y49672D01*
X103799Y49662D01*
X103730Y49656D01*
X103660Y49654D01*
X100556Y49654D01*
X100486Y49656D01*
X100417Y49662D01*
X100348Y49672D01*
X100280Y49685D01*
X100212Y49703D01*
X100146Y49724D01*
X100081Y49749D01*
X100017Y49777D01*
X99955Y49809D01*
X99895Y49844D01*
X99837Y49883D01*
X99782Y49925D01*
X99728Y49970D01*
X99678Y50018D01*
X99630Y50068D01*
X99585Y50122D01*
X99543Y50177D01*
X99504Y50235D01*
X99469Y50295D01*
X99437Y50357D01*
X99409Y50421D01*
X99384Y50486D01*
X99363Y50552D01*
X99345Y50620D01*
X99332Y50688D01*
X99322Y50757D01*
X99316Y50826D01*
X99314Y50896D01*
X99314Y52138D01*
D11*
X83820Y20320D03*
D10*
X34310Y80264D02*
X34310Y85852D01*
X35863Y85852D01*
X35940Y85850D01*
X36018Y85844D01*
X36094Y85835D01*
X36171Y85821D01*
X36246Y85804D01*
X36320Y85783D01*
X36394Y85758D01*
X36466Y85730D01*
X36536Y85698D01*
X36605Y85663D01*
X36672Y85624D01*
X36737Y85582D01*
X36800Y85537D01*
X36861Y85489D01*
X36919Y85438D01*
X36974Y85384D01*
X37027Y85327D01*
X37076Y85268D01*
X37123Y85206D01*
X37167Y85142D01*
X37207Y85076D01*
X37244Y85008D01*
X37278Y84938D01*
X37308Y84867D01*
X37334Y84794D01*
X37357Y84720D01*
X37376Y84645D01*
X37391Y84570D01*
X37403Y84493D01*
X37411Y84416D01*
X37415Y84339D01*
X37415Y84261D01*
X37411Y84184D01*
X37403Y84107D01*
X37391Y84030D01*
X37376Y83955D01*
X37357Y83880D01*
X37334Y83806D01*
X37308Y83733D01*
X37278Y83662D01*
X37244Y83592D01*
X37207Y83524D01*
X37167Y83458D01*
X37123Y83394D01*
X37076Y83332D01*
X37027Y83273D01*
X36974Y83216D01*
X36919Y83162D01*
X36861Y83111D01*
X36800Y83063D01*
X36737Y83018D01*
X36672Y82976D01*
X36605Y82937D01*
X36536Y82902D01*
X36466Y82870D01*
X36394Y82842D01*
X36320Y82817D01*
X36246Y82796D01*
X36171Y82779D01*
X36094Y82765D01*
X36018Y82756D01*
X35940Y82750D01*
X35863Y82748D01*
X34310Y82748D01*
X36173Y82748D02*
X37415Y80264D01*
X39955Y80264D02*
X42438Y80264D01*
X39955Y80264D02*
X39955Y85852D01*
X42438Y85852D01*
X41817Y83368D02*
X39955Y83368D01*
X46195Y80264D02*
X46265Y80266D01*
X46334Y80272D01*
X46403Y80282D01*
X46471Y80295D01*
X46539Y80313D01*
X46605Y80334D01*
X46670Y80359D01*
X46734Y80387D01*
X46796Y80419D01*
X46856Y80454D01*
X46914Y80493D01*
X46969Y80535D01*
X47023Y80580D01*
X47073Y80628D01*
X47121Y80678D01*
X47166Y80732D01*
X47208Y80787D01*
X47247Y80845D01*
X47282Y80905D01*
X47314Y80967D01*
X47342Y81031D01*
X47367Y81096D01*
X47388Y81162D01*
X47406Y81230D01*
X47419Y81298D01*
X47429Y81367D01*
X47435Y81436D01*
X47437Y81506D01*
X46195Y80264D02*
X46096Y80266D01*
X45998Y80271D01*
X45900Y80281D01*
X45802Y80294D01*
X45705Y80310D01*
X45608Y80330D01*
X45513Y80354D01*
X45418Y80382D01*
X45324Y80413D01*
X45232Y80447D01*
X45141Y80485D01*
X45051Y80526D01*
X44963Y80571D01*
X44877Y80619D01*
X44793Y80670D01*
X44711Y80724D01*
X44630Y80782D01*
X44552Y80842D01*
X44477Y80905D01*
X44403Y80971D01*
X44333Y81040D01*
X44488Y84610D02*
X44490Y84680D01*
X44496Y84749D01*
X44506Y84818D01*
X44519Y84886D01*
X44537Y84954D01*
X44558Y85020D01*
X44583Y85085D01*
X44611Y85149D01*
X44643Y85211D01*
X44678Y85271D01*
X44717Y85329D01*
X44759Y85384D01*
X44804Y85438D01*
X44852Y85488D01*
X44902Y85536D01*
X44956Y85581D01*
X45011Y85623D01*
X45069Y85662D01*
X45129Y85697D01*
X45191Y85729D01*
X45255Y85757D01*
X45320Y85782D01*
X45386Y85803D01*
X45454Y85821D01*
X45522Y85834D01*
X45591Y85844D01*
X45660Y85850D01*
X45730Y85852D01*
X45824Y85850D01*
X45917Y85844D01*
X46010Y85835D01*
X46103Y85822D01*
X46195Y85805D01*
X46286Y85785D01*
X46377Y85760D01*
X46466Y85733D01*
X46554Y85701D01*
X46641Y85666D01*
X46727Y85628D01*
X46810Y85586D01*
X46892Y85541D01*
X46973Y85493D01*
X47051Y85441D01*
X47127Y85386D01*
X45109Y83524D02*
X45050Y83560D01*
X44994Y83600D01*
X44940Y83643D01*
X44888Y83688D01*
X44839Y83737D01*
X44793Y83788D01*
X44750Y83841D01*
X44709Y83897D01*
X44672Y83955D01*
X44637Y84015D01*
X44607Y84076D01*
X44579Y84139D01*
X44555Y84204D01*
X44535Y84270D01*
X44518Y84337D01*
X44505Y84404D01*
X44496Y84472D01*
X44490Y84541D01*
X44488Y84610D01*
X46816Y82592D02*
X46875Y82556D01*
X46931Y82516D01*
X46985Y82473D01*
X47037Y82428D01*
X47086Y82379D01*
X47132Y82328D01*
X47175Y82275D01*
X47216Y82219D01*
X47253Y82161D01*
X47288Y82101D01*
X47318Y82040D01*
X47346Y81977D01*
X47370Y81912D01*
X47390Y81846D01*
X47407Y81779D01*
X47420Y81712D01*
X47429Y81644D01*
X47435Y81575D01*
X47437Y81506D01*
X46816Y82592D02*
X45109Y83524D01*
X49830Y80264D02*
X52314Y80264D01*
X49830Y80264D02*
X49830Y85852D01*
X52314Y85852D01*
X51693Y83368D02*
X49830Y83368D01*
X55577Y85852D02*
X55577Y80264D01*
X54025Y85852D02*
X57130Y85852D01*
D12*
X446278Y132588D02*
X468122Y132588D01*
X454152Y32512D02*
X446278Y32512D01*
X454152Y32512D02*
X460248Y32512D01*
X468122Y32512D01*
X460248Y32512D02*
X460246Y32621D01*
X460240Y32729D01*
X460231Y32838D01*
X460217Y32946D01*
X460200Y33053D01*
X460178Y33160D01*
X460153Y33266D01*
X460125Y33371D01*
X460092Y33475D01*
X460056Y33577D01*
X460016Y33678D01*
X459973Y33778D01*
X459926Y33876D01*
X459875Y33973D01*
X459821Y34067D01*
X459764Y34160D01*
X459704Y34250D01*
X459640Y34339D01*
X459573Y34425D01*
X459504Y34508D01*
X459431Y34589D01*
X459355Y34667D01*
X459277Y34743D01*
X459196Y34816D01*
X459113Y34885D01*
X459027Y34952D01*
X458938Y35016D01*
X458848Y35076D01*
X458755Y35133D01*
X458661Y35187D01*
X458564Y35238D01*
X458466Y35285D01*
X458366Y35328D01*
X458265Y35368D01*
X458163Y35404D01*
X458059Y35437D01*
X457954Y35465D01*
X457848Y35490D01*
X457741Y35512D01*
X457634Y35529D01*
X457526Y35543D01*
X457417Y35552D01*
X457309Y35558D01*
X457200Y35560D01*
X457091Y35558D01*
X456983Y35552D01*
X456874Y35543D01*
X456766Y35529D01*
X456659Y35512D01*
X456552Y35490D01*
X456446Y35465D01*
X456341Y35437D01*
X456237Y35404D01*
X456135Y35368D01*
X456034Y35328D01*
X455934Y35285D01*
X455836Y35238D01*
X455739Y35187D01*
X455645Y35133D01*
X455552Y35076D01*
X455462Y35016D01*
X455373Y34952D01*
X455287Y34885D01*
X455204Y34816D01*
X455123Y34743D01*
X455045Y34667D01*
X454969Y34589D01*
X454896Y34508D01*
X454827Y34425D01*
X454760Y34339D01*
X454696Y34250D01*
X454636Y34160D01*
X454579Y34067D01*
X454525Y33973D01*
X454474Y33876D01*
X454427Y33778D01*
X454384Y33678D01*
X454344Y33577D01*
X454308Y33475D01*
X454275Y33371D01*
X454247Y33266D01*
X454222Y33160D01*
X454200Y33053D01*
X454183Y32946D01*
X454169Y32838D01*
X454160Y32729D01*
X454154Y32621D01*
X454152Y32512D01*
D13*
X485175Y28758D02*
X485175Y24779D01*
X485175Y28758D02*
X482854Y31743D01*
X485175Y28758D02*
X487497Y31743D01*
X485175Y28758D02*
X481528Y27432D01*
X485175Y28758D02*
X488823Y27432D01*
D14*
X304800Y205702D02*
X255232Y255270D01*
X304800Y304838D01*
X351858Y257780D01*
X351858Y252760D02*
X304800Y205702D01*
X351858Y252760D02*
X351858Y257780D01*
X355182Y255090D02*
X355184Y255168D01*
X355190Y255245D01*
X355200Y255323D01*
X355214Y255399D01*
X355231Y255475D01*
X355253Y255550D01*
X355278Y255623D01*
X355307Y255696D01*
X355340Y255766D01*
X355377Y255835D01*
X355416Y255902D01*
X355459Y255967D01*
X355506Y256029D01*
X355555Y256089D01*
X355608Y256147D01*
X355663Y256201D01*
X355721Y256253D01*
X355782Y256302D01*
X355845Y256348D01*
X355911Y256390D01*
X355978Y256429D01*
X356047Y256464D01*
X356118Y256496D01*
X356191Y256524D01*
X356265Y256549D01*
X356340Y256569D01*
X356416Y256586D01*
X356493Y256599D01*
X356570Y256608D01*
X356648Y256613D01*
X356725Y256614D01*
X356803Y256611D01*
X356881Y256604D01*
X356958Y256593D01*
X357034Y256578D01*
X357110Y256560D01*
X357184Y256537D01*
X357258Y256511D01*
X357329Y256481D01*
X357400Y256447D01*
X357468Y256410D01*
X357534Y256369D01*
X357599Y256325D01*
X357661Y256278D01*
X357720Y256228D01*
X357777Y256174D01*
X357831Y256118D01*
X357882Y256060D01*
X357930Y255998D01*
X357975Y255935D01*
X358016Y255869D01*
X358054Y255801D01*
X358089Y255731D01*
X358120Y255660D01*
X358147Y255587D01*
X358170Y255513D01*
X358190Y255437D01*
X358206Y255361D01*
X358218Y255284D01*
X358226Y255207D01*
X358230Y255129D01*
X358230Y255051D01*
X358226Y254973D01*
X358218Y254896D01*
X358206Y254819D01*
X358190Y254743D01*
X358170Y254667D01*
X358147Y254593D01*
X358120Y254520D01*
X358089Y254449D01*
X358054Y254379D01*
X358016Y254311D01*
X357975Y254245D01*
X357930Y254182D01*
X357882Y254120D01*
X357831Y254062D01*
X357777Y254006D01*
X357720Y253952D01*
X357661Y253902D01*
X357599Y253855D01*
X357534Y253811D01*
X357468Y253770D01*
X357400Y253733D01*
X357329Y253699D01*
X357258Y253669D01*
X357184Y253643D01*
X357110Y253620D01*
X357034Y253602D01*
X356958Y253587D01*
X356881Y253576D01*
X356803Y253569D01*
X356725Y253566D01*
X356648Y253567D01*
X356570Y253572D01*
X356493Y253581D01*
X356416Y253594D01*
X356340Y253611D01*
X356265Y253631D01*
X356191Y253656D01*
X356118Y253684D01*
X356047Y253716D01*
X355978Y253751D01*
X355911Y253790D01*
X355845Y253832D01*
X355782Y253878D01*
X355721Y253927D01*
X355663Y253979D01*
X355608Y254033D01*
X355555Y254091D01*
X355506Y254151D01*
X355459Y254213D01*
X355416Y254278D01*
X355377Y254345D01*
X355340Y254414D01*
X355307Y254484D01*
X355278Y254557D01*
X355253Y254630D01*
X355231Y254705D01*
X355214Y254781D01*
X355200Y254857D01*
X355190Y254935D01*
X355184Y255012D01*
X355182Y255090D01*
X535177Y321060D02*
X535177Y4060D01*
X552717Y4060D01*
X552857Y4060D02*
X552857Y321060D01*
X552717Y321060D02*
X535177Y321060D01*
D15*
X536804Y318157D02*
X537425Y317381D01*
X536804Y318157D02*
X539598Y318157D01*
X539598Y317381D02*
X539598Y318933D01*
D14*
X5003Y321060D02*
X5003Y4060D01*
X22543Y4060D01*
X22683Y4060D02*
X22683Y321060D01*
X22543Y321060D02*
X5003Y321060D01*
D15*
X6630Y318157D02*
X7251Y317381D01*
X6630Y318157D02*
X9424Y318157D01*
X9424Y317381D02*
X9424Y318933D01*
D12*
X122428Y193802D02*
X144272Y193802D01*
X144272Y293878D02*
X136398Y293878D01*
X130302Y293878D01*
X122428Y293878D01*
X130302Y293878D02*
X130304Y293769D01*
X130310Y293661D01*
X130319Y293552D01*
X130333Y293444D01*
X130350Y293337D01*
X130372Y293230D01*
X130397Y293124D01*
X130425Y293019D01*
X130458Y292915D01*
X130494Y292813D01*
X130534Y292712D01*
X130577Y292612D01*
X130624Y292514D01*
X130675Y292417D01*
X130729Y292323D01*
X130786Y292230D01*
X130846Y292140D01*
X130910Y292051D01*
X130977Y291965D01*
X131046Y291882D01*
X131119Y291801D01*
X131195Y291723D01*
X131273Y291647D01*
X131354Y291574D01*
X131437Y291505D01*
X131523Y291438D01*
X131612Y291374D01*
X131702Y291314D01*
X131795Y291257D01*
X131889Y291203D01*
X131986Y291152D01*
X132084Y291105D01*
X132184Y291062D01*
X132285Y291022D01*
X132387Y290986D01*
X132491Y290953D01*
X132596Y290925D01*
X132702Y290900D01*
X132809Y290878D01*
X132916Y290861D01*
X133024Y290847D01*
X133133Y290838D01*
X133241Y290832D01*
X133350Y290830D01*
X133459Y290832D01*
X133567Y290838D01*
X133676Y290847D01*
X133784Y290861D01*
X133891Y290878D01*
X133998Y290900D01*
X134104Y290925D01*
X134209Y290953D01*
X134313Y290986D01*
X134415Y291022D01*
X134516Y291062D01*
X134616Y291105D01*
X134714Y291152D01*
X134811Y291203D01*
X134905Y291257D01*
X134998Y291314D01*
X135088Y291374D01*
X135177Y291438D01*
X135263Y291505D01*
X135346Y291574D01*
X135427Y291647D01*
X135505Y291723D01*
X135581Y291801D01*
X135654Y291882D01*
X135723Y291965D01*
X135790Y292051D01*
X135854Y292140D01*
X135914Y292230D01*
X135971Y292323D01*
X136025Y292417D01*
X136076Y292514D01*
X136123Y292612D01*
X136166Y292712D01*
X136206Y292813D01*
X136242Y292915D01*
X136275Y293019D01*
X136303Y293124D01*
X136328Y293230D01*
X136350Y293337D01*
X136367Y293444D01*
X136381Y293552D01*
X136390Y293661D01*
X136396Y293769D01*
X136398Y293878D01*
D13*
X105375Y297632D02*
X105375Y301611D01*
X105375Y297632D02*
X107696Y294647D01*
X105375Y297632D02*
X103053Y294647D01*
X105375Y297632D02*
X109022Y298958D01*
X105375Y297632D02*
X101727Y298958D01*
D16*
X408912Y271399D02*
X409984Y271399D01*
X408912Y271399D02*
X408847Y271401D01*
X408783Y271407D01*
X408719Y271417D01*
X408655Y271430D01*
X408593Y271448D01*
X408532Y271469D01*
X408472Y271493D01*
X408414Y271522D01*
X408357Y271554D01*
X408303Y271589D01*
X408251Y271627D01*
X408201Y271669D01*
X408154Y271713D01*
X408110Y271760D01*
X408068Y271810D01*
X408030Y271862D01*
X407995Y271916D01*
X407963Y271973D01*
X407934Y272031D01*
X407910Y272091D01*
X407889Y272152D01*
X407871Y272214D01*
X407858Y272278D01*
X407848Y272342D01*
X407842Y272406D01*
X407840Y272471D01*
X407839Y272471D02*
X407839Y275153D01*
X407840Y275153D02*
X407842Y275218D01*
X407848Y275282D01*
X407858Y275346D01*
X407871Y275410D01*
X407889Y275472D01*
X407910Y275533D01*
X407934Y275593D01*
X407963Y275651D01*
X407995Y275708D01*
X408030Y275762D01*
X408068Y275814D01*
X408110Y275864D01*
X408154Y275911D01*
X408201Y275955D01*
X408251Y275997D01*
X408303Y276035D01*
X408357Y276070D01*
X408414Y276102D01*
X408472Y276131D01*
X408532Y276155D01*
X408593Y276176D01*
X408655Y276194D01*
X408719Y276207D01*
X408783Y276217D01*
X408847Y276223D01*
X408912Y276225D01*
X409984Y276225D01*
X412440Y271399D02*
X413780Y271399D01*
X413851Y271401D01*
X413923Y271407D01*
X413993Y271416D01*
X414063Y271429D01*
X414133Y271446D01*
X414201Y271467D01*
X414268Y271491D01*
X414334Y271519D01*
X414398Y271550D01*
X414461Y271585D01*
X414521Y271623D01*
X414580Y271664D01*
X414636Y271708D01*
X414690Y271755D01*
X414741Y271804D01*
X414789Y271857D01*
X414835Y271912D01*
X414877Y271969D01*
X414917Y272029D01*
X414953Y272090D01*
X414986Y272154D01*
X415015Y272219D01*
X415041Y272285D01*
X415064Y272353D01*
X415083Y272422D01*
X415098Y272492D01*
X415109Y272562D01*
X415117Y272633D01*
X415121Y272704D01*
X415121Y272776D01*
X415117Y272847D01*
X415109Y272918D01*
X415098Y272988D01*
X415083Y273058D01*
X415064Y273127D01*
X415041Y273195D01*
X415015Y273261D01*
X414986Y273326D01*
X414953Y273390D01*
X414917Y273451D01*
X414877Y273511D01*
X414835Y273568D01*
X414789Y273623D01*
X414741Y273676D01*
X414690Y273725D01*
X414636Y273772D01*
X414580Y273816D01*
X414521Y273857D01*
X414461Y273895D01*
X414398Y273930D01*
X414334Y273961D01*
X414268Y273989D01*
X414201Y274013D01*
X414133Y274034D01*
X414063Y274051D01*
X413993Y274064D01*
X413923Y274073D01*
X413851Y274079D01*
X413780Y274081D01*
X414048Y276225D02*
X412440Y276225D01*
X414048Y276225D02*
X414113Y276223D01*
X414177Y276217D01*
X414241Y276207D01*
X414305Y276194D01*
X414367Y276176D01*
X414428Y276155D01*
X414488Y276131D01*
X414546Y276102D01*
X414603Y276070D01*
X414657Y276035D01*
X414709Y275997D01*
X414759Y275955D01*
X414806Y275911D01*
X414850Y275864D01*
X414892Y275814D01*
X414930Y275762D01*
X414965Y275708D01*
X414997Y275651D01*
X415026Y275593D01*
X415050Y275533D01*
X415071Y275472D01*
X415089Y275410D01*
X415102Y275346D01*
X415112Y275282D01*
X415118Y275218D01*
X415120Y275153D01*
X415118Y275088D01*
X415112Y275024D01*
X415102Y274960D01*
X415089Y274896D01*
X415071Y274834D01*
X415050Y274773D01*
X415026Y274713D01*
X414997Y274655D01*
X414965Y274598D01*
X414930Y274544D01*
X414892Y274492D01*
X414850Y274442D01*
X414806Y274395D01*
X414759Y274351D01*
X414709Y274309D01*
X414657Y274271D01*
X414603Y274236D01*
X414546Y274204D01*
X414488Y274175D01*
X414428Y274151D01*
X414367Y274130D01*
X414305Y274112D01*
X414241Y274099D01*
X414177Y274089D01*
X414113Y274083D01*
X414048Y274081D01*
X414048Y274080D02*
X412976Y274080D01*
X409984Y294259D02*
X408912Y294259D01*
X408847Y294261D01*
X408783Y294267D01*
X408719Y294277D01*
X408655Y294290D01*
X408593Y294308D01*
X408532Y294329D01*
X408472Y294353D01*
X408414Y294382D01*
X408357Y294414D01*
X408303Y294449D01*
X408251Y294487D01*
X408201Y294529D01*
X408154Y294573D01*
X408110Y294620D01*
X408068Y294670D01*
X408030Y294722D01*
X407995Y294776D01*
X407963Y294833D01*
X407934Y294891D01*
X407910Y294951D01*
X407889Y295012D01*
X407871Y295074D01*
X407858Y295138D01*
X407848Y295202D01*
X407842Y295266D01*
X407840Y295331D01*
X407839Y295331D02*
X407839Y298013D01*
X407840Y298013D02*
X407842Y298078D01*
X407848Y298142D01*
X407858Y298206D01*
X407871Y298270D01*
X407889Y298332D01*
X407910Y298393D01*
X407934Y298453D01*
X407963Y298511D01*
X407995Y298568D01*
X408030Y298622D01*
X408068Y298674D01*
X408110Y298724D01*
X408154Y298771D01*
X408201Y298815D01*
X408251Y298857D01*
X408303Y298895D01*
X408357Y298930D01*
X408414Y298962D01*
X408472Y298991D01*
X408532Y299015D01*
X408593Y299036D01*
X408655Y299054D01*
X408719Y299067D01*
X408783Y299077D01*
X408847Y299083D01*
X408912Y299085D01*
X409984Y299085D01*
X413914Y299085D02*
X413982Y299083D01*
X414049Y299077D01*
X414116Y299068D01*
X414183Y299055D01*
X414248Y299038D01*
X414313Y299017D01*
X414376Y298993D01*
X414438Y298965D01*
X414498Y298934D01*
X414556Y298900D01*
X414612Y298862D01*
X414667Y298822D01*
X414718Y298778D01*
X414767Y298731D01*
X414814Y298682D01*
X414858Y298631D01*
X414898Y298576D01*
X414936Y298520D01*
X414970Y298462D01*
X415001Y298402D01*
X415029Y298340D01*
X415053Y298277D01*
X415074Y298212D01*
X415091Y298147D01*
X415104Y298080D01*
X415113Y298013D01*
X415119Y297946D01*
X415121Y297878D01*
X413914Y299085D02*
X413836Y299083D01*
X413758Y299077D01*
X413681Y299067D01*
X413604Y299054D01*
X413528Y299036D01*
X413453Y299015D01*
X413379Y298990D01*
X413307Y298961D01*
X413236Y298929D01*
X413167Y298893D01*
X413099Y298854D01*
X413034Y298811D01*
X412971Y298765D01*
X412910Y298716D01*
X412852Y298664D01*
X412797Y298609D01*
X412744Y298552D01*
X412695Y298492D01*
X412648Y298429D01*
X412605Y298365D01*
X412565Y298298D01*
X412528Y298229D01*
X412495Y298158D01*
X412465Y298086D01*
X412439Y298013D01*
X414719Y296940D02*
X414768Y296989D01*
X414815Y297041D01*
X414858Y297096D01*
X414899Y297153D01*
X414937Y297212D01*
X414971Y297273D01*
X415002Y297336D01*
X415030Y297400D01*
X415054Y297466D01*
X415074Y297532D01*
X415091Y297600D01*
X415104Y297669D01*
X415113Y297738D01*
X415119Y297808D01*
X415121Y297878D01*
X414719Y296940D02*
X412440Y294259D01*
X415121Y294259D01*
X164211Y304772D02*
X164211Y305844D01*
X164211Y304772D02*
X164209Y304707D01*
X164203Y304643D01*
X164193Y304579D01*
X164180Y304515D01*
X164162Y304453D01*
X164141Y304392D01*
X164117Y304332D01*
X164088Y304274D01*
X164056Y304217D01*
X164021Y304163D01*
X163983Y304111D01*
X163941Y304061D01*
X163897Y304014D01*
X163850Y303970D01*
X163800Y303928D01*
X163748Y303890D01*
X163694Y303855D01*
X163637Y303823D01*
X163579Y303794D01*
X163519Y303770D01*
X163458Y303749D01*
X163396Y303731D01*
X163332Y303718D01*
X163268Y303708D01*
X163204Y303702D01*
X163139Y303700D01*
X163139Y303699D02*
X160457Y303699D01*
X160392Y303701D01*
X160328Y303707D01*
X160264Y303717D01*
X160200Y303730D01*
X160138Y303748D01*
X160077Y303769D01*
X160017Y303794D01*
X159958Y303822D01*
X159902Y303854D01*
X159847Y303889D01*
X159795Y303927D01*
X159745Y303969D01*
X159698Y304013D01*
X159654Y304060D01*
X159612Y304110D01*
X159574Y304162D01*
X159539Y304217D01*
X159507Y304273D01*
X159479Y304332D01*
X159454Y304391D01*
X159433Y304453D01*
X159415Y304515D01*
X159402Y304579D01*
X159392Y304643D01*
X159386Y304707D01*
X159384Y304772D01*
X159385Y304772D02*
X159385Y305844D01*
X162870Y308299D02*
X162799Y308301D01*
X162727Y308307D01*
X162657Y308316D01*
X162587Y308329D01*
X162517Y308346D01*
X162449Y308367D01*
X162382Y308391D01*
X162316Y308419D01*
X162252Y308450D01*
X162189Y308485D01*
X162129Y308523D01*
X162070Y308564D01*
X162014Y308608D01*
X161960Y308655D01*
X161909Y308704D01*
X161861Y308757D01*
X161815Y308812D01*
X161773Y308869D01*
X161733Y308929D01*
X161697Y308990D01*
X161664Y309054D01*
X161635Y309119D01*
X161609Y309185D01*
X161586Y309253D01*
X161567Y309322D01*
X161552Y309392D01*
X161541Y309462D01*
X161533Y309533D01*
X161529Y309604D01*
X161529Y309676D01*
X161533Y309747D01*
X161541Y309818D01*
X161552Y309888D01*
X161567Y309958D01*
X161586Y310027D01*
X161609Y310095D01*
X161635Y310161D01*
X161664Y310226D01*
X161697Y310290D01*
X161733Y310351D01*
X161773Y310411D01*
X161815Y310468D01*
X161861Y310523D01*
X161909Y310576D01*
X161960Y310625D01*
X162014Y310672D01*
X162070Y310716D01*
X162129Y310757D01*
X162189Y310795D01*
X162252Y310830D01*
X162316Y310861D01*
X162382Y310889D01*
X162449Y310913D01*
X162517Y310934D01*
X162587Y310951D01*
X162657Y310964D01*
X162727Y310973D01*
X162799Y310979D01*
X162870Y310981D01*
X162941Y310979D01*
X163013Y310973D01*
X163083Y310964D01*
X163153Y310951D01*
X163223Y310934D01*
X163291Y310913D01*
X163358Y310889D01*
X163424Y310861D01*
X163488Y310830D01*
X163551Y310795D01*
X163611Y310757D01*
X163670Y310716D01*
X163726Y310672D01*
X163780Y310625D01*
X163831Y310576D01*
X163879Y310523D01*
X163925Y310468D01*
X163967Y310411D01*
X164007Y310351D01*
X164043Y310290D01*
X164076Y310226D01*
X164105Y310161D01*
X164131Y310095D01*
X164154Y310027D01*
X164173Y309958D01*
X164188Y309888D01*
X164199Y309818D01*
X164207Y309747D01*
X164211Y309676D01*
X164211Y309604D01*
X164207Y309533D01*
X164199Y309462D01*
X164188Y309392D01*
X164173Y309322D01*
X164154Y309253D01*
X164131Y309185D01*
X164105Y309119D01*
X164076Y309054D01*
X164043Y308990D01*
X164007Y308929D01*
X163967Y308869D01*
X163925Y308812D01*
X163879Y308757D01*
X163831Y308704D01*
X163780Y308655D01*
X163726Y308608D01*
X163670Y308564D01*
X163611Y308523D01*
X163551Y308485D01*
X163488Y308450D01*
X163424Y308419D01*
X163358Y308391D01*
X163291Y308367D01*
X163223Y308346D01*
X163153Y308329D01*
X163083Y308316D01*
X163013Y308307D01*
X162941Y308301D01*
X162870Y308299D01*
X160457Y308568D02*
X160392Y308570D01*
X160328Y308576D01*
X160264Y308586D01*
X160200Y308599D01*
X160138Y308617D01*
X160077Y308638D01*
X160017Y308662D01*
X159959Y308691D01*
X159902Y308723D01*
X159848Y308758D01*
X159796Y308796D01*
X159746Y308838D01*
X159699Y308882D01*
X159655Y308929D01*
X159613Y308979D01*
X159575Y309031D01*
X159540Y309085D01*
X159508Y309142D01*
X159479Y309200D01*
X159455Y309260D01*
X159434Y309321D01*
X159416Y309383D01*
X159403Y309447D01*
X159393Y309511D01*
X159387Y309575D01*
X159385Y309640D01*
X159387Y309705D01*
X159393Y309769D01*
X159403Y309833D01*
X159416Y309897D01*
X159434Y309959D01*
X159455Y310020D01*
X159479Y310080D01*
X159508Y310138D01*
X159540Y310195D01*
X159575Y310249D01*
X159613Y310301D01*
X159655Y310351D01*
X159699Y310398D01*
X159746Y310442D01*
X159796Y310484D01*
X159848Y310522D01*
X159902Y310557D01*
X159959Y310589D01*
X160017Y310618D01*
X160077Y310642D01*
X160138Y310663D01*
X160200Y310681D01*
X160264Y310694D01*
X160328Y310704D01*
X160392Y310710D01*
X160457Y310712D01*
X160522Y310710D01*
X160586Y310704D01*
X160650Y310694D01*
X160714Y310681D01*
X160776Y310663D01*
X160837Y310642D01*
X160897Y310618D01*
X160955Y310589D01*
X161012Y310557D01*
X161066Y310522D01*
X161118Y310484D01*
X161168Y310442D01*
X161215Y310398D01*
X161259Y310351D01*
X161301Y310301D01*
X161339Y310249D01*
X161374Y310195D01*
X161406Y310138D01*
X161435Y310080D01*
X161459Y310020D01*
X161480Y309959D01*
X161498Y309897D01*
X161511Y309833D01*
X161521Y309769D01*
X161527Y309705D01*
X161529Y309640D01*
X161527Y309575D01*
X161521Y309511D01*
X161511Y309447D01*
X161498Y309383D01*
X161480Y309321D01*
X161459Y309260D01*
X161435Y309200D01*
X161406Y309142D01*
X161374Y309085D01*
X161339Y309031D01*
X161301Y308979D01*
X161259Y308929D01*
X161215Y308882D01*
X161168Y308838D01*
X161118Y308796D01*
X161066Y308758D01*
X161012Y308723D01*
X160955Y308691D01*
X160897Y308662D01*
X160837Y308638D01*
X160776Y308617D01*
X160714Y308599D01*
X160650Y308586D01*
X160586Y308576D01*
X160522Y308570D01*
X160457Y308568D01*
X472821Y17554D02*
X472821Y16482D01*
X472819Y16417D01*
X472813Y16353D01*
X472803Y16289D01*
X472790Y16225D01*
X472772Y16163D01*
X472751Y16102D01*
X472727Y16042D01*
X472698Y15984D01*
X472666Y15927D01*
X472631Y15873D01*
X472593Y15821D01*
X472551Y15771D01*
X472507Y15724D01*
X472460Y15680D01*
X472410Y15638D01*
X472358Y15600D01*
X472304Y15565D01*
X472247Y15533D01*
X472189Y15504D01*
X472129Y15480D01*
X472068Y15459D01*
X472006Y15441D01*
X471942Y15428D01*
X471878Y15418D01*
X471814Y15412D01*
X471749Y15410D01*
X471749Y15409D02*
X469067Y15409D01*
X469002Y15411D01*
X468938Y15417D01*
X468874Y15427D01*
X468810Y15440D01*
X468748Y15458D01*
X468687Y15479D01*
X468627Y15504D01*
X468568Y15532D01*
X468512Y15564D01*
X468457Y15599D01*
X468405Y15637D01*
X468355Y15679D01*
X468308Y15723D01*
X468264Y15770D01*
X468222Y15820D01*
X468184Y15872D01*
X468149Y15927D01*
X468117Y15983D01*
X468089Y16042D01*
X468064Y16101D01*
X468043Y16163D01*
X468025Y16225D01*
X468012Y16289D01*
X468002Y16353D01*
X467996Y16417D01*
X467994Y16482D01*
X467995Y16482D02*
X467995Y17554D01*
X467995Y20010D02*
X468531Y20010D01*
X467995Y20010D02*
X467995Y22691D01*
X472821Y21350D01*
X384584Y233299D02*
X383512Y233299D01*
X383447Y233301D01*
X383383Y233307D01*
X383319Y233317D01*
X383255Y233330D01*
X383193Y233348D01*
X383132Y233369D01*
X383072Y233393D01*
X383014Y233422D01*
X382957Y233454D01*
X382903Y233489D01*
X382851Y233527D01*
X382801Y233569D01*
X382754Y233613D01*
X382710Y233660D01*
X382668Y233710D01*
X382630Y233762D01*
X382595Y233816D01*
X382563Y233873D01*
X382534Y233931D01*
X382510Y233991D01*
X382489Y234052D01*
X382471Y234114D01*
X382458Y234178D01*
X382448Y234242D01*
X382442Y234306D01*
X382440Y234371D01*
X382439Y234371D02*
X382439Y237053D01*
X382440Y237053D02*
X382442Y237118D01*
X382448Y237182D01*
X382458Y237246D01*
X382471Y237310D01*
X382489Y237372D01*
X382510Y237433D01*
X382534Y237493D01*
X382563Y237551D01*
X382595Y237608D01*
X382630Y237662D01*
X382668Y237714D01*
X382710Y237764D01*
X382754Y237811D01*
X382801Y237855D01*
X382851Y237897D01*
X382903Y237935D01*
X382957Y237970D01*
X383014Y238002D01*
X383072Y238031D01*
X383132Y238055D01*
X383193Y238076D01*
X383255Y238094D01*
X383319Y238107D01*
X383383Y238117D01*
X383447Y238123D01*
X383512Y238125D01*
X384584Y238125D01*
X387040Y233299D02*
X388648Y233299D01*
X388713Y233301D01*
X388777Y233307D01*
X388841Y233317D01*
X388905Y233330D01*
X388967Y233348D01*
X389028Y233369D01*
X389088Y233393D01*
X389146Y233422D01*
X389203Y233454D01*
X389257Y233489D01*
X389309Y233527D01*
X389359Y233569D01*
X389406Y233613D01*
X389450Y233660D01*
X389492Y233710D01*
X389530Y233762D01*
X389565Y233816D01*
X389597Y233873D01*
X389626Y233931D01*
X389650Y233991D01*
X389671Y234052D01*
X389689Y234114D01*
X389702Y234178D01*
X389712Y234242D01*
X389718Y234306D01*
X389720Y234371D01*
X389721Y234371D02*
X389721Y234908D01*
X389720Y234908D02*
X389718Y234973D01*
X389712Y235037D01*
X389702Y235101D01*
X389689Y235165D01*
X389671Y235227D01*
X389650Y235288D01*
X389626Y235348D01*
X389597Y235406D01*
X389565Y235463D01*
X389530Y235517D01*
X389492Y235569D01*
X389450Y235619D01*
X389406Y235666D01*
X389359Y235710D01*
X389309Y235752D01*
X389257Y235790D01*
X389203Y235825D01*
X389146Y235857D01*
X389088Y235886D01*
X389028Y235910D01*
X388967Y235931D01*
X388905Y235949D01*
X388841Y235962D01*
X388777Y235972D01*
X388713Y235978D01*
X388648Y235980D01*
X387040Y235980D01*
X387040Y238125D01*
X389721Y238125D01*
X361724Y215265D02*
X360652Y215265D01*
X360587Y215267D01*
X360523Y215273D01*
X360459Y215283D01*
X360395Y215296D01*
X360333Y215314D01*
X360272Y215335D01*
X360212Y215359D01*
X360154Y215388D01*
X360097Y215420D01*
X360043Y215455D01*
X359991Y215493D01*
X359941Y215535D01*
X359894Y215579D01*
X359850Y215626D01*
X359808Y215676D01*
X359770Y215728D01*
X359735Y215782D01*
X359703Y215839D01*
X359674Y215897D01*
X359650Y215957D01*
X359629Y216018D01*
X359611Y216080D01*
X359598Y216144D01*
X359588Y216208D01*
X359582Y216272D01*
X359580Y216337D01*
X359579Y216337D02*
X359579Y219019D01*
X359580Y219019D02*
X359582Y219084D01*
X359588Y219148D01*
X359598Y219212D01*
X359611Y219276D01*
X359629Y219338D01*
X359650Y219399D01*
X359674Y219459D01*
X359703Y219517D01*
X359735Y219574D01*
X359770Y219628D01*
X359808Y219680D01*
X359850Y219730D01*
X359894Y219777D01*
X359941Y219821D01*
X359991Y219863D01*
X360043Y219901D01*
X360097Y219936D01*
X360154Y219968D01*
X360212Y219997D01*
X360272Y220021D01*
X360333Y220042D01*
X360395Y220060D01*
X360459Y220073D01*
X360523Y220083D01*
X360587Y220089D01*
X360652Y220091D01*
X361724Y220091D01*
X365252Y220091D02*
X364180Y216337D01*
X366861Y216337D01*
X366057Y217410D02*
X366057Y215265D01*
X364264Y294259D02*
X363192Y294259D01*
X363127Y294261D01*
X363063Y294267D01*
X362999Y294277D01*
X362935Y294290D01*
X362873Y294308D01*
X362812Y294329D01*
X362752Y294353D01*
X362694Y294382D01*
X362637Y294414D01*
X362583Y294449D01*
X362531Y294487D01*
X362481Y294529D01*
X362434Y294573D01*
X362390Y294620D01*
X362348Y294670D01*
X362310Y294722D01*
X362275Y294776D01*
X362243Y294833D01*
X362214Y294891D01*
X362190Y294951D01*
X362169Y295012D01*
X362151Y295074D01*
X362138Y295138D01*
X362128Y295202D01*
X362122Y295266D01*
X362120Y295331D01*
X362119Y295331D02*
X362119Y298013D01*
X362120Y298013D02*
X362122Y298078D01*
X362128Y298142D01*
X362138Y298206D01*
X362151Y298270D01*
X362169Y298332D01*
X362190Y298393D01*
X362214Y298453D01*
X362243Y298511D01*
X362275Y298568D01*
X362310Y298622D01*
X362348Y298674D01*
X362390Y298724D01*
X362434Y298771D01*
X362481Y298815D01*
X362531Y298857D01*
X362583Y298895D01*
X362637Y298930D01*
X362694Y298962D01*
X362752Y298991D01*
X362812Y299015D01*
X362873Y299036D01*
X362935Y299054D01*
X362999Y299067D01*
X363063Y299077D01*
X363127Y299083D01*
X363192Y299085D01*
X364264Y299085D01*
X366720Y296940D02*
X368328Y296940D01*
X368393Y296938D01*
X368457Y296932D01*
X368521Y296922D01*
X368585Y296909D01*
X368647Y296891D01*
X368708Y296870D01*
X368768Y296846D01*
X368826Y296817D01*
X368883Y296785D01*
X368937Y296750D01*
X368989Y296712D01*
X369039Y296670D01*
X369086Y296626D01*
X369130Y296579D01*
X369172Y296529D01*
X369210Y296477D01*
X369245Y296423D01*
X369277Y296366D01*
X369306Y296308D01*
X369330Y296248D01*
X369351Y296187D01*
X369369Y296125D01*
X369382Y296061D01*
X369392Y295997D01*
X369398Y295933D01*
X369400Y295868D01*
X369401Y295868D02*
X369401Y295600D01*
X369399Y295529D01*
X369393Y295457D01*
X369384Y295387D01*
X369371Y295317D01*
X369354Y295247D01*
X369333Y295179D01*
X369309Y295112D01*
X369281Y295046D01*
X369250Y294982D01*
X369215Y294919D01*
X369177Y294859D01*
X369136Y294800D01*
X369092Y294744D01*
X369045Y294690D01*
X368996Y294639D01*
X368943Y294591D01*
X368888Y294545D01*
X368831Y294503D01*
X368771Y294463D01*
X368710Y294427D01*
X368646Y294394D01*
X368581Y294365D01*
X368515Y294339D01*
X368447Y294316D01*
X368378Y294297D01*
X368308Y294282D01*
X368238Y294271D01*
X368167Y294263D01*
X368096Y294259D01*
X368024Y294259D01*
X367953Y294263D01*
X367882Y294271D01*
X367812Y294282D01*
X367742Y294297D01*
X367673Y294316D01*
X367605Y294339D01*
X367539Y294365D01*
X367474Y294394D01*
X367410Y294427D01*
X367349Y294463D01*
X367289Y294503D01*
X367232Y294545D01*
X367177Y294591D01*
X367124Y294639D01*
X367075Y294690D01*
X367028Y294744D01*
X366984Y294800D01*
X366943Y294859D01*
X366905Y294919D01*
X366870Y294982D01*
X366839Y295046D01*
X366811Y295112D01*
X366787Y295179D01*
X366766Y295247D01*
X366749Y295317D01*
X366736Y295387D01*
X366727Y295457D01*
X366721Y295529D01*
X366719Y295600D01*
X366720Y295600D02*
X366720Y296940D01*
X366722Y297031D01*
X366728Y297122D01*
X366737Y297212D01*
X366751Y297303D01*
X366768Y297392D01*
X366789Y297480D01*
X366814Y297568D01*
X366843Y297655D01*
X366875Y297740D01*
X366910Y297824D01*
X366950Y297906D01*
X366992Y297986D01*
X367038Y298065D01*
X367088Y298141D01*
X367140Y298215D01*
X367196Y298288D01*
X367255Y298357D01*
X367316Y298424D01*
X367381Y298489D01*
X367448Y298550D01*
X367517Y298609D01*
X367589Y298665D01*
X367664Y298717D01*
X367740Y298767D01*
X367819Y298813D01*
X367899Y298855D01*
X367981Y298895D01*
X368065Y298930D01*
X368150Y298962D01*
X368237Y298991D01*
X368324Y299016D01*
X368413Y299037D01*
X368502Y299054D01*
X368593Y299068D01*
X368683Y299077D01*
X368774Y299083D01*
X368865Y299085D01*
X431558Y210185D02*
X431558Y205359D01*
X431558Y210185D02*
X432899Y210185D01*
X432970Y210183D01*
X433042Y210177D01*
X433112Y210168D01*
X433182Y210155D01*
X433252Y210138D01*
X433320Y210117D01*
X433387Y210093D01*
X433453Y210065D01*
X433517Y210034D01*
X433580Y209999D01*
X433640Y209961D01*
X433699Y209920D01*
X433755Y209876D01*
X433809Y209829D01*
X433860Y209780D01*
X433908Y209727D01*
X433954Y209672D01*
X433996Y209615D01*
X434036Y209555D01*
X434072Y209494D01*
X434105Y209430D01*
X434134Y209365D01*
X434160Y209299D01*
X434183Y209231D01*
X434202Y209162D01*
X434217Y209092D01*
X434228Y209022D01*
X434236Y208951D01*
X434240Y208880D01*
X434240Y208808D01*
X434236Y208737D01*
X434228Y208666D01*
X434217Y208596D01*
X434202Y208526D01*
X434183Y208457D01*
X434160Y208389D01*
X434134Y208323D01*
X434105Y208258D01*
X434072Y208194D01*
X434036Y208133D01*
X433996Y208073D01*
X433954Y208016D01*
X433908Y207961D01*
X433860Y207908D01*
X433809Y207859D01*
X433755Y207812D01*
X433699Y207768D01*
X433640Y207727D01*
X433580Y207689D01*
X433517Y207654D01*
X433453Y207623D01*
X433387Y207595D01*
X433320Y207571D01*
X433252Y207550D01*
X433182Y207533D01*
X433112Y207520D01*
X433042Y207511D01*
X432970Y207505D01*
X432899Y207503D01*
X432899Y207504D02*
X431558Y207504D01*
X433167Y207504D02*
X434239Y205359D01*
X436981Y209113D02*
X438321Y210185D01*
X438321Y205359D01*
X436981Y205359D02*
X439662Y205359D01*
X431558Y245745D02*
X431558Y250571D01*
X432899Y250571D01*
X432970Y250569D01*
X433042Y250563D01*
X433112Y250554D01*
X433182Y250541D01*
X433252Y250524D01*
X433320Y250503D01*
X433387Y250479D01*
X433453Y250451D01*
X433517Y250420D01*
X433580Y250385D01*
X433640Y250347D01*
X433699Y250306D01*
X433755Y250262D01*
X433809Y250215D01*
X433860Y250166D01*
X433908Y250113D01*
X433954Y250058D01*
X433996Y250001D01*
X434036Y249941D01*
X434072Y249880D01*
X434105Y249816D01*
X434134Y249751D01*
X434160Y249685D01*
X434183Y249617D01*
X434202Y249548D01*
X434217Y249478D01*
X434228Y249408D01*
X434236Y249337D01*
X434240Y249266D01*
X434240Y249194D01*
X434236Y249123D01*
X434228Y249052D01*
X434217Y248982D01*
X434202Y248912D01*
X434183Y248843D01*
X434160Y248775D01*
X434134Y248709D01*
X434105Y248644D01*
X434072Y248580D01*
X434036Y248519D01*
X433996Y248459D01*
X433954Y248402D01*
X433908Y248347D01*
X433860Y248294D01*
X433809Y248245D01*
X433755Y248198D01*
X433699Y248154D01*
X433640Y248113D01*
X433580Y248075D01*
X433517Y248040D01*
X433453Y248009D01*
X433387Y247981D01*
X433320Y247957D01*
X433252Y247936D01*
X433182Y247919D01*
X433112Y247906D01*
X433042Y247897D01*
X432970Y247891D01*
X432899Y247889D01*
X432899Y247890D02*
X431558Y247890D01*
X433167Y247890D02*
X434239Y245745D01*
X438455Y250571D02*
X438523Y250569D01*
X438590Y250563D01*
X438657Y250554D01*
X438724Y250541D01*
X438789Y250524D01*
X438854Y250503D01*
X438917Y250479D01*
X438979Y250451D01*
X439039Y250420D01*
X439097Y250386D01*
X439153Y250348D01*
X439208Y250308D01*
X439259Y250264D01*
X439308Y250217D01*
X439355Y250168D01*
X439399Y250117D01*
X439439Y250062D01*
X439477Y250006D01*
X439511Y249948D01*
X439542Y249888D01*
X439570Y249826D01*
X439594Y249763D01*
X439615Y249698D01*
X439632Y249633D01*
X439645Y249566D01*
X439654Y249499D01*
X439660Y249432D01*
X439662Y249364D01*
X438455Y250571D02*
X438377Y250569D01*
X438299Y250563D01*
X438222Y250553D01*
X438145Y250540D01*
X438069Y250522D01*
X437994Y250501D01*
X437920Y250476D01*
X437848Y250447D01*
X437777Y250415D01*
X437708Y250379D01*
X437640Y250340D01*
X437575Y250297D01*
X437512Y250251D01*
X437451Y250202D01*
X437393Y250150D01*
X437338Y250095D01*
X437285Y250038D01*
X437236Y249978D01*
X437189Y249915D01*
X437146Y249851D01*
X437106Y249784D01*
X437069Y249715D01*
X437036Y249644D01*
X437006Y249572D01*
X436980Y249499D01*
X439260Y248426D02*
X439309Y248475D01*
X439356Y248527D01*
X439399Y248582D01*
X439440Y248639D01*
X439478Y248698D01*
X439512Y248759D01*
X439543Y248822D01*
X439571Y248886D01*
X439595Y248952D01*
X439615Y249018D01*
X439632Y249086D01*
X439645Y249155D01*
X439654Y249224D01*
X439660Y249294D01*
X439662Y249364D01*
X439260Y248426D02*
X436981Y245745D01*
X439662Y245745D01*
X211848Y269385D02*
X211848Y274211D01*
X213189Y274211D01*
X213189Y274212D02*
X213260Y274210D01*
X213332Y274204D01*
X213402Y274195D01*
X213472Y274182D01*
X213542Y274165D01*
X213610Y274144D01*
X213677Y274120D01*
X213743Y274092D01*
X213807Y274061D01*
X213870Y274026D01*
X213930Y273988D01*
X213989Y273947D01*
X214045Y273903D01*
X214099Y273856D01*
X214150Y273807D01*
X214198Y273754D01*
X214244Y273699D01*
X214286Y273642D01*
X214326Y273582D01*
X214362Y273521D01*
X214395Y273457D01*
X214424Y273392D01*
X214450Y273326D01*
X214473Y273258D01*
X214492Y273189D01*
X214507Y273119D01*
X214518Y273049D01*
X214526Y272978D01*
X214530Y272907D01*
X214530Y272835D01*
X214526Y272764D01*
X214518Y272693D01*
X214507Y272623D01*
X214492Y272553D01*
X214473Y272484D01*
X214450Y272416D01*
X214424Y272350D01*
X214395Y272285D01*
X214362Y272221D01*
X214326Y272160D01*
X214286Y272100D01*
X214244Y272043D01*
X214198Y271988D01*
X214150Y271935D01*
X214099Y271886D01*
X214045Y271839D01*
X213989Y271795D01*
X213930Y271754D01*
X213870Y271716D01*
X213807Y271681D01*
X213743Y271650D01*
X213677Y271622D01*
X213610Y271598D01*
X213542Y271577D01*
X213472Y271560D01*
X213402Y271547D01*
X213332Y271538D01*
X213260Y271532D01*
X213189Y271530D01*
X211848Y271530D01*
X213457Y271530D02*
X214529Y269385D01*
X217271Y269385D02*
X218611Y269385D01*
X218682Y269387D01*
X218754Y269393D01*
X218824Y269402D01*
X218894Y269415D01*
X218964Y269432D01*
X219032Y269453D01*
X219099Y269477D01*
X219165Y269505D01*
X219229Y269536D01*
X219292Y269571D01*
X219352Y269609D01*
X219411Y269650D01*
X219467Y269694D01*
X219521Y269741D01*
X219572Y269790D01*
X219620Y269843D01*
X219666Y269898D01*
X219708Y269955D01*
X219748Y270015D01*
X219784Y270076D01*
X219817Y270140D01*
X219846Y270205D01*
X219872Y270271D01*
X219895Y270339D01*
X219914Y270408D01*
X219929Y270478D01*
X219940Y270548D01*
X219948Y270619D01*
X219952Y270690D01*
X219952Y270762D01*
X219948Y270833D01*
X219940Y270904D01*
X219929Y270974D01*
X219914Y271044D01*
X219895Y271113D01*
X219872Y271181D01*
X219846Y271247D01*
X219817Y271312D01*
X219784Y271376D01*
X219748Y271437D01*
X219708Y271497D01*
X219666Y271554D01*
X219620Y271609D01*
X219572Y271662D01*
X219521Y271711D01*
X219467Y271758D01*
X219411Y271802D01*
X219352Y271843D01*
X219292Y271881D01*
X219229Y271916D01*
X219165Y271947D01*
X219099Y271975D01*
X219032Y271999D01*
X218964Y272020D01*
X218894Y272037D01*
X218824Y272050D01*
X218754Y272059D01*
X218682Y272065D01*
X218611Y272067D01*
X218879Y274211D02*
X217271Y274211D01*
X218879Y274211D02*
X218944Y274209D01*
X219008Y274203D01*
X219072Y274193D01*
X219136Y274180D01*
X219198Y274162D01*
X219259Y274141D01*
X219319Y274117D01*
X219377Y274088D01*
X219434Y274056D01*
X219488Y274021D01*
X219540Y273983D01*
X219590Y273941D01*
X219637Y273897D01*
X219681Y273850D01*
X219723Y273800D01*
X219761Y273748D01*
X219796Y273694D01*
X219828Y273637D01*
X219857Y273579D01*
X219881Y273519D01*
X219902Y273458D01*
X219920Y273396D01*
X219933Y273332D01*
X219943Y273268D01*
X219949Y273204D01*
X219951Y273139D01*
X219949Y273074D01*
X219943Y273010D01*
X219933Y272946D01*
X219920Y272882D01*
X219902Y272820D01*
X219881Y272759D01*
X219857Y272699D01*
X219828Y272641D01*
X219796Y272584D01*
X219761Y272530D01*
X219723Y272478D01*
X219681Y272428D01*
X219637Y272381D01*
X219590Y272337D01*
X219540Y272295D01*
X219488Y272257D01*
X219434Y272222D01*
X219377Y272190D01*
X219319Y272161D01*
X219259Y272137D01*
X219198Y272116D01*
X219136Y272098D01*
X219072Y272085D01*
X219008Y272075D01*
X218944Y272069D01*
X218879Y272067D01*
X218879Y272066D02*
X217807Y272066D01*
X44208Y296799D02*
X44208Y301625D01*
X45549Y301625D01*
X45620Y301623D01*
X45692Y301617D01*
X45762Y301608D01*
X45832Y301595D01*
X45902Y301578D01*
X45970Y301557D01*
X46037Y301533D01*
X46103Y301505D01*
X46167Y301474D01*
X46230Y301439D01*
X46290Y301401D01*
X46349Y301360D01*
X46405Y301316D01*
X46459Y301269D01*
X46510Y301220D01*
X46558Y301167D01*
X46604Y301112D01*
X46646Y301055D01*
X46686Y300995D01*
X46722Y300934D01*
X46755Y300870D01*
X46784Y300805D01*
X46810Y300739D01*
X46833Y300671D01*
X46852Y300602D01*
X46867Y300532D01*
X46878Y300462D01*
X46886Y300391D01*
X46890Y300320D01*
X46890Y300248D01*
X46886Y300177D01*
X46878Y300106D01*
X46867Y300036D01*
X46852Y299966D01*
X46833Y299897D01*
X46810Y299829D01*
X46784Y299763D01*
X46755Y299698D01*
X46722Y299634D01*
X46686Y299573D01*
X46646Y299513D01*
X46604Y299456D01*
X46558Y299401D01*
X46510Y299348D01*
X46459Y299299D01*
X46405Y299252D01*
X46349Y299208D01*
X46290Y299167D01*
X46230Y299129D01*
X46167Y299094D01*
X46103Y299063D01*
X46037Y299035D01*
X45970Y299011D01*
X45902Y298990D01*
X45832Y298973D01*
X45762Y298960D01*
X45692Y298951D01*
X45620Y298945D01*
X45549Y298943D01*
X45549Y298944D02*
X44208Y298944D01*
X45817Y298944D02*
X46889Y296799D01*
X49631Y297871D02*
X50703Y301625D01*
X49631Y297871D02*
X52312Y297871D01*
X51508Y298944D02*
X51508Y296799D01*
X44208Y285115D02*
X44208Y280289D01*
X44208Y285115D02*
X45549Y285115D01*
X45620Y285113D01*
X45692Y285107D01*
X45762Y285098D01*
X45832Y285085D01*
X45902Y285068D01*
X45970Y285047D01*
X46037Y285023D01*
X46103Y284995D01*
X46167Y284964D01*
X46230Y284929D01*
X46290Y284891D01*
X46349Y284850D01*
X46405Y284806D01*
X46459Y284759D01*
X46510Y284710D01*
X46558Y284657D01*
X46604Y284602D01*
X46646Y284545D01*
X46686Y284485D01*
X46722Y284424D01*
X46755Y284360D01*
X46784Y284295D01*
X46810Y284229D01*
X46833Y284161D01*
X46852Y284092D01*
X46867Y284022D01*
X46878Y283952D01*
X46886Y283881D01*
X46890Y283810D01*
X46890Y283738D01*
X46886Y283667D01*
X46878Y283596D01*
X46867Y283526D01*
X46852Y283456D01*
X46833Y283387D01*
X46810Y283319D01*
X46784Y283253D01*
X46755Y283188D01*
X46722Y283124D01*
X46686Y283063D01*
X46646Y283003D01*
X46604Y282946D01*
X46558Y282891D01*
X46510Y282838D01*
X46459Y282789D01*
X46405Y282742D01*
X46349Y282698D01*
X46290Y282657D01*
X46230Y282619D01*
X46167Y282584D01*
X46103Y282553D01*
X46037Y282525D01*
X45970Y282501D01*
X45902Y282480D01*
X45832Y282463D01*
X45762Y282450D01*
X45692Y282441D01*
X45620Y282435D01*
X45549Y282433D01*
X45549Y282434D02*
X44208Y282434D01*
X45817Y282434D02*
X46889Y280289D01*
X49631Y280289D02*
X51239Y280289D01*
X51304Y280291D01*
X51368Y280297D01*
X51432Y280307D01*
X51496Y280320D01*
X51558Y280338D01*
X51619Y280359D01*
X51679Y280383D01*
X51737Y280412D01*
X51794Y280444D01*
X51848Y280479D01*
X51900Y280517D01*
X51950Y280559D01*
X51997Y280603D01*
X52041Y280650D01*
X52083Y280700D01*
X52121Y280752D01*
X52156Y280806D01*
X52188Y280863D01*
X52217Y280921D01*
X52241Y280981D01*
X52262Y281042D01*
X52280Y281104D01*
X52293Y281168D01*
X52303Y281232D01*
X52309Y281296D01*
X52311Y281361D01*
X52312Y281361D02*
X52312Y281898D01*
X52311Y281898D02*
X52309Y281963D01*
X52303Y282027D01*
X52293Y282091D01*
X52280Y282155D01*
X52262Y282217D01*
X52241Y282278D01*
X52217Y282338D01*
X52188Y282396D01*
X52156Y282453D01*
X52121Y282507D01*
X52083Y282559D01*
X52041Y282609D01*
X51997Y282656D01*
X51950Y282700D01*
X51900Y282742D01*
X51848Y282780D01*
X51794Y282815D01*
X51737Y282847D01*
X51679Y282876D01*
X51619Y282900D01*
X51558Y282921D01*
X51496Y282939D01*
X51432Y282952D01*
X51368Y282962D01*
X51304Y282968D01*
X51239Y282970D01*
X49631Y282970D01*
X49631Y285115D01*
X52312Y285115D01*
D14*
X422910Y161290D02*
X422910Y148590D01*
X422910Y161290D02*
X429260Y167640D01*
X441960Y167640D02*
X448310Y161290D01*
X429260Y167640D02*
X422910Y173990D01*
X422910Y186690D01*
X429260Y193040D01*
X441960Y193040D02*
X448310Y186690D01*
X448310Y173990D01*
X441960Y167640D01*
X441960Y142240D02*
X429260Y142240D01*
X422910Y148590D01*
X441960Y142240D02*
X448310Y148590D01*
X448310Y161290D01*
X441960Y193040D02*
X429260Y193040D01*
X409200Y150700D02*
X409200Y40300D01*
X409195Y39923D01*
X409182Y39545D01*
X409159Y39169D01*
X409127Y38792D01*
X409085Y38417D01*
X409035Y38043D01*
X408975Y37670D01*
X408907Y37299D01*
X408829Y36930D01*
X408743Y36562D01*
X408647Y36197D01*
X408543Y35834D01*
X408430Y35474D01*
X408308Y35117D01*
X408177Y34763D01*
X408038Y34412D01*
X407890Y34065D01*
X407734Y33721D01*
X407570Y33381D01*
X407397Y33045D01*
X407217Y32714D01*
X407028Y32387D01*
X406831Y32065D01*
X406627Y31748D01*
X406415Y31435D01*
X406195Y31128D01*
X405968Y30827D01*
X405734Y30531D01*
X405492Y30241D01*
X405244Y29957D01*
X404989Y29679D01*
X404727Y29407D01*
X404458Y29141D01*
X404183Y28883D01*
X403902Y28631D01*
X403615Y28386D01*
X403322Y28148D01*
X403023Y27917D01*
X402719Y27694D01*
X402409Y27478D01*
X402094Y27270D01*
X401775Y27069D01*
X401450Y26877D01*
X401121Y26692D01*
X400787Y26515D01*
X400449Y26347D01*
X400108Y26186D01*
X399762Y26035D01*
X399413Y25891D01*
X399060Y25756D01*
X398705Y25630D01*
X398346Y25513D01*
X397984Y25404D01*
X397620Y25304D01*
X397254Y25213D01*
X396886Y25131D01*
X396515Y25058D01*
X396143Y24994D01*
X395770Y24939D01*
X395395Y24893D01*
X395020Y24856D01*
X394643Y24829D01*
X394266Y24810D01*
X393889Y24801D01*
X393511Y24801D01*
X393134Y24810D01*
X392757Y24829D01*
X392380Y24856D01*
X392005Y24893D01*
X391630Y24939D01*
X391257Y24994D01*
X390885Y25058D01*
X390514Y25131D01*
X390146Y25213D01*
X389780Y25304D01*
X389416Y25404D01*
X389054Y25513D01*
X388695Y25630D01*
X388340Y25756D01*
X387987Y25891D01*
X387638Y26035D01*
X387292Y26186D01*
X386951Y26347D01*
X386613Y26515D01*
X386279Y26692D01*
X385950Y26877D01*
X385625Y27069D01*
X385306Y27270D01*
X384991Y27478D01*
X384681Y27694D01*
X384377Y27917D01*
X384078Y28148D01*
X383785Y28386D01*
X383498Y28631D01*
X383217Y28883D01*
X382942Y29141D01*
X382673Y29407D01*
X382411Y29679D01*
X382156Y29957D01*
X381908Y30241D01*
X381666Y30531D01*
X381432Y30827D01*
X381205Y31128D01*
X380985Y31435D01*
X380773Y31748D01*
X380569Y32065D01*
X380372Y32387D01*
X380183Y32714D01*
X380003Y33045D01*
X379830Y33381D01*
X379666Y33721D01*
X379510Y34065D01*
X379362Y34412D01*
X379223Y34763D01*
X379092Y35117D01*
X378970Y35474D01*
X378857Y35834D01*
X378753Y36197D01*
X378657Y36562D01*
X378571Y36930D01*
X378493Y37299D01*
X378425Y37670D01*
X378365Y38043D01*
X378315Y38417D01*
X378273Y38792D01*
X378241Y39169D01*
X378218Y39545D01*
X378205Y39923D01*
X378200Y40300D01*
X378200Y150700D01*
X378205Y151077D01*
X378218Y151455D01*
X378241Y151831D01*
X378273Y152208D01*
X378315Y152583D01*
X378365Y152957D01*
X378425Y153330D01*
X378493Y153701D01*
X378571Y154070D01*
X378657Y154438D01*
X378753Y154803D01*
X378857Y155166D01*
X378970Y155526D01*
X379092Y155883D01*
X379223Y156237D01*
X379362Y156588D01*
X379510Y156935D01*
X379666Y157279D01*
X379830Y157619D01*
X380003Y157955D01*
X380183Y158286D01*
X380372Y158613D01*
X380569Y158935D01*
X380773Y159252D01*
X380985Y159565D01*
X381205Y159872D01*
X381432Y160173D01*
X381666Y160469D01*
X381908Y160759D01*
X382156Y161043D01*
X382411Y161321D01*
X382673Y161593D01*
X382942Y161859D01*
X383217Y162117D01*
X383498Y162369D01*
X383785Y162614D01*
X384078Y162852D01*
X384377Y163083D01*
X384681Y163306D01*
X384991Y163522D01*
X385306Y163730D01*
X385625Y163931D01*
X385950Y164123D01*
X386279Y164308D01*
X386613Y164485D01*
X386951Y164653D01*
X387292Y164814D01*
X387638Y164965D01*
X387987Y165109D01*
X388340Y165244D01*
X388695Y165370D01*
X389054Y165487D01*
X389416Y165596D01*
X389780Y165696D01*
X390146Y165787D01*
X390514Y165869D01*
X390885Y165942D01*
X391257Y166006D01*
X391630Y166061D01*
X392005Y166107D01*
X392380Y166144D01*
X392757Y166171D01*
X393134Y166190D01*
X393511Y166199D01*
X393889Y166199D01*
X394266Y166190D01*
X394643Y166171D01*
X395020Y166144D01*
X395395Y166107D01*
X395770Y166061D01*
X396143Y166006D01*
X396515Y165942D01*
X396886Y165869D01*
X397254Y165787D01*
X397620Y165696D01*
X397984Y165596D01*
X398346Y165487D01*
X398705Y165370D01*
X399060Y165244D01*
X399413Y165109D01*
X399762Y164965D01*
X400108Y164814D01*
X400449Y164653D01*
X400787Y164485D01*
X401121Y164308D01*
X401450Y164123D01*
X401775Y163931D01*
X402094Y163730D01*
X402409Y163522D01*
X402719Y163306D01*
X403023Y163083D01*
X403322Y162852D01*
X403615Y162614D01*
X403902Y162369D01*
X404183Y162117D01*
X404458Y161859D01*
X404727Y161593D01*
X404989Y161321D01*
X405244Y161043D01*
X405492Y160759D01*
X405734Y160469D01*
X405968Y160173D01*
X406195Y159872D01*
X406415Y159565D01*
X406627Y159252D01*
X406831Y158935D01*
X407028Y158613D01*
X407217Y158286D01*
X407397Y157955D01*
X407570Y157619D01*
X407734Y157279D01*
X407890Y156935D01*
X408038Y156588D01*
X408177Y156237D01*
X408308Y155883D01*
X408430Y155526D01*
X408543Y155166D01*
X408647Y154803D01*
X408743Y154438D01*
X408829Y154070D01*
X408907Y153701D01*
X408975Y153330D01*
X409035Y152957D01*
X409085Y152583D01*
X409127Y152208D01*
X409159Y151831D01*
X409182Y151455D01*
X409195Y151077D01*
X409200Y150700D01*
X434866Y278480D02*
X434866Y290480D01*
X448866Y310480D02*
X454866Y310480D01*
X468866Y290480D02*
X468866Y278480D01*
X454866Y258480D02*
X448866Y258480D01*
D16*
X440055Y280262D02*
X442334Y281871D01*
X440055Y283480D01*
X442334Y281871D02*
X444881Y281871D01*
X440055Y287491D02*
X440057Y287559D01*
X440063Y287626D01*
X440072Y287693D01*
X440085Y287760D01*
X440102Y287825D01*
X440123Y287890D01*
X440147Y287953D01*
X440175Y288015D01*
X440206Y288075D01*
X440240Y288133D01*
X440278Y288189D01*
X440318Y288244D01*
X440362Y288295D01*
X440409Y288344D01*
X440458Y288391D01*
X440509Y288435D01*
X440564Y288475D01*
X440620Y288513D01*
X440678Y288547D01*
X440738Y288578D01*
X440800Y288606D01*
X440863Y288630D01*
X440928Y288651D01*
X440993Y288668D01*
X441060Y288681D01*
X441127Y288690D01*
X441194Y288696D01*
X441262Y288698D01*
X440055Y287491D02*
X440057Y287413D01*
X440063Y287335D01*
X440073Y287258D01*
X440086Y287181D01*
X440104Y287105D01*
X440125Y287030D01*
X440150Y286956D01*
X440179Y286884D01*
X440211Y286813D01*
X440247Y286744D01*
X440286Y286676D01*
X440329Y286611D01*
X440375Y286548D01*
X440424Y286487D01*
X440476Y286429D01*
X440531Y286374D01*
X440588Y286321D01*
X440648Y286272D01*
X440711Y286225D01*
X440776Y286182D01*
X440842Y286142D01*
X440911Y286105D01*
X440982Y286072D01*
X441054Y286042D01*
X441128Y286016D01*
X442200Y288296D02*
X442151Y288345D01*
X442099Y288392D01*
X442044Y288435D01*
X441987Y288476D01*
X441928Y288514D01*
X441867Y288548D01*
X441804Y288579D01*
X441740Y288607D01*
X441674Y288631D01*
X441608Y288651D01*
X441540Y288668D01*
X441471Y288681D01*
X441402Y288690D01*
X441332Y288696D01*
X441262Y288698D01*
X442200Y288296D02*
X444881Y286017D01*
X444881Y288698D01*
D14*
X477840Y254480D02*
X517840Y254480D01*
D16*
X482445Y281912D02*
X482445Y282984D01*
X482445Y281912D02*
X482443Y281847D01*
X482437Y281783D01*
X482427Y281719D01*
X482414Y281655D01*
X482396Y281593D01*
X482375Y281532D01*
X482351Y281472D01*
X482322Y281414D01*
X482290Y281357D01*
X482255Y281303D01*
X482217Y281251D01*
X482175Y281201D01*
X482131Y281154D01*
X482084Y281110D01*
X482034Y281068D01*
X481982Y281030D01*
X481928Y280995D01*
X481871Y280963D01*
X481813Y280934D01*
X481753Y280910D01*
X481692Y280889D01*
X481630Y280871D01*
X481566Y280858D01*
X481502Y280848D01*
X481438Y280842D01*
X481373Y280840D01*
X481373Y280839D02*
X478691Y280839D01*
X478626Y280841D01*
X478562Y280847D01*
X478498Y280857D01*
X478434Y280870D01*
X478372Y280888D01*
X478311Y280909D01*
X478251Y280934D01*
X478192Y280962D01*
X478136Y280994D01*
X478081Y281029D01*
X478029Y281067D01*
X477979Y281109D01*
X477932Y281153D01*
X477888Y281200D01*
X477846Y281250D01*
X477808Y281302D01*
X477773Y281357D01*
X477741Y281413D01*
X477713Y281472D01*
X477688Y281531D01*
X477667Y281593D01*
X477649Y281655D01*
X477636Y281719D01*
X477626Y281783D01*
X477620Y281847D01*
X477618Y281912D01*
X477619Y281912D02*
X477619Y282984D01*
X478691Y285440D02*
X477619Y286780D01*
X482445Y286780D01*
X482445Y285440D02*
X482445Y288121D01*
D12*
X508000Y231394D02*
X508000Y220726D01*
X477520Y229108D02*
X477520Y231394D01*
X477520Y229108D02*
X477520Y223012D01*
X477520Y220726D01*
X477520Y223012D02*
X477629Y223014D01*
X477737Y223020D01*
X477846Y223029D01*
X477954Y223043D01*
X478061Y223060D01*
X478168Y223082D01*
X478274Y223107D01*
X478379Y223135D01*
X478483Y223168D01*
X478585Y223204D01*
X478686Y223244D01*
X478786Y223287D01*
X478884Y223334D01*
X478981Y223385D01*
X479075Y223439D01*
X479168Y223496D01*
X479258Y223556D01*
X479347Y223620D01*
X479433Y223687D01*
X479516Y223756D01*
X479597Y223829D01*
X479675Y223905D01*
X479751Y223983D01*
X479824Y224064D01*
X479893Y224147D01*
X479960Y224233D01*
X480024Y224322D01*
X480084Y224412D01*
X480141Y224505D01*
X480195Y224599D01*
X480246Y224696D01*
X480293Y224794D01*
X480336Y224894D01*
X480376Y224995D01*
X480412Y225097D01*
X480445Y225201D01*
X480473Y225306D01*
X480498Y225412D01*
X480520Y225519D01*
X480537Y225626D01*
X480551Y225734D01*
X480560Y225843D01*
X480566Y225951D01*
X480568Y226060D01*
X480566Y226169D01*
X480560Y226277D01*
X480551Y226386D01*
X480537Y226494D01*
X480520Y226601D01*
X480498Y226708D01*
X480473Y226814D01*
X480445Y226919D01*
X480412Y227023D01*
X480376Y227125D01*
X480336Y227226D01*
X480293Y227326D01*
X480246Y227424D01*
X480195Y227521D01*
X480141Y227615D01*
X480084Y227708D01*
X480024Y227798D01*
X479960Y227887D01*
X479893Y227973D01*
X479824Y228056D01*
X479751Y228137D01*
X479675Y228215D01*
X479597Y228291D01*
X479516Y228364D01*
X479433Y228433D01*
X479347Y228500D01*
X479258Y228564D01*
X479168Y228624D01*
X479075Y228681D01*
X478981Y228735D01*
X478884Y228786D01*
X478786Y228833D01*
X478686Y228876D01*
X478585Y228916D01*
X478483Y228952D01*
X478379Y228985D01*
X478274Y229013D01*
X478168Y229038D01*
X478061Y229060D01*
X477954Y229077D01*
X477846Y229091D01*
X477737Y229100D01*
X477629Y229106D01*
X477520Y229108D01*
D13*
X474020Y208753D02*
X470041Y208753D01*
X474020Y208753D02*
X477005Y211074D01*
X474020Y208753D02*
X477005Y206431D01*
X474020Y208753D02*
X472694Y212400D01*
X474020Y208753D02*
X472694Y205105D01*
D16*
X78119Y165537D02*
X78117Y165472D01*
X78111Y165408D01*
X78101Y165344D01*
X78088Y165280D01*
X78070Y165218D01*
X78049Y165157D01*
X78025Y165097D01*
X77996Y165039D01*
X77964Y164982D01*
X77929Y164928D01*
X77891Y164876D01*
X77849Y164826D01*
X77805Y164779D01*
X77758Y164735D01*
X77708Y164693D01*
X77656Y164655D01*
X77602Y164620D01*
X77545Y164588D01*
X77487Y164559D01*
X77427Y164535D01*
X77366Y164514D01*
X77304Y164496D01*
X77240Y164483D01*
X77176Y164473D01*
X77112Y164467D01*
X77047Y164465D01*
X76953Y164467D01*
X76859Y164473D01*
X76765Y164483D01*
X76672Y164496D01*
X76580Y164514D01*
X76488Y164535D01*
X76397Y164560D01*
X76307Y164589D01*
X76219Y164622D01*
X76132Y164658D01*
X76047Y164698D01*
X75963Y164741D01*
X75882Y164788D01*
X75802Y164838D01*
X75724Y164891D01*
X75649Y164948D01*
X75576Y165007D01*
X75506Y165070D01*
X75438Y165135D01*
X75573Y168219D02*
X75575Y168284D01*
X75581Y168348D01*
X75591Y168412D01*
X75604Y168476D01*
X75622Y168538D01*
X75643Y168599D01*
X75667Y168659D01*
X75696Y168717D01*
X75728Y168774D01*
X75763Y168828D01*
X75801Y168880D01*
X75843Y168930D01*
X75887Y168977D01*
X75934Y169021D01*
X75984Y169063D01*
X76036Y169101D01*
X76090Y169136D01*
X76147Y169168D01*
X76205Y169197D01*
X76265Y169221D01*
X76326Y169242D01*
X76388Y169260D01*
X76452Y169273D01*
X76516Y169283D01*
X76580Y169289D01*
X76645Y169291D01*
X76731Y169289D01*
X76817Y169284D01*
X76903Y169274D01*
X76988Y169261D01*
X77073Y169245D01*
X77157Y169225D01*
X77240Y169201D01*
X77322Y169174D01*
X77402Y169143D01*
X77482Y169109D01*
X77559Y169071D01*
X77635Y169030D01*
X77709Y168986D01*
X77781Y168939D01*
X77852Y168889D01*
X76109Y167281D02*
X76056Y167314D01*
X76005Y167351D01*
X75956Y167390D01*
X75909Y167432D01*
X75865Y167477D01*
X75824Y167524D01*
X75785Y167573D01*
X75749Y167625D01*
X75716Y167679D01*
X75687Y167734D01*
X75661Y167791D01*
X75638Y167850D01*
X75618Y167909D01*
X75602Y167970D01*
X75589Y168031D01*
X75580Y168094D01*
X75575Y168156D01*
X75573Y168219D01*
X77584Y166475D02*
X77637Y166442D01*
X77688Y166405D01*
X77737Y166366D01*
X77784Y166324D01*
X77828Y166279D01*
X77869Y166232D01*
X77908Y166183D01*
X77944Y166131D01*
X77977Y166077D01*
X78006Y166022D01*
X78032Y165965D01*
X78055Y165906D01*
X78075Y165847D01*
X78091Y165786D01*
X78104Y165725D01*
X78113Y165662D01*
X78118Y165600D01*
X78120Y165537D01*
X77584Y166476D02*
X76109Y167280D01*
X81071Y169291D02*
X81071Y164465D01*
X81071Y169291D02*
X82412Y169291D01*
X82483Y169289D01*
X82555Y169283D01*
X82625Y169274D01*
X82695Y169261D01*
X82765Y169244D01*
X82833Y169223D01*
X82900Y169199D01*
X82966Y169171D01*
X83030Y169140D01*
X83093Y169105D01*
X83153Y169067D01*
X83212Y169026D01*
X83268Y168982D01*
X83322Y168935D01*
X83373Y168886D01*
X83421Y168833D01*
X83467Y168778D01*
X83509Y168721D01*
X83549Y168661D01*
X83585Y168600D01*
X83618Y168536D01*
X83647Y168471D01*
X83673Y168405D01*
X83696Y168337D01*
X83715Y168268D01*
X83730Y168198D01*
X83741Y168128D01*
X83749Y168057D01*
X83753Y167986D01*
X83753Y167914D01*
X83749Y167843D01*
X83741Y167772D01*
X83730Y167702D01*
X83715Y167632D01*
X83696Y167563D01*
X83673Y167495D01*
X83647Y167429D01*
X83618Y167364D01*
X83585Y167300D01*
X83549Y167239D01*
X83509Y167179D01*
X83467Y167122D01*
X83421Y167067D01*
X83373Y167014D01*
X83322Y166965D01*
X83268Y166918D01*
X83212Y166874D01*
X83153Y166833D01*
X83093Y166795D01*
X83030Y166760D01*
X82966Y166729D01*
X82900Y166701D01*
X82833Y166677D01*
X82765Y166656D01*
X82695Y166639D01*
X82625Y166626D01*
X82555Y166617D01*
X82483Y166611D01*
X82412Y166609D01*
X82412Y166610D02*
X81071Y166610D01*
X86472Y164465D02*
X86472Y169291D01*
X85936Y164465D02*
X87008Y164465D01*
X87008Y169291D02*
X85936Y169291D01*
X89520Y167146D02*
X91129Y167146D01*
X91194Y167144D01*
X91258Y167138D01*
X91322Y167128D01*
X91386Y167115D01*
X91448Y167097D01*
X91509Y167076D01*
X91569Y167052D01*
X91627Y167023D01*
X91684Y166991D01*
X91738Y166956D01*
X91790Y166918D01*
X91840Y166876D01*
X91887Y166832D01*
X91931Y166785D01*
X91973Y166735D01*
X92011Y166683D01*
X92046Y166629D01*
X92078Y166572D01*
X92107Y166514D01*
X92131Y166454D01*
X92152Y166393D01*
X92170Y166331D01*
X92183Y166267D01*
X92193Y166203D01*
X92199Y166139D01*
X92201Y166074D01*
X92201Y165806D01*
X92202Y165806D02*
X92200Y165735D01*
X92194Y165663D01*
X92185Y165593D01*
X92172Y165523D01*
X92155Y165453D01*
X92134Y165385D01*
X92110Y165318D01*
X92082Y165252D01*
X92051Y165188D01*
X92016Y165125D01*
X91978Y165065D01*
X91937Y165006D01*
X91893Y164950D01*
X91846Y164896D01*
X91797Y164845D01*
X91744Y164797D01*
X91689Y164751D01*
X91632Y164709D01*
X91572Y164669D01*
X91511Y164633D01*
X91447Y164600D01*
X91382Y164571D01*
X91316Y164545D01*
X91248Y164522D01*
X91179Y164503D01*
X91109Y164488D01*
X91039Y164477D01*
X90968Y164469D01*
X90897Y164465D01*
X90825Y164465D01*
X90754Y164469D01*
X90683Y164477D01*
X90613Y164488D01*
X90543Y164503D01*
X90474Y164522D01*
X90406Y164545D01*
X90340Y164571D01*
X90275Y164600D01*
X90211Y164633D01*
X90150Y164669D01*
X90090Y164709D01*
X90033Y164751D01*
X89978Y164797D01*
X89925Y164845D01*
X89876Y164896D01*
X89829Y164950D01*
X89785Y165006D01*
X89744Y165065D01*
X89706Y165125D01*
X89671Y165188D01*
X89640Y165252D01*
X89612Y165318D01*
X89588Y165385D01*
X89567Y165453D01*
X89550Y165523D01*
X89537Y165593D01*
X89528Y165663D01*
X89522Y165735D01*
X89520Y165806D01*
X89520Y167146D01*
X89522Y167237D01*
X89528Y167328D01*
X89537Y167418D01*
X89551Y167509D01*
X89568Y167598D01*
X89589Y167686D01*
X89614Y167774D01*
X89643Y167861D01*
X89675Y167946D01*
X89710Y168030D01*
X89750Y168112D01*
X89792Y168192D01*
X89838Y168271D01*
X89888Y168347D01*
X89940Y168421D01*
X89996Y168494D01*
X90055Y168563D01*
X90116Y168630D01*
X90181Y168695D01*
X90248Y168756D01*
X90317Y168815D01*
X90389Y168871D01*
X90464Y168923D01*
X90540Y168973D01*
X90619Y169019D01*
X90699Y169061D01*
X90781Y169101D01*
X90865Y169136D01*
X90950Y169168D01*
X91037Y169197D01*
X91124Y169222D01*
X91213Y169243D01*
X91302Y169260D01*
X91393Y169274D01*
X91483Y169283D01*
X91574Y169289D01*
X91665Y169291D01*
D17*
X31220Y70300D02*
X31220Y31300D01*
X31220Y70300D02*
X60220Y70300D01*
X60220Y31300D01*
X31220Y31300D01*
X36720Y50800D02*
X36723Y51021D01*
X36731Y51242D01*
X36744Y51462D01*
X36763Y51682D01*
X36788Y51902D01*
X36817Y52121D01*
X36853Y52339D01*
X36893Y52556D01*
X36939Y52772D01*
X36990Y52987D01*
X37046Y53200D01*
X37108Y53413D01*
X37174Y53623D01*
X37246Y53832D01*
X37323Y54039D01*
X37405Y54244D01*
X37492Y54447D01*
X37584Y54648D01*
X37681Y54847D01*
X37783Y55043D01*
X37889Y55236D01*
X38000Y55427D01*
X38116Y55615D01*
X38237Y55800D01*
X38362Y55982D01*
X38491Y56161D01*
X38625Y56337D01*
X38763Y56510D01*
X38905Y56679D01*
X39051Y56844D01*
X39202Y57006D01*
X39356Y57164D01*
X39514Y57318D01*
X39676Y57469D01*
X39841Y57615D01*
X40010Y57757D01*
X40183Y57895D01*
X40359Y58029D01*
X40538Y58158D01*
X40720Y58283D01*
X40905Y58404D01*
X41093Y58520D01*
X41284Y58631D01*
X41477Y58737D01*
X41673Y58839D01*
X41872Y58936D01*
X42073Y59028D01*
X42276Y59115D01*
X42481Y59197D01*
X42688Y59274D01*
X42897Y59346D01*
X43107Y59412D01*
X43320Y59474D01*
X43533Y59530D01*
X43748Y59581D01*
X43964Y59627D01*
X44181Y59667D01*
X44399Y59703D01*
X44618Y59732D01*
X44838Y59757D01*
X45058Y59776D01*
X45278Y59789D01*
X45499Y59797D01*
X45720Y59800D01*
X45941Y59797D01*
X46162Y59789D01*
X46382Y59776D01*
X46602Y59757D01*
X46822Y59732D01*
X47041Y59703D01*
X47259Y59667D01*
X47476Y59627D01*
X47692Y59581D01*
X47907Y59530D01*
X48120Y59474D01*
X48333Y59412D01*
X48543Y59346D01*
X48752Y59274D01*
X48959Y59197D01*
X49164Y59115D01*
X49367Y59028D01*
X49568Y58936D01*
X49767Y58839D01*
X49963Y58737D01*
X50156Y58631D01*
X50347Y58520D01*
X50535Y58404D01*
X50720Y58283D01*
X50902Y58158D01*
X51081Y58029D01*
X51257Y57895D01*
X51430Y57757D01*
X51599Y57615D01*
X51764Y57469D01*
X51926Y57318D01*
X52084Y57164D01*
X52238Y57006D01*
X52389Y56844D01*
X52535Y56679D01*
X52677Y56510D01*
X52815Y56337D01*
X52949Y56161D01*
X53078Y55982D01*
X53203Y55800D01*
X53324Y55615D01*
X53440Y55427D01*
X53551Y55236D01*
X53657Y55043D01*
X53759Y54847D01*
X53856Y54648D01*
X53948Y54447D01*
X54035Y54244D01*
X54117Y54039D01*
X54194Y53832D01*
X54266Y53623D01*
X54332Y53413D01*
X54394Y53200D01*
X54450Y52987D01*
X54501Y52772D01*
X54547Y52556D01*
X54587Y52339D01*
X54623Y52121D01*
X54652Y51902D01*
X54677Y51682D01*
X54696Y51462D01*
X54709Y51242D01*
X54717Y51021D01*
X54720Y50800D01*
X54717Y50579D01*
X54709Y50358D01*
X54696Y50138D01*
X54677Y49918D01*
X54652Y49698D01*
X54623Y49479D01*
X54587Y49261D01*
X54547Y49044D01*
X54501Y48828D01*
X54450Y48613D01*
X54394Y48400D01*
X54332Y48187D01*
X54266Y47977D01*
X54194Y47768D01*
X54117Y47561D01*
X54035Y47356D01*
X53948Y47153D01*
X53856Y46952D01*
X53759Y46753D01*
X53657Y46557D01*
X53551Y46364D01*
X53440Y46173D01*
X53324Y45985D01*
X53203Y45800D01*
X53078Y45618D01*
X52949Y45439D01*
X52815Y45263D01*
X52677Y45090D01*
X52535Y44921D01*
X52389Y44756D01*
X52238Y44594D01*
X52084Y44436D01*
X51926Y44282D01*
X51764Y44131D01*
X51599Y43985D01*
X51430Y43843D01*
X51257Y43705D01*
X51081Y43571D01*
X50902Y43442D01*
X50720Y43317D01*
X50535Y43196D01*
X50347Y43080D01*
X50156Y42969D01*
X49963Y42863D01*
X49767Y42761D01*
X49568Y42664D01*
X49367Y42572D01*
X49164Y42485D01*
X48959Y42403D01*
X48752Y42326D01*
X48543Y42254D01*
X48333Y42188D01*
X48120Y42126D01*
X47907Y42070D01*
X47692Y42019D01*
X47476Y41973D01*
X47259Y41933D01*
X47041Y41897D01*
X46822Y41868D01*
X46602Y41843D01*
X46382Y41824D01*
X46162Y41811D01*
X45941Y41803D01*
X45720Y41800D01*
X45499Y41803D01*
X45278Y41811D01*
X45058Y41824D01*
X44838Y41843D01*
X44618Y41868D01*
X44399Y41897D01*
X44181Y41933D01*
X43964Y41973D01*
X43748Y42019D01*
X43533Y42070D01*
X43320Y42126D01*
X43107Y42188D01*
X42897Y42254D01*
X42688Y42326D01*
X42481Y42403D01*
X42276Y42485D01*
X42073Y42572D01*
X41872Y42664D01*
X41673Y42761D01*
X41477Y42863D01*
X41284Y42969D01*
X41093Y43080D01*
X40905Y43196D01*
X40720Y43317D01*
X40538Y43442D01*
X40359Y43571D01*
X40183Y43705D01*
X40010Y43843D01*
X39841Y43985D01*
X39676Y44131D01*
X39514Y44282D01*
X39356Y44436D01*
X39202Y44594D01*
X39051Y44756D01*
X38905Y44921D01*
X38763Y45090D01*
X38625Y45263D01*
X38491Y45439D01*
X38362Y45618D01*
X38237Y45800D01*
X38116Y45985D01*
X38000Y46173D01*
X37889Y46364D01*
X37783Y46557D01*
X37681Y46753D01*
X37584Y46952D01*
X37492Y47153D01*
X37405Y47356D01*
X37323Y47561D01*
X37246Y47768D01*
X37174Y47977D01*
X37108Y48187D01*
X37046Y48400D01*
X36990Y48613D01*
X36939Y48828D01*
X36893Y49044D01*
X36853Y49261D01*
X36817Y49479D01*
X36788Y49698D01*
X36763Y49918D01*
X36744Y50138D01*
X36731Y50358D01*
X36723Y50579D01*
X36720Y50800D01*
M02*
