G04 EAGLE Gerber RS-274X export*
G75*
%MOMM*%
%FSLAX34Y34*%
%LPD*%
%INBottom Copper*%
%IPPOS*%
%AMOC8*
5,1,8,0,0,1.08239X$1,22.5*%
G01*
%ADD10C,1.408000*%
%ADD11C,1.879600*%
%ADD12C,1.108000*%
%ADD13R,1.270000X0.660400*%
%ADD14C,0.756400*%
%ADD15C,0.304800*%
%ADD16C,0.406400*%

G36*
X75328Y10172D02*
X75328Y10172D01*
X75400Y10174D01*
X75449Y10192D01*
X75500Y10200D01*
X75564Y10234D01*
X75631Y10259D01*
X75672Y10291D01*
X75718Y10316D01*
X75767Y10368D01*
X75823Y10412D01*
X75851Y10456D01*
X75887Y10494D01*
X75917Y10559D01*
X75956Y10619D01*
X75969Y10670D01*
X75991Y10717D01*
X75999Y10788D01*
X76016Y10858D01*
X76012Y10910D01*
X76018Y10961D01*
X76003Y11032D01*
X75997Y11103D01*
X75977Y11151D01*
X75966Y11202D01*
X75929Y11263D01*
X75901Y11329D01*
X75856Y11385D01*
X75839Y11413D01*
X75822Y11428D01*
X75796Y11460D01*
X74714Y12542D01*
X73609Y14063D01*
X72756Y15737D01*
X72175Y17524D01*
X71974Y18797D01*
X83058Y18797D01*
X83078Y18800D01*
X83097Y18798D01*
X83199Y18820D01*
X83301Y18837D01*
X83318Y18846D01*
X83338Y18850D01*
X83427Y18903D01*
X83518Y18952D01*
X83532Y18966D01*
X83549Y18976D01*
X83616Y19055D01*
X83687Y19130D01*
X83696Y19148D01*
X83709Y19163D01*
X83747Y19259D01*
X83791Y19353D01*
X83793Y19373D01*
X83801Y19391D01*
X83819Y19558D01*
X83819Y20321D01*
X83821Y20321D01*
X83821Y19558D01*
X83824Y19538D01*
X83822Y19519D01*
X83844Y19417D01*
X83861Y19315D01*
X83870Y19298D01*
X83874Y19278D01*
X83927Y19189D01*
X83976Y19098D01*
X83990Y19084D01*
X84000Y19067D01*
X84079Y19000D01*
X84154Y18929D01*
X84172Y18920D01*
X84187Y18907D01*
X84283Y18868D01*
X84377Y18825D01*
X84397Y18823D01*
X84415Y18815D01*
X84582Y18797D01*
X95666Y18797D01*
X95465Y17524D01*
X94884Y15737D01*
X94031Y14063D01*
X92926Y12542D01*
X91844Y11460D01*
X91802Y11402D01*
X91753Y11350D01*
X91731Y11303D01*
X91701Y11261D01*
X91680Y11192D01*
X91649Y11127D01*
X91644Y11075D01*
X91628Y11025D01*
X91630Y10954D01*
X91622Y10883D01*
X91633Y10832D01*
X91635Y10780D01*
X91659Y10712D01*
X91674Y10642D01*
X91701Y10597D01*
X91719Y10549D01*
X91764Y10493D01*
X91801Y10431D01*
X91840Y10397D01*
X91873Y10357D01*
X91933Y10318D01*
X91988Y10271D01*
X92036Y10252D01*
X92080Y10224D01*
X92149Y10206D01*
X92216Y10179D01*
X92287Y10171D01*
X92318Y10163D01*
X92342Y10165D01*
X92382Y10161D01*
X108078Y10161D01*
X108098Y10164D01*
X108117Y10162D01*
X108219Y10184D01*
X108321Y10200D01*
X108338Y10210D01*
X108358Y10214D01*
X108447Y10267D01*
X108538Y10316D01*
X108552Y10330D01*
X108569Y10340D01*
X108636Y10419D01*
X108708Y10494D01*
X108716Y10512D01*
X108729Y10527D01*
X108768Y10623D01*
X108811Y10717D01*
X108813Y10737D01*
X108821Y10755D01*
X108839Y10922D01*
X108839Y188021D01*
X110386Y191756D01*
X113244Y194614D01*
X116979Y196161D01*
X374021Y196161D01*
X377756Y194614D01*
X380614Y191756D01*
X382161Y188021D01*
X382161Y147320D01*
X382164Y147300D01*
X382162Y147281D01*
X382184Y147179D01*
X382201Y147077D01*
X382210Y147060D01*
X382214Y147040D01*
X382267Y146951D01*
X382316Y146860D01*
X382330Y146846D01*
X382340Y146829D01*
X382419Y146762D01*
X382494Y146691D01*
X382512Y146682D01*
X382527Y146669D01*
X382623Y146630D01*
X382717Y146587D01*
X382737Y146585D01*
X382755Y146577D01*
X382922Y146559D01*
X406085Y146559D01*
X410719Y141925D01*
X410719Y78911D01*
X410730Y78841D01*
X410732Y78769D01*
X410750Y78720D01*
X410759Y78669D01*
X410792Y78605D01*
X410817Y78538D01*
X410849Y78497D01*
X410874Y78451D01*
X410926Y78402D01*
X410970Y78346D01*
X411014Y78318D01*
X411052Y78282D01*
X411117Y78252D01*
X411177Y78213D01*
X411228Y78200D01*
X411275Y78178D01*
X411346Y78170D01*
X411416Y78153D01*
X411468Y78157D01*
X411519Y78151D01*
X411590Y78166D01*
X411661Y78172D01*
X411709Y78192D01*
X411760Y78203D01*
X411821Y78240D01*
X411887Y78268D01*
X411943Y78313D01*
X411971Y78330D01*
X411986Y78347D01*
X412018Y78373D01*
X415152Y81507D01*
X419548Y81507D01*
X422657Y78398D01*
X422657Y74002D01*
X420622Y71967D01*
X420569Y71893D01*
X420509Y71823D01*
X420497Y71793D01*
X420478Y71767D01*
X420451Y71680D01*
X420417Y71595D01*
X420413Y71554D01*
X420406Y71532D01*
X420407Y71500D01*
X420399Y71429D01*
X420399Y65558D01*
X420413Y65468D01*
X420421Y65377D01*
X420433Y65347D01*
X420438Y65315D01*
X420481Y65235D01*
X420517Y65151D01*
X420543Y65119D01*
X420554Y65098D01*
X420577Y65076D01*
X420622Y65020D01*
X438247Y47395D01*
X438305Y47353D01*
X438357Y47304D01*
X438404Y47282D01*
X438446Y47251D01*
X438515Y47230D01*
X438580Y47200D01*
X438632Y47194D01*
X438682Y47179D01*
X438753Y47181D01*
X438824Y47173D01*
X438875Y47184D01*
X438927Y47185D01*
X438995Y47210D01*
X439065Y47225D01*
X439110Y47252D01*
X439158Y47270D01*
X439214Y47315D01*
X439276Y47351D01*
X439310Y47391D01*
X439350Y47423D01*
X439389Y47484D01*
X439436Y47538D01*
X439455Y47587D01*
X439483Y47630D01*
X439501Y47700D01*
X439528Y47766D01*
X439536Y47838D01*
X439544Y47869D01*
X439542Y47892D01*
X439546Y47933D01*
X439546Y81908D01*
X445320Y87682D01*
X445373Y87756D01*
X445433Y87825D01*
X445445Y87855D01*
X445464Y87882D01*
X445491Y87969D01*
X445525Y88053D01*
X445529Y88094D01*
X445536Y88117D01*
X445535Y88149D01*
X445543Y88220D01*
X445543Y91098D01*
X448652Y94207D01*
X453048Y94207D01*
X456157Y91098D01*
X456157Y86702D01*
X453048Y83593D01*
X450170Y83593D01*
X450080Y83579D01*
X449989Y83571D01*
X449959Y83559D01*
X449927Y83554D01*
X449847Y83511D01*
X449763Y83475D01*
X449731Y83449D01*
X449710Y83438D01*
X449688Y83415D01*
X449632Y83370D01*
X445867Y79605D01*
X445814Y79531D01*
X445754Y79462D01*
X445742Y79432D01*
X445723Y79405D01*
X445696Y79318D01*
X445662Y79234D01*
X445658Y79193D01*
X445651Y79170D01*
X445652Y79138D01*
X445644Y79067D01*
X445644Y67636D01*
X445655Y67566D01*
X445657Y67494D01*
X445675Y67445D01*
X445683Y67394D01*
X445717Y67330D01*
X445742Y67263D01*
X445774Y67222D01*
X445799Y67176D01*
X445851Y67127D01*
X445895Y67071D01*
X445939Y67043D01*
X445977Y67007D01*
X446042Y66977D01*
X446102Y66938D01*
X446153Y66925D01*
X446200Y66903D01*
X446271Y66895D01*
X446341Y66878D01*
X446393Y66882D01*
X446444Y66876D01*
X446515Y66891D01*
X446586Y66897D01*
X446634Y66917D01*
X446685Y66928D01*
X446746Y66965D01*
X446812Y66993D01*
X446868Y67038D01*
X446896Y67055D01*
X446911Y67072D01*
X446943Y67098D01*
X448652Y68807D01*
X453048Y68807D01*
X455083Y66772D01*
X455157Y66719D01*
X455227Y66659D01*
X455257Y66647D01*
X455283Y66628D01*
X455370Y66601D01*
X455455Y66567D01*
X455496Y66563D01*
X455518Y66556D01*
X455550Y66557D01*
X455621Y66549D01*
X459432Y66549D01*
X459522Y66563D01*
X459613Y66571D01*
X459643Y66583D01*
X459675Y66588D01*
X459755Y66631D01*
X459839Y66667D01*
X459871Y66693D01*
X459892Y66704D01*
X459914Y66727D01*
X459970Y66772D01*
X472978Y79780D01*
X473031Y79854D01*
X473091Y79923D01*
X473103Y79953D01*
X473122Y79980D01*
X473149Y80067D01*
X473183Y80151D01*
X473187Y80192D01*
X473194Y80215D01*
X473193Y80247D01*
X473201Y80318D01*
X473201Y173047D01*
X473187Y173137D01*
X473179Y173228D01*
X473167Y173258D01*
X473162Y173290D01*
X473119Y173370D01*
X473083Y173454D01*
X473057Y173486D01*
X473046Y173507D01*
X473023Y173529D01*
X473004Y173553D01*
X473000Y173559D01*
X472996Y173563D01*
X472978Y173585D01*
X418060Y228503D01*
X417986Y228556D01*
X417917Y228616D01*
X417887Y228628D01*
X417860Y228647D01*
X417773Y228674D01*
X417689Y228708D01*
X417648Y228712D01*
X417625Y228719D01*
X417593Y228718D01*
X417522Y228726D01*
X347352Y228726D01*
X345343Y230735D01*
X307570Y268508D01*
X307496Y268561D01*
X307427Y268621D01*
X307397Y268633D01*
X307370Y268652D01*
X307283Y268679D01*
X307199Y268713D01*
X307158Y268717D01*
X307135Y268724D01*
X307103Y268723D01*
X307032Y268731D01*
X299411Y268731D01*
X299321Y268717D01*
X299230Y268709D01*
X299201Y268697D01*
X299169Y268692D01*
X299088Y268649D01*
X299004Y268613D01*
X298972Y268587D01*
X298951Y268576D01*
X298929Y268553D01*
X298873Y268508D01*
X296838Y266473D01*
X292442Y266473D01*
X289333Y269582D01*
X289333Y273978D01*
X292442Y277087D01*
X296838Y277087D01*
X298873Y275052D01*
X298947Y274999D01*
X299017Y274939D01*
X299047Y274927D01*
X299073Y274908D01*
X299160Y274881D01*
X299245Y274847D01*
X299286Y274843D01*
X299308Y274836D01*
X299340Y274837D01*
X299411Y274829D01*
X307667Y274829D01*
X307738Y274840D01*
X307809Y274842D01*
X307858Y274860D01*
X307910Y274868D01*
X307973Y274902D01*
X308040Y274927D01*
X308081Y274959D01*
X308127Y274984D01*
X308176Y275035D01*
X308232Y275080D01*
X308261Y275124D01*
X308296Y275162D01*
X308327Y275227D01*
X308365Y275287D01*
X308378Y275338D01*
X308400Y275385D01*
X308408Y275456D01*
X308425Y275526D01*
X308421Y275578D01*
X308427Y275629D01*
X308412Y275700D01*
X308406Y275771D01*
X308386Y275819D01*
X308375Y275870D01*
X308338Y275931D01*
X308310Y275997D01*
X308265Y276053D01*
X308249Y276081D01*
X308231Y276096D01*
X308205Y276128D01*
X306617Y277716D01*
X306601Y277728D01*
X306589Y277743D01*
X306501Y277799D01*
X306418Y277860D01*
X306399Y277865D01*
X306382Y277876D01*
X306281Y277902D01*
X306183Y277932D01*
X306163Y277931D01*
X306143Y277936D01*
X306040Y277928D01*
X305937Y277926D01*
X305918Y277919D01*
X305898Y277917D01*
X305803Y277877D01*
X305706Y277841D01*
X305690Y277829D01*
X305672Y277821D01*
X305541Y277716D01*
X304458Y276633D01*
X300062Y276633D01*
X296953Y279742D01*
X296953Y284138D01*
X300062Y287247D01*
X303812Y287247D01*
X303832Y287250D01*
X303851Y287248D01*
X303953Y287270D01*
X304055Y287286D01*
X304072Y287296D01*
X304092Y287300D01*
X304181Y287353D01*
X304272Y287402D01*
X304286Y287416D01*
X304303Y287426D01*
X304370Y287505D01*
X304442Y287580D01*
X304450Y287598D01*
X304463Y287613D01*
X304502Y287709D01*
X304545Y287803D01*
X304547Y287823D01*
X304555Y287841D01*
X304573Y288008D01*
X304573Y291758D01*
X307679Y294864D01*
X307721Y294922D01*
X307770Y294974D01*
X307792Y295021D01*
X307822Y295063D01*
X307844Y295132D01*
X307874Y295197D01*
X307879Y295249D01*
X307895Y295299D01*
X307893Y295370D01*
X307901Y295441D01*
X307890Y295492D01*
X307888Y295544D01*
X307864Y295612D01*
X307849Y295682D01*
X307822Y295727D01*
X307804Y295775D01*
X307759Y295831D01*
X307722Y295893D01*
X307683Y295927D01*
X307650Y295967D01*
X307590Y296006D01*
X307535Y296053D01*
X307487Y296072D01*
X307443Y296100D01*
X307374Y296118D01*
X307307Y296145D01*
X307236Y296153D01*
X307205Y296161D01*
X307182Y296159D01*
X307141Y296163D01*
X290627Y296163D01*
X280690Y306100D01*
X280616Y306153D01*
X280546Y306213D01*
X280516Y306225D01*
X280490Y306244D01*
X280403Y306271D01*
X280318Y306305D01*
X280277Y306309D01*
X280255Y306316D01*
X280223Y306315D01*
X280151Y306323D01*
X171903Y306323D01*
X171813Y306309D01*
X171722Y306301D01*
X171693Y306289D01*
X171661Y306284D01*
X171580Y306241D01*
X171496Y306205D01*
X171464Y306179D01*
X171443Y306168D01*
X171421Y306145D01*
X171365Y306100D01*
X169838Y304573D01*
X165442Y304573D01*
X163915Y306100D01*
X163841Y306153D01*
X163771Y306213D01*
X163741Y306225D01*
X163715Y306244D01*
X163628Y306271D01*
X163543Y306305D01*
X163502Y306309D01*
X163480Y306316D01*
X163448Y306315D01*
X163377Y306323D01*
X109038Y306323D01*
X108948Y306309D01*
X108857Y306301D01*
X108828Y306289D01*
X108796Y306284D01*
X108715Y306241D01*
X108631Y306205D01*
X108599Y306179D01*
X108578Y306168D01*
X108556Y306145D01*
X108500Y306100D01*
X106973Y304573D01*
X102577Y304573D01*
X99468Y307682D01*
X99468Y312078D01*
X100930Y313540D01*
X100972Y313598D01*
X101021Y313650D01*
X101043Y313697D01*
X101074Y313740D01*
X101095Y313808D01*
X101125Y313873D01*
X101131Y313925D01*
X101146Y313975D01*
X101144Y314046D01*
X101152Y314118D01*
X101141Y314168D01*
X101140Y314221D01*
X101115Y314288D01*
X101100Y314358D01*
X101073Y314403D01*
X101055Y314452D01*
X101010Y314508D01*
X100974Y314569D01*
X100934Y314603D01*
X100901Y314644D01*
X100841Y314682D01*
X100787Y314729D01*
X100738Y314748D01*
X100694Y314777D01*
X100625Y314794D01*
X100558Y314821D01*
X100487Y314829D01*
X100456Y314837D01*
X100433Y314835D01*
X100392Y314839D01*
X23329Y314839D01*
X23309Y314836D01*
X23290Y314838D01*
X23188Y314816D01*
X23086Y314800D01*
X23069Y314790D01*
X23049Y314786D01*
X22960Y314733D01*
X22869Y314685D01*
X22855Y314670D01*
X22838Y314660D01*
X22771Y314581D01*
X22699Y314506D01*
X22691Y314488D01*
X22678Y314473D01*
X22639Y314377D01*
X22596Y314283D01*
X22594Y314263D01*
X22586Y314245D01*
X22568Y314078D01*
X22568Y310856D01*
X21264Y307708D01*
X18855Y305299D01*
X15707Y303995D01*
X12299Y303995D01*
X11213Y304445D01*
X11169Y304456D01*
X11127Y304475D01*
X11050Y304484D01*
X10974Y304501D01*
X10928Y304497D01*
X10883Y304502D01*
X10806Y304486D01*
X10729Y304478D01*
X10687Y304460D01*
X10642Y304450D01*
X10575Y304410D01*
X10504Y304378D01*
X10470Y304347D01*
X10431Y304324D01*
X10380Y304265D01*
X10323Y304212D01*
X10301Y304172D01*
X10271Y304137D01*
X10242Y304064D01*
X10205Y303996D01*
X10196Y303951D01*
X10179Y303909D01*
X10164Y303773D01*
X10161Y303754D01*
X10162Y303749D01*
X10161Y303742D01*
X10161Y301378D01*
X10168Y301333D01*
X10166Y301287D01*
X10188Y301212D01*
X10200Y301135D01*
X10222Y301095D01*
X10235Y301051D01*
X10279Y300987D01*
X10316Y300918D01*
X10349Y300886D01*
X10375Y300849D01*
X10437Y300802D01*
X10494Y300749D01*
X10536Y300729D01*
X10572Y300702D01*
X10646Y300678D01*
X10717Y300645D01*
X10763Y300640D01*
X10806Y300626D01*
X10884Y300627D01*
X10961Y300618D01*
X11006Y300628D01*
X11052Y300628D01*
X11184Y300666D01*
X11202Y300670D01*
X11206Y300673D01*
X11213Y300675D01*
X12299Y301125D01*
X15707Y301125D01*
X18855Y299821D01*
X21264Y297412D01*
X22568Y294264D01*
X22568Y290856D01*
X21264Y287708D01*
X18855Y285299D01*
X15707Y283995D01*
X12299Y283995D01*
X11213Y284445D01*
X11169Y284456D01*
X11127Y284475D01*
X11050Y284484D01*
X10974Y284501D01*
X10928Y284497D01*
X10883Y284502D01*
X10806Y284486D01*
X10729Y284478D01*
X10687Y284460D01*
X10642Y284450D01*
X10575Y284410D01*
X10504Y284378D01*
X10470Y284347D01*
X10431Y284324D01*
X10380Y284265D01*
X10323Y284212D01*
X10301Y284172D01*
X10271Y284137D01*
X10242Y284064D01*
X10205Y283996D01*
X10196Y283951D01*
X10179Y283909D01*
X10164Y283773D01*
X10161Y283754D01*
X10162Y283749D01*
X10161Y283742D01*
X10161Y281378D01*
X10168Y281333D01*
X10166Y281287D01*
X10188Y281212D01*
X10200Y281135D01*
X10222Y281095D01*
X10235Y281051D01*
X10279Y280987D01*
X10316Y280918D01*
X10349Y280886D01*
X10375Y280849D01*
X10437Y280802D01*
X10494Y280749D01*
X10536Y280729D01*
X10572Y280702D01*
X10646Y280678D01*
X10717Y280645D01*
X10763Y280640D01*
X10806Y280626D01*
X10884Y280627D01*
X10961Y280618D01*
X11006Y280628D01*
X11052Y280628D01*
X11184Y280666D01*
X11202Y280670D01*
X11206Y280673D01*
X11213Y280675D01*
X12299Y281125D01*
X15707Y281125D01*
X18855Y279821D01*
X21264Y277412D01*
X22568Y274264D01*
X22568Y270856D01*
X21846Y269113D01*
X21823Y269017D01*
X21794Y268922D01*
X21795Y268897D01*
X21789Y268874D01*
X21799Y268775D01*
X21802Y268676D01*
X21810Y268653D01*
X21813Y268629D01*
X21853Y268538D01*
X21887Y268446D01*
X21905Y268421D01*
X21913Y268404D01*
X21935Y268380D01*
X21986Y268310D01*
X27595Y262138D01*
X27606Y262129D01*
X27620Y262112D01*
X28496Y261235D01*
X28509Y261211D01*
X28450Y259965D01*
X28451Y259951D01*
X28449Y259929D01*
X28449Y246688D01*
X28463Y246598D01*
X28471Y246507D01*
X28483Y246477D01*
X28488Y246445D01*
X28531Y246365D01*
X28567Y246281D01*
X28593Y246249D01*
X28604Y246228D01*
X28627Y246206D01*
X28672Y246150D01*
X51563Y223258D01*
X51621Y223216D01*
X51674Y223167D01*
X51721Y223145D01*
X51763Y223115D01*
X51831Y223094D01*
X51897Y223063D01*
X51948Y223058D01*
X51998Y223042D01*
X52070Y223044D01*
X52141Y223036D01*
X52192Y223047D01*
X52244Y223049D01*
X52311Y223073D01*
X52381Y223089D01*
X52426Y223115D01*
X52475Y223133D01*
X52531Y223178D01*
X52593Y223215D01*
X52626Y223254D01*
X52667Y223287D01*
X52706Y223347D01*
X52752Y223402D01*
X52772Y223450D01*
X52800Y223494D01*
X52818Y223563D01*
X52844Y223630D01*
X52852Y223701D01*
X52860Y223732D01*
X52858Y223756D01*
X52863Y223797D01*
X52863Y226103D01*
X55971Y229211D01*
X60368Y229211D01*
X62403Y227176D01*
X62477Y227123D01*
X62546Y227064D01*
X62576Y227052D01*
X62602Y227033D01*
X62689Y227006D01*
X62774Y226972D01*
X62815Y226967D01*
X62838Y226960D01*
X62870Y226961D01*
X62941Y226953D01*
X64846Y226953D01*
X64936Y226968D01*
X65027Y226975D01*
X65057Y226988D01*
X65089Y226993D01*
X65170Y227036D01*
X65254Y227071D01*
X65286Y227097D01*
X65307Y227108D01*
X65329Y227131D01*
X65385Y227176D01*
X120553Y282345D01*
X121515Y283307D01*
X121557Y283365D01*
X121606Y283417D01*
X121628Y283464D01*
X121659Y283506D01*
X121680Y283575D01*
X121710Y283640D01*
X121716Y283692D01*
X121731Y283742D01*
X121729Y283813D01*
X121737Y283884D01*
X121726Y283935D01*
X121725Y283987D01*
X121700Y284055D01*
X121685Y284125D01*
X121658Y284170D01*
X121640Y284218D01*
X121595Y284274D01*
X121559Y284336D01*
X121519Y284370D01*
X121487Y284410D01*
X121426Y284449D01*
X121372Y284496D01*
X121323Y284515D01*
X121280Y284543D01*
X121210Y284561D01*
X121144Y284588D01*
X121072Y284596D01*
X121041Y284604D01*
X121018Y284602D01*
X120977Y284606D01*
X72397Y284606D01*
X70433Y286570D01*
X70359Y286623D01*
X70290Y286683D01*
X70260Y286695D01*
X70233Y286714D01*
X70146Y286741D01*
X70062Y286775D01*
X70021Y286779D01*
X69998Y286786D01*
X69966Y286785D01*
X69895Y286793D01*
X67017Y286793D01*
X63908Y289902D01*
X63908Y294298D01*
X67017Y297407D01*
X71413Y297407D01*
X74522Y294298D01*
X74522Y291465D01*
X74525Y291445D01*
X74523Y291426D01*
X74545Y291324D01*
X74561Y291222D01*
X74571Y291205D01*
X74575Y291185D01*
X74628Y291096D01*
X74677Y291005D01*
X74691Y290991D01*
X74701Y290974D01*
X74780Y290907D01*
X74855Y290835D01*
X74873Y290827D01*
X74888Y290814D01*
X74984Y290775D01*
X75078Y290732D01*
X75098Y290730D01*
X75116Y290722D01*
X75283Y290704D01*
X83512Y290704D01*
X83583Y290715D01*
X83654Y290717D01*
X83703Y290735D01*
X83755Y290743D01*
X83818Y290777D01*
X83885Y290802D01*
X83926Y290834D01*
X83972Y290859D01*
X84021Y290911D01*
X84077Y290955D01*
X84106Y290999D01*
X84141Y291037D01*
X84172Y291102D01*
X84210Y291162D01*
X84223Y291213D01*
X84245Y291260D01*
X84253Y291331D01*
X84270Y291401D01*
X84266Y291453D01*
X84272Y291504D01*
X84257Y291575D01*
X84251Y291646D01*
X84231Y291694D01*
X84220Y291745D01*
X84183Y291806D01*
X84155Y291872D01*
X84110Y291928D01*
X84094Y291956D01*
X84076Y291971D01*
X84050Y292003D01*
X83088Y292965D01*
X80593Y295460D01*
X80519Y295513D01*
X80450Y295573D01*
X80420Y295585D01*
X80393Y295604D01*
X80306Y295631D01*
X80222Y295665D01*
X80181Y295669D01*
X80158Y295676D01*
X80126Y295675D01*
X80055Y295683D01*
X77177Y295683D01*
X74068Y298792D01*
X74068Y303188D01*
X77177Y306297D01*
X81573Y306297D01*
X84682Y303188D01*
X84682Y300310D01*
X84696Y300220D01*
X84704Y300129D01*
X84716Y300099D01*
X84721Y300067D01*
X84764Y299987D01*
X84800Y299903D01*
X84826Y299871D01*
X84837Y299850D01*
X84860Y299828D01*
X84905Y299772D01*
X87400Y297277D01*
X87474Y297224D01*
X87543Y297164D01*
X87573Y297152D01*
X87600Y297133D01*
X87687Y297106D01*
X87771Y297072D01*
X87812Y297068D01*
X87835Y297061D01*
X87867Y297062D01*
X87938Y297054D01*
X244468Y297054D01*
X261811Y279710D01*
X261811Y267961D01*
X261826Y267871D01*
X261833Y267780D01*
X261846Y267750D01*
X261851Y267718D01*
X261894Y267637D01*
X261929Y267553D01*
X261955Y267521D01*
X261966Y267501D01*
X261989Y267478D01*
X262034Y267422D01*
X278535Y250922D01*
X278609Y250869D01*
X278678Y250809D01*
X278708Y250797D01*
X278735Y250778D01*
X278822Y250751D01*
X278906Y250717D01*
X278947Y250713D01*
X278970Y250706D01*
X279002Y250707D01*
X279073Y250699D01*
X316539Y250699D01*
X316629Y250713D01*
X316720Y250721D01*
X316749Y250733D01*
X316781Y250738D01*
X316862Y250781D01*
X316946Y250817D01*
X316978Y250843D01*
X316999Y250854D01*
X317014Y250870D01*
X317016Y250871D01*
X317024Y250880D01*
X317077Y250922D01*
X317842Y251687D01*
X322238Y251687D01*
X325347Y248578D01*
X325347Y244182D01*
X322238Y241073D01*
X317842Y241073D01*
X314537Y244378D01*
X314463Y244431D01*
X314393Y244491D01*
X314363Y244503D01*
X314337Y244522D01*
X314250Y244549D01*
X314165Y244583D01*
X314124Y244587D01*
X314102Y244594D01*
X314070Y244593D01*
X313999Y244601D01*
X310841Y244601D01*
X310771Y244590D01*
X310699Y244588D01*
X310650Y244570D01*
X310599Y244562D01*
X310535Y244528D01*
X310468Y244503D01*
X310427Y244471D01*
X310381Y244446D01*
X310332Y244394D01*
X310276Y244350D01*
X310248Y244306D01*
X310212Y244268D01*
X310182Y244203D01*
X310143Y244143D01*
X310130Y244092D01*
X310108Y244045D01*
X310100Y243974D01*
X310083Y243904D01*
X310087Y243852D01*
X310081Y243801D01*
X310096Y243730D01*
X310102Y243659D01*
X310122Y243611D01*
X310133Y243560D01*
X310170Y243499D01*
X310198Y243433D01*
X310243Y243377D01*
X310260Y243349D01*
X310277Y243334D01*
X310303Y243302D01*
X312647Y240958D01*
X312647Y236562D01*
X310612Y234527D01*
X310559Y234453D01*
X310499Y234383D01*
X310487Y234353D01*
X310468Y234327D01*
X310441Y234240D01*
X310407Y234155D01*
X310403Y234114D01*
X310396Y234092D01*
X310397Y234060D01*
X310389Y233989D01*
X310389Y232718D01*
X310403Y232628D01*
X310411Y232537D01*
X310423Y232507D01*
X310428Y232475D01*
X310471Y232395D01*
X310507Y232311D01*
X310533Y232279D01*
X310544Y232258D01*
X310567Y232236D01*
X310612Y232180D01*
X317905Y224887D01*
X317979Y224834D01*
X318048Y224774D01*
X318078Y224762D01*
X318105Y224743D01*
X318192Y224716D01*
X318276Y224682D01*
X318317Y224678D01*
X318340Y224671D01*
X318372Y224672D01*
X318443Y224664D01*
X343528Y224664D01*
X345537Y222655D01*
X345845Y222347D01*
X345919Y222294D01*
X345988Y222234D01*
X346018Y222222D01*
X346045Y222203D01*
X346132Y222176D01*
X346216Y222142D01*
X346257Y222138D01*
X346280Y222131D01*
X346312Y222132D01*
X346383Y222124D01*
X416553Y222124D01*
X438659Y200018D01*
X438659Y191408D01*
X438678Y191294D01*
X438695Y191178D01*
X438697Y191172D01*
X438698Y191166D01*
X438753Y191063D01*
X438806Y190958D01*
X438811Y190954D01*
X438814Y190948D01*
X438898Y190869D01*
X438982Y190786D01*
X438988Y190782D01*
X438992Y190779D01*
X439009Y190771D01*
X439129Y190705D01*
X441797Y189600D01*
X444870Y186527D01*
X446533Y182513D01*
X446533Y178167D01*
X444870Y174153D01*
X441797Y171080D01*
X437783Y169417D01*
X433437Y169417D01*
X429423Y171080D01*
X426350Y174153D01*
X425245Y176821D01*
X425183Y176921D01*
X425123Y177021D01*
X425119Y177025D01*
X425115Y177030D01*
X425025Y177105D01*
X424936Y177181D01*
X424931Y177183D01*
X424926Y177187D01*
X424817Y177229D01*
X424708Y177273D01*
X424701Y177274D01*
X424696Y177275D01*
X424678Y177276D01*
X424542Y177291D01*
X410217Y177291D01*
X405233Y182275D01*
X405159Y182328D01*
X405090Y182388D01*
X405060Y182400D01*
X405033Y182419D01*
X404946Y182446D01*
X404862Y182480D01*
X404821Y182484D01*
X404798Y182491D01*
X404766Y182490D01*
X404695Y182498D01*
X402336Y182498D01*
X402316Y182495D01*
X402297Y182497D01*
X402195Y182475D01*
X402093Y182459D01*
X402076Y182449D01*
X402056Y182445D01*
X401967Y182392D01*
X401876Y182343D01*
X401862Y182329D01*
X401845Y182319D01*
X401778Y182240D01*
X401706Y182165D01*
X401698Y182147D01*
X401685Y182132D01*
X401646Y182036D01*
X401603Y181942D01*
X401601Y181922D01*
X401593Y181904D01*
X401575Y181737D01*
X401575Y181613D01*
X400840Y180878D01*
X400828Y180862D01*
X400812Y180850D01*
X400756Y180762D01*
X400696Y180679D01*
X400690Y180660D01*
X400679Y180643D01*
X400654Y180542D01*
X400624Y180443D01*
X400624Y180424D01*
X400619Y180404D01*
X400627Y180301D01*
X400630Y180198D01*
X400637Y180179D01*
X400638Y180159D01*
X400679Y180064D01*
X400714Y179967D01*
X400727Y179951D01*
X400735Y179933D01*
X400840Y179802D01*
X401575Y179067D01*
X401575Y171199D01*
X400682Y170306D01*
X397510Y170306D01*
X397490Y170303D01*
X397471Y170305D01*
X397369Y170283D01*
X397267Y170267D01*
X397250Y170257D01*
X397230Y170253D01*
X397141Y170200D01*
X397050Y170151D01*
X397036Y170137D01*
X397019Y170127D01*
X396952Y170048D01*
X396880Y169973D01*
X396872Y169955D01*
X396859Y169940D01*
X396820Y169844D01*
X396777Y169750D01*
X396775Y169730D01*
X396767Y169712D01*
X396749Y169545D01*
X396749Y165643D01*
X396768Y165527D01*
X396785Y165412D01*
X396787Y165406D01*
X396788Y165400D01*
X396843Y165297D01*
X396896Y165192D01*
X396901Y165188D01*
X396904Y165183D01*
X396988Y165103D01*
X397072Y165020D01*
X397078Y165017D01*
X397082Y165013D01*
X397099Y165005D01*
X397219Y164939D01*
X397702Y164739D01*
X399689Y162752D01*
X400765Y160155D01*
X400765Y157345D01*
X399689Y154748D01*
X397702Y152761D01*
X395105Y151685D01*
X392295Y151685D01*
X389698Y152761D01*
X387711Y154748D01*
X386635Y157345D01*
X386635Y160155D01*
X387711Y162752D01*
X389698Y164739D01*
X390181Y164939D01*
X390281Y165001D01*
X390381Y165061D01*
X390385Y165066D01*
X390390Y165069D01*
X390465Y165159D01*
X390541Y165248D01*
X390543Y165254D01*
X390547Y165258D01*
X390589Y165366D01*
X390633Y165476D01*
X390634Y165483D01*
X390635Y165488D01*
X390636Y165506D01*
X390651Y165643D01*
X390651Y169545D01*
X390648Y169565D01*
X390650Y169584D01*
X390628Y169686D01*
X390612Y169788D01*
X390602Y169805D01*
X390598Y169825D01*
X390545Y169914D01*
X390496Y170005D01*
X390482Y170019D01*
X390472Y170036D01*
X390393Y170103D01*
X390318Y170175D01*
X390300Y170183D01*
X390285Y170196D01*
X390189Y170235D01*
X390095Y170278D01*
X390075Y170280D01*
X390057Y170288D01*
X389890Y170306D01*
X386718Y170306D01*
X385825Y171199D01*
X385825Y179067D01*
X386560Y179802D01*
X386572Y179818D01*
X386588Y179830D01*
X386644Y179918D01*
X386704Y180001D01*
X386710Y180020D01*
X386721Y180037D01*
X386746Y180138D01*
X386776Y180237D01*
X386776Y180256D01*
X386781Y180276D01*
X386773Y180379D01*
X386770Y180482D01*
X386763Y180501D01*
X386762Y180521D01*
X386721Y180616D01*
X386686Y180713D01*
X386673Y180729D01*
X386665Y180747D01*
X386560Y180878D01*
X385825Y181613D01*
X385825Y189481D01*
X386718Y190374D01*
X400682Y190374D01*
X401575Y189481D01*
X401575Y189357D01*
X401578Y189337D01*
X401576Y189318D01*
X401598Y189216D01*
X401614Y189114D01*
X401624Y189097D01*
X401628Y189077D01*
X401681Y188988D01*
X401730Y188897D01*
X401744Y188883D01*
X401754Y188866D01*
X401833Y188799D01*
X401908Y188727D01*
X401926Y188719D01*
X401941Y188706D01*
X402037Y188667D01*
X402131Y188624D01*
X402151Y188622D01*
X402169Y188614D01*
X402336Y188596D01*
X407536Y188596D01*
X412520Y183612D01*
X412594Y183559D01*
X412663Y183499D01*
X412693Y183487D01*
X412720Y183468D01*
X412807Y183441D01*
X412891Y183407D01*
X412932Y183403D01*
X412955Y183396D01*
X412987Y183397D01*
X413058Y183389D01*
X424542Y183389D01*
X424656Y183408D01*
X424772Y183425D01*
X424778Y183427D01*
X424784Y183428D01*
X424887Y183483D01*
X424992Y183536D01*
X424996Y183541D01*
X425002Y183544D01*
X425081Y183628D01*
X425164Y183712D01*
X425168Y183718D01*
X425171Y183722D01*
X425179Y183739D01*
X425245Y183859D01*
X426350Y186527D01*
X429423Y189600D01*
X432091Y190705D01*
X432191Y190767D01*
X432291Y190827D01*
X432295Y190831D01*
X432300Y190835D01*
X432375Y190925D01*
X432451Y191014D01*
X432453Y191019D01*
X432457Y191024D01*
X432499Y191133D01*
X432543Y191242D01*
X432544Y191249D01*
X432545Y191254D01*
X432546Y191272D01*
X432561Y191408D01*
X432561Y197177D01*
X432547Y197267D01*
X432539Y197358D01*
X432527Y197388D01*
X432522Y197420D01*
X432479Y197500D01*
X432443Y197584D01*
X432417Y197616D01*
X432406Y197637D01*
X432383Y197659D01*
X432338Y197715D01*
X414250Y215803D01*
X414176Y215856D01*
X414107Y215916D01*
X414077Y215928D01*
X414050Y215947D01*
X413963Y215974D01*
X413879Y216008D01*
X413838Y216012D01*
X413815Y216019D01*
X413783Y216018D01*
X413712Y216026D01*
X397183Y216026D01*
X397112Y216015D01*
X397041Y216013D01*
X396992Y215995D01*
X396940Y215987D01*
X396877Y215953D01*
X396810Y215928D01*
X396769Y215896D01*
X396723Y215871D01*
X396674Y215819D01*
X396618Y215775D01*
X396589Y215731D01*
X396554Y215693D01*
X396523Y215628D01*
X396485Y215568D01*
X396472Y215517D01*
X396450Y215470D01*
X396442Y215399D01*
X396425Y215329D01*
X396429Y215277D01*
X396423Y215226D01*
X396438Y215155D01*
X396444Y215084D01*
X396464Y215036D01*
X396475Y214985D01*
X396512Y214924D01*
X396540Y214858D01*
X396585Y214802D01*
X396601Y214774D01*
X396619Y214759D01*
X396645Y214727D01*
X397562Y213810D01*
X397636Y213757D01*
X397705Y213697D01*
X397735Y213685D01*
X397762Y213666D01*
X397849Y213639D01*
X397933Y213605D01*
X397974Y213601D01*
X397997Y213594D01*
X398029Y213595D01*
X398100Y213587D01*
X400978Y213587D01*
X404087Y210478D01*
X404087Y206082D01*
X400978Y202973D01*
X398189Y202973D01*
X398119Y202962D01*
X398047Y202960D01*
X397998Y202942D01*
X397947Y202934D01*
X397883Y202900D01*
X397816Y202875D01*
X397775Y202843D01*
X397729Y202818D01*
X397680Y202766D01*
X397624Y202722D01*
X397596Y202678D01*
X397560Y202640D01*
X397530Y202575D01*
X397491Y202515D01*
X397478Y202464D01*
X397456Y202417D01*
X397448Y202346D01*
X397431Y202276D01*
X397435Y202224D01*
X397429Y202173D01*
X397444Y202102D01*
X397450Y202031D01*
X397470Y201983D01*
X397481Y201932D01*
X397518Y201871D01*
X397546Y201805D01*
X397591Y201749D01*
X397608Y201721D01*
X397625Y201706D01*
X397651Y201674D01*
X399007Y200318D01*
X399007Y195922D01*
X395898Y192813D01*
X391502Y192813D01*
X388393Y195922D01*
X388393Y198800D01*
X388379Y198890D01*
X388371Y198981D01*
X388359Y199011D01*
X388354Y199043D01*
X388311Y199123D01*
X388275Y199207D01*
X388249Y199239D01*
X388238Y199260D01*
X388215Y199282D01*
X388170Y199338D01*
X384405Y203103D01*
X384331Y203156D01*
X384262Y203216D01*
X384232Y203228D01*
X384205Y203247D01*
X384118Y203274D01*
X384034Y203308D01*
X383993Y203312D01*
X383970Y203319D01*
X383938Y203318D01*
X383867Y203326D01*
X337827Y203326D01*
X334875Y206278D01*
X334801Y206331D01*
X334732Y206391D01*
X334702Y206403D01*
X334675Y206422D01*
X334588Y206449D01*
X334504Y206483D01*
X334463Y206487D01*
X334440Y206494D01*
X334408Y206493D01*
X334337Y206501D01*
X262563Y206501D01*
X262473Y206487D01*
X262382Y206479D01*
X262352Y206467D01*
X262320Y206462D01*
X262240Y206419D01*
X262156Y206383D01*
X262124Y206357D01*
X262103Y206346D01*
X262081Y206323D01*
X262025Y206278D01*
X260343Y204596D01*
X256231Y204596D01*
X256141Y204582D01*
X256050Y204574D01*
X256021Y204562D01*
X255989Y204557D01*
X255908Y204514D01*
X255824Y204478D01*
X255792Y204452D01*
X255771Y204441D01*
X255749Y204418D01*
X255693Y204373D01*
X253658Y202338D01*
X249262Y202338D01*
X246153Y205447D01*
X246153Y209524D01*
X246142Y209595D01*
X246140Y209666D01*
X246122Y209715D01*
X246114Y209767D01*
X246080Y209830D01*
X246055Y209897D01*
X246023Y209938D01*
X245998Y209984D01*
X245946Y210033D01*
X245902Y210089D01*
X245858Y210118D01*
X245820Y210153D01*
X245755Y210184D01*
X245695Y210222D01*
X245644Y210235D01*
X245597Y210257D01*
X245526Y210265D01*
X245456Y210282D01*
X245404Y210278D01*
X245353Y210284D01*
X245282Y210269D01*
X245211Y210263D01*
X245163Y210243D01*
X245112Y210232D01*
X245051Y210195D01*
X244985Y210167D01*
X244929Y210122D01*
X244901Y210106D01*
X244886Y210088D01*
X244854Y210062D01*
X243020Y208228D01*
X242967Y208154D01*
X242907Y208085D01*
X242895Y208055D01*
X242876Y208028D01*
X242849Y207941D01*
X242815Y207857D01*
X242811Y207816D01*
X242804Y207793D01*
X242805Y207761D01*
X242797Y207690D01*
X242797Y205447D01*
X239688Y202338D01*
X235292Y202338D01*
X232183Y205447D01*
X232183Y209843D01*
X235292Y212952D01*
X238805Y212952D01*
X238895Y212966D01*
X238986Y212974D01*
X239016Y212986D01*
X239048Y212991D01*
X239128Y213034D01*
X239212Y213070D01*
X239244Y213096D01*
X239265Y213107D01*
X239287Y213130D01*
X239343Y213175D01*
X244990Y218822D01*
X284934Y218822D01*
X285005Y218833D01*
X285076Y218835D01*
X285125Y218853D01*
X285177Y218861D01*
X285240Y218895D01*
X285307Y218920D01*
X285348Y218952D01*
X285394Y218977D01*
X285443Y219029D01*
X285499Y219073D01*
X285528Y219117D01*
X285563Y219155D01*
X285594Y219220D01*
X285632Y219280D01*
X285645Y219331D01*
X285667Y219378D01*
X285675Y219449D01*
X285692Y219519D01*
X285688Y219571D01*
X285694Y219622D01*
X285679Y219693D01*
X285673Y219764D01*
X285653Y219812D01*
X285642Y219863D01*
X285605Y219924D01*
X285577Y219990D01*
X285532Y220046D01*
X285516Y220074D01*
X285498Y220089D01*
X285472Y220121D01*
X245340Y260253D01*
X243331Y262262D01*
X243331Y269549D01*
X243320Y269619D01*
X243318Y269691D01*
X243300Y269740D01*
X243292Y269791D01*
X243258Y269855D01*
X243233Y269922D01*
X243201Y269963D01*
X243176Y270009D01*
X243124Y270058D01*
X243080Y270114D01*
X243036Y270142D01*
X242998Y270178D01*
X242933Y270208D01*
X242873Y270247D01*
X242822Y270260D01*
X242775Y270282D01*
X242704Y270290D01*
X242634Y270307D01*
X242582Y270303D01*
X242531Y270309D01*
X242460Y270294D01*
X242389Y270288D01*
X242341Y270268D01*
X242290Y270257D01*
X242229Y270220D01*
X242163Y270192D01*
X242107Y270147D01*
X242079Y270130D01*
X242064Y270113D01*
X242032Y270087D01*
X239053Y267108D01*
X234657Y267108D01*
X232477Y269288D01*
X232403Y269341D01*
X232333Y269401D01*
X232303Y269413D01*
X232277Y269432D01*
X232190Y269459D01*
X232105Y269493D01*
X232064Y269497D01*
X232042Y269504D01*
X232010Y269503D01*
X231939Y269511D01*
X228781Y269511D01*
X228711Y269500D01*
X228639Y269498D01*
X228590Y269480D01*
X228539Y269472D01*
X228475Y269438D01*
X228408Y269413D01*
X228367Y269381D01*
X228321Y269356D01*
X228272Y269304D01*
X228216Y269260D01*
X228188Y269216D01*
X228152Y269178D01*
X228122Y269113D01*
X228083Y269053D01*
X228070Y269002D01*
X228048Y268955D01*
X228040Y268884D01*
X228023Y268814D01*
X228027Y268762D01*
X228021Y268711D01*
X228036Y268640D01*
X228042Y268569D01*
X228062Y268521D01*
X228073Y268470D01*
X228110Y268409D01*
X228138Y268343D01*
X228183Y268287D01*
X228200Y268259D01*
X228217Y268244D01*
X228243Y268212D01*
X230732Y265723D01*
X230732Y261327D01*
X227623Y258218D01*
X223227Y258218D01*
X221347Y260098D01*
X221273Y260151D01*
X221203Y260211D01*
X221173Y260223D01*
X221147Y260242D01*
X221060Y260269D01*
X220975Y260303D01*
X220934Y260307D01*
X220912Y260314D01*
X220880Y260313D01*
X220809Y260321D01*
X218286Y260321D01*
X218216Y260310D01*
X218144Y260308D01*
X218095Y260290D01*
X218044Y260282D01*
X217980Y260248D01*
X217913Y260223D01*
X217872Y260191D01*
X217826Y260166D01*
X217777Y260114D01*
X217721Y260070D01*
X217693Y260026D01*
X217657Y259988D01*
X217627Y259923D01*
X217588Y259863D01*
X217575Y259812D01*
X217553Y259765D01*
X217545Y259694D01*
X217528Y259624D01*
X217532Y259572D01*
X217526Y259521D01*
X217541Y259450D01*
X217547Y259379D01*
X217567Y259331D01*
X217578Y259280D01*
X217615Y259219D01*
X217643Y259153D01*
X217688Y259097D01*
X217705Y259069D01*
X217722Y259054D01*
X217748Y259022D01*
X219937Y256833D01*
X219937Y252437D01*
X216828Y249328D01*
X212432Y249328D01*
X210270Y251490D01*
X210196Y251543D01*
X210126Y251603D01*
X210096Y251615D01*
X210070Y251634D01*
X209983Y251661D01*
X209898Y251695D01*
X209857Y251699D01*
X209835Y251706D01*
X209803Y251705D01*
X209732Y251713D01*
X207209Y251713D01*
X207139Y251702D01*
X207067Y251700D01*
X207018Y251682D01*
X206967Y251674D01*
X206903Y251640D01*
X206836Y251615D01*
X206795Y251583D01*
X206749Y251558D01*
X206700Y251506D01*
X206644Y251462D01*
X206616Y251418D01*
X206580Y251380D01*
X206550Y251315D01*
X206511Y251255D01*
X206498Y251204D01*
X206476Y251157D01*
X206468Y251086D01*
X206451Y251016D01*
X206455Y250964D01*
X206449Y250913D01*
X206464Y250842D01*
X206470Y250771D01*
X206490Y250723D01*
X206501Y250672D01*
X206538Y250611D01*
X206566Y250545D01*
X206611Y250489D01*
X206628Y250461D01*
X206645Y250446D01*
X206671Y250414D01*
X208507Y248578D01*
X208507Y244182D01*
X205398Y241073D01*
X201002Y241073D01*
X198967Y243108D01*
X198893Y243161D01*
X198823Y243221D01*
X198793Y243233D01*
X198767Y243252D01*
X198680Y243279D01*
X198595Y243313D01*
X198554Y243317D01*
X198532Y243324D01*
X198500Y243323D01*
X198429Y243331D01*
X197176Y243331D01*
X197106Y243320D01*
X197034Y243318D01*
X196985Y243300D01*
X196934Y243292D01*
X196870Y243258D01*
X196803Y243233D01*
X196762Y243201D01*
X196716Y243176D01*
X196667Y243124D01*
X196611Y243080D01*
X196583Y243036D01*
X196547Y242998D01*
X196517Y242933D01*
X196478Y242873D01*
X196465Y242822D01*
X196443Y242775D01*
X196435Y242704D01*
X196418Y242634D01*
X196422Y242582D01*
X196416Y242531D01*
X196431Y242460D01*
X196437Y242389D01*
X196457Y242341D01*
X196468Y242290D01*
X196505Y242229D01*
X196533Y242163D01*
X196578Y242107D01*
X196595Y242079D01*
X196612Y242064D01*
X196638Y242032D01*
X198347Y240323D01*
X198347Y235927D01*
X195238Y232818D01*
X192360Y232818D01*
X192270Y232804D01*
X192179Y232796D01*
X192149Y232784D01*
X192117Y232779D01*
X192037Y232736D01*
X191953Y232700D01*
X191921Y232674D01*
X191900Y232663D01*
X191878Y232640D01*
X191822Y232595D01*
X179167Y219940D01*
X178205Y218978D01*
X178163Y218920D01*
X178114Y218868D01*
X178092Y218821D01*
X178061Y218779D01*
X178040Y218710D01*
X178010Y218645D01*
X178004Y218593D01*
X177989Y218543D01*
X177991Y218472D01*
X177983Y218401D01*
X177994Y218350D01*
X177995Y218298D01*
X178020Y218230D01*
X178035Y218160D01*
X178062Y218115D01*
X178080Y218067D01*
X178125Y218011D01*
X178161Y217949D01*
X178201Y217915D01*
X178233Y217875D01*
X178294Y217836D01*
X178348Y217789D01*
X178397Y217770D01*
X178440Y217742D01*
X178510Y217724D01*
X178576Y217697D01*
X178648Y217689D01*
X178679Y217681D01*
X178702Y217683D01*
X178743Y217679D01*
X186382Y217679D01*
X186472Y217693D01*
X186563Y217701D01*
X186593Y217713D01*
X186625Y217718D01*
X186705Y217761D01*
X186789Y217797D01*
X186821Y217823D01*
X186842Y217834D01*
X186864Y217857D01*
X186920Y217902D01*
X198305Y229287D01*
X198358Y229361D01*
X198418Y229430D01*
X198430Y229460D01*
X198449Y229487D01*
X198476Y229574D01*
X198510Y229658D01*
X198514Y229699D01*
X198521Y229722D01*
X198520Y229754D01*
X198528Y229825D01*
X198528Y232703D01*
X201637Y235812D01*
X206033Y235812D01*
X209142Y232703D01*
X209142Y228307D01*
X206033Y225198D01*
X203155Y225198D01*
X203065Y225184D01*
X202974Y225176D01*
X202944Y225164D01*
X202912Y225159D01*
X202832Y225116D01*
X202748Y225080D01*
X202716Y225054D01*
X202695Y225043D01*
X202673Y225020D01*
X202617Y224975D01*
X191232Y213590D01*
X190596Y212954D01*
X190554Y212896D01*
X190505Y212844D01*
X190483Y212797D01*
X190452Y212755D01*
X190431Y212686D01*
X190401Y212621D01*
X190395Y212569D01*
X190380Y212519D01*
X190382Y212448D01*
X190374Y212377D01*
X190385Y212326D01*
X190386Y212274D01*
X190411Y212206D01*
X190426Y212136D01*
X190453Y212091D01*
X190471Y212043D01*
X190516Y211987D01*
X190552Y211925D01*
X190592Y211891D01*
X190624Y211851D01*
X190685Y211812D01*
X190739Y211765D01*
X190788Y211746D01*
X190831Y211718D01*
X190901Y211700D01*
X190967Y211673D01*
X191039Y211665D01*
X191070Y211657D01*
X191093Y211659D01*
X191134Y211655D01*
X198773Y211655D01*
X198863Y211669D01*
X198954Y211677D01*
X198984Y211689D01*
X199016Y211694D01*
X199096Y211737D01*
X199180Y211773D01*
X199212Y211799D01*
X199233Y211810D01*
X199255Y211833D01*
X199311Y211878D01*
X209100Y221667D01*
X209153Y221741D01*
X209213Y221810D01*
X209225Y221840D01*
X209244Y221867D01*
X209271Y221954D01*
X209305Y222038D01*
X209309Y222079D01*
X209316Y222102D01*
X209315Y222134D01*
X209323Y222205D01*
X209323Y225083D01*
X212432Y228192D01*
X216828Y228192D01*
X219937Y225083D01*
X219937Y220687D01*
X216828Y217578D01*
X213950Y217578D01*
X213860Y217564D01*
X213769Y217556D01*
X213739Y217544D01*
X213707Y217539D01*
X213627Y217496D01*
X213543Y217460D01*
X213511Y217434D01*
X213490Y217423D01*
X213468Y217400D01*
X213412Y217355D01*
X203623Y207566D01*
X203169Y207112D01*
X203127Y207054D01*
X203078Y207002D01*
X203056Y206955D01*
X203025Y206913D01*
X203004Y206844D01*
X202974Y206779D01*
X202968Y206727D01*
X202953Y206677D01*
X202955Y206606D01*
X202947Y206535D01*
X202958Y206484D01*
X202959Y206432D01*
X202984Y206364D01*
X202999Y206294D01*
X203026Y206249D01*
X203044Y206201D01*
X203089Y206145D01*
X203125Y206083D01*
X203165Y206049D01*
X203197Y206009D01*
X203258Y205970D01*
X203312Y205923D01*
X203361Y205904D01*
X203404Y205876D01*
X203474Y205858D01*
X203540Y205831D01*
X203612Y205823D01*
X203643Y205815D01*
X203666Y205817D01*
X203707Y205813D01*
X211346Y205813D01*
X211436Y205827D01*
X211527Y205835D01*
X211557Y205847D01*
X211589Y205852D01*
X211669Y205895D01*
X211753Y205931D01*
X211785Y205957D01*
X211806Y205968D01*
X211828Y205991D01*
X211884Y206036D01*
X219895Y214047D01*
X219948Y214121D01*
X220008Y214190D01*
X220020Y214220D01*
X220039Y214247D01*
X220066Y214334D01*
X220100Y214418D01*
X220104Y214459D01*
X220111Y214482D01*
X220110Y214514D01*
X220118Y214585D01*
X220118Y217463D01*
X223227Y220572D01*
X227623Y220572D01*
X230732Y217463D01*
X230732Y213067D01*
X227623Y209958D01*
X224745Y209958D01*
X224655Y209944D01*
X224564Y209936D01*
X224534Y209924D01*
X224502Y209919D01*
X224422Y209876D01*
X224338Y209840D01*
X224306Y209814D01*
X224285Y209803D01*
X224263Y209780D01*
X224207Y209735D01*
X214187Y199715D01*
X110997Y199715D01*
X110907Y199701D01*
X110816Y199693D01*
X110786Y199681D01*
X110754Y199676D01*
X110674Y199633D01*
X110590Y199597D01*
X110558Y199571D01*
X110537Y199560D01*
X110534Y199557D01*
X110514Y199537D01*
X110459Y199492D01*
X100109Y189143D01*
X100056Y189069D01*
X99997Y188999D01*
X99984Y188969D01*
X99966Y188943D01*
X99939Y188856D01*
X99905Y188771D01*
X99900Y188730D01*
X99893Y188708D01*
X99894Y188676D01*
X99886Y188604D01*
X99886Y183205D01*
X41372Y124690D01*
X41319Y124616D01*
X41259Y124547D01*
X41247Y124517D01*
X41228Y124490D01*
X41201Y124403D01*
X41167Y124319D01*
X41163Y124278D01*
X41156Y124255D01*
X41157Y124223D01*
X41149Y124152D01*
X41149Y96211D01*
X41160Y96142D01*
X41162Y96071D01*
X41180Y96021D01*
X41188Y95969D01*
X41221Y95906D01*
X41246Y95840D01*
X41279Y95798D01*
X41304Y95751D01*
X41355Y95703D01*
X41399Y95647D01*
X41443Y95618D01*
X41482Y95582D01*
X41546Y95552D01*
X41605Y95514D01*
X41657Y95501D01*
X41705Y95478D01*
X41775Y95470D01*
X41844Y95453D01*
X41897Y95457D01*
X41949Y95451D01*
X42019Y95466D01*
X42089Y95471D01*
X42138Y95492D01*
X42190Y95503D01*
X42250Y95540D01*
X42316Y95567D01*
X42355Y95602D01*
X42401Y95630D01*
X42447Y95683D01*
X42500Y95730D01*
X42540Y95792D01*
X42561Y95817D01*
X42569Y95838D01*
X42591Y95871D01*
X42618Y95959D01*
X42653Y96045D01*
X42657Y96084D01*
X42664Y96106D01*
X42663Y96138D01*
X42671Y96211D01*
X42671Y110483D01*
X73838Y141649D01*
X73905Y141743D01*
X73976Y141838D01*
X73978Y141844D01*
X73981Y141849D01*
X74015Y141960D01*
X74052Y142072D01*
X74052Y142078D01*
X74054Y142084D01*
X74050Y142201D01*
X74049Y142318D01*
X74047Y142325D01*
X74047Y142330D01*
X74041Y142347D01*
X74003Y142479D01*
X72897Y145147D01*
X72897Y149493D01*
X74560Y153507D01*
X77633Y156580D01*
X81647Y158243D01*
X85993Y158243D01*
X90007Y156580D01*
X93080Y153507D01*
X94743Y149493D01*
X94743Y145147D01*
X93080Y141133D01*
X90007Y138060D01*
X85993Y136397D01*
X81647Y136397D01*
X78979Y137503D01*
X78865Y137529D01*
X78752Y137558D01*
X78745Y137557D01*
X78739Y137559D01*
X78623Y137548D01*
X78506Y137539D01*
X78501Y137536D01*
X78494Y137536D01*
X78387Y137488D01*
X78280Y137442D01*
X78274Y137438D01*
X78270Y137436D01*
X78256Y137423D01*
X78149Y137338D01*
X48992Y108180D01*
X48939Y108106D01*
X48879Y108037D01*
X48867Y108007D01*
X48848Y107980D01*
X48821Y107893D01*
X48787Y107809D01*
X48783Y107768D01*
X48776Y107745D01*
X48777Y107713D01*
X48769Y107642D01*
X48769Y96211D01*
X48783Y96121D01*
X48791Y96030D01*
X48803Y96001D01*
X48808Y95969D01*
X48851Y95888D01*
X48887Y95804D01*
X48913Y95772D01*
X48924Y95751D01*
X48947Y95729D01*
X48992Y95673D01*
X51027Y93638D01*
X51027Y89242D01*
X47918Y86133D01*
X43522Y86133D01*
X42448Y87207D01*
X42390Y87249D01*
X42338Y87298D01*
X42291Y87320D01*
X42249Y87350D01*
X42180Y87372D01*
X42115Y87402D01*
X42063Y87407D01*
X42013Y87423D01*
X41942Y87421D01*
X41871Y87429D01*
X41820Y87418D01*
X41768Y87416D01*
X41700Y87392D01*
X41630Y87377D01*
X41585Y87350D01*
X41537Y87332D01*
X41481Y87287D01*
X41419Y87250D01*
X41385Y87211D01*
X41345Y87178D01*
X41306Y87118D01*
X41259Y87063D01*
X41240Y87015D01*
X41212Y86971D01*
X41194Y86902D01*
X41167Y86835D01*
X41159Y86764D01*
X41151Y86733D01*
X41153Y86710D01*
X41149Y86669D01*
X41149Y55252D01*
X22222Y36326D01*
X22155Y36232D01*
X22084Y36137D01*
X22082Y36131D01*
X22079Y36126D01*
X22045Y36015D01*
X22008Y35903D01*
X22008Y35897D01*
X22006Y35891D01*
X22009Y35774D01*
X22011Y35657D01*
X22013Y35650D01*
X22013Y35645D01*
X22019Y35627D01*
X22057Y35496D01*
X22568Y34264D01*
X22568Y30856D01*
X21264Y27708D01*
X18855Y25299D01*
X15707Y23995D01*
X12299Y23995D01*
X11213Y24445D01*
X11169Y24456D01*
X11127Y24475D01*
X11050Y24484D01*
X10974Y24501D01*
X10928Y24497D01*
X10883Y24502D01*
X10806Y24486D01*
X10729Y24478D01*
X10687Y24460D01*
X10642Y24450D01*
X10575Y24410D01*
X10504Y24378D01*
X10470Y24347D01*
X10431Y24324D01*
X10380Y24265D01*
X10323Y24212D01*
X10301Y24172D01*
X10271Y24137D01*
X10242Y24064D01*
X10205Y23996D01*
X10196Y23951D01*
X10179Y23909D01*
X10164Y23773D01*
X10161Y23754D01*
X10162Y23749D01*
X10161Y23742D01*
X10161Y21378D01*
X10168Y21333D01*
X10166Y21287D01*
X10188Y21212D01*
X10200Y21135D01*
X10222Y21095D01*
X10235Y21051D01*
X10279Y20987D01*
X10316Y20918D01*
X10349Y20886D01*
X10375Y20849D01*
X10437Y20802D01*
X10494Y20749D01*
X10536Y20729D01*
X10572Y20702D01*
X10646Y20678D01*
X10717Y20645D01*
X10763Y20640D01*
X10806Y20626D01*
X10884Y20627D01*
X10961Y20618D01*
X11006Y20628D01*
X11052Y20628D01*
X11184Y20666D01*
X11202Y20670D01*
X11206Y20673D01*
X11213Y20675D01*
X12299Y21125D01*
X15707Y21125D01*
X18855Y19821D01*
X21264Y17412D01*
X22568Y14264D01*
X22568Y10922D01*
X22571Y10902D01*
X22569Y10883D01*
X22591Y10781D01*
X22607Y10679D01*
X22617Y10662D01*
X22621Y10642D01*
X22674Y10553D01*
X22723Y10462D01*
X22737Y10448D01*
X22747Y10431D01*
X22826Y10364D01*
X22901Y10292D01*
X22919Y10284D01*
X22934Y10271D01*
X23030Y10232D01*
X23124Y10189D01*
X23144Y10187D01*
X23162Y10179D01*
X23329Y10161D01*
X75258Y10161D01*
X75328Y10172D01*
G37*
G36*
X534871Y10164D02*
X534871Y10164D01*
X534891Y10162D01*
X534992Y10184D01*
X535094Y10200D01*
X535112Y10210D01*
X535131Y10214D01*
X535220Y10267D01*
X535311Y10316D01*
X535325Y10330D01*
X535342Y10340D01*
X535409Y10419D01*
X535481Y10494D01*
X535489Y10512D01*
X535502Y10527D01*
X535541Y10623D01*
X535584Y10717D01*
X535587Y10737D01*
X535594Y10755D01*
X535612Y10922D01*
X535612Y14264D01*
X536916Y17412D01*
X539326Y19821D01*
X542474Y21125D01*
X545881Y21125D01*
X546787Y20750D01*
X546831Y20739D01*
X546873Y20720D01*
X546950Y20711D01*
X547026Y20693D01*
X547072Y20698D01*
X547117Y20693D01*
X547193Y20709D01*
X547271Y20716D01*
X547313Y20735D01*
X547358Y20745D01*
X547425Y20785D01*
X547496Y20816D01*
X547529Y20848D01*
X547569Y20871D01*
X547619Y20930D01*
X547677Y20983D01*
X547699Y21023D01*
X547729Y21058D01*
X547758Y21130D01*
X547795Y21198D01*
X547804Y21244D01*
X547821Y21286D01*
X547836Y21422D01*
X547839Y21440D01*
X547838Y21445D01*
X547839Y21453D01*
X547839Y23667D01*
X547832Y23712D01*
X547834Y23758D01*
X547812Y23833D01*
X547799Y23910D01*
X547778Y23950D01*
X547765Y23995D01*
X547721Y24059D01*
X547684Y24127D01*
X547651Y24159D01*
X547625Y24197D01*
X547562Y24243D01*
X547506Y24297D01*
X547464Y24316D01*
X547428Y24343D01*
X547353Y24367D01*
X547283Y24400D01*
X547237Y24405D01*
X547194Y24420D01*
X547116Y24419D01*
X547038Y24427D01*
X546994Y24418D01*
X546948Y24417D01*
X546816Y24379D01*
X546798Y24375D01*
X546794Y24373D01*
X546787Y24370D01*
X545881Y23995D01*
X542474Y23995D01*
X539326Y25299D01*
X536916Y27708D01*
X535612Y30856D01*
X535612Y34264D01*
X536916Y37412D01*
X539326Y39821D01*
X542474Y41125D01*
X545881Y41125D01*
X546787Y40750D01*
X546831Y40739D01*
X546873Y40720D01*
X546950Y40711D01*
X547026Y40693D01*
X547072Y40698D01*
X547117Y40693D01*
X547193Y40709D01*
X547271Y40716D01*
X547313Y40735D01*
X547358Y40745D01*
X547425Y40785D01*
X547496Y40816D01*
X547529Y40848D01*
X547569Y40871D01*
X547619Y40930D01*
X547677Y40983D01*
X547699Y41023D01*
X547729Y41058D01*
X547758Y41130D01*
X547795Y41198D01*
X547804Y41244D01*
X547821Y41286D01*
X547836Y41422D01*
X547839Y41440D01*
X547838Y41445D01*
X547839Y41453D01*
X547839Y43667D01*
X547837Y43682D01*
X547838Y43695D01*
X547832Y43723D01*
X547834Y43758D01*
X547812Y43833D01*
X547799Y43910D01*
X547786Y43935D01*
X547786Y43936D01*
X547785Y43936D01*
X547778Y43950D01*
X547765Y43995D01*
X547721Y44059D01*
X547684Y44127D01*
X547651Y44159D01*
X547625Y44197D01*
X547562Y44243D01*
X547506Y44297D01*
X547464Y44316D01*
X547428Y44343D01*
X547353Y44367D01*
X547283Y44400D01*
X547237Y44405D01*
X547194Y44420D01*
X547116Y44419D01*
X547038Y44427D01*
X546994Y44418D01*
X546948Y44417D01*
X546816Y44379D01*
X546809Y44377D01*
X546808Y44377D01*
X546807Y44377D01*
X546798Y44375D01*
X546794Y44373D01*
X546787Y44370D01*
X545881Y43995D01*
X542474Y43995D01*
X539326Y45299D01*
X536916Y47708D01*
X535612Y50856D01*
X535612Y54264D01*
X536916Y57412D01*
X539326Y59821D01*
X542474Y61125D01*
X545881Y61125D01*
X546787Y60750D01*
X546831Y60739D01*
X546873Y60720D01*
X546950Y60711D01*
X547026Y60693D01*
X547072Y60698D01*
X547117Y60693D01*
X547193Y60709D01*
X547271Y60716D01*
X547313Y60735D01*
X547358Y60745D01*
X547425Y60785D01*
X547496Y60816D01*
X547529Y60848D01*
X547569Y60871D01*
X547619Y60930D01*
X547677Y60983D01*
X547699Y61023D01*
X547729Y61058D01*
X547758Y61130D01*
X547795Y61198D01*
X547804Y61244D01*
X547821Y61286D01*
X547836Y61422D01*
X547839Y61440D01*
X547838Y61445D01*
X547839Y61453D01*
X547839Y63667D01*
X547832Y63712D01*
X547834Y63758D01*
X547812Y63833D01*
X547799Y63910D01*
X547778Y63950D01*
X547765Y63995D01*
X547721Y64059D01*
X547684Y64127D01*
X547651Y64159D01*
X547625Y64197D01*
X547562Y64243D01*
X547506Y64297D01*
X547464Y64316D01*
X547428Y64343D01*
X547353Y64367D01*
X547283Y64400D01*
X547237Y64405D01*
X547194Y64420D01*
X547116Y64419D01*
X547038Y64427D01*
X546994Y64418D01*
X546948Y64417D01*
X546816Y64379D01*
X546798Y64375D01*
X546794Y64373D01*
X546787Y64370D01*
X545881Y63995D01*
X542474Y63995D01*
X539326Y65299D01*
X536916Y67708D01*
X535612Y70856D01*
X535612Y74264D01*
X536916Y77412D01*
X539326Y79821D01*
X542474Y81125D01*
X545881Y81125D01*
X546787Y80750D01*
X546831Y80739D01*
X546873Y80720D01*
X546950Y80711D01*
X547026Y80693D01*
X547072Y80698D01*
X547117Y80693D01*
X547193Y80709D01*
X547271Y80716D01*
X547313Y80735D01*
X547358Y80745D01*
X547425Y80785D01*
X547496Y80816D01*
X547529Y80848D01*
X547569Y80871D01*
X547619Y80930D01*
X547677Y80983D01*
X547699Y81023D01*
X547729Y81058D01*
X547758Y81130D01*
X547795Y81198D01*
X547804Y81244D01*
X547821Y81286D01*
X547836Y81422D01*
X547839Y81440D01*
X547838Y81445D01*
X547839Y81453D01*
X547839Y83667D01*
X547832Y83712D01*
X547834Y83758D01*
X547812Y83833D01*
X547799Y83910D01*
X547778Y83950D01*
X547765Y83995D01*
X547721Y84059D01*
X547684Y84127D01*
X547651Y84159D01*
X547625Y84197D01*
X547562Y84243D01*
X547506Y84297D01*
X547464Y84316D01*
X547428Y84343D01*
X547353Y84367D01*
X547283Y84400D01*
X547237Y84405D01*
X547194Y84420D01*
X547116Y84419D01*
X547038Y84427D01*
X546994Y84418D01*
X546948Y84417D01*
X546816Y84379D01*
X546798Y84375D01*
X546794Y84373D01*
X546787Y84370D01*
X545881Y83995D01*
X542474Y83995D01*
X539326Y85299D01*
X536916Y87708D01*
X535612Y90856D01*
X535612Y94264D01*
X536916Y97412D01*
X539326Y99821D01*
X542474Y101125D01*
X545881Y101125D01*
X546787Y100750D01*
X546831Y100739D01*
X546873Y100720D01*
X546950Y100711D01*
X547026Y100693D01*
X547072Y100698D01*
X547117Y100693D01*
X547193Y100709D01*
X547271Y100716D01*
X547313Y100735D01*
X547358Y100745D01*
X547425Y100785D01*
X547496Y100816D01*
X547529Y100848D01*
X547569Y100871D01*
X547619Y100930D01*
X547677Y100983D01*
X547699Y101023D01*
X547729Y101058D01*
X547758Y101130D01*
X547795Y101198D01*
X547804Y101244D01*
X547821Y101286D01*
X547836Y101422D01*
X547839Y101440D01*
X547838Y101445D01*
X547839Y101453D01*
X547839Y103667D01*
X547832Y103712D01*
X547834Y103758D01*
X547812Y103833D01*
X547799Y103910D01*
X547778Y103950D01*
X547765Y103995D01*
X547721Y104059D01*
X547684Y104127D01*
X547651Y104159D01*
X547625Y104197D01*
X547563Y104243D01*
X547506Y104297D01*
X547464Y104316D01*
X547428Y104343D01*
X547354Y104367D01*
X547283Y104400D01*
X547237Y104405D01*
X547194Y104420D01*
X547116Y104419D01*
X547038Y104427D01*
X546994Y104418D01*
X546948Y104417D01*
X546817Y104379D01*
X546798Y104375D01*
X546794Y104373D01*
X546787Y104370D01*
X545881Y103995D01*
X542474Y103995D01*
X539326Y105299D01*
X536916Y107708D01*
X535612Y110856D01*
X535612Y114264D01*
X536916Y117412D01*
X539326Y119821D01*
X542474Y121125D01*
X545881Y121125D01*
X546787Y120750D01*
X546831Y120739D01*
X546873Y120720D01*
X546950Y120711D01*
X547026Y120693D01*
X547072Y120698D01*
X547117Y120693D01*
X547193Y120709D01*
X547271Y120716D01*
X547313Y120735D01*
X547358Y120745D01*
X547425Y120785D01*
X547496Y120816D01*
X547530Y120848D01*
X547569Y120871D01*
X547619Y120930D01*
X547677Y120983D01*
X547699Y121023D01*
X547729Y121058D01*
X547758Y121130D01*
X547795Y121198D01*
X547804Y121244D01*
X547821Y121286D01*
X547836Y121422D01*
X547839Y121440D01*
X547838Y121445D01*
X547839Y121453D01*
X547839Y123667D01*
X547832Y123712D01*
X547834Y123758D01*
X547812Y123833D01*
X547799Y123910D01*
X547778Y123950D01*
X547765Y123995D01*
X547721Y124059D01*
X547684Y124127D01*
X547651Y124159D01*
X547625Y124197D01*
X547563Y124243D01*
X547506Y124297D01*
X547464Y124316D01*
X547428Y124343D01*
X547354Y124367D01*
X547283Y124400D01*
X547237Y124405D01*
X547194Y124420D01*
X547116Y124419D01*
X547038Y124427D01*
X546994Y124418D01*
X546948Y124417D01*
X546817Y124379D01*
X546798Y124375D01*
X546794Y124373D01*
X546787Y124370D01*
X545881Y123995D01*
X542474Y123995D01*
X539326Y125299D01*
X536916Y127708D01*
X535612Y130856D01*
X535612Y134264D01*
X536916Y137412D01*
X539326Y139821D01*
X542474Y141125D01*
X545881Y141125D01*
X546787Y140750D01*
X546831Y140739D01*
X546873Y140720D01*
X546950Y140711D01*
X547026Y140693D01*
X547072Y140698D01*
X547117Y140693D01*
X547193Y140709D01*
X547271Y140716D01*
X547313Y140735D01*
X547358Y140745D01*
X547425Y140785D01*
X547496Y140816D01*
X547530Y140848D01*
X547569Y140871D01*
X547619Y140930D01*
X547677Y140983D01*
X547699Y141023D01*
X547729Y141058D01*
X547758Y141130D01*
X547795Y141198D01*
X547804Y141244D01*
X547821Y141286D01*
X547836Y141422D01*
X547839Y141440D01*
X547838Y141445D01*
X547839Y141453D01*
X547839Y143667D01*
X547832Y143712D01*
X547834Y143758D01*
X547812Y143833D01*
X547799Y143910D01*
X547778Y143950D01*
X547765Y143995D01*
X547721Y144059D01*
X547684Y144127D01*
X547651Y144159D01*
X547625Y144197D01*
X547563Y144243D01*
X547506Y144297D01*
X547464Y144316D01*
X547428Y144343D01*
X547354Y144367D01*
X547283Y144400D01*
X547237Y144405D01*
X547194Y144420D01*
X547116Y144419D01*
X547038Y144427D01*
X546994Y144418D01*
X546948Y144417D01*
X546817Y144379D01*
X546798Y144375D01*
X546794Y144373D01*
X546787Y144370D01*
X545881Y143995D01*
X542474Y143995D01*
X539326Y145299D01*
X536916Y147708D01*
X535612Y150856D01*
X535612Y154264D01*
X536916Y157412D01*
X539326Y159821D01*
X542474Y161125D01*
X545881Y161125D01*
X546787Y160750D01*
X546831Y160739D01*
X546873Y160720D01*
X546950Y160711D01*
X547026Y160693D01*
X547072Y160698D01*
X547117Y160693D01*
X547193Y160709D01*
X547271Y160716D01*
X547313Y160735D01*
X547358Y160745D01*
X547425Y160785D01*
X547496Y160816D01*
X547530Y160848D01*
X547569Y160871D01*
X547619Y160930D01*
X547677Y160983D01*
X547699Y161023D01*
X547729Y161058D01*
X547758Y161130D01*
X547795Y161198D01*
X547804Y161244D01*
X547821Y161286D01*
X547836Y161422D01*
X547839Y161440D01*
X547838Y161445D01*
X547839Y161453D01*
X547839Y163667D01*
X547832Y163712D01*
X547834Y163758D01*
X547812Y163833D01*
X547799Y163910D01*
X547778Y163950D01*
X547765Y163995D01*
X547721Y164059D01*
X547684Y164127D01*
X547651Y164159D01*
X547625Y164197D01*
X547563Y164243D01*
X547506Y164297D01*
X547464Y164316D01*
X547428Y164343D01*
X547354Y164367D01*
X547283Y164400D01*
X547237Y164405D01*
X547194Y164420D01*
X547116Y164419D01*
X547038Y164427D01*
X546994Y164418D01*
X546948Y164417D01*
X546817Y164379D01*
X546798Y164375D01*
X546794Y164373D01*
X546787Y164370D01*
X545881Y163995D01*
X542474Y163995D01*
X539326Y165299D01*
X536916Y167708D01*
X535612Y170856D01*
X535612Y174264D01*
X536916Y177412D01*
X539326Y179821D01*
X542474Y181125D01*
X545881Y181125D01*
X546787Y180750D01*
X546831Y180739D01*
X546873Y180720D01*
X546950Y180711D01*
X547026Y180693D01*
X547072Y180698D01*
X547117Y180693D01*
X547193Y180709D01*
X547271Y180716D01*
X547313Y180735D01*
X547358Y180745D01*
X547425Y180785D01*
X547496Y180816D01*
X547530Y180848D01*
X547569Y180871D01*
X547619Y180930D01*
X547677Y180983D01*
X547699Y181023D01*
X547729Y181058D01*
X547758Y181130D01*
X547795Y181198D01*
X547804Y181244D01*
X547821Y181286D01*
X547836Y181422D01*
X547839Y181440D01*
X547838Y181445D01*
X547839Y181453D01*
X547839Y183667D01*
X547832Y183712D01*
X547834Y183758D01*
X547812Y183833D01*
X547799Y183910D01*
X547778Y183950D01*
X547765Y183995D01*
X547721Y184059D01*
X547684Y184127D01*
X547651Y184159D01*
X547625Y184197D01*
X547563Y184243D01*
X547506Y184297D01*
X547464Y184316D01*
X547428Y184343D01*
X547354Y184367D01*
X547283Y184400D01*
X547237Y184405D01*
X547194Y184420D01*
X547116Y184419D01*
X547038Y184427D01*
X546994Y184418D01*
X546948Y184417D01*
X546817Y184379D01*
X546798Y184375D01*
X546794Y184373D01*
X546787Y184370D01*
X545881Y183995D01*
X542474Y183995D01*
X539326Y185299D01*
X536916Y187708D01*
X535612Y190856D01*
X535612Y194264D01*
X536916Y197412D01*
X539326Y199821D01*
X542474Y201125D01*
X545881Y201125D01*
X546787Y200750D01*
X546831Y200739D01*
X546873Y200720D01*
X546950Y200711D01*
X547026Y200693D01*
X547072Y200698D01*
X547117Y200693D01*
X547193Y200709D01*
X547271Y200716D01*
X547313Y200735D01*
X547358Y200745D01*
X547425Y200785D01*
X547496Y200816D01*
X547530Y200848D01*
X547569Y200871D01*
X547619Y200930D01*
X547677Y200983D01*
X547699Y201023D01*
X547729Y201058D01*
X547758Y201130D01*
X547795Y201198D01*
X547804Y201244D01*
X547821Y201286D01*
X547836Y201422D01*
X547839Y201440D01*
X547838Y201445D01*
X547839Y201453D01*
X547839Y203667D01*
X547832Y203712D01*
X547834Y203758D01*
X547812Y203833D01*
X547799Y203910D01*
X547778Y203950D01*
X547765Y203995D01*
X547721Y204059D01*
X547684Y204127D01*
X547651Y204159D01*
X547625Y204197D01*
X547563Y204243D01*
X547506Y204297D01*
X547464Y204316D01*
X547428Y204343D01*
X547354Y204367D01*
X547283Y204400D01*
X547237Y204405D01*
X547194Y204420D01*
X547116Y204419D01*
X547038Y204427D01*
X546994Y204418D01*
X546948Y204417D01*
X546817Y204379D01*
X546798Y204375D01*
X546794Y204373D01*
X546787Y204370D01*
X545881Y203995D01*
X542474Y203995D01*
X539326Y205299D01*
X536916Y207708D01*
X535612Y210856D01*
X535612Y214264D01*
X536916Y217412D01*
X539326Y219821D01*
X542474Y221125D01*
X545881Y221125D01*
X546787Y220750D01*
X546831Y220739D01*
X546873Y220720D01*
X546950Y220711D01*
X547026Y220693D01*
X547072Y220698D01*
X547117Y220693D01*
X547193Y220709D01*
X547271Y220716D01*
X547313Y220735D01*
X547358Y220745D01*
X547425Y220785D01*
X547496Y220816D01*
X547530Y220848D01*
X547569Y220871D01*
X547619Y220930D01*
X547677Y220983D01*
X547699Y221023D01*
X547729Y221058D01*
X547758Y221130D01*
X547795Y221198D01*
X547804Y221244D01*
X547821Y221286D01*
X547836Y221422D01*
X547839Y221440D01*
X547838Y221445D01*
X547839Y221453D01*
X547839Y223667D01*
X547832Y223712D01*
X547834Y223758D01*
X547812Y223833D01*
X547799Y223910D01*
X547778Y223950D01*
X547765Y223995D01*
X547721Y224059D01*
X547684Y224127D01*
X547651Y224159D01*
X547625Y224197D01*
X547563Y224243D01*
X547506Y224297D01*
X547464Y224316D01*
X547428Y224343D01*
X547354Y224367D01*
X547283Y224400D01*
X547237Y224405D01*
X547194Y224420D01*
X547116Y224419D01*
X547038Y224427D01*
X546994Y224418D01*
X546948Y224417D01*
X546817Y224379D01*
X546798Y224375D01*
X546794Y224373D01*
X546787Y224370D01*
X545881Y223995D01*
X542474Y223995D01*
X539326Y225299D01*
X536916Y227708D01*
X535612Y230856D01*
X535612Y234264D01*
X536916Y237412D01*
X539326Y239821D01*
X542474Y241125D01*
X545881Y241125D01*
X546787Y240750D01*
X546831Y240739D01*
X546873Y240720D01*
X546950Y240711D01*
X547026Y240693D01*
X547072Y240698D01*
X547117Y240693D01*
X547193Y240709D01*
X547271Y240716D01*
X547313Y240735D01*
X547358Y240745D01*
X547425Y240785D01*
X547496Y240816D01*
X547530Y240848D01*
X547569Y240871D01*
X547619Y240930D01*
X547677Y240983D01*
X547699Y241023D01*
X547729Y241058D01*
X547758Y241130D01*
X547795Y241198D01*
X547804Y241244D01*
X547821Y241286D01*
X547836Y241422D01*
X547839Y241440D01*
X547838Y241445D01*
X547839Y241453D01*
X547839Y242628D01*
X547837Y242644D01*
X547839Y242660D01*
X547817Y242765D01*
X547799Y242871D01*
X547792Y242885D01*
X547789Y242901D01*
X547734Y242994D01*
X547684Y243088D01*
X547673Y243099D01*
X547665Y243113D01*
X547584Y243184D01*
X547506Y243258D01*
X547491Y243265D01*
X547479Y243275D01*
X547380Y243316D01*
X547283Y243361D01*
X547267Y243363D01*
X547252Y243369D01*
X547145Y243377D01*
X547038Y243389D01*
X547023Y243385D01*
X547007Y243386D01*
X546843Y243352D01*
X546421Y243215D01*
X545700Y243101D01*
X545700Y251798D01*
X545697Y251818D01*
X545699Y251837D01*
X545677Y251939D01*
X545661Y252041D01*
X545651Y252058D01*
X545647Y252078D01*
X545594Y252167D01*
X545546Y252258D01*
X545531Y252272D01*
X545521Y252289D01*
X545442Y252356D01*
X545367Y252427D01*
X545349Y252436D01*
X545334Y252449D01*
X545238Y252487D01*
X545144Y252531D01*
X545124Y252533D01*
X545106Y252541D01*
X544939Y252559D01*
X544176Y252559D01*
X544176Y252561D01*
X544939Y252561D01*
X544959Y252564D01*
X544979Y252562D01*
X545080Y252584D01*
X545182Y252601D01*
X545199Y252610D01*
X545219Y252614D01*
X545308Y252667D01*
X545399Y252716D01*
X545413Y252730D01*
X545430Y252740D01*
X545497Y252819D01*
X545569Y252894D01*
X545577Y252912D01*
X545590Y252927D01*
X545629Y253023D01*
X545672Y253117D01*
X545674Y253137D01*
X545682Y253155D01*
X545700Y253322D01*
X545700Y262019D01*
X546421Y261905D01*
X546843Y261768D01*
X546858Y261765D01*
X546873Y261759D01*
X546979Y261747D01*
X547086Y261730D01*
X547102Y261733D01*
X547117Y261731D01*
X547222Y261754D01*
X547328Y261773D01*
X547342Y261780D01*
X547358Y261784D01*
X547450Y261839D01*
X547544Y261890D01*
X547555Y261902D01*
X547569Y261910D01*
X547639Y261991D01*
X547712Y262070D01*
X547718Y262085D01*
X547729Y262097D01*
X547769Y262197D01*
X547813Y262294D01*
X547815Y262310D01*
X547821Y262325D01*
X547839Y262492D01*
X547839Y263667D01*
X547837Y263683D01*
X547838Y263696D01*
X547832Y263724D01*
X547834Y263758D01*
X547812Y263833D01*
X547799Y263910D01*
X547786Y263935D01*
X547786Y263937D01*
X547780Y263947D01*
X547778Y263950D01*
X547765Y263995D01*
X547721Y264059D01*
X547684Y264127D01*
X547651Y264159D01*
X547625Y264197D01*
X547563Y264243D01*
X547506Y264297D01*
X547464Y264316D01*
X547428Y264343D01*
X547354Y264367D01*
X547283Y264400D01*
X547237Y264405D01*
X547194Y264420D01*
X547116Y264419D01*
X547038Y264427D01*
X546994Y264418D01*
X546948Y264417D01*
X546819Y264380D01*
X546811Y264378D01*
X546809Y264377D01*
X546798Y264375D01*
X546794Y264373D01*
X546787Y264370D01*
X545881Y263995D01*
X542474Y263995D01*
X539326Y265299D01*
X536916Y267708D01*
X535612Y270856D01*
X535612Y274264D01*
X536916Y277412D01*
X539326Y279821D01*
X542474Y281125D01*
X545881Y281125D01*
X546787Y280750D01*
X546831Y280739D01*
X546873Y280720D01*
X546950Y280711D01*
X547026Y280693D01*
X547072Y280698D01*
X547117Y280693D01*
X547193Y280709D01*
X547271Y280716D01*
X547313Y280735D01*
X547358Y280745D01*
X547425Y280785D01*
X547496Y280816D01*
X547530Y280848D01*
X547569Y280871D01*
X547619Y280930D01*
X547677Y280983D01*
X547699Y281023D01*
X547729Y281058D01*
X547758Y281130D01*
X547795Y281198D01*
X547804Y281244D01*
X547821Y281286D01*
X547836Y281422D01*
X547839Y281440D01*
X547838Y281445D01*
X547839Y281453D01*
X547839Y283667D01*
X547832Y283712D01*
X547834Y283758D01*
X547812Y283833D01*
X547799Y283910D01*
X547778Y283950D01*
X547765Y283995D01*
X547721Y284059D01*
X547684Y284127D01*
X547651Y284159D01*
X547625Y284197D01*
X547563Y284243D01*
X547506Y284297D01*
X547464Y284316D01*
X547428Y284343D01*
X547354Y284367D01*
X547283Y284400D01*
X547237Y284405D01*
X547194Y284420D01*
X547116Y284419D01*
X547038Y284427D01*
X546994Y284418D01*
X546948Y284417D01*
X546817Y284379D01*
X546798Y284375D01*
X546794Y284373D01*
X546787Y284370D01*
X545881Y283995D01*
X542474Y283995D01*
X539326Y285299D01*
X536916Y287708D01*
X535612Y290856D01*
X535612Y294264D01*
X536916Y297412D01*
X539326Y299821D01*
X542474Y301125D01*
X545881Y301125D01*
X546787Y300750D01*
X546831Y300739D01*
X546873Y300720D01*
X546950Y300711D01*
X547026Y300693D01*
X547072Y300698D01*
X547117Y300693D01*
X547193Y300709D01*
X547271Y300716D01*
X547313Y300735D01*
X547358Y300745D01*
X547425Y300785D01*
X547496Y300816D01*
X547530Y300848D01*
X547569Y300871D01*
X547619Y300930D01*
X547677Y300983D01*
X547699Y301023D01*
X547729Y301058D01*
X547758Y301130D01*
X547795Y301198D01*
X547804Y301244D01*
X547821Y301286D01*
X547836Y301422D01*
X547839Y301440D01*
X547838Y301445D01*
X547839Y301453D01*
X547839Y303667D01*
X547832Y303712D01*
X547834Y303758D01*
X547812Y303833D01*
X547799Y303910D01*
X547778Y303950D01*
X547765Y303995D01*
X547721Y304059D01*
X547684Y304127D01*
X547651Y304159D01*
X547625Y304197D01*
X547563Y304243D01*
X547506Y304297D01*
X547464Y304316D01*
X547428Y304343D01*
X547354Y304367D01*
X547283Y304400D01*
X547237Y304405D01*
X547194Y304420D01*
X547116Y304419D01*
X547038Y304427D01*
X546994Y304418D01*
X546948Y304417D01*
X546817Y304379D01*
X546798Y304375D01*
X546794Y304373D01*
X546787Y304370D01*
X545881Y303995D01*
X542474Y303995D01*
X541774Y304285D01*
X541661Y304311D01*
X541547Y304340D01*
X541541Y304340D01*
X541535Y304341D01*
X541418Y304330D01*
X541302Y304321D01*
X541296Y304319D01*
X541290Y304318D01*
X541183Y304270D01*
X541076Y304225D01*
X541070Y304220D01*
X541065Y304218D01*
X541052Y304205D01*
X540945Y304120D01*
X504160Y267335D01*
X504107Y267261D01*
X504047Y267191D01*
X504035Y267161D01*
X504016Y267135D01*
X503989Y267048D01*
X503955Y266963D01*
X503951Y266922D01*
X503944Y266900D01*
X503945Y266868D01*
X503937Y266796D01*
X503937Y230323D01*
X503951Y230233D01*
X503959Y230142D01*
X503971Y230113D01*
X503976Y230081D01*
X504019Y230000D01*
X504055Y229916D01*
X504081Y229884D01*
X504092Y229863D01*
X504115Y229841D01*
X504160Y229785D01*
X505687Y228258D01*
X505687Y226099D01*
X505701Y226008D01*
X505709Y225918D01*
X505721Y225888D01*
X505726Y225856D01*
X505769Y225775D01*
X505805Y225691D01*
X505831Y225659D01*
X505842Y225638D01*
X505865Y225616D01*
X505910Y225560D01*
X524257Y207213D01*
X524257Y61192D01*
X484908Y21843D01*
X429713Y21843D01*
X429623Y21829D01*
X429532Y21821D01*
X429503Y21809D01*
X429471Y21804D01*
X429390Y21761D01*
X429306Y21725D01*
X429274Y21699D01*
X429253Y21688D01*
X429231Y21665D01*
X429175Y21620D01*
X427648Y20093D01*
X423252Y20093D01*
X420143Y23202D01*
X420143Y27598D01*
X423252Y30707D01*
X427648Y30707D01*
X429175Y29180D01*
X429249Y29127D01*
X429319Y29067D01*
X429349Y29055D01*
X429375Y29036D01*
X429462Y29009D01*
X429547Y28975D01*
X429588Y28971D01*
X429610Y28964D01*
X429642Y28965D01*
X429713Y28957D01*
X481646Y28957D01*
X481736Y28971D01*
X481827Y28979D01*
X481856Y28991D01*
X481888Y28996D01*
X481969Y29039D01*
X482053Y29075D01*
X482085Y29101D01*
X482106Y29112D01*
X482128Y29135D01*
X482184Y29180D01*
X516920Y63916D01*
X516973Y63990D01*
X517033Y64059D01*
X517045Y64090D01*
X517064Y64116D01*
X517091Y64203D01*
X517125Y64288D01*
X517129Y64329D01*
X517136Y64351D01*
X517135Y64383D01*
X517143Y64454D01*
X517143Y203951D01*
X517129Y204042D01*
X517121Y204132D01*
X517109Y204162D01*
X517104Y204194D01*
X517061Y204275D01*
X517025Y204359D01*
X516999Y204391D01*
X516988Y204412D01*
X516965Y204434D01*
X516920Y204490D01*
X500880Y220530D01*
X500806Y220583D01*
X500736Y220643D01*
X500706Y220655D01*
X500680Y220674D01*
X500593Y220701D01*
X500508Y220735D01*
X500467Y220739D01*
X500445Y220746D01*
X500413Y220745D01*
X500341Y220753D01*
X498182Y220753D01*
X495073Y223862D01*
X495073Y228258D01*
X496600Y229785D01*
X496653Y229859D01*
X496713Y229929D01*
X496725Y229959D01*
X496744Y229985D01*
X496771Y230072D01*
X496805Y230157D01*
X496809Y230198D01*
X496816Y230220D01*
X496815Y230252D01*
X496823Y230323D01*
X496823Y270058D01*
X499130Y272365D01*
X535841Y309076D01*
X535909Y309171D01*
X535979Y309265D01*
X535981Y309271D01*
X535985Y309276D01*
X536019Y309387D01*
X536055Y309499D01*
X536055Y309505D01*
X536057Y309511D01*
X536054Y309628D01*
X536053Y309745D01*
X536051Y309752D01*
X536051Y309757D01*
X536044Y309774D01*
X536006Y309906D01*
X535612Y310856D01*
X535612Y314078D01*
X535609Y314098D01*
X535611Y314118D01*
X535589Y314219D01*
X535573Y314321D01*
X535563Y314338D01*
X535559Y314358D01*
X535506Y314447D01*
X535458Y314538D01*
X535443Y314552D01*
X535433Y314569D01*
X535354Y314636D01*
X535279Y314708D01*
X535261Y314716D01*
X535246Y314729D01*
X535150Y314768D01*
X535056Y314811D01*
X535036Y314813D01*
X535018Y314821D01*
X534851Y314839D01*
X283848Y314839D01*
X283778Y314828D01*
X283706Y314826D01*
X283657Y314808D01*
X283606Y314800D01*
X283542Y314766D01*
X283475Y314741D01*
X283434Y314709D01*
X283388Y314685D01*
X283339Y314633D01*
X283283Y314588D01*
X283255Y314544D01*
X283219Y314506D01*
X283189Y314441D01*
X283150Y314381D01*
X283137Y314330D01*
X283115Y314283D01*
X283107Y314212D01*
X283090Y314142D01*
X283094Y314090D01*
X283088Y314039D01*
X283103Y313969D01*
X283109Y313897D01*
X283129Y313849D01*
X283140Y313798D01*
X283177Y313737D01*
X283205Y313671D01*
X283250Y313615D01*
X283267Y313587D01*
X283284Y313572D01*
X283310Y313540D01*
X285720Y311130D01*
X293350Y303500D01*
X293424Y303447D01*
X293494Y303387D01*
X293524Y303375D01*
X293550Y303356D01*
X293637Y303329D01*
X293722Y303295D01*
X293763Y303291D01*
X293785Y303284D01*
X293817Y303285D01*
X293889Y303277D01*
X326593Y303277D01*
X328910Y300960D01*
X328984Y300907D01*
X329054Y300847D01*
X329084Y300835D01*
X329110Y300816D01*
X329197Y300789D01*
X329282Y300755D01*
X329323Y300751D01*
X329345Y300744D01*
X329377Y300745D01*
X329449Y300737D01*
X336351Y300737D01*
X336421Y300748D01*
X336493Y300750D01*
X336542Y300768D01*
X336593Y300776D01*
X336657Y300810D01*
X336724Y300835D01*
X336765Y300867D01*
X336811Y300892D01*
X336860Y300944D01*
X336916Y300988D01*
X336944Y301032D01*
X336980Y301070D01*
X337010Y301135D01*
X337049Y301195D01*
X337062Y301246D01*
X337084Y301293D01*
X337092Y301364D01*
X337109Y301434D01*
X337105Y301486D01*
X337111Y301537D01*
X337096Y301608D01*
X337090Y301679D01*
X337070Y301727D01*
X337059Y301778D01*
X337022Y301839D01*
X336994Y301905D01*
X336949Y301961D01*
X336932Y301989D01*
X336915Y302004D01*
X336889Y302036D01*
X333783Y305142D01*
X333783Y309538D01*
X336892Y312647D01*
X341288Y312647D01*
X343323Y310612D01*
X343397Y310559D01*
X343467Y310499D01*
X343497Y310487D01*
X343523Y310468D01*
X343610Y310441D01*
X343695Y310407D01*
X343736Y310403D01*
X343758Y310396D01*
X343790Y310397D01*
X343861Y310389D01*
X369563Y310389D01*
X498349Y181603D01*
X498349Y68587D01*
X462908Y33146D01*
X443872Y33146D01*
X414301Y62717D01*
X414301Y71429D01*
X414287Y71519D01*
X414279Y71610D01*
X414267Y71639D01*
X414262Y71671D01*
X414219Y71752D01*
X414183Y71836D01*
X414157Y71868D01*
X414146Y71889D01*
X414123Y71911D01*
X414078Y71967D01*
X412018Y74027D01*
X411960Y74069D01*
X411908Y74118D01*
X411861Y74140D01*
X411819Y74170D01*
X411750Y74191D01*
X411685Y74222D01*
X411633Y74227D01*
X411583Y74243D01*
X411512Y74241D01*
X411441Y74249D01*
X411390Y74238D01*
X411338Y74236D01*
X411270Y74212D01*
X411200Y74197D01*
X411156Y74170D01*
X411107Y74152D01*
X411051Y74107D01*
X410989Y74070D01*
X410955Y74031D01*
X410915Y73998D01*
X410876Y73938D01*
X410829Y73883D01*
X410810Y73835D01*
X410782Y73791D01*
X410764Y73722D01*
X410737Y73655D01*
X410729Y73584D01*
X410721Y73553D01*
X410723Y73530D01*
X410719Y73489D01*
X410719Y48575D01*
X406085Y43941D01*
X382922Y43941D01*
X382902Y43938D01*
X382883Y43940D01*
X382781Y43918D01*
X382679Y43901D01*
X382662Y43892D01*
X382642Y43888D01*
X382553Y43835D01*
X382462Y43786D01*
X382448Y43772D01*
X382431Y43762D01*
X382364Y43683D01*
X382293Y43608D01*
X382284Y43590D01*
X382271Y43575D01*
X382232Y43479D01*
X382189Y43385D01*
X382187Y43365D01*
X382179Y43347D01*
X382161Y43180D01*
X382161Y10922D01*
X382164Y10902D01*
X382162Y10883D01*
X382184Y10781D01*
X382201Y10679D01*
X382210Y10662D01*
X382214Y10642D01*
X382267Y10553D01*
X382316Y10462D01*
X382330Y10448D01*
X382340Y10431D01*
X382419Y10364D01*
X382494Y10292D01*
X382512Y10284D01*
X382527Y10271D01*
X382623Y10232D01*
X382717Y10189D01*
X382737Y10187D01*
X382755Y10179D01*
X382922Y10161D01*
X534851Y10161D01*
X534871Y10164D01*
G37*
G36*
X422038Y247535D02*
X422038Y247535D01*
X422109Y247537D01*
X422158Y247555D01*
X422210Y247563D01*
X422273Y247597D01*
X422340Y247622D01*
X422381Y247654D01*
X422427Y247679D01*
X422476Y247731D01*
X422532Y247775D01*
X422561Y247819D01*
X422596Y247857D01*
X422627Y247922D01*
X422665Y247982D01*
X422678Y248033D01*
X422700Y248080D01*
X422708Y248151D01*
X422725Y248221D01*
X422721Y248273D01*
X422727Y248324D01*
X422712Y248395D01*
X422706Y248466D01*
X422686Y248514D01*
X422675Y248565D01*
X422638Y248626D01*
X422610Y248692D01*
X422565Y248748D01*
X422549Y248776D01*
X422531Y248791D01*
X422505Y248823D01*
X367260Y304068D01*
X367186Y304121D01*
X367117Y304181D01*
X367087Y304193D01*
X367060Y304212D01*
X366973Y304239D01*
X366889Y304273D01*
X366848Y304277D01*
X366825Y304284D01*
X366793Y304283D01*
X366722Y304291D01*
X343861Y304291D01*
X343772Y304277D01*
X343680Y304269D01*
X343651Y304257D01*
X343619Y304252D01*
X343538Y304209D01*
X343454Y304173D01*
X343422Y304147D01*
X343401Y304136D01*
X343379Y304113D01*
X343323Y304068D01*
X343041Y303786D01*
X342999Y303728D01*
X342950Y303676D01*
X342928Y303629D01*
X342898Y303587D01*
X342876Y303518D01*
X342846Y303453D01*
X342841Y303401D01*
X342825Y303351D01*
X342827Y303280D01*
X342819Y303209D01*
X342830Y303158D01*
X342832Y303106D01*
X342856Y303038D01*
X342871Y302968D01*
X342898Y302923D01*
X342916Y302875D01*
X342961Y302819D01*
X342998Y302757D01*
X343037Y302723D01*
X343070Y302683D01*
X343130Y302644D01*
X343185Y302597D01*
X343233Y302578D01*
X343277Y302550D01*
X343346Y302532D01*
X343413Y302505D01*
X343484Y302497D01*
X343515Y302489D01*
X343538Y302491D01*
X343579Y302487D01*
X347638Y302487D01*
X350747Y299378D01*
X350747Y297219D01*
X350761Y297128D01*
X350769Y297038D01*
X350781Y297008D01*
X350786Y296976D01*
X350829Y296895D01*
X350865Y296811D01*
X350891Y296779D01*
X350902Y296758D01*
X350925Y296736D01*
X350970Y296680D01*
X377960Y269690D01*
X378034Y269637D01*
X378104Y269577D01*
X378134Y269565D01*
X378160Y269546D01*
X378247Y269519D01*
X378332Y269485D01*
X378373Y269481D01*
X378395Y269474D01*
X378427Y269475D01*
X378499Y269467D01*
X380658Y269467D01*
X383767Y266358D01*
X383767Y261962D01*
X380658Y258853D01*
X376262Y258853D01*
X373153Y261962D01*
X373153Y264121D01*
X373139Y264212D01*
X373131Y264302D01*
X373119Y264332D01*
X373114Y264364D01*
X373071Y264445D01*
X373035Y264529D01*
X373009Y264561D01*
X372998Y264582D01*
X372975Y264604D01*
X372930Y264660D01*
X345940Y291650D01*
X345866Y291703D01*
X345796Y291763D01*
X345766Y291775D01*
X345740Y291794D01*
X345653Y291821D01*
X345568Y291855D01*
X345527Y291859D01*
X345505Y291866D01*
X345473Y291865D01*
X345401Y291873D01*
X343242Y291873D01*
X341715Y293400D01*
X341641Y293453D01*
X341571Y293513D01*
X341541Y293525D01*
X341515Y293544D01*
X341428Y293571D01*
X341343Y293605D01*
X341302Y293609D01*
X341280Y293616D01*
X341248Y293615D01*
X341177Y293623D01*
X326187Y293623D01*
X323870Y295940D01*
X323796Y295993D01*
X323726Y296053D01*
X323696Y296065D01*
X323670Y296084D01*
X323583Y296111D01*
X323498Y296145D01*
X323457Y296149D01*
X323435Y296156D01*
X323403Y296155D01*
X323331Y296163D01*
X312619Y296163D01*
X312549Y296152D01*
X312477Y296150D01*
X312428Y296132D01*
X312377Y296124D01*
X312313Y296090D01*
X312246Y296065D01*
X312205Y296033D01*
X312159Y296008D01*
X312110Y295956D01*
X312054Y295912D01*
X312026Y295868D01*
X311990Y295830D01*
X311960Y295765D01*
X311921Y295705D01*
X311908Y295654D01*
X311886Y295607D01*
X311878Y295536D01*
X311861Y295466D01*
X311865Y295414D01*
X311859Y295363D01*
X311874Y295292D01*
X311880Y295221D01*
X311900Y295173D01*
X311911Y295122D01*
X311948Y295061D01*
X311976Y294995D01*
X312021Y294939D01*
X312038Y294911D01*
X312055Y294896D01*
X312081Y294864D01*
X315187Y291758D01*
X315187Y287362D01*
X315057Y287232D01*
X315045Y287215D01*
X315029Y287203D01*
X314973Y287116D01*
X314913Y287032D01*
X314907Y287013D01*
X314896Y286996D01*
X314871Y286896D01*
X314841Y286797D01*
X314841Y286777D01*
X314836Y286758D01*
X314844Y286655D01*
X314847Y286551D01*
X314854Y286532D01*
X314855Y286512D01*
X314896Y286417D01*
X314931Y286320D01*
X314944Y286304D01*
X314952Y286286D01*
X315056Y286155D01*
X353465Y247747D01*
X353539Y247694D01*
X353608Y247634D01*
X353638Y247622D01*
X353665Y247603D01*
X353752Y247576D01*
X353836Y247542D01*
X353877Y247538D01*
X353900Y247531D01*
X353932Y247532D01*
X354003Y247524D01*
X421967Y247524D01*
X422038Y247535D01*
G37*
G36*
X174407Y224043D02*
X174407Y224043D01*
X174498Y224051D01*
X174528Y224063D01*
X174560Y224068D01*
X174640Y224111D01*
X174724Y224147D01*
X174756Y224173D01*
X174777Y224184D01*
X174799Y224207D01*
X174855Y224252D01*
X187510Y236907D01*
X187563Y236981D01*
X187623Y237050D01*
X187635Y237080D01*
X187654Y237107D01*
X187681Y237194D01*
X187715Y237278D01*
X187719Y237319D01*
X187726Y237342D01*
X187725Y237374D01*
X187733Y237445D01*
X187733Y240323D01*
X189442Y242032D01*
X189484Y242090D01*
X189533Y242142D01*
X189555Y242189D01*
X189585Y242231D01*
X189607Y242300D01*
X189637Y242365D01*
X189642Y242417D01*
X189658Y242467D01*
X189656Y242538D01*
X189664Y242609D01*
X189653Y242660D01*
X189651Y242712D01*
X189627Y242780D01*
X189612Y242850D01*
X189585Y242895D01*
X189567Y242943D01*
X189522Y242999D01*
X189485Y243061D01*
X189446Y243095D01*
X189413Y243135D01*
X189353Y243174D01*
X189298Y243221D01*
X189250Y243240D01*
X189206Y243268D01*
X189137Y243286D01*
X189070Y243313D01*
X188999Y243321D01*
X188968Y243329D01*
X188945Y243327D01*
X188904Y243331D01*
X122696Y243331D01*
X122606Y243317D01*
X122515Y243309D01*
X122485Y243297D01*
X122453Y243292D01*
X122373Y243249D01*
X122289Y243213D01*
X122257Y243187D01*
X122236Y243176D01*
X122214Y243153D01*
X122158Y243108D01*
X104378Y225328D01*
X104336Y225270D01*
X104287Y225218D01*
X104265Y225171D01*
X104234Y225129D01*
X104213Y225060D01*
X104183Y224995D01*
X104177Y224943D01*
X104162Y224893D01*
X104164Y224822D01*
X104156Y224751D01*
X104167Y224700D01*
X104168Y224648D01*
X104193Y224580D01*
X104208Y224510D01*
X104235Y224465D01*
X104253Y224417D01*
X104298Y224361D01*
X104334Y224299D01*
X104374Y224265D01*
X104407Y224225D01*
X104467Y224186D01*
X104521Y224139D01*
X104570Y224120D01*
X104613Y224092D01*
X104683Y224074D01*
X104749Y224047D01*
X104821Y224039D01*
X104852Y224031D01*
X104875Y224033D01*
X104916Y224029D01*
X174317Y224029D01*
X174407Y224043D01*
G37*
%LPC*%
G36*
X56222Y230913D02*
X56222Y230913D01*
X53113Y234022D01*
X53113Y238418D01*
X54640Y239945D01*
X54693Y240019D01*
X54753Y240089D01*
X54765Y240119D01*
X54784Y240145D01*
X54811Y240232D01*
X54845Y240317D01*
X54849Y240358D01*
X54856Y240380D01*
X54855Y240412D01*
X54863Y240483D01*
X54863Y249671D01*
X54849Y249762D01*
X54841Y249852D01*
X54829Y249882D01*
X54824Y249914D01*
X54781Y249995D01*
X54745Y250079D01*
X54719Y250111D01*
X54708Y250132D01*
X54685Y250154D01*
X54640Y250210D01*
X33520Y271330D01*
X33446Y271383D01*
X33376Y271443D01*
X33346Y271455D01*
X33320Y271474D01*
X33233Y271501D01*
X33148Y271535D01*
X33107Y271539D01*
X33085Y271546D01*
X33053Y271545D01*
X32981Y271553D01*
X30822Y271553D01*
X27713Y274662D01*
X27713Y279058D01*
X30822Y282167D01*
X35218Y282167D01*
X38327Y279058D01*
X38327Y276899D01*
X38341Y276808D01*
X38349Y276718D01*
X38361Y276688D01*
X38366Y276656D01*
X38409Y276575D01*
X38445Y276491D01*
X38471Y276459D01*
X38482Y276438D01*
X38505Y276416D01*
X38550Y276360D01*
X61977Y252933D01*
X61977Y240483D01*
X61991Y240393D01*
X61999Y240302D01*
X62011Y240273D01*
X62016Y240241D01*
X62059Y240160D01*
X62095Y240076D01*
X62121Y240044D01*
X62132Y240023D01*
X62155Y240001D01*
X62200Y239945D01*
X63727Y238418D01*
X63727Y234022D01*
X60618Y230913D01*
X56222Y230913D01*
G37*
%LPD*%
%LPC*%
G36*
X81647Y34797D02*
X81647Y34797D01*
X77633Y36460D01*
X74560Y39533D01*
X72897Y43547D01*
X72897Y47893D01*
X74560Y51907D01*
X77633Y54980D01*
X81647Y56643D01*
X85993Y56643D01*
X90007Y54980D01*
X93080Y51907D01*
X94743Y47893D01*
X94743Y43547D01*
X93080Y39533D01*
X90007Y36460D01*
X85993Y34797D01*
X81647Y34797D01*
G37*
%LPD*%
%LPC*%
G36*
X81647Y60197D02*
X81647Y60197D01*
X77633Y61860D01*
X74560Y64933D01*
X72897Y68947D01*
X72897Y73293D01*
X74560Y77307D01*
X77633Y80380D01*
X81647Y82043D01*
X85993Y82043D01*
X90007Y80380D01*
X93080Y77307D01*
X94743Y73293D01*
X94743Y68947D01*
X93080Y64933D01*
X90007Y61860D01*
X85993Y60197D01*
X81647Y60197D01*
G37*
%LPD*%
%LPC*%
G36*
X81647Y85597D02*
X81647Y85597D01*
X77633Y87260D01*
X74560Y90333D01*
X72897Y94347D01*
X72897Y98693D01*
X74560Y102707D01*
X77633Y105780D01*
X81647Y107443D01*
X85993Y107443D01*
X90007Y105780D01*
X93080Y102707D01*
X94743Y98693D01*
X94743Y94347D01*
X93080Y90333D01*
X90007Y87260D01*
X85993Y85597D01*
X81647Y85597D01*
G37*
%LPD*%
%LPC*%
G36*
X81647Y110997D02*
X81647Y110997D01*
X77633Y112660D01*
X74560Y115733D01*
X72897Y119747D01*
X72897Y124093D01*
X74560Y128107D01*
X77633Y131180D01*
X81647Y132843D01*
X85993Y132843D01*
X90007Y131180D01*
X93080Y128107D01*
X94743Y124093D01*
X94743Y119747D01*
X93080Y115733D01*
X90007Y112660D01*
X85993Y110997D01*
X81647Y110997D01*
G37*
%LPD*%
%LPC*%
G36*
X85343Y21843D02*
X85343Y21843D01*
X85343Y32166D01*
X86616Y31965D01*
X88403Y31384D01*
X90077Y30531D01*
X91598Y29426D01*
X92926Y28098D01*
X94031Y26577D01*
X94884Y24903D01*
X95465Y23116D01*
X95666Y21843D01*
X85343Y21843D01*
G37*
%LPD*%
%LPC*%
G36*
X437133Y156463D02*
X437133Y156463D01*
X437133Y166786D01*
X438406Y166585D01*
X440193Y166004D01*
X441867Y165151D01*
X443388Y164046D01*
X444716Y162718D01*
X445821Y161197D01*
X446674Y159523D01*
X447255Y157736D01*
X447456Y156463D01*
X437133Y156463D01*
G37*
%LPD*%
%LPC*%
G36*
X437133Y153417D02*
X437133Y153417D01*
X447456Y153417D01*
X447255Y152144D01*
X446674Y150357D01*
X445821Y148683D01*
X444716Y147162D01*
X443388Y145834D01*
X441867Y144729D01*
X440193Y143876D01*
X438406Y143295D01*
X437133Y143094D01*
X437133Y153417D01*
G37*
%LPD*%
%LPC*%
G36*
X423764Y156463D02*
X423764Y156463D01*
X423965Y157736D01*
X424546Y159523D01*
X425399Y161197D01*
X426504Y162718D01*
X427832Y164046D01*
X429353Y165151D01*
X431027Y166004D01*
X432814Y166585D01*
X434087Y166786D01*
X434087Y156463D01*
X423764Y156463D01*
G37*
%LPD*%
%LPC*%
G36*
X71974Y21843D02*
X71974Y21843D01*
X72175Y23116D01*
X72756Y24903D01*
X73609Y26577D01*
X74714Y28098D01*
X76042Y29426D01*
X77563Y30531D01*
X79237Y31384D01*
X81024Y31965D01*
X82297Y32166D01*
X82297Y21843D01*
X71974Y21843D01*
G37*
%LPD*%
%LPC*%
G36*
X432814Y143295D02*
X432814Y143295D01*
X431027Y143876D01*
X429353Y144729D01*
X427832Y145834D01*
X426504Y147162D01*
X425399Y148683D01*
X424546Y150357D01*
X423965Y152144D01*
X423764Y153417D01*
X434087Y153417D01*
X434087Y143094D01*
X432814Y143295D01*
G37*
%LPD*%
%LPC*%
G36*
X534718Y254083D02*
X534718Y254083D01*
X534832Y254803D01*
X535298Y256238D01*
X535983Y257581D01*
X536870Y258802D01*
X537936Y259868D01*
X539156Y260754D01*
X540499Y261439D01*
X541934Y261905D01*
X542654Y262019D01*
X542654Y254083D01*
X534718Y254083D01*
G37*
%LPD*%
%LPC*%
G36*
X541934Y243215D02*
X541934Y243215D01*
X540499Y243681D01*
X539156Y244366D01*
X537936Y245252D01*
X536870Y246318D01*
X535983Y247539D01*
X535298Y248882D01*
X534832Y250317D01*
X534718Y251037D01*
X542654Y251037D01*
X542654Y243101D01*
X541934Y243215D01*
G37*
%LPD*%
%LPC*%
G36*
X395199Y33249D02*
X395199Y33249D01*
X395199Y39691D01*
X396057Y39520D01*
X397528Y38911D01*
X398851Y38027D01*
X399977Y36901D01*
X400861Y35578D01*
X401470Y34107D01*
X401641Y33249D01*
X395199Y33249D01*
G37*
%LPD*%
%LPC*%
G36*
X385759Y33249D02*
X385759Y33249D01*
X385930Y34107D01*
X386539Y35578D01*
X387423Y36901D01*
X388549Y38027D01*
X389872Y38911D01*
X391343Y39520D01*
X392201Y39691D01*
X392201Y33249D01*
X385759Y33249D01*
G37*
%LPD*%
%LPC*%
G36*
X395199Y30251D02*
X395199Y30251D01*
X401641Y30251D01*
X401470Y29393D01*
X400861Y27922D01*
X399977Y26599D01*
X398851Y25473D01*
X397528Y24589D01*
X396057Y23980D01*
X395199Y23809D01*
X395199Y30251D01*
G37*
%LPD*%
%LPC*%
G36*
X391343Y23980D02*
X391343Y23980D01*
X389872Y24589D01*
X388549Y25473D01*
X387423Y26599D01*
X386539Y27922D01*
X385930Y29393D01*
X385759Y30251D01*
X392201Y30251D01*
X392201Y23809D01*
X391343Y23980D01*
G37*
%LPD*%
G36*
X394989Y173304D02*
X394989Y173304D01*
X395011Y173308D01*
X395018Y173323D01*
X395027Y173329D01*
X395026Y173339D01*
X395033Y173355D01*
X395033Y182182D01*
X395021Y182200D01*
X395017Y182223D01*
X395002Y182230D01*
X394996Y182239D01*
X394986Y182237D01*
X394970Y182244D01*
X392430Y182244D01*
X392411Y182232D01*
X392389Y182229D01*
X392382Y182213D01*
X392373Y182207D01*
X392374Y182197D01*
X392367Y182182D01*
X392367Y173355D01*
X392379Y173336D01*
X392383Y173314D01*
X392398Y173307D01*
X392404Y173298D01*
X392414Y173299D01*
X392430Y173292D01*
X394970Y173292D01*
X394989Y173304D01*
G37*
%LPC*%
G36*
X435609Y154939D02*
X435609Y154939D01*
X435609Y154941D01*
X435611Y154941D01*
X435611Y154939D01*
X435609Y154939D01*
G37*
%LPD*%
D10*
X544177Y312560D03*
X544177Y292560D03*
X544177Y272560D03*
X544177Y252560D03*
X544177Y232560D03*
X544177Y212560D03*
X544177Y192560D03*
X544177Y172560D03*
X544177Y152560D03*
X544177Y132560D03*
X544177Y112560D03*
X544177Y92560D03*
X544177Y72560D03*
X544177Y52560D03*
X544177Y32560D03*
X544177Y12560D03*
X14003Y312560D03*
X14003Y292560D03*
X14003Y272560D03*
X14003Y252560D03*
X14003Y232560D03*
X14003Y212560D03*
X14003Y192560D03*
X14003Y172560D03*
X14003Y152560D03*
X14003Y132560D03*
X14003Y112560D03*
X14003Y92560D03*
X14003Y72560D03*
X14003Y52560D03*
X14003Y32560D03*
X14003Y12560D03*
D11*
X435610Y154940D03*
X435610Y180340D03*
D12*
X393700Y158750D03*
X393700Y31750D03*
D13*
X393700Y175133D03*
X393700Y185547D03*
D11*
X83820Y20320D03*
X83820Y45720D03*
X83820Y71120D03*
X83820Y96520D03*
X83820Y121920D03*
X83820Y147320D03*
D14*
X382270Y281940D03*
X101600Y175260D03*
X365760Y289560D03*
D15*
X101600Y175260D02*
X101445Y175105D01*
D14*
X133350Y227965D03*
X181610Y238125D03*
X471170Y229870D03*
X500380Y190500D03*
X406400Y254000D03*
X266700Y200660D03*
X88900Y309880D03*
X45720Y15240D03*
X480060Y284480D03*
X304800Y309880D03*
X294640Y271780D03*
D15*
X308610Y271780D01*
X348615Y231775D01*
X419100Y231775D01*
X476250Y174625D01*
X476250Y78740D01*
X461010Y63500D01*
X450850Y63500D01*
D14*
X450850Y63500D03*
X309880Y289560D03*
D15*
X309880Y287020D02*
X352425Y244475D01*
X309880Y287020D02*
X309880Y289560D01*
X352425Y244475D02*
X422910Y244475D01*
X488950Y178435D01*
D14*
X450850Y88900D03*
D15*
X442595Y80645D01*
X442595Y47625D01*
X447675Y42545D01*
X458470Y42545D01*
X488950Y73025D01*
X488950Y178435D01*
D14*
X339090Y307340D03*
D15*
X368300Y307340D01*
X495300Y69850D02*
X461645Y36195D01*
X445135Y36195D01*
X417350Y63980D01*
X417350Y76200D01*
D14*
X417350Y76200D03*
D15*
X495300Y69850D02*
X495300Y180340D01*
X368300Y307340D01*
D14*
X193040Y238125D03*
D15*
X175895Y220980D01*
X103820Y220980D01*
X14125Y132715D02*
X14003Y132593D01*
X78580Y195740D02*
X103820Y220980D01*
X14003Y132593D02*
X14003Y132560D01*
X78580Y189705D02*
X78580Y195740D01*
X21590Y132715D02*
X14125Y132715D01*
X21590Y132715D02*
X78580Y189705D01*
D14*
X203835Y230505D03*
D15*
X187960Y214630D01*
X105791Y214630D01*
X84646Y187747D02*
X25400Y128502D01*
X14140Y72560D02*
X14003Y72560D01*
X14140Y72560D02*
X25400Y83820D01*
X25400Y128502D01*
X84646Y193485D02*
X105791Y214630D01*
X84646Y193485D02*
X84646Y187747D01*
D14*
X214630Y222885D03*
D15*
X200351Y208606D01*
X107514Y208606D01*
X90747Y191839D01*
X90747Y186113D02*
X31750Y127116D01*
X14003Y52738D02*
X14003Y52560D01*
X14003Y52738D02*
X31750Y70485D01*
X31750Y127116D01*
X90747Y186113D02*
X90747Y191839D01*
D14*
X302260Y281940D03*
D15*
X306705Y281940D02*
X350520Y238125D01*
X306705Y281940D02*
X302260Y281940D01*
X350520Y238125D02*
X421005Y238125D01*
X482600Y176530D01*
X482600Y76084D01*
D14*
X450850Y50800D03*
D15*
X457316Y50800D02*
X482600Y76084D01*
X457316Y50800D02*
X450850Y50800D01*
D14*
X225425Y263525D03*
D15*
X225270Y263370D01*
X122400Y263370D01*
X58420Y199390D01*
D14*
X58420Y199390D03*
D15*
X25250Y232560D01*
X14003Y232560D01*
D14*
X214630Y254635D03*
D15*
X214503Y254762D01*
X121764Y254762D01*
X14135Y212560D02*
X14003Y212560D01*
X66851Y199849D02*
X121764Y254762D01*
X35560Y191135D02*
X14135Y212560D01*
X66851Y199849D02*
X66851Y196391D01*
X61595Y191135D02*
X35560Y191135D01*
X61595Y191135D02*
X66851Y196391D01*
D14*
X203200Y246380D03*
D15*
X121118Y246380D01*
X72738Y198000D01*
D14*
X53340Y177800D03*
D15*
X45720Y177800D01*
X40480Y172560D01*
X14003Y172560D01*
X53340Y177800D02*
X58420Y177800D01*
X72738Y192118D02*
X72738Y198000D01*
X72738Y192118D02*
X58420Y177800D01*
D14*
X236855Y272415D03*
D15*
X236710Y272560D01*
X123326Y272560D01*
X62856Y212090D01*
D14*
X58420Y212090D03*
D15*
X62856Y212090D01*
X25400Y260020D02*
X14003Y272560D01*
X25400Y245110D02*
X58420Y212090D01*
X25400Y245110D02*
X25400Y260020D01*
D14*
X393700Y198120D03*
X251460Y207645D03*
D15*
X385445Y206375D02*
X393700Y198120D01*
X339090Y206375D02*
X335915Y209550D01*
X339090Y206375D02*
X385445Y206375D01*
X259080Y207645D02*
X251460Y207645D01*
X259080Y207645D02*
X260985Y209550D01*
X335915Y209550D01*
D14*
X237490Y207645D03*
X398780Y208280D03*
D15*
X238125Y207645D02*
X237490Y207645D01*
X238125Y207645D02*
X246253Y215773D01*
X340360Y215773D01*
X343408Y212725D01*
X394335Y212725D02*
X398780Y208280D01*
X394335Y212725D02*
X343408Y212725D01*
D14*
X225425Y215265D03*
D15*
X212924Y202764D01*
X109419Y202764D01*
X14003Y32560D02*
X13904Y32319D01*
X96838Y190183D02*
X109419Y202764D01*
X96838Y184468D02*
X38100Y125730D01*
X38100Y56515D02*
X13904Y32319D01*
X38100Y56515D02*
X38100Y125730D01*
X96838Y184468D02*
X96838Y190183D01*
D14*
X425450Y25400D03*
D16*
X544177Y312382D02*
X544177Y312560D01*
X544177Y312382D02*
X500380Y268585D01*
X483434Y25400D02*
X425450Y25400D01*
X500380Y226060D02*
X500380Y268585D01*
X520700Y62666D02*
X483434Y25400D01*
D14*
X345440Y297180D03*
X378460Y264160D03*
D16*
X345440Y297180D01*
D14*
X58420Y236220D03*
X33020Y276860D03*
D16*
X58420Y251460D01*
X58420Y236220D01*
D14*
X104775Y309880D03*
X167640Y309880D03*
D16*
X104775Y309880D01*
X327660Y297180D02*
X345440Y297180D01*
X281940Y309880D02*
X167640Y309880D01*
X325120Y299720D02*
X327660Y297180D01*
D14*
X500380Y226060D03*
D16*
X325120Y299720D02*
X292100Y299720D01*
X281940Y309880D01*
X500380Y226060D02*
X520700Y205740D01*
X520700Y62666D01*
D14*
X79375Y300990D03*
X320040Y246380D03*
D15*
X86360Y294005D02*
X79375Y300990D01*
X318770Y247650D02*
X320040Y246380D01*
X318770Y247650D02*
X277495Y247650D01*
X243205Y294005D02*
X86360Y294005D01*
X258763Y266383D02*
X277495Y247650D01*
X258763Y266383D02*
X258763Y278448D01*
X243205Y294005D01*
D14*
X69215Y292100D03*
X294640Y231140D03*
D15*
X286519Y231140D01*
X241300Y287655D02*
X73660Y287655D01*
X69215Y292100D01*
X252730Y264929D02*
X286519Y231140D01*
X252730Y276225D02*
X241300Y287655D01*
X252730Y276225D02*
X252730Y264929D01*
D14*
X307340Y238760D03*
D15*
X287020Y222885D02*
X246380Y263525D01*
X246380Y274320D01*
X239395Y281305D01*
X123825Y281305D02*
X66425Y223905D01*
X123825Y281305D02*
X239395Y281305D01*
D14*
X58170Y223905D03*
D15*
X435610Y198755D02*
X435610Y180340D01*
X435610Y198755D02*
X415290Y219075D01*
X344805Y219075D01*
X393700Y185547D02*
X406273Y185547D01*
X411480Y180340D01*
X435610Y180340D01*
X66425Y223905D02*
X58170Y223905D01*
X287020Y222885D02*
X299720Y222885D01*
X307340Y230505D02*
X307340Y238760D01*
X307340Y230505D02*
X299720Y222885D01*
X307340Y231140D02*
X316865Y221615D01*
X307340Y231140D02*
X307340Y238760D01*
X342265Y221615D02*
X344805Y219075D01*
X342265Y221615D02*
X316865Y221615D01*
D14*
X45720Y91440D03*
D15*
X45720Y109220D01*
X83820Y147320D01*
X393700Y158750D02*
X393700Y175133D01*
M02*
