G04 EAGLE Gerber RS-274X export*
G75*
%MOMM*%
%FSLAX34Y34*%
%LPD*%
%INSolderpaste Top*%
%IPPOS*%
%AMOC8*
5,1,8,0,0,1.08239X$1,22.5*%
G01*
%ADD10R,2.184400X0.558800*%
%ADD11R,1.270000X0.558800*%
%ADD12R,0.558800X1.270000*%
%ADD13R,1.100000X1.000000*%
%ADD14R,1.100000X1.900000*%
%ADD15R,1.150000X2.200000*%
%ADD16R,2.000000X1.000000*%


D10*
X480822Y38100D03*
X480822Y50800D03*
X480822Y63500D03*
X480822Y76200D03*
X480822Y88900D03*
X480822Y101600D03*
X480822Y114300D03*
X480822Y127000D03*
X433578Y127000D03*
X433578Y114300D03*
X433578Y101600D03*
X433578Y88900D03*
X433578Y76200D03*
X433578Y63500D03*
X433578Y50800D03*
X433578Y38100D03*
D11*
G36*
X348487Y263310D02*
X357466Y272289D01*
X361417Y268338D01*
X352438Y259359D01*
X348487Y263310D01*
G37*
G36*
X342830Y268967D02*
X351809Y277946D01*
X355760Y273995D01*
X346781Y265016D01*
X342830Y268967D01*
G37*
G36*
X337174Y274624D02*
X346153Y283603D01*
X350104Y279652D01*
X341125Y270673D01*
X337174Y274624D01*
G37*
G36*
X331517Y280281D02*
X340496Y289260D01*
X344447Y285309D01*
X335468Y276330D01*
X331517Y280281D01*
G37*
G36*
X325860Y285938D02*
X334839Y294917D01*
X338790Y290966D01*
X329811Y281987D01*
X325860Y285938D01*
G37*
G36*
X320203Y291595D02*
X329182Y300574D01*
X333133Y296623D01*
X324154Y287644D01*
X320203Y291595D01*
G37*
G36*
X314546Y297251D02*
X323525Y306230D01*
X327476Y302279D01*
X318497Y293300D01*
X314546Y297251D01*
G37*
G36*
X308889Y302908D02*
X317868Y311887D01*
X321819Y307936D01*
X312840Y298957D01*
X308889Y302908D01*
G37*
D12*
G36*
X287781Y307936D02*
X291732Y311887D01*
X300711Y302908D01*
X296760Y298957D01*
X287781Y307936D01*
G37*
G36*
X282124Y302279D02*
X286075Y306230D01*
X295054Y297251D01*
X291103Y293300D01*
X282124Y302279D01*
G37*
G36*
X276467Y296623D02*
X280418Y300574D01*
X289397Y291595D01*
X285446Y287644D01*
X276467Y296623D01*
G37*
G36*
X270810Y290966D02*
X274761Y294917D01*
X283740Y285938D01*
X279789Y281987D01*
X270810Y290966D01*
G37*
G36*
X265153Y285309D02*
X269104Y289260D01*
X278083Y280281D01*
X274132Y276330D01*
X265153Y285309D01*
G37*
G36*
X259496Y279652D02*
X263447Y283603D01*
X272426Y274624D01*
X268475Y270673D01*
X259496Y279652D01*
G37*
G36*
X253840Y273995D02*
X257791Y277946D01*
X266770Y268967D01*
X262819Y265016D01*
X253840Y273995D01*
G37*
G36*
X248183Y268338D02*
X252134Y272289D01*
X261113Y263310D01*
X257162Y259359D01*
X248183Y268338D01*
G37*
D11*
G36*
X248183Y242202D02*
X257162Y251181D01*
X261113Y247230D01*
X252134Y238251D01*
X248183Y242202D01*
G37*
G36*
X253840Y236545D02*
X262819Y245524D01*
X266770Y241573D01*
X257791Y232594D01*
X253840Y236545D01*
G37*
G36*
X259496Y230888D02*
X268475Y239867D01*
X272426Y235916D01*
X263447Y226937D01*
X259496Y230888D01*
G37*
G36*
X265153Y225231D02*
X274132Y234210D01*
X278083Y230259D01*
X269104Y221280D01*
X265153Y225231D01*
G37*
G36*
X270810Y219574D02*
X279789Y228553D01*
X283740Y224602D01*
X274761Y215623D01*
X270810Y219574D01*
G37*
G36*
X276467Y213917D02*
X285446Y222896D01*
X289397Y218945D01*
X280418Y209966D01*
X276467Y213917D01*
G37*
G36*
X282124Y208261D02*
X291103Y217240D01*
X295054Y213289D01*
X286075Y204310D01*
X282124Y208261D01*
G37*
G36*
X287781Y202604D02*
X296760Y211583D01*
X300711Y207632D01*
X291732Y198653D01*
X287781Y202604D01*
G37*
D12*
G36*
X308889Y207632D02*
X312840Y211583D01*
X321819Y202604D01*
X317868Y198653D01*
X308889Y207632D01*
G37*
G36*
X314546Y213289D02*
X318497Y217240D01*
X327476Y208261D01*
X323525Y204310D01*
X314546Y213289D01*
G37*
G36*
X320203Y218945D02*
X324154Y222896D01*
X333133Y213917D01*
X329182Y209966D01*
X320203Y218945D01*
G37*
G36*
X325860Y224602D02*
X329811Y228553D01*
X338790Y219574D01*
X334839Y215623D01*
X325860Y224602D01*
G37*
G36*
X331517Y230259D02*
X335468Y234210D01*
X344447Y225231D01*
X340496Y221280D01*
X331517Y230259D01*
G37*
G36*
X337174Y235916D02*
X341125Y239867D01*
X350104Y230888D01*
X346153Y226937D01*
X337174Y235916D01*
G37*
G36*
X342830Y241573D02*
X346781Y245524D01*
X355760Y236545D01*
X351809Y232594D01*
X342830Y241573D01*
G37*
G36*
X348487Y247230D02*
X352438Y251181D01*
X361417Y242202D01*
X357466Y238251D01*
X348487Y247230D01*
G37*
D10*
X109728Y288290D03*
X109728Y275590D03*
X109728Y262890D03*
X109728Y250190D03*
X109728Y237490D03*
X109728Y224790D03*
X109728Y212090D03*
X109728Y199390D03*
X156972Y199390D03*
X156972Y212090D03*
X156972Y224790D03*
X156972Y237490D03*
X156972Y250190D03*
X156972Y262890D03*
X156972Y275590D03*
X156972Y288290D03*
D13*
X419980Y284480D03*
X402980Y284480D03*
X419980Y307340D03*
X402980Y307340D03*
X149470Y307340D03*
X132470Y307340D03*
X441080Y19050D03*
X458080Y19050D03*
X394580Y246380D03*
X377580Y246380D03*
X354720Y207010D03*
X371720Y207010D03*
X374260Y307340D03*
X357260Y307340D03*
X427110Y218440D03*
X444110Y218440D03*
X427110Y237490D03*
X444110Y237490D03*
X207400Y280670D03*
X224400Y280670D03*
X39760Y308610D03*
X56760Y308610D03*
X39760Y292100D03*
X56760Y292100D03*
D14*
X463366Y265980D03*
X440366Y302980D03*
X440366Y265980D03*
X463366Y302980D03*
D15*
X497840Y303480D03*
X497840Y265480D03*
D12*
X483362Y213106D03*
X492760Y213106D03*
X502158Y213106D03*
X502158Y239014D03*
X492760Y239014D03*
X483362Y239014D03*
D16*
X45720Y29800D03*
X45720Y71800D03*
M02*
