G04 EAGLE Gerber RS-274X export*
G75*
%MOMM*%
%FSLAX34Y34*%
%LPD*%
%INSoldermask Top*%
%IPPOS*%
%AMOC8*
5,1,8,0,0,1.08239X$1,22.5*%
G01*
%ADD10R,2.387600X0.762000*%
%ADD11R,1.473200X0.762000*%
%ADD12R,0.762000X1.473200*%
%ADD13C,1.611200*%
%ADD14R,1.303200X1.203200*%
%ADD15C,2.082800*%
%ADD16C,1.311200*%
%ADD17R,1.303200X2.103200*%
%ADD18R,1.353200X2.403200*%
%ADD19R,2.203200X1.203200*%
%ADD20R,2.000000X2.500000*%
%ADD21C,0.959600*%


D10*
X480822Y38100D03*
X480822Y50800D03*
X480822Y63500D03*
X480822Y76200D03*
X480822Y88900D03*
X480822Y101600D03*
X480822Y114300D03*
X480822Y127000D03*
X433578Y127000D03*
X433578Y114300D03*
X433578Y101600D03*
X433578Y88900D03*
X433578Y76200D03*
X433578Y63500D03*
X433578Y50800D03*
X433578Y38100D03*
D11*
G36*
X347050Y263310D02*
X357466Y273726D01*
X362854Y268338D01*
X352438Y257922D01*
X347050Y263310D01*
G37*
G36*
X341393Y268967D02*
X351809Y279383D01*
X357197Y273995D01*
X346781Y263579D01*
X341393Y268967D01*
G37*
G36*
X335737Y274624D02*
X346153Y285040D01*
X351541Y279652D01*
X341125Y269236D01*
X335737Y274624D01*
G37*
G36*
X330080Y280281D02*
X340496Y290697D01*
X345884Y285309D01*
X335468Y274893D01*
X330080Y280281D01*
G37*
G36*
X324423Y285938D02*
X334839Y296354D01*
X340227Y290966D01*
X329811Y280550D01*
X324423Y285938D01*
G37*
G36*
X318766Y291595D02*
X329182Y302011D01*
X334570Y296623D01*
X324154Y286207D01*
X318766Y291595D01*
G37*
G36*
X313109Y297251D02*
X323525Y307667D01*
X328913Y302279D01*
X318497Y291863D01*
X313109Y297251D01*
G37*
G36*
X307452Y302908D02*
X317868Y313324D01*
X323256Y307936D01*
X312840Y297520D01*
X307452Y302908D01*
G37*
D12*
G36*
X286344Y307936D02*
X291732Y313324D01*
X302148Y302908D01*
X296760Y297520D01*
X286344Y307936D01*
G37*
G36*
X280687Y302279D02*
X286075Y307667D01*
X296491Y297251D01*
X291103Y291863D01*
X280687Y302279D01*
G37*
G36*
X275030Y296623D02*
X280418Y302011D01*
X290834Y291595D01*
X285446Y286207D01*
X275030Y296623D01*
G37*
G36*
X269373Y290966D02*
X274761Y296354D01*
X285177Y285938D01*
X279789Y280550D01*
X269373Y290966D01*
G37*
G36*
X263716Y285309D02*
X269104Y290697D01*
X279520Y280281D01*
X274132Y274893D01*
X263716Y285309D01*
G37*
G36*
X258059Y279652D02*
X263447Y285040D01*
X273863Y274624D01*
X268475Y269236D01*
X258059Y279652D01*
G37*
G36*
X252403Y273995D02*
X257791Y279383D01*
X268207Y268967D01*
X262819Y263579D01*
X252403Y273995D01*
G37*
G36*
X246746Y268338D02*
X252134Y273726D01*
X262550Y263310D01*
X257162Y257922D01*
X246746Y268338D01*
G37*
D11*
G36*
X246746Y242202D02*
X257162Y252618D01*
X262550Y247230D01*
X252134Y236814D01*
X246746Y242202D01*
G37*
G36*
X252403Y236545D02*
X262819Y246961D01*
X268207Y241573D01*
X257791Y231157D01*
X252403Y236545D01*
G37*
G36*
X258059Y230888D02*
X268475Y241304D01*
X273863Y235916D01*
X263447Y225500D01*
X258059Y230888D01*
G37*
G36*
X263716Y225231D02*
X274132Y235647D01*
X279520Y230259D01*
X269104Y219843D01*
X263716Y225231D01*
G37*
G36*
X269373Y219574D02*
X279789Y229990D01*
X285177Y224602D01*
X274761Y214186D01*
X269373Y219574D01*
G37*
G36*
X275030Y213917D02*
X285446Y224333D01*
X290834Y218945D01*
X280418Y208529D01*
X275030Y213917D01*
G37*
G36*
X280687Y208261D02*
X291103Y218677D01*
X296491Y213289D01*
X286075Y202873D01*
X280687Y208261D01*
G37*
G36*
X286344Y202604D02*
X296760Y213020D01*
X302148Y207632D01*
X291732Y197216D01*
X286344Y202604D01*
G37*
D12*
G36*
X307452Y207632D02*
X312840Y213020D01*
X323256Y202604D01*
X317868Y197216D01*
X307452Y207632D01*
G37*
G36*
X313109Y213289D02*
X318497Y218677D01*
X328913Y208261D01*
X323525Y202873D01*
X313109Y213289D01*
G37*
G36*
X318766Y218945D02*
X324154Y224333D01*
X334570Y213917D01*
X329182Y208529D01*
X318766Y218945D01*
G37*
G36*
X324423Y224602D02*
X329811Y229990D01*
X340227Y219574D01*
X334839Y214186D01*
X324423Y224602D01*
G37*
G36*
X330080Y230259D02*
X335468Y235647D01*
X345884Y225231D01*
X340496Y219843D01*
X330080Y230259D01*
G37*
G36*
X335737Y235916D02*
X341125Y241304D01*
X351541Y230888D01*
X346153Y225500D01*
X335737Y235916D01*
G37*
G36*
X341393Y241573D02*
X346781Y246961D01*
X357197Y236545D01*
X351809Y231157D01*
X341393Y241573D01*
G37*
G36*
X347050Y247230D02*
X352438Y252618D01*
X362854Y242202D01*
X357466Y236814D01*
X347050Y247230D01*
G37*
D13*
X544177Y312560D03*
X544177Y292560D03*
X544177Y272560D03*
X544177Y252560D03*
X544177Y232560D03*
X544177Y212560D03*
X544177Y192560D03*
X544177Y172560D03*
X544177Y152560D03*
X544177Y132560D03*
X544177Y112560D03*
X544177Y92560D03*
X544177Y72560D03*
X544177Y52560D03*
X544177Y32560D03*
X544177Y12560D03*
X14003Y312560D03*
X14003Y292560D03*
X14003Y272560D03*
X14003Y252560D03*
X14003Y232560D03*
X14003Y212560D03*
X14003Y192560D03*
X14003Y172560D03*
X14003Y152560D03*
X14003Y132560D03*
X14003Y112560D03*
X14003Y92560D03*
X14003Y72560D03*
X14003Y52560D03*
X14003Y32560D03*
X14003Y12560D03*
D10*
X109728Y288290D03*
X109728Y275590D03*
X109728Y262890D03*
X109728Y250190D03*
X109728Y237490D03*
X109728Y224790D03*
X109728Y212090D03*
X109728Y199390D03*
X156972Y199390D03*
X156972Y212090D03*
X156972Y224790D03*
X156972Y237490D03*
X156972Y250190D03*
X156972Y262890D03*
X156972Y275590D03*
X156972Y288290D03*
D14*
X419980Y284480D03*
X402980Y284480D03*
X419980Y307340D03*
X402980Y307340D03*
X149470Y307340D03*
X132470Y307340D03*
X441080Y19050D03*
X458080Y19050D03*
X394580Y246380D03*
X377580Y246380D03*
X354720Y207010D03*
X371720Y207010D03*
X374260Y307340D03*
X357260Y307340D03*
X427110Y218440D03*
X444110Y218440D03*
X427110Y237490D03*
X444110Y237490D03*
X207400Y280670D03*
X224400Y280670D03*
X39760Y308610D03*
X56760Y308610D03*
X39760Y292100D03*
X56760Y292100D03*
D15*
X435610Y154940D03*
X435610Y180340D03*
D16*
X393700Y158750D03*
X393700Y31750D03*
D17*
X463366Y265980D03*
X440366Y302980D03*
X440366Y265980D03*
X463366Y302980D03*
D18*
X497840Y303480D03*
X497840Y265480D03*
D12*
X483362Y213106D03*
X492760Y213106D03*
X502158Y213106D03*
X502158Y239014D03*
X492760Y239014D03*
X483362Y239014D03*
D15*
X83820Y20320D03*
X83820Y45720D03*
X83820Y71120D03*
X83820Y96520D03*
X83820Y121920D03*
X83820Y147320D03*
D19*
X45720Y29800D03*
X45720Y71800D03*
D20*
X45720Y50800D03*
D21*
X382270Y281940D03*
X101600Y175260D03*
X365760Y289560D03*
X133350Y227965D03*
X181610Y238125D03*
X471170Y229870D03*
X500380Y190500D03*
X406400Y254000D03*
X266700Y200660D03*
X88900Y309880D03*
X45720Y15240D03*
X480060Y284480D03*
X304800Y309880D03*
X294640Y271780D03*
X450850Y63500D03*
X309880Y289560D03*
X450850Y88900D03*
X339090Y307340D03*
X417350Y76200D03*
X193040Y238125D03*
X203835Y230505D03*
X214630Y222885D03*
X302260Y281940D03*
X450850Y50800D03*
X225425Y263525D03*
X58420Y199390D03*
X214630Y254635D03*
X203200Y246380D03*
X53340Y177800D03*
X236855Y272415D03*
X58420Y212090D03*
X393700Y198120D03*
X251460Y207645D03*
X237490Y207645D03*
X398780Y208280D03*
X225425Y215265D03*
X425450Y25400D03*
X345440Y297180D03*
X378460Y264160D03*
X58420Y236220D03*
X33020Y276860D03*
X104775Y309880D03*
X167640Y309880D03*
X500380Y226060D03*
X79375Y300990D03*
X320040Y246380D03*
X69215Y292100D03*
X294640Y231140D03*
X307340Y238760D03*
X58170Y223905D03*
X45720Y91440D03*
M02*
