M48
;GenerationSoftware,Autodesk,EAGLE,9.6.2*%
;CreationDate,2021-09-13T07:58:56Z*%
FMAT,2
ICI,OFF
METRIC,TZ,000.000
T4C0.350
T3C0.600
T2C0.900
T1C1.016
%
G90
M71
T1
X8382Y14732
X8382Y12192
X8382Y9652
X8382Y7112
X8382Y4572
X8382Y2032
X43561Y15494
X43561Y18034
T2
X1400Y23256
X1400Y31256
X1400Y1256
X1400Y3256
X1400Y5256
X1400Y7256
X1400Y9256
X1400Y11256
X1400Y13256
X1400Y15256
X1400Y17256
X1400Y19256
X1400Y21256
X54418Y29256
X1400Y25256
X1400Y27256
X1400Y29256
X54418Y31256
X54418Y1256
X54418Y3256
X54418Y5256
X54418Y7256
X54418Y9256
X54418Y11256
X54418Y13256
X54418Y15256
X54418Y17256
X54418Y19256
X54418Y21256
X54418Y23256
X54418Y25256
X54418Y27256
T3
X39370Y15875
X39370Y3175
T4
X16764Y30988
X50038Y22606
X7937Y30099
X32004Y24638
X38227Y28194
X29464Y23114
X30734Y23876
X5817Y22390
X4572Y9144
X10478Y30988
X3302Y27686
X5842Y23622
X37846Y26416
X34544Y29718
X42545Y2540
X22542Y21527
X39878Y20828
X23749Y20765
X25146Y20765
X39370Y19812
X5842Y21209
X23685Y27241
X5334Y17780
X20320Y24638
X21463Y25463
X5842Y19939
X22542Y26352
X45085Y5080
X30226Y28194
X21463Y22288
X20384Y23050
X19304Y23812
X41735Y7620
X33909Y30734
X45085Y8890
X30988Y28956
X45085Y6350
X29464Y27178
X30480Y30988
X48006Y28448
X4572Y1524
X8890Y30988
X26670Y20066
X40640Y25400
X50038Y19050
X47117Y22987
X18161Y23812
X13335Y22796
X36576Y28956
X10160Y17526
X6921Y29210
M30