G04 EAGLE Gerber RS-274X export*
G75*
%MOMM*%
%FSLAX34Y34*%
%LPD*%
%IN*%
%IPPOS*%
%AMOC8*
5,1,8,0,0,1.08239X$1,22.5*%
G01*
%ADD10C,0.000000*%


D10*
X0Y0D02*
X119000Y0D01*
X119000Y186000D01*
X372000Y186000D01*
X372000Y0D01*
X558000Y0D01*
X558000Y325000D01*
X0Y325000D01*
X0Y0D01*
X117250Y186000D02*
X117252Y186083D01*
X117258Y186166D01*
X117268Y186249D01*
X117282Y186331D01*
X117299Y186413D01*
X117321Y186493D01*
X117346Y186572D01*
X117375Y186650D01*
X117408Y186727D01*
X117445Y186802D01*
X117484Y186875D01*
X117528Y186946D01*
X117574Y187015D01*
X117624Y187082D01*
X117677Y187146D01*
X117733Y187208D01*
X117792Y187267D01*
X117854Y187323D01*
X117918Y187376D01*
X117985Y187426D01*
X118054Y187472D01*
X118125Y187516D01*
X118198Y187555D01*
X118273Y187592D01*
X118350Y187625D01*
X118428Y187654D01*
X118507Y187679D01*
X118587Y187701D01*
X118669Y187718D01*
X118751Y187732D01*
X118834Y187742D01*
X118917Y187748D01*
X119000Y187750D01*
X119083Y187748D01*
X119166Y187742D01*
X119249Y187732D01*
X119331Y187718D01*
X119413Y187701D01*
X119493Y187679D01*
X119572Y187654D01*
X119650Y187625D01*
X119727Y187592D01*
X119802Y187555D01*
X119875Y187516D01*
X119946Y187472D01*
X120015Y187426D01*
X120082Y187376D01*
X120146Y187323D01*
X120208Y187267D01*
X120267Y187208D01*
X120323Y187146D01*
X120376Y187082D01*
X120426Y187015D01*
X120472Y186946D01*
X120516Y186875D01*
X120555Y186802D01*
X120592Y186727D01*
X120625Y186650D01*
X120654Y186572D01*
X120679Y186493D01*
X120701Y186413D01*
X120718Y186331D01*
X120732Y186249D01*
X120742Y186166D01*
X120748Y186083D01*
X120750Y186000D01*
X120748Y185917D01*
X120742Y185834D01*
X120732Y185751D01*
X120718Y185669D01*
X120701Y185587D01*
X120679Y185507D01*
X120654Y185428D01*
X120625Y185350D01*
X120592Y185273D01*
X120555Y185198D01*
X120516Y185125D01*
X120472Y185054D01*
X120426Y184985D01*
X120376Y184918D01*
X120323Y184854D01*
X120267Y184792D01*
X120208Y184733D01*
X120146Y184677D01*
X120082Y184624D01*
X120015Y184574D01*
X119946Y184528D01*
X119875Y184484D01*
X119802Y184445D01*
X119727Y184408D01*
X119650Y184375D01*
X119572Y184346D01*
X119493Y184321D01*
X119413Y184299D01*
X119331Y184282D01*
X119249Y184268D01*
X119166Y184258D01*
X119083Y184252D01*
X119000Y184250D01*
X118917Y184252D01*
X118834Y184258D01*
X118751Y184268D01*
X118669Y184282D01*
X118587Y184299D01*
X118507Y184321D01*
X118428Y184346D01*
X118350Y184375D01*
X118273Y184408D01*
X118198Y184445D01*
X118125Y184484D01*
X118054Y184528D01*
X117985Y184574D01*
X117918Y184624D01*
X117854Y184677D01*
X117792Y184733D01*
X117733Y184792D01*
X117677Y184854D01*
X117624Y184918D01*
X117574Y184985D01*
X117528Y185054D01*
X117484Y185125D01*
X117445Y185198D01*
X117408Y185273D01*
X117375Y185350D01*
X117346Y185428D01*
X117321Y185507D01*
X117299Y185587D01*
X117282Y185669D01*
X117268Y185751D01*
X117258Y185834D01*
X117252Y185917D01*
X117250Y186000D01*
X370250Y186000D02*
X370252Y186083D01*
X370258Y186166D01*
X370268Y186249D01*
X370282Y186331D01*
X370299Y186413D01*
X370321Y186493D01*
X370346Y186572D01*
X370375Y186650D01*
X370408Y186727D01*
X370445Y186802D01*
X370484Y186875D01*
X370528Y186946D01*
X370574Y187015D01*
X370624Y187082D01*
X370677Y187146D01*
X370733Y187208D01*
X370792Y187267D01*
X370854Y187323D01*
X370918Y187376D01*
X370985Y187426D01*
X371054Y187472D01*
X371125Y187516D01*
X371198Y187555D01*
X371273Y187592D01*
X371350Y187625D01*
X371428Y187654D01*
X371507Y187679D01*
X371587Y187701D01*
X371669Y187718D01*
X371751Y187732D01*
X371834Y187742D01*
X371917Y187748D01*
X372000Y187750D01*
X372083Y187748D01*
X372166Y187742D01*
X372249Y187732D01*
X372331Y187718D01*
X372413Y187701D01*
X372493Y187679D01*
X372572Y187654D01*
X372650Y187625D01*
X372727Y187592D01*
X372802Y187555D01*
X372875Y187516D01*
X372946Y187472D01*
X373015Y187426D01*
X373082Y187376D01*
X373146Y187323D01*
X373208Y187267D01*
X373267Y187208D01*
X373323Y187146D01*
X373376Y187082D01*
X373426Y187015D01*
X373472Y186946D01*
X373516Y186875D01*
X373555Y186802D01*
X373592Y186727D01*
X373625Y186650D01*
X373654Y186572D01*
X373679Y186493D01*
X373701Y186413D01*
X373718Y186331D01*
X373732Y186249D01*
X373742Y186166D01*
X373748Y186083D01*
X373750Y186000D01*
X373748Y185917D01*
X373742Y185834D01*
X373732Y185751D01*
X373718Y185669D01*
X373701Y185587D01*
X373679Y185507D01*
X373654Y185428D01*
X373625Y185350D01*
X373592Y185273D01*
X373555Y185198D01*
X373516Y185125D01*
X373472Y185054D01*
X373426Y184985D01*
X373376Y184918D01*
X373323Y184854D01*
X373267Y184792D01*
X373208Y184733D01*
X373146Y184677D01*
X373082Y184624D01*
X373015Y184574D01*
X372946Y184528D01*
X372875Y184484D01*
X372802Y184445D01*
X372727Y184408D01*
X372650Y184375D01*
X372572Y184346D01*
X372493Y184321D01*
X372413Y184299D01*
X372331Y184282D01*
X372249Y184268D01*
X372166Y184258D01*
X372083Y184252D01*
X372000Y184250D01*
X371917Y184252D01*
X371834Y184258D01*
X371751Y184268D01*
X371669Y184282D01*
X371587Y184299D01*
X371507Y184321D01*
X371428Y184346D01*
X371350Y184375D01*
X371273Y184408D01*
X371198Y184445D01*
X371125Y184484D01*
X371054Y184528D01*
X370985Y184574D01*
X370918Y184624D01*
X370854Y184677D01*
X370792Y184733D01*
X370733Y184792D01*
X370677Y184854D01*
X370624Y184918D01*
X370574Y184985D01*
X370528Y185054D01*
X370484Y185125D01*
X370445Y185198D01*
X370408Y185273D01*
X370375Y185350D01*
X370346Y185428D01*
X370321Y185507D01*
X370299Y185587D01*
X370282Y185669D01*
X370268Y185751D01*
X370258Y185834D01*
X370252Y185917D01*
X370250Y186000D01*
M02*
